<svg width="20" height="18" viewBox="0 0 20 18" fill="none" xmlns="http://www.w3.org/2000/svg">
<path d="M10 18C9.7 18 9.41267 17.946 9.138 17.838C8.86333 17.73 8.61733 17.5673 8.4 17.35L1.7 10.625C1.11667 10.0417 0.687667 9.375 0.413 8.625C0.138333 7.875 0.000666667 7.09167 0 6.275C0 4.55833 0.558333 3.08333 1.675 1.85C2.79167 0.616667 4.18333 0 5.85 0C6.65 0 7.40433 0.158333 8.113 0.475C8.82167 0.791667 9.45067 1.23333 10 1.8C10.5333 1.23333 11.1543 0.791667 11.863 0.475C12.5717 0.158333 13.3257 0 14.125 0C15.7917 0 17.1877 0.616667 18.313 1.85C19.4383 3.08333 20.0007 4.55 20 6.25C20 7.06667 19.8583 7.85 19.575 8.6C19.2917 9.35 18.8667 10.0167 18.3 10.6L11.575 17.35C11.3583 17.5667 11.1167 17.7293 10.85 17.838C10.5833 17.9467 10.3 18.0007 10 18ZM11 5C11.1667 5 11.325 5.04167 11.475 5.125C11.625 5.20833 11.7417 5.31667 11.825 5.45L13.525 8H17.675C17.7917 7.71667 17.8793 7.42933 17.938 7.138C17.9967 6.84667 18.0257 6.55067 18.025 6.25C17.9917 5.1 17.6083 4.11233 16.875 3.287C16.1417 2.46167 15.225 2.04933 14.125 2.05C13.6083 2.05 13.1127 2.15 12.638 2.35C12.1633 2.55 11.7507 2.84167 11.4 3.225L10.725 3.95C10.6417 4.05 10.5333 4.12933 10.4 4.188C10.2667 4.24667 10.1333 4.27567 10 4.275C9.86667 4.27433 9.73333 4.24533 9.6 4.188C9.46667 4.13067 9.35 4.05133 9.25 3.95L8.575 3.225C8.225 2.84167 7.81667 2.54167 7.35 2.325C6.88333 2.10833 6.38333 2 5.85 2C4.75 2 3.83333 2.421 3.1 3.263C2.36667 4.105 2 5.10067 2 6.25C2 6.55 2.025 6.846 2.075 7.138C2.125 7.43 2.20833 7.71733 2.325 8H7C7.16667 8 7.325 8.04167 7.475 8.125C7.625 8.20833 7.74167 8.31667 7.825 8.45L8.7 9.75L10.05 5.7C10.1167 5.5 10.2373 5.33333 10.412 5.2C10.5867 5.06667 10.7827 5 11 5ZM11.3 8.25L9.95 12.3C9.88333 12.5 9.75833 12.6667 9.575 12.8C9.39167 12.9333 9.19167 13 8.975 13C8.80833 13 8.65 12.9583 8.5 12.875C8.35 12.7917 8.23333 12.6833 8.15 12.55L6.45 10H3.9L9.825 15.925C9.85833 15.9583 9.88767 15.9793 9.913 15.988C9.93833 15.9967 9.96733 16.0007 10 16C10.0327 15.9993 10.062 15.9953 10.088 15.988C10.114 15.9807 10.143 15.9597 10.175 15.925L16.075 10H13C12.8333 10 12.675 9.95833 12.525 9.875C12.375 9.79167 12.25 9.68333 12.15 9.55L11.3 8.25Z" fill="black"/>
</svg>
