<svg width="17" height="22" viewBox="0 0 17 22" fill="none" xmlns="http://www.w3.org/2000/svg">
<path d="M12.0873 7.69525C12.0873 6.52591 13.6439 6.21547 14.0564 7.31089C15.0557 9.95705 15.783 12.3283 15.783 13.6085C15.783 15.5688 15.0043 17.4489 13.6181 18.8351C12.2319 20.2212 10.3519 21 8.39151 21C6.43116 21 4.5511 20.2212 3.16492 18.8351C1.77875 17.4489 1 15.5688 1 13.6085C1 12.2336 1.83968 9.60078 2.95432 6.71513C4.39566 2.97798 5.11707 1.10941 6.00849 1.00889C6.29232 0.976363 6.60425 1.03402 6.85851 1.16706C7.65236 1.58099 7.65236 3.61957 7.65236 7.69525C7.65236 8.28336 7.88599 8.84737 8.30184 9.26323C8.71769 9.67908 9.28171 9.9127 9.86982 9.9127C10.4579 9.9127 11.0219 9.67908 11.4378 9.26323C11.8536 8.84737 12.0873 8.28336 12.0873 7.69525Z" stroke="black" stroke-width="1.5"/>
<path d="M6.91306 21L6.52427 20.0288C6.1925 19.2018 6.08652 18.3016 6.21718 17.4202C6.34784 16.5388 6.71045 15.708 7.26785 15.0129C7.4026 14.8443 7.57356 14.7082 7.76804 14.6147C7.96253 14.5212 8.17556 14.4727 8.39136 14.4727C8.60717 14.4727 8.8202 14.5212 9.01469 14.6147C9.20917 14.7082 9.38012 14.8443 9.51487 15.0129C10.6473 16.4291 10.9311 18.345 10.2585 20.0288L9.86967 21" stroke="black" stroke-width="1.5"/>
</svg>
