<svg width="20" height="20" viewBox="0 0 20 20" fill="none" xmlns="http://www.w3.org/2000/svg">
<path fill-rule="evenodd" clip-rule="evenodd" d="M4.0872 7.49907C4.08741 5.80647 4.66016 4.1637 5.71231 2.83786C6.76446 1.51201 8.23416 0.581049 9.88245 0.196321C11.5307 -0.188407 13.2607 -0.00427473 14.7911 0.718782C16.3215 1.44184 17.5623 2.6613 18.3118 4.17891C19.0613 5.69652 19.2754 7.42303 18.9194 9.07775C18.5633 10.7325 17.658 12.2181 16.3506 13.2931C15.0432 14.3681 13.4106 14.9693 11.7183 14.9989C10.026 15.0284 8.37337 14.4847 7.0292 13.4561L5.2412 15.2431L6.6672 16.6691C6.76271 16.7613 6.83889 16.8717 6.8913 16.9937C6.94371 17.1157 6.9713 17.2469 6.97245 17.3797C6.97361 17.5124 6.94831 17.6441 6.89802 17.767C6.84774 17.8899 6.77349 18.0016 6.6796 18.0955C6.5857 18.1894 6.47405 18.2636 6.35116 18.3139C6.22826 18.3642 6.09658 18.3895 5.9638 18.3883C5.83102 18.3872 5.6998 18.3596 5.5778 18.3072C5.45579 18.2548 5.34545 18.1786 5.2532 18.0831L3.8272 16.6581L1.7072 18.7781C1.51956 18.9656 1.26512 19.0709 0.999849 19.0708C0.734579 19.0707 0.480211 18.9652 0.292703 18.7776C0.105195 18.5899 -9.37028e-05 18.3355 6.25739e-08 18.0702C9.3828e-05 17.8049 0.105562 17.5506 0.293203 17.3631L2.4132 15.2431L1.0102 13.8401C0.914693 13.7478 0.83851 13.6375 0.786101 13.5155C0.733692 13.3935 0.706106 13.2622 0.704952 13.1295C0.703798 12.9967 0.7291 12.865 0.779381 12.7421C0.829662 12.6192 0.903915 12.5076 0.997808 12.4137C1.0917 12.3198 1.20335 12.2455 1.32625 12.1952C1.44915 12.145 1.58082 12.1197 1.7136 12.1208C1.84638 12.122 1.9776 12.1496 2.09961 12.202C2.22161 12.2544 2.33196 12.3306 2.4242 12.4261L3.8272 13.8291L5.6172 12.0391C4.62259 10.7348 4.08492 9.13933 4.0872 7.49907ZM11.5872 1.99907C10.1285 1.99907 8.72956 2.57853 7.69811 3.60998C6.66667 4.64143 6.0872 6.04038 6.0872 7.49907C6.0872 8.95776 6.66667 10.3567 7.69811 11.3882C8.72956 12.4196 10.1285 12.9991 11.5872 12.9991C13.0459 12.9991 14.4448 12.4196 15.4763 11.3882C16.5077 10.3567 17.0872 8.95776 17.0872 7.49907C17.0872 6.04038 16.5077 4.64143 15.4763 3.60998C14.4448 2.57853 13.0459 1.99907 11.5872 1.99907Z" fill="black"/>
</svg>
