<svg width="20" height="20" viewBox="0 0 20 20" fill="none" xmlns="http://www.w3.org/2000/svg">
<path id="Vector" d="M12.5113 7.46531C11.883 6.84001 11.1377 6.3446 10.3179 6.00736C9.49816 5.67011 8.62001 5.49764 7.7336 5.49978C6.8472 5.50192 5.96989 5.67864 5.15177 6.01984C4.33366 6.36104 3.59076 6.86005 2.96549 7.48837C2.34022 8.11669 1.84482 8.86201 1.50758 9.68179C1.17035 10.5016 0.997878 11.3798 1.00002 12.2662C1.00216 13.1526 1.17887 14.03 1.52006 14.8481C1.86126 15.6662 2.36025 16.4092 2.98855 17.0345C4.25746 18.2973 5.97604 19.0043 7.76622 19C9.5564 18.9957 11.2715 18.2803 12.5343 17.0114C13.7971 15.7424 14.5041 14.0238 14.4998 12.2336C14.4955 10.4433 13.7802 8.72814 12.5113 7.46531ZM12.5113 7.46531L19 1M19 1H14.5002M19 1V5.49995" stroke="black" stroke-width="2" stroke-linecap="round" stroke-linejoin="round"/>
</svg>
