<svg width="20" height="20" viewBox="0 0 20 20" fill="none" xmlns="http://www.w3.org/2000/svg">
<path d="M1 12C1.83 12.642 3.077 13.017 4.5 13C5.923 13.017 7.17 12.642 8 12C8.83 11.358 10.077 10.983 11.5 11C12.923 10.983 14.17 11.358 15 12M6 1C5.68351 1.22717 5.42707 1.52797 5.25285 1.87642C5.07862 2.22488 4.99184 2.6105 5 3C4.99184 3.3895 5.07862 3.77512 5.25285 4.12358C5.42707 4.47203 5.68351 4.77283 6 5M10 1C9.68351 1.22717 9.42707 1.52797 9.25285 1.87642C9.07862 2.22488 8.99184 2.6105 9 3C8.99184 3.3895 9.07862 3.77512 9.25285 4.12358C9.42707 4.47203 9.68351 4.77283 10 5M14.746 14.726C15.1926 14.931 15.6827 15.0232 16.1733 14.9944C16.6638 14.9656 17.1398 14.8168 17.5594 14.561C17.979 14.3051 18.3293 13.9502 18.5795 13.5273C18.8297 13.1043 18.9723 12.6264 18.9945 12.1355C19.0168 11.6446 18.9181 11.1558 18.7072 10.7119C18.4963 10.2681 18.1796 9.88284 17.7849 9.59008C17.3902 9.29732 16.9297 9.10599 16.4437 9.03292C15.9578 8.95984 15.4613 9.00726 14.998 9.171M1 8H15V13C15 14.5913 14.3679 16.1174 13.2426 17.2426C12.1174 18.3679 10.5913 19 9 19H7C5.4087 19 3.88258 18.3679 2.75736 17.2426C1.63214 16.1174 1 14.5913 1 13V8Z" stroke="black" stroke-width="2" stroke-linecap="round" stroke-linejoin="round"/>
</svg>
