<svg width="18" height="18" viewBox="0 0 18 18" fill="none" xmlns="http://www.w3.org/2000/svg">
<path fill-rule="evenodd" clip-rule="evenodd" d="M9.79932 4.8529L10.568 4.08484C10.3957 3.72721 10.3001 3.33756 10.2873 2.94086C10.2745 2.54416 10.3448 2.14917 10.4937 1.7812C10.6426 1.41323 10.8668 1.08041 11.152 0.804054C11.4371 0.527702 11.7769 0.313923 12.1495 0.176419C12.5221 0.0389148 12.9194 -0.0192807 13.3159 0.00556285C13.7123 0.0304065 14.0992 0.137741 14.4517 0.320686C14.8043 0.503632 15.1146 0.758152 15.363 1.06793C15.6113 1.37771 15.7921 1.73592 15.8939 2.11959C16.276 2.22286 16.6323 2.40451 16.9403 2.65297C17.2483 2.90143 17.5011 3.21126 17.6826 3.56271C17.8642 3.91416 17.9705 4.29954 17.9947 4.69429C18.019 5.08904 17.9607 5.48452 17.8236 5.85554C17.6865 6.22655 17.4736 6.56497 17.1984 6.84923C16.9231 7.1335 16.5917 7.35737 16.2251 7.50661C15.8586 7.65584 15.4649 7.72716 15.0692 7.71601C14.6735 7.70487 14.2845 7.61152 13.927 7.44189L13.1582 8.20995L13.163 8.24223C13.2732 9.12137 13.2077 10.0992 13.0176 11.06C12.6423 12.9598 11.7377 15 10.4521 16.2836C9.15413 17.5805 7.62242 18.1159 6.08976 17.9792C4.58561 17.8453 3.18122 17.0735 2.05429 15.9475C0.927366 14.8225 0.15581 13.4193 0.0208823 11.9154C-0.115945 10.3841 0.419963 8.85364 1.71793 7.55677C3.00354 6.27224 5.0455 5.36937 6.94589 4.99341C7.90843 4.80353 8.88618 4.73802 9.76701 4.8491L9.79932 4.8529ZM15.0966 3.92344C14.8818 3.66434 16.0963 4.7656 16.2251 4.64477C16.5714 5.2403 15.8805 5.50034 15.6212 5.715C15.1461 5.715 14.6691 5.70192 14.2618 5.54216C13.927 5.715 12.9263 5.28306 13.1411 5.54216L12.4409 6.24091C12.2547 5.98232 12.0279 5.75564 11.7691 5.56969L12.4684 4.87094C12.6465 4.6929 12.7466 4.45146 12.7466 4.19971C12.7466 3.94797 12.6465 3.70653 12.4684 3.52849C12.3561 3.41631 12.2737 3.27779 12.2288 3.12559C12.1839 2.97339 12.1779 2.81238 12.2113 2.65725C12.2447 2.50213 12.3165 2.35786 12.4201 2.23761C12.5237 2.11736 12.6559 2.02499 12.8044 1.96892C12.953 1.91285 13.1133 1.89488 13.2706 1.91666C13.4279 1.93843 13.5772 1.99925 13.7049 2.09356C13.8327 2.18787 13.9347 2.31265 14.0017 2.45652C14.0687 2.60038 14.0985 2.75872 14.0885 2.91708C14.0801 3.05141 14.1005 3.18597 14.1481 3.31184C14.1958 3.43772 14.2697 3.55203 14.365 3.64719C14.4602 3.74236 14.5746 3.8162 14.7006 3.86383C14.8266 3.91145 14.9622 3.93177 15.0966 3.92344ZM3.06245 8.89826C4.00314 7.95836 5.65648 7.18366 7.31456 6.85707C8.13173 6.69567 8.89948 6.6539 9.52851 6.73365C10.1718 6.8134 10.5747 7.00707 10.7885 7.22069C11.0023 7.4343 11.1961 7.83779 11.2769 8.47958C11.3567 9.10903 11.3149 9.87519 11.1533 10.6917C10.8255 12.3474 10.0502 14.0003 9.10853 14.9412C8.18114 15.8687 7.19294 16.1716 6.2589 16.088C5.29635 16.0026 4.28725 15.4937 3.39882 14.6051C2.50849 13.7174 2.00013 12.7082 1.91367 11.7474C1.83005 10.8132 2.13411 9.82677 3.06245 8.89921V8.89826Z" fill="black"/>
</svg>
