<svg width="18" height="18" viewBox="0 0 18 18" fill="none" xmlns="http://www.w3.org/2000/svg">
<path d="M9.64398 8.03665C9.64398 7.84591 9.70054 7.65945 9.80651 7.50086C9.91248 7.34226 10.0631 7.21865 10.2393 7.14566C10.4155 7.07267 10.6094 7.05357 10.7965 7.09078C10.9836 7.12799 11.1554 7.21984 11.2903 7.35471C11.4252 7.48959 11.517 7.66143 11.5542 7.8485C11.5915 8.03558 11.5724 8.22949 11.4994 8.40571C11.4264 8.58193 11.3028 8.73254 11.1442 8.83851C10.9856 8.94448 10.7991 9.00104 10.6084 9.00104C10.3526 9.00104 10.1073 8.89944 9.92644 8.71858C9.74558 8.53772 9.64398 8.29242 9.64398 8.03665ZM16.7002 5.57583C16.5889 7.20157 15.8651 8.7246 14.6748 9.83758C13.4846 10.9506 11.9165 11.5707 10.2869 11.5728H7.71518C7.45941 11.5728 7.21411 11.6744 7.03325 11.8552C6.85239 12.0361 6.75078 12.2814 6.75078 12.5372C6.75078 12.7929 6.85239 13.0382 7.03325 13.2191C7.21411 13.4 7.45941 13.5016 7.71518 13.5016H12.2157C12.3862 13.5016 12.5498 13.5693 12.6703 13.6899C12.7909 13.8104 12.8586 13.974 12.8586 14.1445C12.8586 14.315 12.7909 14.4785 12.6703 14.5991C12.5498 14.7197 12.3862 14.7874 12.2157 14.7874H8.35811V16.0733H10.9298C11.1004 16.0733 11.2639 16.141 11.3845 16.2616C11.505 16.3822 11.5728 16.5457 11.5728 16.7162C11.5728 16.8867 11.505 17.0503 11.3845 17.1708C11.2639 17.2914 11.1004 17.3592 10.9298 17.3592H6.42932C4.72416 17.3592 3.08883 16.6818 1.8831 15.4761C0.677373 14.2703 0 12.635 0 10.9298C0 9.22468 0.677373 7.58936 1.8831 6.38363C3.08883 5.1779 4.72416 4.50052 6.42932 4.50052H15.7518C16.0076 4.50052 16.2529 4.39892 16.4338 4.21806C16.6146 4.0372 16.7162 3.7919 16.7162 3.53612C16.7162 3.28035 16.6146 3.03505 16.4338 2.85419C16.2529 2.67333 16.0076 2.57173 15.7518 2.57173H9.00104C8.4895 2.57173 7.9989 2.36852 7.63718 2.0068C7.27546 1.64508 7.07225 1.15448 7.07225 0.642932C7.07225 0.472416 7.13999 0.308883 7.26056 0.18831C7.38113 0.0677372 7.54466 0 7.71518 0C7.8857 0 8.04923 0.0677372 8.1698 0.18831C8.29038 0.308883 8.35811 0.472416 8.35811 0.642932C8.35811 0.813448 8.42585 0.97698 8.54642 1.09755C8.667 1.21813 8.83053 1.28586 9.00104 1.28586H15.7518C16.2639 1.28634 16.7605 1.46145 17.1596 1.78226C17.5587 2.10308 17.8364 2.55042 17.947 3.05041C18.0575 3.55041 17.9942 4.07314 17.7675 4.53229C17.5408 4.99144 17.1643 5.35955 16.7002 5.57583ZM2.79675 14.5696L5.46653 12.6625V12.5372C5.46607 12.3341 5.4931 12.1319 5.54689 11.936L1.36623 10.0354C1.22084 10.8508 1.27533 11.6892 1.52504 12.479C1.77475 13.2687 2.21222 13.9861 2.79997 14.5696H2.79675ZM5.93105 13.9106L3.86723 15.387C4.64599 15.8372 5.52978 16.074 6.42932 16.0733H7.07225V14.6934C6.62055 14.5576 6.22264 14.2839 5.93426 13.9106H5.93105ZM7.07225 10.3809V5.78639H6.42932C5.44281 5.78749 4.47739 6.07196 3.64791 6.60596C2.81842 7.13995 2.1598 7.90098 1.75038 8.79852L6.24046 10.839C6.48198 10.6289 6.76556 10.4727 7.07225 10.3809ZM15.3902 5.78639H8.35811V10.2869H10.2869C11.5393 10.2854 12.7482 9.82764 13.6875 8.99929C14.6268 8.17094 15.2321 7.02874 15.3902 5.78639Z" fill="black"/>
</svg>
