<svg width="18" height="20" viewBox="0 0 18 20" fill="none" xmlns="http://www.w3.org/2000/svg">
<path d="M1 9.319C1 12.421 1.444 14.638 3.222 17.297C4.573 19.094 6.378 19.544 8.302 18.285C8.728 18.017 9.272 18.017 9.699 18.285C11.622 19.545 13.427 19.094 14.778 17.297C16.556 14.637 17 12.421 17 9.32C17 6.659 15.01 4 12.556 4C11.289 4 10.146 4.693 9.336 5.44C9.244 5.52348 9.12423 5.56972 9 5.56972C8.87577 5.56972 8.756 5.52348 8.664 5.44C7.855 4.694 6.711 4 5.444 4C2.99 4 1 6.66 1 9.319Z" stroke="black" stroke-width="2" stroke-linecap="round" stroke-linejoin="round"/>
<path d="M4 10C4 8.53 4.454 7.66 5.5 7M9 5C9 3.8 9.867 1 12 1" stroke="black" stroke-width="2" stroke-linecap="round" stroke-linejoin="round"/>
</svg>
