<svg width="20" height="19" viewBox="0 0 20 19" fill="none" xmlns="http://www.w3.org/2000/svg">
<path d="M6.49695 11.3553L4.72792 9.59491M12.2787 12.2183L10.1558 10.0954M11.9856 7.04062C11.9856 7.04062 13.5907 5.31473 15.0059 5.31473C16.8785 5.31473 18.0262 7.04062 18.0262 7.04062C18.0262 7.04062 16.8785 8.76651 15.0059 8.76651C13.1333 8.76651 11.9856 7.04062 11.9856 7.04062ZM11.9856 7.04062C11.9856 7.04062 10.26 5.89289 10.26 4.0203C10.26 2.14772 11.9859 1 11.9859 1C11.9859 1 13.7118 2.14772 13.7118 4.0203C13.7118 5.45279 11.9856 7.04062 11.9856 7.04062ZM1 18C1 18 9.51726 14.9797 11.9853 12.5117C12.3462 12.1513 12.6326 11.7234 12.8282 11.2523C13.0237 10.7812 13.1246 10.2763 13.125 9.76624C13.1254 9.2562 13.0253 8.75108 12.8305 8.27971C12.6357 7.80834 12.35 7.37996 11.9896 7.01902C11.6292 6.65809 11.2013 6.37167 10.7302 6.17611C10.2592 5.98056 9.75421 5.87971 9.24417 5.8793C8.73413 5.8789 8.22901 5.97897 7.75764 6.17378C7.28627 6.36859 6.85789 6.65434 6.49695 7.01471C4.0203 9.49136 1 18 1 18Z" stroke="black" stroke-width="2" stroke-linecap="round" stroke-linejoin="round"/>
</svg>
