<svg width="21" height="20" viewBox="0 0 21 20" fill="none" xmlns="http://www.w3.org/2000/svg">
<g id="Icon Container">
<path id="Vector" d="M0.20685 4.83893C0.250005 4.85967 0.296824 4.8717 0.34463 4.87434C0.392436 4.87697 0.440294 4.87016 0.485467 4.85429C0.53064 4.83843 0.572244 4.81381 0.6079 4.78186C0.643557 4.74991 0.672567 4.71124 0.693273 4.66807C0.70146 4.65098 1.55059 2.94736 4.24256 3.28908C4.30386 3.29693 4.36615 3.28902 4.42354 3.2661C4.48094 3.24318 4.53154 3.206 4.57057 3.15808C4.99133 2.69106 5.52057 2.33477 6.11159 2.12066C6.70261 1.90656 7.33725 1.8412 7.9595 1.93038C8.01158 1.93842 8.06478 1.93515 8.11548 1.9208C8.16618 1.90644 8.2132 1.88134 8.25334 1.8472C8.29348 1.81305 8.3258 1.77067 8.34809 1.72292C8.37039 1.67517 8.38214 1.62318 8.38255 1.57049V0.729007H12.0297V1.57049C12.0301 1.62319 12.0418 1.6752 12.0641 1.72296C12.0864 1.77072 12.1187 1.81312 12.1589 1.84727C12.199 1.88142 12.2461 1.90652 12.2968 1.92086C12.3475 1.93519 12.4007 1.93844 12.4528 1.93036C13.0752 1.83643 13.7113 1.89954 14.3031 2.11395C14.895 2.32836 15.4239 2.68727 15.8417 3.15808C15.8807 3.20599 15.9313 3.24317 15.9887 3.26609C16.0461 3.28901 16.1084 3.29692 16.1697 3.28907C18.8357 2.95091 19.6852 4.59972 19.719 4.66806C19.7621 4.75318 19.8368 4.81804 19.9271 4.84874C20.0174 4.87943 20.1161 4.87351 20.2022 4.83225C20.2882 4.79099 20.3546 4.71767 20.3872 4.62802C20.4197 4.53836 20.4159 4.43951 20.3765 4.35266C20.3343 4.26476 19.3312 2.24646 16.2682 2.5444C15.8163 2.07605 15.2692 1.71022 14.6637 1.47169C14.0582 1.23316 13.4086 1.12749 12.7587 1.16184V0.364504C12.7587 0.316633 12.7493 0.269229 12.731 0.225C12.7127 0.18077 12.6859 0.140583 12.652 0.106733C12.6182 0.072883 12.578 0.0460344 12.5337 0.0277208C12.4895 0.00940718 12.4421 -1.24389e-05 12.3942 1.23278e-08H8.01805C7.97018 -1.24389e-05 7.92278 0.00940718 7.87855 0.0277208C7.83432 0.0460344 7.79413 0.072883 7.76028 0.106733C7.72643 0.140583 7.69958 0.18077 7.68127 0.225C7.66296 0.269229 7.65354 0.316633 7.65355 0.364504V1.16186C7.00371 1.12763 6.35409 1.23335 5.74864 1.47188C5.14319 1.7104 4.59602 2.07616 4.14413 2.54442C1.08252 2.2447 0.0779946 4.26478 0.0358106 4.3527C-0.00596743 4.43986 -0.0114185 4.54005 0.0206558 4.63123C0.0527302 4.72241 0.119704 4.79712 0.20685 4.83893Z" fill="black" fill-opacity="0.4"/>
<path id="Vector_2" d="M20.0884 12.3888C19.6054 12.3427 18.3449 12.0345 17.9771 11.3446C17.9348 11.3023 17.8829 11.271 17.8258 11.2532C17.7687 11.2354 17.7082 11.2317 17.6494 11.2425C17.5906 11.2532 17.5353 11.2781 17.4882 11.315C17.4411 11.3519 17.4037 11.3996 17.3792 11.4541C17.2375 11.7507 17.0102 11.998 16.7267 12.1643C16.4432 12.3306 16.1164 12.4082 15.7884 12.3871C15.7304 12.385 15.6728 12.3968 15.6203 12.4215C15.5678 12.4463 15.522 12.4831 15.4867 12.5291C15.4513 12.5751 15.4275 12.6289 15.4171 12.686C15.4068 12.7431 15.4102 12.8018 15.4271 12.8573C15.4303 12.8683 15.7409 13.9419 14.5991 14.8816C14.5269 14.9438 14.4818 15.0318 14.4737 15.1268C14.4655 15.2218 14.4949 15.3162 14.5554 15.3899C14.616 15.4635 14.703 15.5104 14.7978 15.5207C14.8926 15.5309 14.9877 15.5037 15.0626 15.4447C15.4264 15.1738 15.7193 14.8189 15.9161 14.4102C16.113 14.0015 16.2079 13.5513 16.1929 13.0979C16.5628 13.0553 16.9167 12.923 17.2238 12.7126C16.9692 13.9159 16.5446 15.0769 15.9629 16.1606L15.465 19.271H10.5705V17.1199C10.5687 17.0244 10.5295 16.9335 10.4614 16.8666C10.3932 16.7997 10.3015 16.7623 10.206 16.7623C10.1105 16.7623 10.0189 16.7997 9.9507 16.8666C9.88254 16.9335 9.84334 17.0245 9.84153 17.1199V19.271H4.94707L4.44908 16.1606C3.86776 15.0767 3.44329 13.9158 3.18836 12.7126C3.49547 12.923 3.84931 13.0553 4.21914 13.0979C4.20413 13.5513 4.29911 14.0015 4.49595 14.4102C4.69279 14.8189 4.98564 15.1739 5.34949 15.4448C5.38646 15.4752 5.42907 15.498 5.47488 15.512C5.52068 15.526 5.56879 15.5308 5.61645 15.5261C5.66412 15.5215 5.7104 15.5075 5.75267 15.485C5.79493 15.4625 5.83235 15.4319 5.86278 15.3949C5.89321 15.3579 5.91605 15.3153 5.93002 15.2695C5.94398 15.2237 5.94879 15.1756 5.94416 15.1279C5.93953 15.0803 5.92556 15.034 5.90304 14.9917C5.88053 14.9495 5.84991 14.9121 5.81293 14.8816C4.68687 13.9547 4.97306 12.8989 4.98498 12.8573C5.00139 12.8018 5.00444 12.7432 4.99387 12.6864C4.9833 12.6295 4.95942 12.576 4.92417 12.5301C4.88893 12.4842 4.84333 12.4473 4.7911 12.4225C4.73887 12.3976 4.6815 12.3855 4.62368 12.3871C3.30302 12.3725 3.13298 11.5044 2.94346 11.3317C2.90329 11.2949 2.85544 11.2675 2.80337 11.2515C2.7513 11.2355 2.69631 11.2313 2.64241 11.2392C2.58852 11.2471 2.53705 11.2669 2.49177 11.2972C2.44648 11.3275 2.4085 11.3674 2.3806 11.4142C2.0088 12.0628 0.769519 12.3379 0.323337 12.3892C0.228824 12.4019 0.14305 12.4511 0.0844071 12.5263C0.0257641 12.6015 -0.00107919 12.6967 0.00963273 12.7915C0.0203446 12.8862 0.067759 12.973 0.141709 13.0332C0.21566 13.0935 0.310259 13.1223 0.405223 13.1136C1.11106 13.0255 1.78996 12.7878 2.39651 12.4162C2.61064 13.7917 3.06511 15.1188 3.73912 16.3368L4.27644 19.6932C4.29012 19.7787 4.33387 19.8567 4.39983 19.9129C4.46579 19.9691 4.54964 20 4.63632 20H15.7758C15.8624 20 15.9463 19.9691 16.0122 19.9129C16.0782 19.8567 16.1219 19.7787 16.1356 19.6932L16.673 16.3368C17.347 15.1187 17.8015 13.7916 18.0156 12.416C18.6221 12.7877 19.301 13.0255 20.0069 13.1136C20.1021 13.1227 20.1971 13.094 20.2714 13.0337C20.3457 12.9734 20.3933 12.8864 20.404 12.7913C20.4147 12.6962 20.3876 12.6008 20.3286 12.5255C20.2695 12.4502 20.1833 12.4011 20.0884 12.3888Z" fill="black" fill-opacity="0.4"/>
<path id="Vector_3" d="M12.0208 6.08729C11.9995 5.99425 11.9426 5.91328 11.8622 5.86178C11.7819 5.81027 11.6845 5.79233 11.5911 5.81182C11.4977 5.8313 11.4156 5.88666 11.3626 5.96599C11.3095 6.04532 11.2897 6.1423 11.3073 6.2361C11.5097 7.04802 11.9446 7.78327 12.5586 8.35174C13.1726 8.92021 13.9391 9.2972 14.7642 9.43652C14.8586 9.45263 14.9556 9.43097 15.0341 9.3762C15.1127 9.32143 15.1666 9.23796 15.1841 9.14381C15.2016 9.04966 15.1814 8.9524 15.1278 8.87303C15.0742 8.79365 14.9916 8.73855 14.8977 8.71961C14.2149 8.60617 13.5797 8.29709 13.0691 7.82987C12.5585 7.36264 12.1943 6.75732 12.0208 6.08729Z" fill="black" fill-opacity="0.4"/>
<path id="Vector_4" d="M8.3914 6.08691C8.21799 6.75703 7.85389 7.36244 7.34325 7.82974C6.83261 8.29704 6.19736 8.60615 5.51453 8.7196C5.42069 8.73858 5.33809 8.7937 5.28454 8.87306C5.23099 8.95242 5.21081 9.04966 5.22833 9.14377C5.24586 9.23789 5.29969 9.32134 5.37822 9.37611C5.45674 9.43088 5.55365 9.45257 5.64803 9.4365C6.47312 9.29718 7.23964 8.92018 7.85367 8.35171C8.46769 7.78324 8.90254 7.04799 9.10492 6.23606C9.1223 6.1424 9.10233 6.04566 9.04928 5.96653C8.99623 5.88741 8.91431 5.8322 8.82107 5.81271C8.72782 5.79322 8.63065 5.811 8.55035 5.86224C8.47005 5.91349 8.413 5.99413 8.3914 6.08691Z" fill="black" fill-opacity="0.4"/>
<path id="Vector_5" d="M10.5706 9.07984C10.5687 8.9844 10.5295 8.89349 10.4613 8.82665C10.3932 8.75982 10.3015 8.72238 10.206 8.72238C10.1106 8.72238 10.0189 8.75983 9.95078 8.82667C9.88263 8.89351 9.84341 8.98442 9.84155 9.07986V11.5954C9.84342 11.6909 9.88264 11.7818 9.9508 11.8486C10.019 11.9154 10.1106 11.9529 10.2061 11.9529C10.3015 11.9529 10.3932 11.9154 10.4613 11.8486C10.5295 11.7818 10.5687 11.6908 10.5706 11.5954V9.07984Z" fill="black" fill-opacity="0.4"/>
<path id="Vector_6" d="M10.2061 12.7356C10.1582 12.7356 10.1108 12.745 10.0666 12.7633C10.0223 12.7816 9.98214 12.8084 9.94829 12.8423C9.91444 12.8761 9.88759 12.9163 9.86927 12.9606C9.85096 13.0048 9.84154 13.0522 9.84155 13.1001V15.6153C9.84155 15.712 9.87996 15.8047 9.94831 15.873C10.0167 15.9414 10.1094 15.9798 10.2061 15.9798C10.3027 15.9798 10.3954 15.9414 10.4638 15.873C10.5322 15.8047 10.5706 15.712 10.5706 15.6153V13.1001C10.5706 13.0522 10.5612 13.0048 10.5428 12.9606C10.5245 12.9163 10.4977 12.8761 10.4638 12.8423C10.43 12.8084 10.3898 12.7816 10.3456 12.7633C10.3013 12.745 10.2539 12.7356 10.2061 12.7356Z" fill="black" fill-opacity="0.4"/>
</g>
</svg>
