<svg width="19" height="20" viewBox="0 0 19 20" fill="none" xmlns="http://www.w3.org/2000/svg">
<g id="Icon Container">
<path id="Vector" d="M13.2397 19.9999C13.2347 19.9999 13.2297 19.9997 13.2248 19.9994C13.1502 19.9956 13.0802 19.9622 13.0302 19.9067C12.9802 19.8513 12.9542 19.7782 12.9581 19.7036L13.4226 10.776C13.4234 10.7585 13.426 10.741 13.4302 10.724C13.9898 8.42511 13.6799 6.45191 12.5092 4.85925C9.70842 1.0492 2.86763 0.567244 2.79892 0.56285C2.72435 0.558089 2.65474 0.523903 2.60538 0.467813C2.55602 0.411723 2.53097 0.338323 2.53573 0.263761C2.54049 0.189198 2.57468 0.119581 2.63077 0.0702236C2.68686 0.0208663 2.76026 -0.0041878 2.83482 0.000572981C3.12627 0.0191362 10.0041 0.502329 12.9621 4.52423C14.2325 6.25148 14.5762 8.37336 13.9838 10.8314L13.5207 19.7327C13.5169 19.8048 13.4857 19.8726 13.4334 19.9223C13.3811 19.972 13.3118 19.9998 13.2397 19.9999Z" fill="black" fill-opacity="0.4"/>
<path id="Vector_2" d="M7.60565 20C7.54878 20 7.49325 19.9828 7.44636 19.9506C7.39947 19.9184 7.36342 19.8728 7.34295 19.8197C5.76917 15.7479 6.82324 11.9125 7.21998 10.4687C7.25574 10.3388 7.29219 10.2062 7.31778 10.1036C2.37394 8.92354 0.164307 6.4889 0.0711948 6.38436C0.0215474 6.32853 -0.00388836 6.25527 0.00048305 6.18068C0.00485446 6.1061 0.038675 6.03631 0.0945045 5.98666C0.150334 5.93701 0.223599 5.91158 0.298182 5.91595C0.372766 5.92032 0.442558 5.95414 0.492205 6.00997C0.52398 6.04518 2.76896 8.49647 7.67676 9.60864C7.7166 9.61759 7.75418 9.63459 7.7872 9.6586C7.82022 9.68261 7.84798 9.71312 7.86878 9.74825C7.96024 9.90106 7.91856 10.0529 7.76327 10.6179C7.37995 12.0128 6.36172 15.718 7.86835 19.6167C7.88476 19.6594 7.89055 19.7054 7.88522 19.7508C7.87989 19.7962 7.8636 19.8397 7.83775 19.8774C7.8119 19.9151 7.77726 19.946 7.73683 19.9673C7.6964 19.9887 7.65138 19.9999 7.60565 20Z" fill="black" fill-opacity="0.4"/>
<path id="Vector_3" d="M7.31153 7.40821C6.7373 7.40821 6.10732 7.0689 5.43476 6.39632C3.36013 4.32169 1.91834 3.93897 1.90404 3.93539C1.859 3.92405 1.81745 3.90177 1.78307 3.87053C1.7487 3.83928 1.72257 3.80004 1.707 3.75627C1.69143 3.71251 1.6869 3.66558 1.69382 3.61964C1.70073 3.57371 1.71887 3.53019 1.74664 3.49295L2.5917 2.3662C2.63652 2.30648 2.70322 2.267 2.77714 2.25644C2.85105 2.24587 2.92614 2.26509 2.98589 2.30986C3.00791 2.32622 5.21396 3.95666 7.91543 4.22674C8.90904 4.32618 9.4493 4.5988 9.56705 5.06038C9.73444 5.71687 8.90973 6.37571 8.6248 6.58051C8.51693 6.78307 8.36649 6.95988 8.18382 7.0988C8.00114 7.23771 7.79056 7.33544 7.56655 7.38527C7.48241 7.40059 7.39705 7.40827 7.31153 7.40821ZM2.42707 3.52455C3.02195 3.77089 4.25447 4.4194 5.83305 5.99798C6.45667 6.62161 7.01963 6.91017 7.46032 6.8319C7.92384 6.74979 8.14817 6.2772 8.15037 6.27239C8.17193 6.22596 8.20548 6.18613 8.24755 6.15698C8.6108 5.9079 9.08176 5.43668 9.0211 5.19955C9.00803 5.14885 8.89098 4.8905 7.85927 4.78733C5.48717 4.55008 3.53213 3.36253 2.87867 2.92253L2.42707 3.52455Z" fill="black" fill-opacity="0.4"/>
<path id="Vector_4" d="M11.2675 19.7182H9.57736C9.53644 19.7182 9.49601 19.7093 9.45888 19.6921C9.42175 19.6749 9.38881 19.6498 9.36237 19.6186C9.33592 19.5873 9.3166 19.5507 9.30574 19.5113C9.29489 19.4718 9.29276 19.4305 9.29951 19.3901L9.5812 17.7C9.85561 15.503 9.85766 13.8319 9.58575 12.7443C9.55851 12.6351 9.53294 12.5364 9.5097 12.4467C9.35923 11.8647 9.27629 11.544 9.53505 11.2492C9.92086 10.8095 11.2562 10.7434 11.8392 11.1356C12.2118 11.3861 12.303 11.7984 12.0829 12.2386C11.6452 13.1139 11.5492 17.7312 11.5492 19.4365C11.5492 19.5112 11.5195 19.5828 11.4667 19.6357C11.4138 19.6885 11.3422 19.7182 11.2675 19.7182ZM9.90975 19.1548H10.9866C10.993 17.8289 11.0534 13.0374 11.5788 11.9866C11.6988 11.7469 11.6179 11.6657 11.5248 11.6031C11.1024 11.3188 10.1163 11.4406 9.95844 11.6209C9.90107 11.6861 9.93504 11.8416 10.0551 12.3057C10.0786 12.3966 10.1046 12.4969 10.1323 12.6076C10.4211 13.763 10.4232 15.5037 10.1385 17.7813L9.90975 19.1548Z" fill="black" fill-opacity="0.4"/>
<path id="Vector_5" d="M11.5813 10.2906C11.0382 10.2906 10.3883 9.70407 9.96274 8.78198C9.4581 7.68838 9.51738 6.6608 10.1004 6.39163C10.684 6.12245 11.5042 6.74415 12.0089 7.83762C12.5134 8.93121 12.4542 9.95873 11.8712 10.228C11.7803 10.2697 11.6814 10.2911 11.5813 10.2906ZM10.4018 6.89009C10.3793 6.8896 10.357 6.89406 10.3364 6.90316C10.1329 6.9971 10.0841 7.70022 10.4743 8.54598C10.8645 9.39173 11.4313 9.81119 11.6351 9.71645C11.8385 9.6225 11.8875 8.91938 11.4974 8.07363C11.1431 7.30614 10.6433 6.89009 10.4018 6.89009Z" fill="black" fill-opacity="0.4"/>
<path id="Vector_6" d="M14.9294 6.19728C14.8636 6.19726 14.7999 6.17422 14.7493 6.13214C14.6987 6.09006 14.6644 6.0316 14.6524 5.9669C14.6404 5.90219 14.6514 5.83533 14.6836 5.7779C14.7157 5.72047 14.7669 5.6761 14.8283 5.65247L17.7588 4.52572C17.8286 4.49891 17.9061 4.5009 17.9744 4.53126C18.0427 4.56162 18.0961 4.61786 18.1229 4.68761C18.1497 4.75736 18.1477 4.8349 18.1174 4.90318C18.087 4.97145 18.0308 5.02487 17.961 5.05169L15.0305 6.17844C14.9983 6.19088 14.964 6.19727 14.9294 6.19728Z" fill="black" fill-opacity="0.4"/>
<path id="Vector_7" d="M13.0259 3.66196C12.9726 3.66193 12.9203 3.64675 12.8752 3.61817C12.8302 3.5896 12.7941 3.5488 12.7714 3.50055C12.7486 3.45229 12.74 3.39855 12.7465 3.34559C12.7531 3.29263 12.7746 3.24263 12.8085 3.2014L14.4302 1.22959C14.4537 1.20101 14.4826 1.17734 14.5153 1.15994C14.5479 1.14253 14.5837 1.13172 14.6205 1.12813C14.6573 1.12454 14.6945 1.12824 14.7299 1.13901C14.7653 1.14979 14.7982 1.16743 14.8268 1.19093C14.8554 1.21443 14.879 1.24332 14.8964 1.27597C14.9138 1.30861 14.9247 1.34437 14.9282 1.38119C14.9318 1.41802 14.9281 1.45518 14.9174 1.49058C14.9066 1.52597 14.8889 1.5589 14.8654 1.58747L13.2437 3.55929C13.2172 3.59145 13.184 3.61734 13.1463 3.63509C13.1087 3.65285 13.0676 3.66203 13.0259 3.66196Z" fill="black" fill-opacity="0.4"/>
<path id="Vector_8" d="M18.5735 10.9859C18.5503 10.9859 18.5271 10.983 18.5046 10.9773L15.1424 10.1323C15.0709 10.1132 15.0098 10.0667 14.9723 10.003C14.9347 9.9392 14.9238 9.86323 14.9418 9.79148C14.9599 9.71972 15.0054 9.65794 15.0686 9.61948C15.1318 9.58102 15.2076 9.56897 15.2796 9.58593L18.6419 10.431C18.7085 10.4478 18.7666 10.4883 18.8055 10.5449C18.8443 10.6016 18.8611 10.6705 18.8527 10.7386C18.8443 10.8068 18.8113 10.8695 18.7599 10.915C18.7084 10.9606 18.6422 10.9858 18.5735 10.9859Z" fill="black" fill-opacity="0.4"/>
<path id="Vector_9" d="M14.3661 4.50702C14.3104 4.50701 14.256 4.49049 14.2096 4.45954C14.1633 4.42858 14.1272 4.38459 14.1059 4.33312C14.0846 4.28166 14.079 4.22502 14.0899 4.17039C14.1007 4.11575 14.1276 4.06556 14.167 4.02616L15.012 3.1811C15.0651 3.12938 15.1364 3.10064 15.2105 3.10111C15.2845 3.10158 15.3555 3.13122 15.4079 3.18361C15.4602 3.236 15.4899 3.30692 15.4904 3.38101C15.4908 3.4551 15.4621 3.52639 15.4104 3.57944L14.5653 4.4245C14.5392 4.4507 14.5081 4.47147 14.4739 4.48563C14.4398 4.4998 14.4031 4.50706 14.3661 4.50702Z" fill="black" fill-opacity="0.4"/>
<path id="Vector_10" d="M16.6196 8.16894H15.4582C15.3835 8.16894 15.3118 8.13926 15.259 8.08643C15.2062 8.0336 15.1765 7.96196 15.1765 7.88725C15.1765 7.81254 15.2062 7.74089 15.259 7.68806C15.3118 7.63524 15.3835 7.60556 15.4582 7.60556H16.6196C16.6943 7.60556 16.766 7.63524 16.8188 7.68806C16.8716 7.74089 16.9013 7.81254 16.9013 7.88725C16.9013 7.96196 16.8716 8.0336 16.8188 8.08643C16.766 8.13926 16.6943 8.16894 16.6196 8.16894Z" fill="black" fill-opacity="0.4"/>
</g>
</svg>
