<svg width="19" height="20" viewBox="0 0 19 20" fill="none" xmlns="http://www.w3.org/2000/svg">
<path d="M13.2397 19.9999C13.2347 19.9999 13.2297 19.9997 13.2248 19.9994C13.1502 19.9956 13.0802 19.9622 13.0302 19.9067C12.9802 19.8513 12.9542 19.7782 12.9581 19.7036L13.4226 10.776C13.4234 10.7585 13.426 10.741 13.4302 10.724C13.9898 8.42511 13.6799 6.45191 12.5092 4.85925C9.70842 1.0492 2.86763 0.567244 2.79892 0.56285C2.72435 0.558089 2.65474 0.523903 2.60538 0.467813C2.55602 0.411723 2.53097 0.338323 2.53573 0.263761C2.54049 0.189198 2.57468 0.119581 2.63077 0.0702236C2.68686 0.0208663 2.76026 -0.0041878 2.83482 0.000572981C3.12627 0.0191362 10.0041 0.502329 12.9621 4.52423C14.2325 6.25148 14.5762 8.37336 13.9838 10.8314L13.5207 19.7327C13.5169 19.8048 13.4857 19.8726 13.4334 19.9223C13.3811 19.972 13.3118 19.9998 13.2397 19.9999Z" fill="black"/>
<path d="M7.60565 19.9999C7.54878 19.9999 7.49325 19.9827 7.44636 19.9505C7.39947 19.9183 7.36342 19.8727 7.34295 19.8197C5.76917 15.7479 6.82324 11.9125 7.21998 10.4687C7.25574 10.3387 7.29219 10.2061 7.31778 10.1035C2.37394 8.92348 0.164307 6.48884 0.0711948 6.3843C0.0215474 6.32847 -0.00388836 6.25521 0.00048305 6.18062C0.00485446 6.10604 0.038675 6.03625 0.0945045 5.9866C0.150334 5.93695 0.223599 5.91152 0.298182 5.91589C0.372766 5.92026 0.442558 5.95408 0.492205 6.00991C0.52398 6.04512 2.76896 8.49641 7.67676 9.60858C7.7166 9.61753 7.75418 9.63453 7.7872 9.65854C7.82022 9.68255 7.84798 9.71306 7.86878 9.74819C7.96024 9.901 7.91856 10.0528 7.76327 10.6179C7.37995 12.0127 6.36172 15.718 7.86835 19.6166C7.88476 19.6593 7.89055 19.7053 7.88522 19.7507C7.87989 19.7962 7.8636 19.8396 7.83775 19.8773C7.8119 19.915 7.77726 19.9459 7.73683 19.9673C7.6964 19.9886 7.65138 19.9998 7.60565 19.9999Z" fill="black"/>
<path d="M7.31153 7.40827C6.7373 7.40827 6.10732 7.06896 5.43476 6.39638C3.36013 4.32175 1.91834 3.93903 1.90404 3.93546C1.859 3.92412 1.81745 3.90183 1.78307 3.87059C1.7487 3.83934 1.72257 3.8001 1.707 3.75633C1.69143 3.71257 1.6869 3.66564 1.69382 3.6197C1.70073 3.57377 1.71887 3.53025 1.74664 3.49301L2.5917 2.36626C2.63652 2.30654 2.70322 2.26706 2.77714 2.2565C2.85105 2.24593 2.92614 2.26515 2.98589 2.30992C3.00791 2.32629 5.21396 3.95672 7.91543 4.2268C8.90904 4.32624 9.4493 4.59886 9.56705 5.06045C9.73444 5.71693 8.90973 6.37577 8.6248 6.58057C8.51693 6.78313 8.36649 6.95994 8.18382 7.09886C8.00114 7.23777 7.79056 7.3355 7.56655 7.38533C7.48241 7.40065 7.39705 7.40833 7.31153 7.40827ZM2.42707 3.52461C3.02195 3.77095 4.25447 4.41947 5.83305 5.99804C6.45667 6.62167 7.01963 6.91023 7.46032 6.83197C7.92384 6.74985 8.14817 6.27727 8.15037 6.27245C8.17193 6.22603 8.20548 6.18619 8.24755 6.15704C8.6108 5.90796 9.08176 5.43674 9.0211 5.19961C9.00803 5.14891 8.89098 4.89056 7.85927 4.78739C5.48717 4.55014 3.53213 3.36259 2.87867 2.92259L2.42707 3.52461Z" fill="black"/>
<path d="M11.2675 19.7182H9.57736C9.53644 19.7182 9.49601 19.7093 9.45888 19.6921C9.42175 19.6749 9.38881 19.6498 9.36237 19.6186C9.33592 19.5874 9.3166 19.5508 9.30574 19.5113C9.29489 19.4719 9.29276 19.4305 9.29951 19.3902L9.5812 17.7C9.85561 15.5031 9.85766 13.8319 9.58575 12.7444C9.55851 12.6352 9.53294 12.5364 9.5097 12.4467C9.35923 11.8648 9.27629 11.544 9.53505 11.2493C9.92086 10.8095 11.2562 10.7434 11.8392 11.1357C12.2118 11.3861 12.303 11.7985 12.0829 12.2386C11.6452 13.1139 11.5492 17.7313 11.5492 19.4365C11.5492 19.5112 11.5195 19.5829 11.4667 19.6357C11.4138 19.6885 11.3422 19.7182 11.2675 19.7182ZM9.90975 19.1548H10.9866C10.993 17.8289 11.0534 13.0375 11.5788 11.9866C11.6988 11.7469 11.6179 11.6657 11.5248 11.6032C11.1024 11.3189 10.1163 11.4406 9.95844 11.6209C9.90107 11.6861 9.93504 11.8417 10.0551 12.3057C10.0786 12.3966 10.1046 12.4969 10.1323 12.6076C10.4211 13.763 10.4232 15.5037 10.1385 17.7813L9.90975 19.1548Z" fill="black"/>
<path d="M11.5813 10.2906C11.0382 10.2906 10.3883 9.70407 9.96274 8.78198C9.4581 7.68838 9.51738 6.6608 10.1004 6.39163C10.684 6.12245 11.5042 6.74415 12.0089 7.83762C12.5134 8.93121 12.4542 9.95873 11.8712 10.228C11.7803 10.2697 11.6814 10.2911 11.5813 10.2906ZM10.4018 6.89009C10.3793 6.8896 10.357 6.89406 10.3364 6.90316C10.1329 6.9971 10.0841 7.70022 10.4743 8.54598C10.8645 9.39173 11.4313 9.81119 11.6351 9.71645C11.8385 9.6225 11.8875 8.91938 11.4974 8.07363C11.1431 7.30614 10.6433 6.89009 10.4018 6.89009Z" fill="black"/>
<path d="M14.9294 6.19728C14.8636 6.19726 14.7999 6.17422 14.7493 6.13214C14.6987 6.09006 14.6644 6.0316 14.6524 5.9669C14.6404 5.90219 14.6514 5.83533 14.6836 5.7779C14.7157 5.72047 14.7669 5.6761 14.8283 5.65247L17.7588 4.52572C17.8286 4.49891 17.9061 4.5009 17.9744 4.53126C18.0427 4.56162 18.0961 4.61786 18.1229 4.68761C18.1497 4.75736 18.1477 4.8349 18.1174 4.90318C18.087 4.97145 18.0308 5.02487 17.961 5.05169L15.0305 6.17844C14.9983 6.19088 14.964 6.19727 14.9294 6.19728Z" fill="black"/>
<path d="M13.0259 3.66199C12.9726 3.66197 12.9203 3.64678 12.8752 3.6182C12.8302 3.58963 12.7941 3.54883 12.7714 3.50058C12.7486 3.45232 12.74 3.39858 12.7465 3.34562C12.7531 3.29266 12.7746 3.24266 12.8085 3.20143L14.4302 1.22962C14.4537 1.20104 14.4826 1.17737 14.5153 1.15997C14.5479 1.14256 14.5837 1.13175 14.6205 1.12816C14.6573 1.12457 14.6945 1.12827 14.7299 1.13904C14.7653 1.14982 14.7982 1.16746 14.8268 1.19096C14.8554 1.21446 14.879 1.24335 14.8964 1.276C14.9138 1.30865 14.9247 1.3444 14.9282 1.38122C14.9318 1.41805 14.9281 1.45521 14.9174 1.49061C14.9066 1.526 14.8889 1.55893 14.8654 1.5875L13.2437 3.55932C13.2172 3.59148 13.184 3.61737 13.1463 3.63512C13.1087 3.65288 13.0676 3.66206 13.0259 3.66199Z" fill="black"/>
<path d="M18.5735 10.9858C18.5503 10.9858 18.5271 10.9829 18.5046 10.9773L15.1424 10.1322C15.0709 10.1131 15.0098 10.0667 14.9723 10.0029C14.9347 9.93914 14.9238 9.86317 14.9418 9.79142C14.9599 9.71966 15.0054 9.65788 15.0686 9.61942C15.1318 9.58096 15.2076 9.56891 15.2796 9.58587L18.6419 10.4309C18.7085 10.4477 18.7666 10.4882 18.8055 10.5449C18.8443 10.6015 18.8611 10.6704 18.8527 10.7386C18.8443 10.8067 18.8113 10.8695 18.7599 10.915C18.7084 10.9605 18.6422 10.9857 18.5735 10.9858Z" fill="black"/>
<path d="M14.3661 4.50699C14.3104 4.50698 14.256 4.49046 14.2096 4.45951C14.1633 4.42855 14.1272 4.38456 14.1059 4.33309C14.0846 4.28163 14.079 4.22499 14.0899 4.17036C14.1007 4.11572 14.1276 4.06553 14.167 4.02613L15.012 3.18107C15.0651 3.12935 15.1364 3.10061 15.2105 3.10108C15.2845 3.10155 15.3555 3.13119 15.4079 3.18358C15.4602 3.23597 15.4899 3.30689 15.4904 3.38098C15.4908 3.45507 15.4621 3.52636 15.4104 3.57941L14.5653 4.42447C14.5392 4.45067 14.5081 4.47144 14.4739 4.4856C14.4398 4.49976 14.4031 4.50703 14.3661 4.50699Z" fill="black"/>
<path d="M16.6196 8.16897H15.4582C15.3835 8.16897 15.3118 8.13929 15.259 8.08646C15.2062 8.03364 15.1765 7.96199 15.1765 7.88728C15.1765 7.81257 15.2062 7.74092 15.259 7.6881C15.3118 7.63527 15.3835 7.60559 15.4582 7.60559H16.6196C16.6943 7.60559 16.766 7.63527 16.8188 7.6881C16.8716 7.74092 16.9013 7.81257 16.9013 7.88728C16.9013 7.96199 16.8716 8.03364 16.8188 8.08646C16.766 8.13929 16.6943 8.16897 16.6196 8.16897Z" fill="black"/>
</svg>
