<svg width="22" height="19" viewBox="0 0 22 19" fill="none" xmlns="http://www.w3.org/2000/svg">
<path d="M14.9867 15.7919C15.6287 15.9842 16.1627 16.6369 16.2715 17.1846M16.2715 17.1846C16.3674 17.667 16.0352 18.1435 15.5445 18.177C15.1409 18.2045 14.773 17.9239 14.7007 17.5165M16.2715 17.1846C16.3441 17.5933 16.714 17.8744 17.1191 17.8448C17.6046 17.8093 17.9355 17.3387 17.8439 16.8606M14.7007 17.5165C14.6042 17.0621 14.1533 16.5191 13.5222 16.3927M14.7007 17.5165C14.8043 18.0051 14.462 18.4907 13.9632 18.5172C13.5643 18.5384 13.2031 18.2593 13.1314 17.856L5.69689 17.856M16.4509 15.1912C17.2739 15.4733 17.72 16.2142 17.8439 16.8606M17.8439 16.8606C17.9168 17.2707 18.2891 17.5524 18.6959 17.5206C19.1751 17.483 19.5066 17.0209 19.4187 16.5484C19.2798 15.8017 18.9194 15.0573 17.9153 14.5906M13.4851 11.4863L11.3295 10.2532C9.83611 9.39898 8.94634 7.93971 8.94634 6.1359L8.89926 1M19.2173 15.7862C19.2173 15.7862 19.3871 15.7845 19.5245 15.784C20.3605 15.7806 21.0321 15.0853 20.9987 14.2426C20.9527 13.782 20.5653 13.4011 20.1387 13.3737L16.7861 13.3745L14.6002 12.1242M16.9672 15.4575C17.7565 15.4545 18.442 15.0341 18.7962 14.4157M4.48987 17.856H4.21741C2.39932 17.856 1 16.4684 1 14.7262C1 11.9379 2.9877 11.0715 2.9877 7.29569L2.94062 1.00005M5.51762 13.4747C4.47023 12.87 4.18107 11.4891 4.89785 10.515M9.93744 16.3419C10.0746 16.3189 10.2308 16.3041 10.4192 16.3041C11.8375 16.3041 12.2718 17.4854 12.3582 17.7807M1.87145 16.7754C2.16705 16.5121 2.58892 16.3041 3.1841 16.3041C4.03657 16.3041 4.22783 16.6059 4.9929 16.6059C5.75796 16.6059 5.94922 16.3041 6.80169 16.3041C7.65416 16.3041 7.84542 16.6059 8.61049 16.6059M3.02206 8.00529C3.26152 8.19776 3.53596 8.30705 3.82761 8.30705C4.761 8.30705 5.51762 7.18763 5.51762 5.80674C5.51762 4.5427 4.88361 3.49777 4.06039 3.32997" stroke="black" stroke-width="0.8" stroke-miterlimit="10" stroke-linecap="round" stroke-linejoin="round"/>
</svg>
