<svg width="19" height="15" viewBox="0 0 19 15" fill="none" xmlns="http://www.w3.org/2000/svg">
<path d="M17.541 9.1793L18.2705 8.45822L19 9.1793L18.2705 9.90039L17.541 9.1793ZM-6.85172e-07 1.01992C-6.61524e-07 0.749422 0.108709 0.49 0.302213 0.298727C0.495717 0.107456 0.758167 3.12597e-07 1.03182 3.36521e-07C1.30548 3.60444e-07 1.56793 0.107456 1.76143 0.298727C1.95494 0.49 2.06365 0.749423 2.06365 1.01992L-6.85172e-07 1.01992ZM13.1114 3.35861L18.2705 8.45822L16.8115 9.90039L11.6524 4.80078L13.1114 3.35861ZM18.2705 9.90039L13.1114 15L11.6524 13.5578L16.8115 8.45822L18.2705 9.90039ZM17.541 10.1992L7.22276 10.1992L7.22276 8.15938L17.541 8.15938L17.541 10.1992ZM-8.635e-07 3.05977L-6.85172e-07 1.01992L2.06365 1.01992L2.06365 3.05977L-8.635e-07 3.05977ZM7.22276 10.1992C5.30717 10.1992 3.47003 9.44703 2.1155 8.10813C0.760966 6.76922 -1.02904e-06 4.95327 -8.635e-07 3.05977L2.06365 3.05977C2.06365 4.41227 2.60719 5.70937 3.57472 6.66574C4.54224 7.6221 5.85448 8.15938 7.22276 8.15938L7.22276 10.1992Z" fill="black"/>
</svg>
