<svg width="30" height="26" viewBox="0 0 30 26" fill="none" xmlns="http://www.w3.org/2000/svg">
<path d="M23.541 14.1793L24.2705 13.4582L25 14.1793L24.2705 14.9004L23.541 14.1793ZM6 6.01992C6 5.74942 6.10871 5.49 6.30221 5.29873C6.49572 5.10746 6.75817 5 7.03182 5C7.30548 5 7.56793 5.10746 7.76143 5.29873C7.95494 5.49 8.06365 5.74942 8.06365 6.01992L6 6.01992ZM19.1114 8.35861L24.2705 13.4582L22.8115 14.9004L17.6524 9.80078L19.1114 8.35861ZM24.2705 14.9004L19.1114 20L17.6524 18.5578L22.8115 13.4582L24.2705 14.9004ZM23.541 15.1992L13.2228 15.1992L13.2228 13.1594L23.541 13.1594L23.541 15.1992ZM6 8.05977L6 6.01992L8.06365 6.01992L8.06365 8.05977L6 8.05977ZM13.2228 15.1992C11.3072 15.1992 9.47003 14.447 8.1155 13.1081C6.76097 11.7692 6 9.95327 6 8.05977L8.06365 8.05977C8.06365 9.41227 8.60719 10.7094 9.57472 11.6657C10.5422 12.6221 11.8545 13.1594 13.2228 13.1594L13.2228 15.1992Z" fill="black"/>
</svg>
