<svg width="30" height="26" viewBox="0 0 30 26" fill="none" xmlns="http://www.w3.org/2000/svg">
<path d="M21.6946 14.5673L22.3473 13.8943L23 14.5673L22.3473 15.2404L21.6946 14.5673ZM6 6.95193C6 6.69946 6.09726 6.45733 6.2704 6.27881C6.44354 6.10029 6.67836 6 6.92321 6C7.16806 6 7.40288 6.10029 7.57602 6.27881C7.74915 6.45733 7.84642 6.69946 7.84642 6.95193L6 6.95193ZM17.7312 9.1347L22.3473 13.8943L21.0419 15.2404L16.4258 10.4807L17.7312 9.1347ZM22.3473 15.2404L17.7312 20L16.4258 18.654L21.0419 13.8943L22.3473 15.2404ZM21.6946 15.5193L12.4625 15.5193L12.4625 13.6154L21.6946 13.6154L21.6946 15.5193ZM6 8.85578L6 6.95193L7.84642 6.95193L7.84642 8.85578L6 8.85578ZM12.4625 15.5193C10.7485 15.5193 9.10476 14.8172 7.89281 13.5676C6.68087 12.3179 6 10.6231 6 8.85578L7.84642 8.85578C7.84642 10.1181 8.33275 11.3288 9.19843 12.2214C10.0641 13.114 11.2382 13.6154 12.4625 13.6154L12.4625 15.5193Z" fill="black"/>
</svg>
