<svg width="30" height="15" viewBox="0 0 30 15" fill="none" xmlns="http://www.w3.org/2000/svg">
<path d="M8.5 6C8.10218 6 7.72064 6.15804 7.43934 6.43934C7.15804 6.72064 7 7.10218 7 7.5C7 7.89782 7.15804 8.27936 7.43934 8.56066C7.72064 8.84196 8.10218 9 8.5 9C8.89782 9 9.27936 8.84196 9.56066 8.56066C9.84196 8.27936 10 7.89782 10 7.5C10 7.10218 9.84196 6.72064 9.56066 6.43934C9.27936 6.15804 8.89782 6 8.5 6ZM13 7.5C13 7.10218 13.158 6.72064 13.4393 6.43934C13.7206 6.15804 14.1022 6 14.5 6C14.8978 6 15.2794 6.15804 15.5607 6.43934C15.842 6.72064 16 7.10218 16 7.5C16 7.89782 15.842 8.27936 15.5607 8.56066C15.2794 8.84196 14.8978 9 14.5 9C14.1022 9 13.7206 8.84196 13.4393 8.56066C13.158 8.27936 13 7.89782 13 7.5ZM19 7.5C19 7.10218 19.158 6.72064 19.4393 6.43934C19.7206 6.15804 20.1022 6 20.5 6C20.8978 6 21.2794 6.15804 21.5607 6.43934C21.842 6.72064 22 7.10218 22 7.5C22 7.89782 21.842 8.27936 21.5607 8.56066C21.2794 8.84196 20.8978 9 20.5 9C20.1022 9 19.7206 8.84196 19.4393 8.56066C19.158 8.27936 19 7.89782 19 7.5Z" fill="black"/>
</svg>
