<svg width="18" height="4" viewBox="0 0 18 4" fill="none" xmlns="http://www.w3.org/2000/svg">
<path d="M1.8 0C1.32261 0 0.864773 0.210713 0.527208 0.585786C0.189642 0.960859 0 1.46957 0 2C0 2.53043 0.189642 3.03914 0.527208 3.41421C0.864773 3.78929 1.32261 4 1.8 4C2.27739 4 2.73523 3.78929 3.07279 3.41421C3.41036 3.03914 3.6 2.53043 3.6 2C3.6 1.46957 3.41036 0.960859 3.07279 0.585786C2.73523 0.210713 2.27739 0 1.8 0ZM7.2 2C7.2 1.46957 7.38964 0.960859 7.72721 0.585786C8.06477 0.210713 8.52261 0 9 0C9.47739 0 9.93523 0.210713 10.2728 0.585786C10.6104 0.960859 10.8 1.46957 10.8 2C10.8 2.53043 10.6104 3.03914 10.2728 3.41421C9.93523 3.78929 9.47739 4 9 4C8.52261 4 8.06477 3.78929 7.72721 3.41421C7.38964 3.03914 7.2 2.53043 7.2 2ZM14.4 2C14.4 1.46957 14.5896 0.960859 14.9272 0.585786C15.2648 0.210713 15.7226 0 16.2 0C16.6774 0 17.1352 0.210713 17.4728 0.585786C17.8104 0.960859 18 1.46957 18 2C18 2.53043 17.8104 3.03914 17.4728 3.41421C17.1352 3.78929 16.6774 4 16.2 4C15.7226 4 15.2648 3.78929 14.9272 3.41421C14.5896 3.03914 14.4 2.53043 14.4 2Z" fill="black"/>
</svg>
