<svg width="30" height="15" viewBox="0 0 30 15" fill="none" xmlns="http://www.w3.org/2000/svg">
<path d="M10.25 6C9.91848 6 9.60054 6.1317 9.36612 6.36612C9.1317 6.60054 9 6.91848 9 7.25C9 7.58152 9.1317 7.89946 9.36612 8.13388C9.60054 8.3683 9.91848 8.5 10.25 8.5C10.5815 8.5 10.8995 8.3683 11.1339 8.13388C11.3683 7.89946 11.5 7.58152 11.5 7.25C11.5 6.91848 11.3683 6.60054 11.1339 6.36612C10.8995 6.1317 10.5815 6 10.25 6ZM14 7.25C14 6.91848 14.1317 6.60054 14.3661 6.36612C14.6005 6.1317 14.9185 6 15.25 6C15.5815 6 15.8995 6.1317 16.1339 6.36612C16.3683 6.60054 16.5 6.91848 16.5 7.25C16.5 7.58152 16.3683 7.89946 16.1339 8.13388C15.8995 8.3683 15.5815 8.5 15.25 8.5C14.9185 8.5 14.6005 8.3683 14.3661 8.13388C14.1317 7.89946 14 7.58152 14 7.25ZM19 7.25C19 6.91848 19.1317 6.60054 19.3661 6.36612C19.6005 6.1317 19.9185 6 20.25 6C20.5815 6 20.8995 6.1317 21.1339 6.36612C21.3683 6.60054 21.5 6.91848 21.5 7.25C21.5 7.58152 21.3683 7.89946 21.1339 8.13388C20.8995 8.3683 20.5815 8.5 20.25 8.5C19.9185 8.5 19.6005 8.3683 19.3661 8.13388C19.1317 7.89946 19 7.58152 19 7.25Z" fill="black"/>
</svg>
