<svg width="30" height="15" viewBox="0 0 30 15" fill="none" xmlns="http://www.w3.org/2000/svg">
<path d="M9.5 6C9.10218 6 8.72064 6.15804 8.43934 6.43934C8.15804 6.72064 8 7.10218 8 7.5C8 7.89782 8.15804 8.27936 8.43934 8.56066C8.72064 8.84196 9.10218 9 9.5 9C9.89782 9 10.2794 8.84196 10.5607 8.56066C10.842 8.27936 11 7.89782 11 7.5C11 7.10218 10.842 6.72064 10.5607 6.43934C10.2794 6.15804 9.89782 6 9.5 6ZM14 7.5C14 7.10218 14.158 6.72064 14.4393 6.43934C14.7206 6.15804 15.1022 6 15.5 6C15.8978 6 16.2794 6.15804 16.5607 6.43934C16.842 6.72064 17 7.10218 17 7.5C17 7.89782 16.842 8.27936 16.5607 8.56066C16.2794 8.84196 15.8978 9 15.5 9C15.1022 9 14.7206 8.84196 14.4393 8.56066C14.158 8.27936 14 7.89782 14 7.5ZM20 7.5C20 7.10218 20.158 6.72064 20.4393 6.43934C20.7206 6.15804 21.1022 6 21.5 6C21.8978 6 22.2794 6.15804 22.5607 6.43934C22.842 6.72064 23 7.10218 23 7.5C23 7.89782 22.842 8.27936 22.5607 8.56066C22.2794 8.84196 21.8978 9 21.5 9C21.1022 9 20.7206 8.84196 20.4393 8.56066C20.158 8.27936 20 7.89782 20 7.5Z" fill="black"/>
</svg>
