<svg width="19" height="21" viewBox="0 0 19 21" fill="none" xmlns="http://www.w3.org/2000/svg">
<path fill-rule="evenodd" clip-rule="evenodd" d="M17.8101 18.3609L14.6928 19.118C14.5543 18.5468 14.0984 18.1052 13.5287 17.9911V16.5752H12.9447V17.9911C12.2444 18.1314 11.7372 18.7559 11.7372 19.481C11.7372 20.3197 12.4088 21 13.2367 21C13.9745 21 14.6039 20.4545 14.7178 19.7176L17.9448 18.9342C18.1008 18.8962 18.1976 18.7378 18.16 18.5793C18.1229 18.4213 17.9665 18.3233 17.8101 18.3609ZM13.2367 20.4085C12.7312 20.4085 12.3212 19.9931 12.3212 19.481C12.3212 18.9689 12.7312 18.554 13.2367 18.554C13.7422 18.554 14.1518 18.9689 14.1518 19.481C14.1518 19.9931 13.7422 20.4085 13.2367 20.4085ZM3.17547 7.12634H0.545291C-0.181743 7.12634 -0.181784 5.92592 0.545291 5.92592H3.17543C4.10772 5.92592 4.87049 6.69869 4.87049 7.64305V11.3583C4.45015 11.476 4.05258 11.6489 3.68558 11.8689V7.64309C3.68558 7.35886 3.45601 7.12638 3.17551 7.12638L3.17547 7.12634ZM18.2992 17.9538L16.3172 18.4373C16.1322 18.4824 15.9458 18.3614 15.9037 18.1733L15.4251 16.0364L17.1224 15.6456L17.3248 16.5493L17.9523 16.4051C19.0879 16.144 19.4419 17.675 18.2991 17.9538L18.2992 17.9538ZM14.8934 14.8948H13.9456V12.692H15.1294C14.7293 13.1417 14.7429 13.8391 15.1702 14.2719C15.6114 14.7189 16.3314 14.7189 16.7726 14.2719L16.807 14.2371L16.9937 15.0705L15.2968 15.4611L15.2963 15.4612L15.2304 15.1674C15.1943 15.006 15.0566 14.8948 14.8934 14.8948H14.8934ZM15.4651 12.9473L15.7162 12.6929C16.1635 12.7121 16.5354 13.0245 16.6354 13.471L16.6979 13.7501L16.4777 13.9732C16.1992 14.2553 15.7435 14.2553 15.4651 13.9732C15.1866 13.691 15.1866 13.2294 15.4651 12.9473L15.4651 12.9473ZM14.7178 12.1005H13.9456V10.6497H14.7178C15.7291 10.6497 15.7292 12.1005 14.7178 12.1005ZM8.5062 9.09795H7.37325V6.99142C7.37325 3.82776 11.9053 3.815 11.9053 6.99142V9.09795H10.7724V7.52364C10.7724 6.8214 10.2495 6.2814 9.54852 6.33633C8.91933 6.38564 8.5062 6.89597 8.5062 7.52364V9.09795ZM10.3553 7.52364V9.09795H8.9233V7.52364C8.9233 6.49917 10.3553 6.49922 10.3553 7.52364ZM8.30984 1.88175C8.30984 0.845317 9.14427 0 10.1674 0C11.1904 0 12.0249 0.845317 12.0249 1.88175C12.0249 2.91817 11.1904 3.76349 10.1674 3.76349C9.14427 3.76349 8.30984 2.91817 8.30984 1.88175ZM11.0918 16.1526C11.0918 15.7448 11.043 15.3487 10.9517 14.9695H12.3608V10.7035H7.34969V11.3206C6.97535 11.228 6.58433 11.1786 6.18183 11.1786V9.94302C6.18183 9.71029 6.36919 9.52049 6.59892 9.52049H13.1115C13.3413 9.52049 13.5286 9.71029 13.5286 9.94302V15.7301C13.5286 15.9628 13.3413 16.1526 13.1115 16.1526H11.0918L11.0918 16.1526ZM6.18162 11.6012C3.70743 11.6012 1.68912 13.6458 1.68912 16.1527C1.68912 18.6596 3.70743 20.7042 6.18162 20.7042C8.65581 20.7042 10.6745 18.6596 10.6745 16.1527C10.6745 13.6458 8.65623 11.6012 6.18162 11.6012ZM6.47943 12.7585C7.18306 12.8215 7.8258 13.1054 8.33882 13.5415L6.47943 15.4251V12.7585ZM5.88424 15.4251L4.02484 13.5415C4.53786 13.1054 5.1806 12.8215 5.88424 12.7585V15.4251ZM3.60441 13.9674L5.46381 15.8514H2.83154C2.89327 15.1382 3.17397 14.4871 3.60441 13.9674ZM2.83154 16.454H5.46381L3.60441 18.3376C3.17397 17.8179 2.89327 17.1668 2.83154 16.454ZM5.88424 16.8799V19.5469C5.1806 19.484 4.53786 19.2 4.02484 18.764L5.88424 16.8799ZM6.47943 19.5469V16.8799L8.33882 18.764C7.8258 19.2 7.18306 19.484 6.47943 19.5469ZM8.75925 18.3376L6.89986 16.454H9.53212C9.47039 17.1668 9.18969 17.8179 8.75925 18.3376ZM6.89986 15.8514L8.75925 13.9674C9.18969 14.4871 9.47039 15.1382 9.53212 15.8514H6.89986Z" fill="black"/>
</svg>
