<svg width="19" height="15" viewBox="0 0 19 15" fill="none" xmlns="http://www.w3.org/2000/svg">
<path d="M17.541 9.1793L18.2705 8.45822L19 9.1793L18.2705 9.90039L17.541 9.1793ZM1.7833e-07 1.01992C2.01978e-07 0.749422 0.108709 0.49 0.302214 0.298728C0.495718 0.107455 0.758167 -2.39238e-08 1.03182 0C1.30548 2.39238e-08 1.56793 0.107455 1.76143 0.298728C1.95494 0.49 2.06365 0.749422 2.06365 1.01992L1.7833e-07 1.01992ZM13.1114 3.35861L18.2705 8.45822L16.8115 9.90039L11.6524 4.80078L13.1114 3.35861ZM18.2705 9.90039L13.1114 15L11.6524 13.5578L16.8115 8.45822L18.2705 9.90039ZM17.541 10.1992L7.22277 10.1992L7.22277 8.15938L17.541 8.15938V10.1992ZM0 3.05977L1.7833e-07 1.01992L2.06365 1.01992L2.06365 3.05977L0 3.05977ZM7.22277 10.1992C5.30717 10.1992 3.47003 9.44703 2.1155 8.10812C0.760968 6.76922 -1.65535e-07 4.95327 0 3.05977L2.06365 3.05977C2.06365 4.41227 2.6072 5.70937 3.57472 6.66574C4.54224 7.6221 5.85448 8.15938 7.22277 8.15938L7.22277 10.1992Z" fill="black"/>
</svg>
