<svg width="20" height="20" viewBox="0 0 20 20" fill="none" xmlns="http://www.w3.org/2000/svg">
<path d="M14.6952 8.33132C14.9436 8.57988 15.2386 8.77706 15.5633 8.91158C15.8879 9.04611 16.2359 9.11535 16.5874 9.11535C16.9388 9.11535 17.2868 9.04611 17.6114 8.91158C17.9361 8.77706 18.2311 8.57988 18.4795 8.33132C18.6031 8.2068 18.8317 8.25739 18.8619 8.43055C19.196 10.3158 18.9202 12.2585 18.0745 13.9762C17.2288 15.6939 15.8572 17.0971 14.1592 17.9817C12.4613 18.8664 10.5254 19.1865 8.63304 18.8954C6.74068 18.6043 4.99049 17.7172 3.63691 16.3631C2.28281 15.0095 1.39573 13.2593 1.10463 11.367C0.813528 9.4746 1.13358 7.53872 2.01826 5.84075C2.90294 4.14278 4.30613 2.77124 6.02384 1.92551C7.74154 1.07978 9.68422 0.803961 11.5694 1.13814C11.7426 1.1683 11.7932 1.39692 11.6687 1.52144C11.2717 1.91845 11.0096 2.43032 10.9196 2.98453C10.8297 3.53875 10.9163 4.10722 11.1674 4.60944C11.4185 5.11165 11.8212 5.52215 12.3185 5.78279C12.8158 6.04343 13.3825 6.14101 13.9383 6.06169C13.8797 6.47279 13.9175 6.89189 14.0489 7.28583C14.1803 7.67976 14.4015 8.0377 14.6952 8.33132Z" stroke="black" stroke-width="1.5" stroke-linecap="round" stroke-linejoin="round"/>
<path d="M6.35277 14.3775C7.02437 14.3775 7.56882 13.8331 7.56882 13.1615C7.56882 12.4899 7.02437 11.9454 6.35277 11.9454C5.68116 11.9454 5.13672 12.4899 5.13672 13.1615C5.13672 13.8331 5.68116 14.3775 6.35277 14.3775Z" fill="black"/>
<path d="M5.38011 8.5405C6.05172 8.5405 6.59616 7.99605 6.59616 7.32445C6.59616 6.65284 6.05172 6.1084 5.38011 6.1084C4.70851 6.1084 4.16406 6.65284 4.16406 7.32445C4.16406 7.99605 4.70851 8.5405 5.38011 8.5405Z" fill="black"/>
<path d="M10.2434 11.459C10.915 11.459 11.4594 10.9145 11.4594 10.2429C11.4594 9.5713 10.915 9.02686 10.2434 9.02686C9.57179 9.02686 9.02734 9.5713 9.02734 10.2429C9.02734 10.9145 9.57179 11.459 10.2434 11.459Z" fill="black"/>
<path d="M13.1623 15.3503C13.8339 15.3503 14.3784 14.8059 14.3784 14.1343C14.3784 13.4627 13.8339 12.9182 13.1623 12.9182C12.4907 12.9182 11.9463 13.4627 11.9463 14.1343C11.9463 14.8059 12.4907 15.3503 13.1623 15.3503Z" fill="black"/>
</svg>
