<svg width="19" height="18" viewBox="0 0 19 18" fill="none" xmlns="http://www.w3.org/2000/svg">
<g id="Option Icon">
<path id="Vector" d="M9.83698 12.349C9.83698 12.571 9.74878 12.784 9.59178 12.941C9.43477 13.098 9.22183 13.1862 8.99979 13.1862C8.77775 13.1862 8.56481 13.098 8.40781 12.941C8.2508 12.784 8.1626 12.571 8.1626 12.349C8.1626 12.1269 8.2508 11.914 8.40781 11.757C8.56481 11.6 8.77775 11.5118 8.99979 11.5118C9.22183 11.5118 9.43477 11.6 9.59178 11.757C9.74878 11.914 9.83698 12.1269 9.83698 12.349Z" fill="black"/>
<path id="Vector_2" fill-rule="evenodd" clip-rule="evenodd" d="M16.4676 0.130108C16.5663 0.205748 16.6403 0.308983 16.6802 0.426726C16.7202 0.54447 16.7242 0.671422 16.692 0.791491L15.859 3.90083L17.4463 2.98494C17.5177 2.94306 17.5967 2.91572 17.6788 2.90451C17.7608 2.89329 17.8443 2.89841 17.9243 2.91957C18.0044 2.94074 18.0795 2.97753 18.1452 3.02783C18.211 3.07813 18.2662 3.14095 18.3076 3.21266C18.349 3.28437 18.3758 3.36356 18.3865 3.44568C18.3972 3.5278 18.3915 3.61121 18.3698 3.69113C18.3481 3.77104 18.3108 3.84587 18.2601 3.91132C18.2093 3.97676 18.1462 4.03152 18.0742 4.07245L15.1741 5.74684C15.0665 5.80912 14.9429 5.83807 14.8189 5.83002C14.6948 5.82196 14.5759 5.77727 14.4773 5.7016C14.3787 5.62592 14.3047 5.52268 14.2649 5.40495C14.225 5.28721 14.2209 5.16028 14.2532 5.04025L15.0871 1.93007L13.4997 2.8468C13.3554 2.93006 13.1839 2.95259 13.023 2.90941C12.8621 2.86623 12.7249 2.7609 12.6416 2.61657C12.5584 2.47225 12.5358 2.30076 12.579 2.13983C12.6222 1.9789 12.7275 1.84171 12.8718 1.75845L15.7719 0.0840625C15.8795 0.0219505 16.0032 -0.00682897 16.1271 0.00136777C16.2511 0.0095645 16.3691 0.0543688 16.4676 0.130108ZM8.99983 1.25613C7.4682 1.25613 5.97097 1.71031 4.69747 2.56124C3.42397 3.41216 2.4314 4.62162 1.84527 6.03666C1.25914 7.45169 1.10578 9.00876 1.40459 10.511C1.70339 12.0132 2.44094 13.393 3.52397 14.476C4.60699 15.5591 5.98685 16.2966 7.48904 16.5954C8.99124 16.8942 10.5483 16.7409 11.9633 16.1547C13.3784 15.5686 14.5878 14.576 15.4388 13.3025C16.2897 12.029 16.7439 10.5318 16.7439 9.00017C16.7439 8.83364 16.81 8.67394 16.9278 8.55618C17.0455 8.43843 17.2052 8.37228 17.3718 8.37228C17.5383 8.37228 17.698 8.43843 17.8158 8.55618C17.9335 8.67394 17.9997 8.83364 17.9997 9.00017C17.9997 13.9706 13.9702 18 8.99983 18C4.02941 18 0 13.9706 0 9.00017C0 4.02976 4.02941 0.000343108 8.99983 0.000343108C9.16636 0.000343108 9.32606 0.0664962 9.44382 0.184249C9.56157 0.302002 9.62772 0.46171 9.62772 0.628238C9.62772 0.794766 9.56157 0.954474 9.44382 1.07223C9.32606 1.18998 9.16636 1.25613 8.99983 1.25613ZM10.1702 3.24447C10.2114 3.17297 10.2663 3.1103 10.3317 3.06002C10.3972 3.00975 10.4719 2.97287 10.5516 2.95149C10.6313 2.93011 10.7144 2.92464 10.7962 2.93541C10.878 2.94618 10.9569 2.97296 11.0283 3.01424L12.4784 3.85143C12.5859 3.91353 12.6726 4.00613 12.7276 4.11752C12.7825 4.22891 12.8032 4.35408 12.7869 4.47721C12.7707 4.60035 12.7183 4.7159 12.6365 4.80927C12.5546 4.90263 12.4468 4.96961 12.3268 5.00174L11.5039 5.22275L11.6412 5.30229C11.7842 5.38614 11.8883 5.52317 11.9307 5.68347C11.973 5.84377 11.9503 6.01433 11.8674 6.15792C11.7845 6.30151 11.6481 6.40648 11.4881 6.44992C11.3281 6.49337 11.1574 6.47175 11.0133 6.3898L9.56326 5.55261C9.45569 5.49058 9.36893 5.39804 9.31395 5.28671C9.25897 5.17538 9.23823 5.05024 9.25436 4.92712C9.27049 4.804 9.32276 4.68843 9.40457 4.59501C9.48637 4.5016 9.59404 4.43454 9.71395 4.40231L10.5378 4.18129L10.4005 4.10259C10.329 4.0614 10.2663 4.00651 10.216 3.94108C10.1657 3.87564 10.1289 3.80094 10.1075 3.72125C10.0861 3.64155 10.0806 3.55842 10.0914 3.47661C10.1022 3.3948 10.129 3.31592 10.1702 3.24447ZM3.97499 7.69582C4.03631 7.64057 4.10792 7.59796 4.18573 7.57041C4.26353 7.54286 4.346 7.53092 4.42843 7.53527C4.51085 7.53963 4.59161 7.56019 4.66607 7.59578C4.74054 7.63138 4.80726 7.6813 4.86242 7.74271C5.25088 8.17554 5.67031 8.37228 6.06965 8.37228C6.46899 8.37228 6.88843 8.17554 7.27688 7.74354C7.33155 7.68073 7.39817 7.62941 7.47286 7.59258C7.54755 7.55576 7.62882 7.53415 7.71193 7.52903C7.79505 7.52391 7.87836 7.53538 7.957 7.56276C8.03565 7.59014 8.10806 7.6329 8.17002 7.68853C8.23199 7.74416 8.28226 7.81157 8.31793 7.88682C8.35359 7.96207 8.37394 8.04366 8.37777 8.12685C8.3816 8.21004 8.36884 8.29316 8.34025 8.37137C8.31165 8.44958 8.26778 8.52132 8.21119 8.58241C7.65027 9.20528 6.91522 9.62807 6.06965 9.62807C5.22409 9.62807 4.48819 9.20528 3.92811 8.58325C3.87286 8.52193 3.83024 8.45032 3.80269 8.37252C3.77514 8.29471 3.76321 8.21224 3.76756 8.12982C3.77191 8.04739 3.79248 7.96664 3.82807 7.89217C3.86366 7.8177 3.91359 7.75098 3.97499 7.69582ZM9.83535 7.69582C9.89667 7.64057 9.96828 7.59796 10.0461 7.57041C10.1239 7.54286 10.2064 7.53092 10.2888 7.53527C10.3712 7.53963 10.452 7.56019 10.5264 7.59578C10.6009 7.63138 10.6676 7.6813 10.7228 7.74271C11.1121 8.17554 11.5307 8.37228 11.93 8.37228C12.3293 8.37228 12.7479 8.17554 13.1372 7.74354C13.1919 7.68073 13.2585 7.62941 13.3332 7.59258C13.4079 7.55576 13.4892 7.53415 13.5723 7.52903C13.6554 7.52391 13.7387 7.53538 13.8174 7.56276C13.896 7.59014 13.9684 7.6329 14.0304 7.68853C14.0923 7.74416 14.1426 7.81157 14.1783 7.88682C14.2139 7.96207 14.2343 8.04366 14.2381 8.12685C14.242 8.21004 14.2292 8.29316 14.2006 8.37137C14.172 8.44958 14.1281 8.52132 14.0715 8.58241C13.5106 9.20528 12.7756 9.62807 11.93 9.62807C11.0844 9.62807 10.3485 9.20528 9.78846 8.58325C9.73321 8.52193 9.6906 8.45032 9.66305 8.37252C9.6355 8.29471 9.62356 8.21224 9.62791 8.12982C9.63227 8.04739 9.65283 7.96664 9.68842 7.89217C9.72402 7.8177 9.77394 7.75098 9.83535 7.69582Z" fill="black"/>
</g>
</svg>
