<svg width="18" height="18" viewBox="0 0 18 18" fill="none" xmlns="http://www.w3.org/2000/svg">
<path d="M14.4562 5.97284C14.5192 5.91001 14.5692 5.83538 14.6033 5.75321C14.6374 5.67105 14.6549 5.58296 14.6549 5.494C14.6549 5.40504 14.6374 5.31696 14.6033 5.23479C14.5692 5.15263 14.5192 5.07799 14.4562 5.01517L12.9642 3.52321C12.9018 3.45861 12.8271 3.40709 12.7446 3.37165C12.6621 3.3362 12.5733 3.31754 12.4835 3.31676C12.3937 3.31598 12.3047 3.3331 12.2215 3.3671C12.1384 3.40111 12.0629 3.45133 11.9994 3.51483C11.9359 3.57833 11.8857 3.65384 11.8517 3.73696C11.8176 3.82008 11.8005 3.90913 11.8013 3.99893C11.8021 4.08874 11.8208 4.17748 11.8562 4.25999C11.8916 4.34251 11.9432 4.41714 12.0078 4.47952L13.4998 5.97284C13.6267 6.09963 13.7987 6.17085 13.978 6.17085C14.1574 6.17085 14.3294 6.09963 14.4562 5.97284ZM6.49807 12.9741C6.56267 13.0365 6.6142 13.1111 6.64965 13.1936C6.68509 13.2761 6.70375 13.3649 6.70453 13.4547C6.70531 13.5445 6.6882 13.6335 6.65419 13.7167C6.62018 13.7998 6.56996 13.8753 6.50645 13.9388C6.44295 14.0023 6.36743 14.0525 6.28431 14.0865C6.20118 14.1205 6.11212 14.1376 6.02231 14.1368C5.9325 14.1361 5.84375 14.1174 5.76123 14.082C5.67871 14.0465 5.60408 13.995 5.54168 13.9304L4.04826 12.4384C3.98366 12.3761 3.93213 12.3014 3.89668 12.2189C3.86124 12.1364 3.84258 12.0477 3.8418 11.9579C3.84102 11.8681 3.85813 11.779 3.89214 11.6959C3.92615 11.6128 3.97637 11.5372 4.03988 11.4737C4.10338 11.4102 4.1789 11.36 4.26202 11.326C4.34515 11.292 4.43421 11.2749 4.52402 11.2757C4.61383 11.2765 4.70258 11.2951 4.7851 11.3306C4.86762 11.366 4.94225 11.4175 5.00465 11.4821L6.49807 12.9741ZM17.4715 0.529823C17.3035 0.361851 17.1041 0.228606 16.8847 0.137698C16.6652 0.0467902 16.43 0 16.1925 0C15.9549 0 15.7197 0.0467902 15.5003 0.137698C15.2808 0.228606 15.0814 0.361851 14.9135 0.529823L14.2506 1.19397L14.0261 0.972136C13.7936 0.740215 13.5134 0.561752 13.2049 0.44918C12.8965 0.336608 12.5672 0.292632 12.2399 0.320315C11.9127 0.347998 11.5955 0.446675 11.3103 0.609473C11.0252 0.772271 10.7789 0.995275 10.5888 1.26295C10.0095 1.14977 9.40911 1.22567 8.87622 1.47947C8.34333 1.73327 7.90607 2.15155 7.62891 2.67265C7.35175 3.19374 7.24934 3.79009 7.33679 4.37379C7.42423 4.95749 7.6969 5.49766 8.11459 5.91467L8.82208 6.6221L6.64146 8.8012L5.93398 8.09377C5.51687 7.6759 4.9765 7.40313 4.39257 7.31568C3.80864 7.22824 3.21207 7.33074 2.69083 7.60809C2.16959 7.88544 1.75129 8.32294 1.49761 8.85607C1.24393 9.3892 1.16832 9.98973 1.28191 10.5691C1.01399 10.7592 0.790765 11.0055 0.627811 11.2908C0.464857 11.5761 0.366092 11.8935 0.338403 12.2208C0.310714 12.5482 0.354766 12.8776 0.467489 13.1862C0.580211 13.4948 0.758891 13.7751 0.991069 14.0075L1.21427 14.2293L0.529785 14.9124C0.190569 15.2516 -6.19073e-09 15.7116 0 16.1913C6.19073e-09 16.671 0.19057 17.1311 0.529785 17.4703C0.869001 17.8094 1.32908 18 1.8088 18C2.28852 18 2.7486 17.8094 3.08782 17.4703L3.7723 16.7872L3.9955 17.0104C4.22804 17.2422 4.50834 17.4206 4.81687 17.533C5.12539 17.6455 5.45473 17.6894 5.78194 17.6615C6.10914 17.6337 6.42635 17.5349 6.71147 17.372C6.99658 17.2091 7.24275 16.986 7.43281 16.7182C8.01211 16.8314 8.61245 16.7555 9.14535 16.5017C9.67824 16.2479 10.1155 15.8296 10.3927 15.3085C10.6698 14.7874 10.7722 14.191 10.6848 13.6074C10.5973 13.0237 10.3247 12.4835 9.90697 12.0665L9.19949 11.359L11.3801 9.18129L12.0876 9.88872C12.5047 10.3066 13.0451 10.5794 13.629 10.6668C14.2129 10.7543 14.8095 10.6517 15.3307 10.3744C15.852 10.0971 16.2703 9.65956 16.524 9.12643C16.7776 8.5933 16.8533 7.99276 16.7397 7.4134C16.8416 7.34126 16.9385 7.25965 17.0305 7.16857C17.4534 6.74504 17.691 6.17098 17.691 5.57246C17.691 4.97393 17.4534 4.39987 17.0305 3.97634L16.8073 3.75316L17.4701 3.09037C17.6381 2.92243 17.7714 2.72305 17.8623 2.50361C17.9532 2.28417 18 2.04897 18 1.81145C18 1.57392 17.9532 1.33873 17.8623 1.11929C17.7714 0.899848 17.6381 0.700466 17.4701 0.532529M15.8509 2.79684L15.2057 2.15164L15.8685 1.48884C15.9541 1.4031 16.0702 1.35487 16.1913 1.35474C16.3125 1.35461 16.4287 1.40261 16.5144 1.48817C16.6002 1.57373 16.6484 1.68984 16.6485 1.81097C16.6487 1.9321 16.6007 2.04831 16.5151 2.13405L15.8509 2.79684ZM10.4237 8.22363L8.24175 10.4027L7.59649 9.75752L9.77711 7.57842L10.4237 8.22363ZM2.81591 15.8309L2.13143 16.5139C2.04586 16.5995 1.92981 16.6476 1.8088 16.6476C1.68779 16.6476 1.57174 16.5995 1.48617 16.5139C1.40061 16.4284 1.35253 16.3123 1.35253 16.1913C1.35253 16.0703 1.40061 15.9543 1.48617 15.8687L2.17066 15.1857L2.81591 15.8309ZM11.7913 1.92845C11.9612 1.75953 12.191 1.66471 12.4305 1.66471C12.67 1.66471 12.8998 1.75953 13.0697 1.92845L16.0728 4.93131C16.1818 5.04074 16.2611 5.17625 16.3031 5.32495C16.345 5.47365 16.3483 5.63061 16.3125 5.78091C16.2767 5.93121 16.2031 6.06988 16.0986 6.18372C15.9942 6.29757 15.8623 6.38282 15.7156 6.43138C15.6251 6.46089 15.5417 6.5092 15.4711 6.57314C15.4005 6.63709 15.3442 6.71523 15.3059 6.80245C15.2676 6.88967 15.2481 6.984 15.2488 7.07927C15.2495 7.17453 15.2703 7.26857 15.3098 7.35523C15.4459 7.65406 15.4728 7.99114 15.3858 8.30776C15.2989 8.62438 15.1037 8.90048 14.8341 9.08796C14.5645 9.27544 14.2377 9.36242 13.9106 9.33375C13.5835 9.30507 13.2768 9.16257 13.044 8.93106L9.07098 4.95836C8.83707 4.7263 8.69242 4.41924 8.66242 4.09113C8.63243 3.76302 8.71902 3.43483 8.90698 3.16421C9.09494 2.8936 9.37225 2.69786 9.6902 2.61138C10.0082 2.5249 10.3464 2.55321 10.6456 2.69134C10.7323 2.73112 10.8265 2.7521 10.9219 2.7529C11.0173 2.7537 11.1118 2.73429 11.1992 2.69597C11.2866 2.65764 11.3649 2.60126 11.429 2.53052C11.493 2.45979 11.5414 2.3763 11.5708 2.28555C11.6167 2.15152 11.692 2.02949 11.7913 1.92845ZM2.99312 9.05009C3.12328 8.91978 3.27785 8.81641 3.44799 8.74588C3.61813 8.67536 3.8005 8.63906 3.98468 8.63906C4.16886 8.63906 4.35124 8.67536 4.52137 8.74588C4.69151 8.81641 4.84608 8.91978 4.97624 9.05009L8.94923 13.0241C9.18163 13.2564 9.32501 13.563 9.35434 13.8902C9.38366 14.2174 9.29705 14.5446 9.10965 14.8145C8.92225 15.0844 8.64597 15.2798 8.32908 15.3667C8.0122 15.4536 7.67485 15.4264 7.376 15.2898C7.28926 15.25 7.19509 15.229 7.09966 15.2282C7.00424 15.2274 6.90973 15.2468 6.82233 15.2852C6.73494 15.3235 6.65665 15.3799 6.59261 15.4506C6.52856 15.5214 6.48021 15.6048 6.45072 15.6956C6.40221 15.8421 6.31708 15.9738 6.2034 16.0782C6.08972 16.1826 5.95126 16.2563 5.80114 16.2922C5.65101 16.3281 5.49421 16.3251 5.34559 16.2834C5.19697 16.2417 5.06145 16.1628 4.95189 16.054L1.94881 13.0498C1.83939 12.9405 1.75977 12.805 1.71754 12.6562C1.6753 12.5074 1.67185 12.3503 1.70751 12.1998C1.74317 12.0493 1.81676 11.9104 1.92127 11.7964C2.02578 11.6824 2.15774 11.597 2.30458 11.5484C2.39516 11.5189 2.47849 11.4706 2.54911 11.4066C2.61972 11.3427 2.67603 11.2646 2.71435 11.1773C2.75266 11.0901 2.77211 10.9958 2.77143 10.9005C2.77075 10.8053 2.74995 10.7112 2.7104 10.6246C2.59189 10.3642 2.55559 10.0738 2.60634 9.79229C2.6571 9.51074 2.79249 9.25136 2.99448 9.04873" fill="black"/>
</svg>
