<svg width="16" height="21" viewBox="0 0 16 21" fill="none" xmlns="http://www.w3.org/2000/svg">
<path d="M11.2814 4.72209C11.9076 4.72209 12.5081 4.47334 12.9509 4.03056C13.3937 3.58778 13.6424 2.98724 13.6424 2.36105C13.6424 1.73486 13.3937 1.13432 12.9509 0.691535C12.5081 0.248752 11.9076 0 11.2814 0C10.6552 0 10.0547 0.248752 9.61188 0.691535C9.1691 1.13432 8.92035 1.73486 8.92035 2.36105C8.92035 2.98724 9.1691 3.58778 9.61188 4.03056C10.0547 4.47334 10.6552 4.72209 11.2814 4.72209ZM8.27289 4.72105C6.70411 4.50068 3.11847 5.13764 1.64098 9.07587C1.54329 9.3365 1.55314 9.62526 1.66836 9.87863C1.78359 10.132 1.99474 10.3292 2.25537 10.4269C2.51601 10.5246 2.80477 10.5147 3.05814 10.3995C3.31151 10.2843 3.50873 10.0731 3.60642 9.81251C4.21924 8.18077 5.32316 7.38221 6.30745 7.02648L5.07971 10.1808C5.05942 10.2333 5.04368 10.2858 5.03249 10.3382C4.98219 10.4995 4.97158 10.6705 5.00154 10.8368C5.0315 11.003 5.10115 11.1596 5.20458 11.2932L8.94238 16.1275L9.18478 20.0028C9.19169 20.1415 9.22606 20.2775 9.28591 20.4028C9.34576 20.5282 9.42989 20.6404 9.53344 20.7329C9.63698 20.8255 9.75787 20.8966 9.8891 20.9421C10.0203 20.9876 10.1593 21.0066 10.2979 20.998C10.4365 20.9894 10.5721 20.9533 10.6967 20.8919C10.8212 20.8305 10.9324 20.745 11.0237 20.6404C11.115 20.5357 11.1846 20.4139 11.2285 20.2821C11.2723 20.1504 11.2896 20.0112 11.2793 19.8727L10.996 15.3531L8.80072 12.5125L10.2415 9.72017L10.3391 9.86078C10.6123 10.2578 11.0139 10.5487 11.4764 10.6846C11.9388 10.8205 12.4339 10.793 12.8785 10.6069L15.0979 9.67715C15.3482 9.56536 15.5448 9.36009 15.6457 9.10522C15.7465 8.85035 15.7437 8.56612 15.6377 8.31333C15.5318 8.06054 15.3311 7.85924 15.0786 7.7525C14.8261 7.64575 14.5419 7.64203 14.2867 7.74214L12.0674 8.67186L10.3821 6.22162C9.99399 5.54978 9.37433 5.04241 8.63912 4.7945C8.52033 4.75445 8.3969 4.72976 8.27184 4.72105" fill="black"/>
<path d="M4.14528 15.1632L5.0131 12.5902L6.5546 14.584L6.13276 15.8338C5.98451 16.2732 5.69487 16.6512 5.3091 16.9086C4.92333 17.166 4.46316 17.2884 4.00047 17.2567L0.978328 17.05C0.840801 17.0406 0.706465 17.0042 0.582992 16.9429C0.459519 16.8817 0.349326 16.7966 0.258706 16.6928C0.168085 16.5889 0.0988113 16.4682 0.0548391 16.3376C0.0108669 16.2069 -0.0069424 16.0689 0.00242821 15.9314C0.0117988 15.7938 0.0481658 15.6595 0.109453 15.536C0.170739 15.4125 0.255746 15.3024 0.359619 15.2117C0.463491 15.1211 0.584196 15.0518 0.714841 15.0079C0.845486 14.9639 0.983512 14.9461 1.12104 14.9555L4.14528 15.1632Z" fill="black"/>
</svg>
