<svg width="13" height="18" viewBox="0 0 13 18" fill="none" xmlns="http://www.w3.org/2000/svg">
<path d="M6.5 0L5.6875 0.918591C5.6875 0.918591 4.30083 2.50425 2.90333 4.56015C1.50583 6.61604 0 9.07655 0 11.4386C0 13.1788 0.68482 14.8477 1.90381 16.0782C3.12279 17.3087 4.77609 18 6.5 18C8.22391 18 9.87721 17.3087 11.0962 16.0782C12.3152 14.8477 13 13.1788 13 11.4386C13 9.07655 11.4942 6.61604 10.0967 4.56015C8.69917 2.50425 7.3125 0.918591 7.3125 0.918591L6.5 0ZM6.5 3.42284C6.97667 3.99149 7.41 4.46173 8.32 5.79587C9.63083 7.72053 10.8333 10.1701 10.8333 11.4386C10.8333 13.8663 8.905 15.8129 6.5 15.8129C4.095 15.8129 2.16667 13.8663 2.16667 11.4386C2.16667 10.1701 3.36917 7.72053 4.68 5.79587C5.59 4.46173 6.02333 3.99149 6.5 3.42284Z" fill="black"/>
</svg>
