<svg width="16" height="18" viewBox="0 0 16 18" fill="none" xmlns="http://www.w3.org/2000/svg">
<path d="M7.17663 6.3C6.33801 6.3 5.51464 6.4164 4.70651 6.6492C3.89839 6.882 3.15125 7.2306 2.46511 7.695L3.42571 16.2H12.5743L13.5806 7.2H12.9402C12.3608 7.2 11.8348 7.1589 11.3621 7.0767C10.8894 6.9945 10.2414 6.8331 9.41803 6.5925C9.06733 6.4875 8.70139 6.4125 8.3202 6.3675C7.93901 6.3225 7.55782 6.3 7.17663 6.3ZM2.2364 5.7375C3.01403 5.3325 3.81849 5.025 4.64979 4.815C5.48109 4.605 6.33099 4.5 7.1995 4.5C7.65693 4.5 8.1107 4.53 8.56081 4.59C9.01092 4.65 9.45676 4.74 9.89833 4.86C10.6607 5.07 11.2441 5.2125 11.6485 5.2875C12.0528 5.3625 12.4834 5.4 12.9402 5.4H13.7865L14.1753 1.8H1.82471L2.2364 5.7375ZM3.40284 18C2.93016 18 2.52244 17.85 2.17968 17.55C1.83691 17.25 1.64235 16.8675 1.596 16.4025L0.0178683 2.2275C-0.0583698 1.6275 0.109354 1.1064 0.52104 0.6642C0.932726 0.222 1.44352 0.0006 2.05343 0H13.9466C14.5565 0 15.0673 0.2214 15.479 0.6642C15.8906 1.107 16.0584 1.6281 15.9821 2.2275L14.404 16.4025C14.3583 16.8675 14.1637 17.25 13.8203 17.55C13.4769 17.85 13.0692 18 12.5972 18H3.40284Z" fill="black"/>
</svg>
