<svg width="18" height="14" viewBox="0 0 18 14" fill="none" xmlns="http://www.w3.org/2000/svg">
<path d="M14.742 3.9637e-05C15.021 3.9637e-05 15.2712 0.168039 15.372 0.421788C15.876 1.70103 16.8201 2.18491 17.325 2.18491C17.504 2.18491 17.6757 2.25405 17.8023 2.37712C17.9289 2.50019 18 2.66711 18 2.84116C18 3.0152 17.9289 3.18212 17.8023 3.30519C17.6757 3.42826 17.504 3.4974 17.325 3.4974C16.4232 3.4974 15.4467 2.96278 14.7393 2.02128C14.0067 2.97766 12.9654 3.4974 11.871 3.4974C10.7757 3.4974 9.7326 2.97678 9 2.01866C8.2674 2.97678 7.2243 3.4974 6.129 3.4974C5.0355 3.4974 3.9933 2.97853 3.2616 2.02216C2.5542 2.96453 1.5777 3.50003 0.675 3.50003C0.495979 3.50003 0.32429 3.43089 0.197703 3.30782C0.0711158 3.18475 0 3.01783 0 2.84378C0 2.66973 0.0711158 2.50281 0.197703 2.37974C0.32429 2.25667 0.495979 2.18753 0.675 2.18753C1.179 2.18753 2.124 1.70366 2.628 0.421788C2.67682 0.297704 2.76323 0.190948 2.8758 0.115635C2.98837 0.0403221 3.1218 0 3.25845 0C3.3951 0 3.52853 0.0403221 3.6411 0.115635C3.75367 0.190948 3.84008 0.297704 3.8889 0.421788C4.3785 1.66341 5.3019 2.18491 6.1299 2.18491C6.9579 2.18491 7.8795 1.66253 8.37 0.421788C8.41898 0.297987 8.5054 0.191523 8.61787 0.11643C8.73033 0.0413367 8.86357 0.00114071 9 0.00114071C9.13643 0.00114071 9.26967 0.0413367 9.38213 0.11643C9.4946 0.191523 9.58102 0.297987 9.63 0.421788C10.1196 1.66341 11.043 2.18491 11.871 2.18491C12.699 2.18491 13.6215 1.66253 14.1111 0.421788C14.1599 0.297781 14.2462 0.191082 14.3587 0.115782C14.4712 0.0404826 14.6054 0.000125099 14.742 3.9637e-05ZM14.7411 5.25002C14.8777 5.25011 15.011 5.29047 15.1235 5.36577C15.236 5.44107 15.3223 5.54777 15.3711 5.67177C15.8751 6.95102 16.8192 7.43489 17.3241 7.43489C17.5031 7.43489 17.6748 7.50403 17.8014 7.6271C17.928 7.75017 17.9991 7.91709 17.9991 8.09114C17.9991 8.26519 17.928 8.43211 17.8014 8.55518C17.6748 8.67825 17.5031 8.74739 17.3241 8.74739C16.4223 8.74739 15.4458 8.21277 14.7384 7.27127C14.0058 8.22764 12.9645 8.74739 11.8701 8.74739C10.7748 8.74739 9.7317 8.22764 8.9991 7.26864C8.2665 8.22677 7.2234 8.74739 6.1281 8.74739C5.0346 8.74739 3.9924 8.22852 3.2607 7.27302C2.5542 8.21452 1.5777 8.75002 0.675 8.75002C0.495979 8.75002 0.32429 8.68087 0.197703 8.5578C0.0711158 8.43473 0 8.26781 0 8.09377C0 7.91972 0.0711158 7.7528 0.197703 7.62973C0.32429 7.50666 0.495979 7.43752 0.675 7.43752C1.179 7.43752 2.124 6.95365 2.628 5.67177C2.67682 5.54769 2.76323 5.44093 2.8758 5.36562C2.98837 5.29031 3.1218 5.24999 3.25845 5.24999C3.3951 5.24999 3.52853 5.29031 3.6411 5.36562C3.75367 5.44093 3.84008 5.54769 3.8889 5.67177C4.3785 6.9134 5.3019 7.43489 6.1299 7.43489C6.9579 7.43489 7.8804 6.9134 8.37 5.67177C8.41898 5.54797 8.5054 5.44151 8.61787 5.36641C8.73033 5.29132 8.86357 5.25113 9 5.25113C9.13643 5.25113 9.26967 5.29132 9.38213 5.36641C9.4946 5.44151 9.58102 5.54797 9.63 5.67177C10.1196 6.9134 11.043 7.43489 11.871 7.43489C12.699 7.43489 13.6215 6.91252 14.1111 5.67177C14.1599 5.54777 14.2462 5.44107 14.3587 5.36577C14.4712 5.29047 14.6045 5.25011 14.7411 5.25002ZM15.3711 10.9218C15.3223 10.7977 15.2359 10.6909 15.1233 10.6156C15.0107 10.5403 14.8773 10.5 14.7406 10.5C14.604 10.5 14.4706 10.5403 14.358 10.6156C14.2454 10.6909 14.159 10.7977 14.1102 10.9218C13.6206 12.1625 12.6972 12.6849 11.8692 12.6849C11.0412 12.6849 10.1187 12.1634 9.6291 10.9218C9.58012 10.798 9.4937 10.6915 9.38123 10.6164C9.26877 10.5413 9.13553 10.5011 8.9991 10.5011C8.86267 10.5011 8.72943 10.5413 8.61697 10.6164C8.5045 10.6915 8.41808 10.798 8.3691 10.9218C7.8795 12.1634 6.9561 12.6849 6.1281 12.6849C5.3001 12.6849 4.3776 12.1634 3.888 10.9218C3.83902 10.798 3.7526 10.6915 3.64013 10.6164C3.52767 10.5413 3.39443 10.5011 3.258 10.5011C3.12157 10.5011 2.98833 10.5413 2.87587 10.6164C2.7634 10.6915 2.67698 10.798 2.628 10.9218C2.1222 12.2036 1.179 12.6875 0.675 12.6875C0.495979 12.6875 0.32429 12.7566 0.197703 12.8797C0.0711158 13.0028 0 13.1697 0 13.3438C0 13.5178 0.0711158 13.6847 0.197703 13.8078C0.32429 13.9309 0.495979 14 0.675 14C1.5777 14 2.5542 13.4645 3.2616 12.5221C3.9933 13.4785 5.0346 13.9974 6.129 13.9974C7.2243 13.9974 8.2674 13.4776 9 12.5186C9.7326 13.4776 10.7757 13.9974 11.871 13.9974C12.9663 13.9974 14.0067 13.4776 14.7393 12.5213C15.4467 13.4628 16.4223 13.9974 17.325 13.9974C17.504 13.9974 17.6757 13.9282 17.8023 13.8052C17.9289 13.6821 18 13.5152 18 13.3411C18 13.1671 17.9289 13.0002 17.8023 12.8771C17.6757 12.754 17.504 12.6849 17.325 12.6849C16.8201 12.6849 15.8751 12.201 15.3711 10.9218Z" fill="black"/>
</svg>
