<svg width="18" height="18" viewBox="0 0 18 18" fill="none" xmlns="http://www.w3.org/2000/svg">
<g clip-path="url(#clip0_576_2451)">
<path d="M17.7922 14.2622C17.1446 14.2112 16.4805 14.1856 15.8179 14.1856C14.4042 14.1828 12.9932 14.3063 11.6016 14.5547V13.7813H11.8652C12.075 13.7811 12.2761 13.6977 12.4244 13.5494C12.5727 13.4011 12.6561 13.2 12.6562 12.9902V12.7266H13.4473C13.657 12.7264 13.8581 12.643 14.0064 12.4947C14.1547 12.3464 14.2381 12.1453 14.2383 11.9356V11.2324C14.2381 11.0227 14.1547 10.8216 14.0064 10.6733C13.8581 10.525 13.657 10.4416 13.4473 10.4414H12.1289V10.3535C12.1287 10.1676 12.0749 9.98567 11.9741 9.8295C11.8732 9.67332 11.7295 9.54951 11.5601 9.47286L12.4003 7.16485C12.527 7.1564 12.654 7.1564 12.7807 7.16485C13.5411 7.21688 14.0815 7.58391 14.3902 8.25469C14.4179 8.31485 14.4672 8.36239 14.5284 8.38791C14.5895 8.41343 14.658 8.41507 14.7203 8.3925C14.7878 8.36825 16.3804 7.80891 16.9639 9.18563C16.9836 9.2323 17.0163 9.2723 17.0582 9.30081C17.1 9.32931 17.1492 9.34511 17.1998 9.34629H17.2065C17.256 9.34633 17.3045 9.33243 17.3465 9.3062C17.3885 9.27996 17.4222 9.24244 17.4438 9.19793C17.4632 9.15821 17.917 8.20969 17.9902 6.8175C18.0577 5.53254 17.7986 3.61301 16.1796 1.76625C15.6017 1.11335 14.8699 0.615191 14.0505 0.317046C13.2312 0.0189019 12.3503 -0.0697775 11.488 0.0590662C9.06117 0.433129 7.62891 1.73707 6.85547 2.76469C6.01699 3.87844 5.75473 4.89657 5.74418 4.93946C5.73229 4.98822 5.73457 5.03937 5.75074 5.08688C5.76692 5.1344 5.79632 5.17631 5.83549 5.20769C5.87466 5.23908 5.92198 5.25863 5.97188 5.26404C6.02178 5.26946 6.07219 5.26053 6.11719 5.23829C7.44926 4.55836 8.30953 6.01172 8.34539 6.07219C8.37833 6.12987 8.43184 6.17296 8.49521 6.19285C8.55858 6.21273 8.62713 6.20793 8.68711 6.17942C9.67465 5.71079 10.4534 6.17942 10.9139 6.61993L9.90809 9.38672H6.38121L5.26219 7.70801C5.17404 7.57545 5.05446 7.46676 4.91411 7.39161C4.77376 7.31647 4.61701 7.27722 4.45781 7.27735H3.31664L2.94715 6.69621C2.92326 6.65885 2.89036 6.62809 2.85147 6.60677C2.81258 6.58545 2.76896 6.57426 2.72461 6.57422H1.53211C1.35954 6.57419 1.19012 6.62037 1.04143 6.70795C0.892739 6.79553 0.770214 6.92133 0.686579 7.07228C0.602944 7.22322 0.56125 7.39381 0.565829 7.56631C0.570408 7.73882 0.621092 7.90695 0.712617 8.05325L3.34934 12.272C3.43572 12.4115 3.55639 12.5265 3.69986 12.6061C3.84332 12.6856 4.00478 12.7271 4.16883 12.7266H4.39453V12.9902C4.39472 13.2 4.47812 13.4011 4.62642 13.5494C4.77472 13.6977 4.97581 13.7811 5.18555 13.7813H5.44922V14.4106C4.0282 14.1156 2.43281 13.957 0.775898 13.957C0.621914 13.957 0.459492 13.957 0.293906 13.9616C0.224833 13.9629 0.159024 13.9912 0.110636 14.0406C0.0622472 14.0899 0.0351442 14.1562 0.0351563 14.2253V17.7363C0.0351563 17.8063 0.0629359 17.8733 0.112384 17.9228C0.161832 17.9722 0.228898 18 0.298828 18H17.7715C17.8414 18 17.9085 17.9722 17.9579 17.9228C18.0074 17.8733 18.0352 17.8063 18.0352 17.7363V14.5252C18.0352 14.4588 18.0102 14.3949 17.9652 14.3461C17.9201 14.2974 17.8584 14.2674 17.7922 14.2622ZM11.0742 14.6573C10.8956 14.6948 10.7198 14.7346 10.5469 14.7765V13.7813H11.0742V14.6573ZM8.55422 15.4111C8.06122 15.1777 7.55229 14.9797 7.03125 14.8184V13.7813H10.0195V14.914C9.52165 15.0504 9.03234 15.2164 8.55422 15.4111ZM17.4646 6.76829C17.4354 7.34729 17.3318 7.92013 17.1562 8.47266C16.8071 8.02372 16.3034 7.77235 15.6734 7.73789C15.6234 7.73508 15.5742 7.73368 15.5257 7.73368C15.3964 7.73407 15.2672 7.74264 15.139 7.75934C15.7275 6.61536 16.4331 4.81254 16.3561 2.85118C17.1615 4.0377 17.5345 5.35114 17.4646 6.76829ZM15.75 2.07739C16.1037 4.27008 15.2719 6.37348 14.625 7.60676C14.2137 7.02457 13.5974 6.6927 12.818 6.63891C12.5501 6.62242 12.2812 6.6361 12.0164 6.67969L14.1156 0.909847C14.739 1.17523 15.2968 1.57372 15.75 2.07739ZM6.42867 4.57032C6.64921 4.03365 6.93825 3.52777 7.28859 3.06528C8.14641 1.9343 9.27633 1.16684 10.6562 0.780121C9.33574 2.23137 8.71875 4.06618 8.43328 5.3209C8.31238 5.18871 8.17964 5.06785 8.03672 4.95985C7.53188 4.58121 6.98449 4.45008 6.42867 4.57032ZM8.92477 5.53325C9.22148 4.172 9.93691 2.02641 11.6177 0.574105C12.2882 0.479818 12.9711 0.532969 13.6188 0.729847L11.5207 6.49793C11.3461 6.29482 11.1491 6.11202 10.9336 5.95301C10.3008 5.49282 9.61559 5.35149 8.92617 5.53254L8.92477 5.53325ZM11.308 7.08012C11.3467 7.13532 11.3699 7.17223 11.3755 7.18137C11.4066 7.23291 11.4544 7.27226 11.5109 7.29286C11.5675 7.31345 11.6293 7.31406 11.6863 7.29457C11.6863 7.29457 11.7299 7.28016 11.8034 7.26118L11.0299 9.38848H10.4674L11.308 7.08012ZM4.45781 7.80469C4.53018 7.80462 4.60145 7.82246 4.66525 7.85663C4.72905 7.8908 4.78339 7.94023 4.82344 8.00051L6.02086 9.79664C6.04491 9.83278 6.07753 9.86242 6.1158 9.8829C6.15408 9.90339 6.19682 9.91409 6.24023 9.91407H11.1621C11.2786 9.91425 11.3903 9.96061 11.4726 10.043C11.555 10.1254 11.6014 10.237 11.6016 10.3535V10.4414H5.47488C5.43056 10.4415 5.38695 10.4303 5.3481 10.409C5.30925 10.3877 5.27643 10.3568 5.2527 10.3194L3.65238 7.80469H4.45781ZM3.79688 11.9925L1.16016 7.77375C1.11866 7.70729 1.09569 7.63093 1.09362 7.5526C1.09155 7.47427 1.11047 7.39681 1.14841 7.32825C1.18635 7.25969 1.24193 7.20252 1.30939 7.16266C1.37686 7.1228 1.45375 7.10171 1.53211 7.10157H2.57977L4.80762 10.6024C4.87888 10.715 4.97753 10.8077 5.09436 10.8717C5.21118 10.9358 5.34235 10.9692 5.47559 10.9688H13.4473C13.5172 10.9688 13.5843 10.9965 13.6337 11.046C13.6832 11.0954 13.7109 11.1625 13.7109 11.2324V11.9356C13.7109 12.0055 13.6832 12.0725 13.6337 12.122C13.5843 12.1714 13.5172 12.1992 13.4473 12.1992H4.16883C4.09436 12.1993 4.02111 12.1803 3.95601 12.1442C3.89092 12.108 3.83615 12.0558 3.79688 11.9925ZM4.92188 12.9902V12.7266H12.1289V12.9902C12.1289 13.0602 12.1011 13.1272 12.0517 13.1767C12.0022 13.2261 11.9352 13.2539 11.8652 13.2539H5.18555C5.11562 13.2539 5.04855 13.2261 4.9991 13.1767C4.94965 13.1272 4.92188 13.0602 4.92188 12.9902ZM5.97656 13.7813H6.50391V14.663C6.33164 14.6161 6.15586 14.5711 5.97656 14.528V13.7813ZM17.5078 17.4727H0.5625V14.4844H0.775898C3.52266 14.4844 6.0866 14.9259 7.92422 15.7054C7.79027 15.7757 7.6616 15.846 7.5375 15.9163C7.47899 15.9527 7.43706 16.0105 7.42066 16.0774C7.40426 16.1444 7.41471 16.215 7.44976 16.2743C7.48482 16.3337 7.5417 16.3769 7.60823 16.3948C7.67476 16.4127 7.74565 16.4039 7.80574 16.3702C8.055 16.2229 8.64703 15.9416 8.64703 15.9416C10.4843 15.1597 13.0975 14.7111 15.8161 14.7111C16.3825 14.7111 16.9495 14.7305 17.5061 14.7684L17.5078 17.4727Z" fill="black"/>
<path d="M5.69505 15.7342C4.83516 15.5079 3.95482 15.3679 3.06712 15.3165C2.99719 15.3126 2.92855 15.3365 2.8763 15.3832C2.82405 15.4298 2.79247 15.4953 2.78851 15.5653C2.78455 15.6352 2.80853 15.7038 2.85517 15.7561C2.90182 15.8083 2.96731 15.8399 3.03724 15.8439C3.88988 15.8936 4.73546 16.0281 5.56146 16.2454C5.58325 16.2512 5.6057 16.2541 5.62826 16.2541C5.69246 16.2543 5.75452 16.231 5.80279 16.1887C5.85105 16.1463 5.8822 16.0878 5.8904 16.0241C5.8986 15.9605 5.88328 15.896 5.84731 15.8428C5.81135 15.7896 5.75721 15.7513 5.69505 15.7352V15.7342Z" fill="black"/>
<path d="M1.83031 15.307L1.68723 15.3141C1.6173 15.316 1.55099 15.3456 1.50289 15.3964C1.4548 15.4472 1.42885 15.515 1.43076 15.5849C1.43267 15.6549 1.46229 15.7212 1.51309 15.7693C1.56389 15.8174 1.63171 15.8433 1.70164 15.8414H1.71676C1.76141 15.839 1.80676 15.8365 1.85317 15.8347C1.88779 15.8332 1.92178 15.8249 1.9532 15.8103C1.98461 15.7957 2.01284 15.775 2.03626 15.7494C2.05969 15.7239 2.07785 15.694 2.08971 15.6614C2.10158 15.6288 2.10691 15.5943 2.10541 15.5596C2.10391 15.525 2.0956 15.491 2.08097 15.4596C2.06633 15.4282 2.04565 15.4 2.0201 15.3765C1.99456 15.3531 1.96465 15.335 1.93209 15.3231C1.89952 15.3112 1.86494 15.3059 1.83031 15.3074V15.307Z" fill="black"/>
<path d="M11.2417 16.0035L11.1425 16.0277C11.1085 16.0356 11.0764 16.0502 11.048 16.0707C11.0197 16.0911 10.9957 16.1169 10.9774 16.1467C10.9591 16.1765 10.9469 16.2096 10.9416 16.2442C10.9362 16.2787 10.9378 16.314 10.9462 16.3479C10.9546 16.3818 10.9696 16.4137 10.9905 16.4418C11.0113 16.4698 11.0375 16.4935 11.0675 16.5113C11.0976 16.5292 11.1309 16.5408 11.1655 16.5457C11.2001 16.5506 11.2353 16.5485 11.2691 16.5396L11.3654 16.5161C11.4327 16.499 11.4905 16.4561 11.5263 16.3966C11.5621 16.3372 11.573 16.2661 11.5568 16.1987C11.5405 16.1312 11.4983 16.0729 11.4393 16.0364C11.3803 15.9998 11.3093 15.988 11.2417 16.0035Z" fill="black"/>
<path d="M12.5089 15.7437C12.4435 15.7544 12.3845 15.7895 12.3438 15.8417C12.3031 15.894 12.2835 15.9597 12.289 16.0257C12.2945 16.0917 12.3246 16.1533 12.3735 16.1981C12.4223 16.2429 12.4862 16.2677 12.5524 16.2675C12.5673 16.2674 12.5821 16.2661 12.5967 16.2636C13.9446 16.0312 15.3155 15.9604 16.6801 16.0527C16.7501 16.0576 16.8191 16.0346 16.872 15.9886C16.925 15.9427 16.9575 15.8776 16.9624 15.8077C16.9674 15.7377 16.9443 15.6687 16.8984 15.6157C16.8524 15.5628 16.7873 15.5303 16.7174 15.5253C15.3109 15.4307 13.8981 15.504 12.5089 15.7437Z" fill="black"/>
</g>
<defs>
<clipPath id="clip0_576_2451">
<rect width="18" height="18" fill="white"/>
</clipPath>
</defs>
</svg>
