<svg width="18" height="18" viewBox="0 0 18 18" fill="none" xmlns="http://www.w3.org/2000/svg">
<path d="M17.7922 14.2622C17.1446 14.2112 16.4805 14.1855 15.8179 14.1855C14.4042 14.1827 12.9932 14.3063 11.6016 14.5547V13.7812H11.8652C12.075 13.781 12.2761 13.6976 12.4244 13.5493C12.5727 13.401 12.6561 13.1999 12.6562 12.9902V12.7265H13.4473C13.657 12.7263 13.8581 12.643 14.0064 12.4946C14.1547 12.3463 14.2381 12.1453 14.2383 11.9355V11.2324C14.2381 11.0227 14.1547 10.8216 14.0064 10.6733C13.8581 10.525 13.657 10.4416 13.4473 10.4414H12.1289V10.3535C12.1287 10.1676 12.0749 9.98564 11.9741 9.82947C11.8732 9.67329 11.7295 9.54948 11.5601 9.47283L12.4003 7.16482C12.527 7.15637 12.654 7.15637 12.7807 7.16482C13.5411 7.21685 14.0815 7.58388 14.3902 8.25466C14.4179 8.31482 14.4672 8.36236 14.5284 8.38788C14.5895 8.4134 14.658 8.41504 14.7203 8.39247C14.7878 8.36822 16.3804 7.80888 16.9639 9.1856C16.9836 9.23227 17.0163 9.27227 17.0582 9.30077C17.1 9.32928 17.1492 9.34508 17.1998 9.34626H17.2065C17.256 9.3463 17.3045 9.3324 17.3465 9.30617C17.3885 9.27993 17.4222 9.24241 17.4438 9.1979C17.4632 9.15818 17.917 8.20966 17.9902 6.81747C18.0577 5.53251 17.7986 3.61298 16.1796 1.76622C15.6017 1.11332 14.8699 0.61516 14.0505 0.317016C13.2312 0.0188714 12.3503 -0.069808 11.488 0.0590357C9.06117 0.433098 7.62891 1.73704 6.85547 2.76466C6.01699 3.87841 5.75473 4.89654 5.74418 4.93943C5.73229 4.98819 5.73457 5.03934 5.75074 5.08685C5.76692 5.13437 5.79632 5.17628 5.83549 5.20766C5.87466 5.23905 5.92198 5.25859 5.97188 5.26401C6.02178 5.26943 6.07219 5.2605 6.11719 5.23825C7.44926 4.55833 8.30953 6.01169 8.34539 6.07216C8.37833 6.12983 8.43184 6.17293 8.49521 6.19282C8.55858 6.2127 8.62713 6.2079 8.68711 6.17939C9.67465 5.71075 10.4534 6.17939 10.9139 6.6199L9.90809 9.38669H6.38121L5.26219 7.70798C5.17404 7.57542 5.05446 7.46672 4.91411 7.39158C4.77376 7.31644 4.61701 7.27719 4.45781 7.27732H3.31664L2.94715 6.69618C2.92326 6.65882 2.89036 6.62806 2.85147 6.60674C2.81258 6.58542 2.76896 6.57423 2.72461 6.57419H1.53211C1.35954 6.57416 1.19012 6.62034 1.04143 6.70792C0.892739 6.7955 0.770214 6.9213 0.686579 7.07225C0.602944 7.22319 0.56125 7.39378 0.565829 7.56628C0.570408 7.73879 0.621092 7.90692 0.712617 8.05322L3.34934 12.272C3.43572 12.4114 3.55639 12.5264 3.69986 12.606C3.84332 12.6856 4.00478 12.7271 4.16883 12.7265H4.39453V12.9902C4.39472 13.1999 4.47812 13.401 4.62642 13.5493C4.77472 13.6976 4.97581 13.781 5.18555 13.7812H5.44922V14.4105C4.0282 14.1156 2.43281 13.957 0.775898 13.957C0.621914 13.957 0.459492 13.957 0.293906 13.9616C0.224833 13.9629 0.159024 13.9912 0.110636 14.0405C0.0622472 14.0898 0.0351442 14.1562 0.0351563 14.2252V17.7363C0.0351563 17.8062 0.0629359 17.8733 0.112384 17.9227C0.161832 17.9722 0.228898 18 0.298828 18H17.7715C17.8414 18 17.9085 17.9722 17.9579 17.9227C18.0074 17.8733 18.0352 17.8062 18.0352 17.7363V14.5251C18.0352 14.4588 18.0102 14.3948 17.9652 14.3461C17.9201 14.2974 17.8584 14.2674 17.7922 14.2622ZM11.0742 14.6573C10.8956 14.6948 10.7198 14.7345 10.5469 14.7765V13.7812H11.0742V14.6573ZM8.55422 15.4111C8.06122 15.1777 7.55229 14.9796 7.03125 14.8183V13.7812H10.0195V14.914C9.52165 15.0504 9.03234 15.2164 8.55422 15.4111ZM17.4646 6.76825C17.4354 7.34726 17.3318 7.9201 17.1562 8.47263C16.8071 8.02368 16.3034 7.77232 15.6734 7.73786C15.6234 7.73505 15.5742 7.73364 15.5257 7.73364C15.3964 7.73404 15.2672 7.74261 15.139 7.75931C15.7275 6.61532 16.4331 4.81251 16.3561 2.85114C17.1615 4.03767 17.5345 5.35111 17.4646 6.76825ZM15.75 2.07736C16.1037 4.27005 15.2719 6.37345 14.625 7.60673C14.2137 7.02454 13.5974 6.69267 12.818 6.63888C12.5501 6.62239 12.2812 6.63607 12.0164 6.67966L14.1156 0.909817C14.739 1.1752 15.2968 1.57369 15.75 2.07736ZM6.42867 4.57029C6.64921 4.03362 6.93825 3.52774 7.28859 3.06525C8.14641 1.93427 9.27633 1.16681 10.6562 0.78009C9.33574 2.23134 8.71875 4.06615 8.43328 5.32087C8.31238 5.18868 8.17964 5.06782 8.03672 4.95982C7.53188 4.58118 6.98449 4.45005 6.42867 4.57029ZM8.92477 5.53322C9.22148 4.17197 9.93691 2.02638 11.6177 0.574075C12.2882 0.479788 12.9711 0.532938 13.6188 0.729817L11.5207 6.4979C11.3461 6.29479 11.1491 6.11199 10.9336 5.95298C10.3008 5.49279 9.61559 5.35146 8.92617 5.53251L8.92477 5.53322ZM11.308 7.08009C11.3467 7.13529 11.3699 7.1722 11.3755 7.18134C11.4066 7.23288 11.4544 7.27223 11.5109 7.29283C11.5675 7.31342 11.6293 7.31403 11.6863 7.29454C11.6863 7.29454 11.7299 7.28013 11.8034 7.26115L11.0299 9.38845H10.4674L11.308 7.08009ZM4.45781 7.80466C4.53018 7.80459 4.60145 7.82243 4.66525 7.8566C4.72905 7.89077 4.78339 7.9402 4.82344 8.00048L6.02086 9.79661C6.04491 9.83275 6.07753 9.86238 6.1158 9.88287C6.15408 9.90336 6.19682 9.91406 6.24023 9.91404H11.1621C11.2786 9.91422 11.3903 9.96058 11.4726 10.043C11.555 10.1253 11.6014 10.237 11.6016 10.3535V10.4414H5.47488C5.43056 10.4414 5.38695 10.4303 5.3481 10.409C5.30925 10.3876 5.27643 10.3568 5.2527 10.3194L3.65238 7.80466H4.45781ZM3.79688 11.9925L1.16016 7.77372C1.11866 7.70726 1.09569 7.6309 1.09362 7.55257C1.09155 7.47424 1.11047 7.39678 1.14841 7.32822C1.18635 7.25966 1.24193 7.20249 1.30939 7.16263C1.37686 7.12277 1.45375 7.10168 1.53211 7.10154H2.57977L4.80762 10.6024C4.87888 10.715 4.97753 10.8076 5.09436 10.8717C5.21118 10.9358 5.34235 10.9692 5.47559 10.9687H13.4473C13.5172 10.9687 13.5843 10.9965 13.6337 11.046C13.6832 11.0954 13.7109 11.1625 13.7109 11.2324V11.9355C13.7109 12.0055 13.6832 12.0725 13.6337 12.122C13.5843 12.1714 13.5172 12.1992 13.4473 12.1992H4.16883C4.09436 12.1993 4.02111 12.1803 3.95601 12.1441C3.89092 12.1079 3.83615 12.0557 3.79688 11.9925ZM4.92188 12.9902V12.7265H12.1289V12.9902C12.1289 13.0601 12.1011 13.1272 12.0517 13.1767C12.0022 13.2261 11.9352 13.2539 11.8652 13.2539H5.18555C5.11562 13.2539 5.04855 13.2261 4.9991 13.1767C4.94965 13.1272 4.92188 13.0601 4.92188 12.9902ZM5.97656 13.7812H6.50391V14.6629C6.33164 14.6161 6.15586 14.5711 5.97656 14.5279V13.7812ZM17.5078 17.4726H0.5625V14.4843H0.775898C3.52266 14.4843 6.0866 14.9259 7.92422 15.7053C7.79027 15.7756 7.6616 15.846 7.5375 15.9163C7.47899 15.9527 7.43706 16.0105 7.42066 16.0774C7.40426 16.1443 7.41471 16.215 7.44976 16.2743C7.48482 16.3336 7.5417 16.3769 7.60823 16.3948C7.67476 16.4127 7.74565 16.4038 7.80574 16.3701C8.055 16.2228 8.64703 15.9416 8.64703 15.9416C10.4843 15.1597 13.0975 14.7111 15.8161 14.7111C16.3825 14.7111 16.9495 14.7304 17.5061 14.7684L17.5078 17.4726Z" fill="black"/>
</svg>
