<svg width="18" height="17" viewBox="0 0 18 17" fill="none" xmlns="http://www.w3.org/2000/svg">
<path d="M14.3199 3.06739C15.1078 3.06739 15.7551 2.42015 15.7551 1.6322C15.7551 0.844258 15.1078 0.225159 14.3199 0.225159C13.532 0.225159 12.8848 0.872399 12.8848 1.6322C12.9129 2.42015 13.532 3.06739 14.3199 3.06739Z" fill="black"/>
<path d="M13.2785 12.1006L13.5599 13.5076C13.4473 13.5639 13.3066 13.6765 13.0534 13.789V16.2936C13.0534 16.4061 13.0252 16.4906 12.9971 16.575C13.391 16.575 13.7287 16.2654 13.785 15.8433L14.0945 12.0724C13.8694 12.2694 13.5317 12.2976 13.2785 12.1006Z" fill="black"/>
<path d="M5.08878 12.1006C4.77924 12.185 4.4697 12.2413 4.16016 12.2413V15.787C4.16016 16.2936 4.66668 16.6594 5.00436 16.575C4.8918 16.2654 4.97622 16.3217 5.20134 13.4232C5.1732 13.3106 5.20134 13.2825 5.08878 12.1006Z" fill="black"/>
<path d="M1.65625 15.7871C1.65625 16.2092 2.02207 16.575 2.44417 16.575C2.86628 16.575 3.2321 16.2373 3.2321 15.7871V12.2413C2.69743 12.185 2.16277 12.0725 1.65625 11.8755V15.7871Z" fill="black"/>
<path d="M4.94824 11.8473C4.97638 11.8473 5.03266 11.8192 5.0608 11.8192V11.6503C5.03266 11.6785 5.00452 11.7629 4.94824 11.8473Z" fill="black"/>
<path d="M3.82325 11.2282C4.78001 9.06131 4.69559 8.75176 5.1177 8.58292C5.37096 8.38593 5.62422 8.27337 5.87748 8.18895C4.97699 7.51357 5.45538 6.07838 6.55284 6.0221C6.55284 5.99396 5.79306 3.71455 5.84934 3.85525C5.48352 2.72961 2.07856 3.01102 1.57204 3.79897C1.48762 3.88339 1.60018 3.60198 0.0243313 8.41407C-0.0600891 8.69548 0.0806116 8.97689 0.362013 9.06131C0.671554 9.14574 0.924816 8.97689 1.00924 8.72362C1.00924 8.69548 1.85344 6.13466 1.79716 6.27537V6.47235L0.868535 11.2C1.1218 11.3407 1.37506 11.4814 1.65646 11.594C2.41624 11.9035 3.20417 12.0442 4.02023 11.988C3.79511 11.8191 3.68255 11.5096 3.82325 11.2282Z" fill="black"/>
<path d="M3.71054 2.87037C4.47032 2.87037 5.14568 2.25127 5.14568 1.43519C5.14568 0.64724 4.49846 0 3.71054 0C2.92261 0 2.27539 0.64724 2.27539 1.43519C2.27539 2.25127 2.95075 2.87037 3.71054 2.87037Z" fill="black"/>
<path d="M17.9779 8.80814L16.6835 4.24931C16.2895 2.78599 12.2373 3.23624 11.9559 4.24931L11.4775 5.99405C12.5187 5.99405 13.0252 7.28853 12.2655 8.02019V8.07647C12.6031 8.18904 13.0252 8.35788 13.1378 8.66743C13.1378 8.69557 14.2071 11.2283 14.2071 11.2001H14.4604L14.8544 15.8715C14.8825 16.2936 15.2765 16.6313 15.6986 16.6032C16.1207 16.575 16.4583 16.1811 16.4302 15.7589L16.0362 11.172C16.0925 11.1438 16.1207 11.0875 16.1488 11.0313L16.4302 7.20411C16.4302 7.23225 16.993 9.23025 16.9649 9.08955C17.0493 9.34281 17.3025 9.5398 17.6121 9.45538C17.8935 9.37095 18.0623 9.08955 17.9779 8.80814Z" fill="black"/>
<path d="M13.2792 13.3669C12.7727 10.7498 12.8852 11.397 12.6882 10.2151C13.251 11.594 12.5757 9.9337 13.3073 11.7066C13.3917 11.9036 13.6169 12.0161 13.8138 11.9036C14.0108 11.8191 14.0952 11.594 14.0108 11.397C14.0108 11.3689 12.9134 8.75178 12.9134 8.77992C12.6882 8.41409 12.3224 8.32967 11.9285 8.18896C11.5908 8.32967 11.2812 8.32967 11.028 8.21711C10.6903 8.32967 10.5777 8.32967 9.98678 8.77992L9.14258 10.8061C9.17072 10.9749 9.59282 11.5096 9.14258 11.9317C9.31142 11.988 9.53654 11.9036 9.62096 11.7066C9.62096 11.6784 10.2963 10.0744 10.2682 10.187V10.384C10.2682 10.4121 10.3245 10.1307 9.67724 13.395C9.73352 13.4232 9.81794 13.4795 9.87422 13.5076C9.95864 13.5639 10.0431 13.592 10.1275 13.6202V16.2935C10.1275 16.575 10.3526 16.8282 10.6621 16.8282C10.9435 16.8282 11.1968 16.6031 11.1968 16.2935C11.1968 16.2373 11.1968 13.8453 11.1968 13.8734C11.3938 13.9016 11.5626 13.9016 11.7596 13.8734C11.7596 13.986 11.7596 16.378 11.7596 16.2935C11.7596 16.575 11.9847 16.8282 12.2943 16.8282C12.6038 16.8282 12.8289 16.575 12.8289 16.2935C12.8289 15.2523 12.8289 14.0704 12.8289 13.6202C12.9696 13.5357 13.1666 13.4513 13.2792 13.3669Z" fill="black"/>
<path d="M5.70845 6.86641C5.3989 7.59808 6.15869 8.41416 6.94661 8.07647C7.22801 7.96391 7.53755 7.62622 7.53755 7.20411C7.53755 6.66943 7.11545 6.27546 6.60893 6.24731H6.58079C6.18683 6.24731 5.84915 6.52872 5.70845 6.86641Z" fill="black"/>
<path d="M11.4776 8.04834C11.759 8.04834 12.0686 7.90763 12.2374 7.62622C12.6314 7.03526 12.1811 6.21918 11.4776 6.21918C10.9711 6.21918 10.5771 6.61315 10.5771 7.11969C10.5771 7.65436 10.9711 8.04834 11.4776 8.04834Z" fill="black"/>
<path d="M6.97538 8.35785C6.86282 8.41413 6.75026 8.41413 6.60956 8.41413C6.46886 8.41413 6.3563 8.38599 6.24374 8.35785C5.68094 8.38599 5.06185 8.89253 5.00557 9.00509C4.92115 9.20208 3.99253 11.4533 4.04881 11.3126C3.93625 11.5659 4.13323 11.8473 4.41463 11.8473C4.52719 11.8473 4.63975 11.791 4.69603 11.7348C4.78045 11.6503 5.20255 10.581 5.20255 10.5528H5.23069C5.39953 12.7478 5.42767 13.2825 5.42767 13.2544C5.42767 13.2825 5.45582 13.3106 5.45582 13.3388C5.11813 17.3067 5.23069 15.9559 5.20255 16.2373C5.20255 16.3217 5.20255 16.4061 5.23069 16.4906C5.42768 16.969 6.18746 16.8845 6.24374 16.3217C6.27188 16.0403 6.44072 14.0986 6.497 13.3669H6.6377C6.69398 14.0986 6.86282 16.0685 6.89096 16.3217C6.9191 16.8001 7.42562 16.8001 7.45376 16.8001C7.73517 16.772 7.96029 16.5187 7.93215 16.2373C7.90401 15.9277 8.01657 17.3067 7.67889 13.3388C7.70703 13.3106 7.70703 13.3106 7.70703 13.2544C7.98843 9.68047 7.87587 10.8905 7.90401 10.6373C7.90401 10.6654 8.18541 11.3689 8.29797 11.5941C8.49495 12.0724 9.22659 11.791 9.02961 11.2845C8.21355 9.14579 8.26983 8.61112 6.97538 8.35785Z" fill="black"/>
</svg>
