<svg width="30" height="26" viewBox="0 0 30 26" fill="none" xmlns="http://www.w3.org/2000/svg">
<path d="M20.8482 14.3434L21.4241 13.7666L22 14.3434L21.4241 14.9203L20.8482 14.3434ZM7 7.81594C7 7.59954 7.08582 7.392 7.23859 7.23898C7.39136 7.08596 7.59855 7 7.8146 7C8.03064 7 8.23784 7.08596 8.39061 7.23898C8.54337 7.392 8.6292 7.59954 8.6292 7.81594L7 7.81594ZM17.3511 9.68688L21.4241 13.7666L20.2722 14.9203L16.1993 10.8406L17.3511 9.68688ZM21.4241 14.9203L17.3511 19L16.1993 17.8463L20.2722 13.7666L21.4241 14.9203ZM20.8482 15.1594L12.7022 15.1594L12.7022 13.5275L20.8482 13.5275L20.8482 15.1594ZM7 9.44781L7 7.81594L8.6292 7.81594L8.6292 9.44781L7 9.44781ZM12.7022 15.1594C11.1899 15.1594 9.7395 14.5576 8.67013 13.4865C7.60076 12.4154 7 10.9626 7 9.44781L8.6292 9.44781C8.6292 10.5298 9.05831 11.5675 9.82215 12.3326C10.586 13.0977 11.622 13.5275 12.7022 13.5275L12.7022 15.1594Z" fill="black"/>
</svg>
