<svg width="18" height="18" viewBox="0 0 18 18" fill="none" xmlns="http://www.w3.org/2000/svg">
<mask id="mask0_576_2472" style="mask-type:luminance" maskUnits="userSpaceOnUse" x="0" y="0" width="18" height="18">
<path d="M0 0H17.856V18H0V0Z" fill="white"/>
</mask>
<g mask="url(#mask0_576_2472)">
<path d="M3.20155 0.990712C3.81444 1.60855 3.81444 2.61022 3.20155 3.22806C2.58866 3.84586 1.595 3.84586 0.982105 3.22806C0.369246 2.61022 0.369246 1.60855 0.982105 0.990712C1.595 0.372876 2.58866 0.372876 3.20155 0.990712Z" stroke="black" stroke-miterlimit="10"/>
<path d="M5.26611 2.63885L5.93187 3.45929L4.68164 4.7196" stroke="black" stroke-miterlimit="10"/>
<path d="M2.61691 5.30881L3.43076 5.97994L4.68102 4.71962C5.08959 4.30773 5.75204 4.30773 6.16063 4.71962C6.56923 5.13148 6.56923 5.79927 6.16063 6.21116L4.2408 8.14648C3.86073 8.52961 3.2545 8.56009 2.83847 8.21697L1.29187 6.94136C0.333751 6.15111 0.261943 4.69969 1.13731 3.81723L1.41502 3.53728" stroke="black" stroke-miterlimit="10"/>
<path d="M3.50879 1.42723L3.7865 1.14728C4.66186 0.264862 6.10171 0.337249 6.88563 1.3031L8.15104 2.86217C8.49142 3.28155 8.46118 3.89267 8.08108 4.27584L6.16128 6.21112" stroke="black" stroke-miterlimit="10"/>
<path d="M16.8724 14.772C16.2596 14.1542 15.2659 14.1542 14.653 14.772C14.0401 15.3898 14.0401 16.3915 14.653 17.0093C15.2659 17.6271 16.2596 17.6271 16.8724 17.0093C17.4853 16.3915 17.4853 15.3898 16.8724 14.772Z" stroke="black" stroke-miterlimit="10"/>
<path d="M15.2379 12.6912L14.4241 12.0201L13.1738 13.2804" stroke="black" stroke-miterlimit="10"/>
<path d="M12.5892 15.3611L11.9234 14.5407L13.1736 13.2804C13.5822 12.8685 13.5822 12.2007 13.1736 11.7888C12.7651 11.3769 12.1026 11.3769 11.694 11.7888L9.77421 13.7242C9.39414 14.1073 9.3639 14.7184 9.70428 15.1378L10.9697 16.6969C11.7536 17.6627 13.1934 17.7351 14.0688 16.8527L14.3465 16.5727" stroke="black" stroke-miterlimit="10"/>
<path d="M16.44 14.4627L16.7177 14.1828C17.5931 13.3003 17.5213 11.8489 16.5631 11.0586L15.0165 9.78302C14.6005 9.4399 13.9943 9.47038 13.6142 9.85355L11.6943 11.7888" stroke="black" stroke-miterlimit="10"/>
<path d="M7.29688 1.80107C7.82157 1.68073 8.36771 1.61717 8.92857 1.61717C12.9734 1.61717 16.2523 4.92256 16.2523 8.99998C16.2523 9.56536 16.1893 10.1159 16.0699 10.6448" stroke="black" stroke-miterlimit="10"/>
<path d="M10.559 16.1989C10.0343 16.3193 9.48813 16.3828 8.92727 16.3828C4.88246 16.3828 1.60352 13.0774 1.60352 9C1.60352 8.43462 1.66657 7.88411 1.78595 7.35514" stroke="black" stroke-miterlimit="10"/>
<path d="M11.1469 8.25425L8.18761 11.2374L6.70801 9.74579L9.66726 6.76268L11.1469 8.25425Z" stroke="black" stroke-miterlimit="10"/>
</g>
</svg>
