<svg width="18" height="18" viewBox="0 0 18 18" fill="none" xmlns="http://www.w3.org/2000/svg">
<g clip-path="url(#clip0_576_2434)">
<path d="M13.6618 9.76534C13.6618 7.36442 11.7155 5.41833 9.31477 5.41833C6.91401 5.41833 4.96777 7.36442 4.96777 9.76534C4.96777 12.1661 6.91401 14.1123 9.31477 14.1123C11.7145 14.1098 13.6592 12.165 13.6618 9.76534ZM7.87159 13.1999L7.98181 13.0897C8.00531 13.0661 8.02502 13.0389 8.04018 13.0091L8.32794 12.4334L8.51184 12.2493H8.87571L9.40574 12.7792C9.46396 12.8376 9.54295 12.8702 9.62528 12.8703H10.173L10.6353 13.1015L10.6975 13.223C9.78947 13.5888 8.77367 13.5806 7.87189 13.1999H7.87159ZM12.9845 9.14434H12.1093C12.027 9.14434 11.948 9.17693 11.8897 9.2353L11.5792 9.5458C11.5557 9.56945 11.536 9.59674 11.5209 9.62646L11.2784 10.1115L10.038 10.3598L9.28369 9.6063L9.02201 8.55927L9.23503 8.13354L9.76279 7.86959C9.79265 7.85473 9.81994 7.83502 9.8436 7.81122L10.4646 7.19022C10.5233 7.1323 10.5565 7.05331 10.5568 6.97084V6.25659C11.8289 6.709 12.7574 7.81334 12.9845 9.14434ZM5.88002 8.322L6.26511 8.70739L6.55287 9.28306C6.56803 9.31293 6.58774 9.34007 6.61124 9.36372L6.88611 9.63889L7.11641 10.0996L6.86989 10.8397L6.64702 11.0625L6.07105 11.3504C6.04103 11.3653 6.01389 11.385 5.99024 11.4088L5.98069 11.4184C5.49584 10.4506 5.45915 9.31914 5.88002 8.322ZM6.31317 11.9639L6.39353 11.8835L6.9695 11.5956C6.99952 11.5807 7.02666 11.561 7.05031 11.5372L7.36081 11.2267C7.39492 11.1928 7.42069 11.1511 7.43601 11.1054L7.74651 10.1739C7.77243 10.0958 7.76637 10.0106 7.72968 9.93696L7.41918 9.31596C7.40402 9.28624 7.38431 9.25895 7.36081 9.2353L7.08594 8.96013L6.79969 8.38446C6.78468 8.35474 6.76497 8.32745 6.74132 8.3038L6.18749 7.74951C6.98618 6.48947 8.46651 5.83618 9.93578 6.09543V6.8406L9.44152 7.33501L8.86555 7.62276C8.80521 7.65294 8.75639 7.70175 8.72637 7.76194L8.41587 8.38294C8.38282 8.4492 8.37463 8.525 8.39252 8.59687L8.70302 9.83887C8.71667 9.89345 8.74487 9.94333 8.78474 9.9832L9.71624 10.9147C9.78932 10.9881 9.89423 11.0199 9.99566 10.9995L11.5482 10.689C11.6423 10.6705 11.7225 10.6094 11.7656 10.5235L12.0533 9.94788L12.2378 9.76534H13.0408C13.0393 11.0643 12.3605 12.2687 11.2501 12.943L11.1455 12.7321C11.1155 12.6716 11.0665 12.6226 11.006 12.5924L10.385 12.2819C10.3419 12.2604 10.2945 12.2492 10.2463 12.2493H9.75384L9.22381 11.7193C9.16559 11.6609 9.0866 11.6283 9.00427 11.6283H8.38327C8.30095 11.6283 8.22196 11.6609 8.16374 11.7193L7.85324 12.0298C7.82974 12.0535 7.81003 12.0807 7.79487 12.1105L7.50711 12.6861L7.29895 12.8941C6.91674 12.6464 6.58259 12.3312 6.31317 11.9639Z" fill="black"/>
<path d="M18.0005 3.66176C18.0003 3.57943 17.9677 3.50044 17.9095 3.44222L17.4701 3.00316C17.3869 2.92007 17.2639 2.89096 17.1525 2.92811L16.0172 3.30683L15.7754 3.06501L17.6299 1.95249C17.7121 1.90322 17.7668 1.81907 17.7785 1.72416C17.7902 1.6291 17.7576 1.53419 17.69 1.46658L17.031 0.80737C16.9481 0.723832 16.8249 0.694722 16.7134 0.732474L14.2604 1.55011L13.5181 0.807066C13.154 0.443351 12.5641 0.443502 12.2004 0.807521C11.8367 1.17139 11.8368 1.76131 12.2009 2.12502L12.9433 2.86746L12.1257 5.32039C12.0887 5.43197 12.1178 5.55493 12.2009 5.63816L12.8595 6.29661C12.9177 6.35483 12.9967 6.38758 13.079 6.38758C13.0916 6.38758 13.1043 6.38682 13.1169 6.38515C13.2118 6.37363 13.2961 6.3189 13.3454 6.23703L14.4579 4.38237L14.6997 4.62434L14.3216 5.75976C14.2845 5.87134 14.3134 5.9943 14.3963 6.07738L14.8354 6.51645C14.9567 6.63774 15.1532 6.63774 15.2745 6.51645L16.0172 5.77416L16.4939 5.93274C16.5254 5.94351 16.5586 5.94897 16.592 5.94897C16.6743 5.94881 16.7533 5.91622 16.8115 5.85785L17.2506 5.41833C17.3337 5.33509 17.3628 5.21213 17.3256 5.10055L17.1667 4.62373L17.9095 3.88129C17.9677 3.82307 18.0003 3.74408 18.0005 3.66176ZM16.7277 1.38183L16.9695 1.62365L15.3239 2.6117L14.7529 2.04027L16.7277 1.38183ZM12.6399 1.24674C12.6981 1.18837 12.7771 1.15562 12.8596 1.15562C12.9419 1.15562 13.0211 1.18837 13.0793 1.24674L16.3724 4.54019L15.9331 4.97926L12.6399 1.68581C12.5186 1.56452 12.5186 1.36788 12.6399 1.24674ZM13.0171 5.57631L12.7756 5.33418L13.4345 3.35838L14.004 3.92935L13.0171 5.57631ZM15.0549 5.85724L14.9711 5.7734L15.1906 5.11495L15.4943 5.41833L15.0549 5.85724ZM16.8115 4.10113L16.5078 3.79745L17.1667 3.57792L17.2509 3.66176L16.8115 4.10113Z" fill="black"/>
<path d="M2.1735 11.9388C0.973648 11.9402 0.0013645 12.9125 0 14.1123C0 15.2279 1.74353 17.2029 1.94245 17.4247C2.00142 17.4902 2.08541 17.5277 2.1735 17.5277C2.26159 17.5277 2.34558 17.4902 2.40456 17.4247C2.60347 17.2029 4.347 15.2279 4.347 14.1123C4.34564 12.9125 3.37335 11.9402 2.1735 11.9388ZM2.1735 16.7437C1.49534 15.9396 0.621 14.7047 0.621 14.1123C0.621 13.2548 1.31614 12.5598 2.1735 12.5598C3.03086 12.5598 3.726 13.2548 3.726 14.1123C3.726 14.7041 2.85166 15.9393 2.1735 16.7437Z" fill="black"/>
<path d="M2.17369 13.1808C1.65927 13.1808 1.24219 13.5978 1.24219 14.1123C1.24219 14.6268 1.65927 15.0438 2.17369 15.0438C2.68811 15.0438 3.10519 14.6268 3.10519 14.1123C3.10519 13.5978 2.68811 13.1808 2.17369 13.1808ZM2.17369 14.4228C2.00222 14.4228 1.86319 14.2838 1.86319 14.1123C1.86319 13.9407 2.00222 13.8018 2.17369 13.8018C2.34516 13.8018 2.48419 13.9407 2.48419 14.1123C2.48419 14.2838 2.34516 14.4228 2.17369 14.4228Z" fill="black"/>
<path d="M15.7617 9.43649L16.3407 9.66087C16.4986 9.25562 16.6282 8.8399 16.7285 8.41675L16.1241 8.27484C16.0304 8.66994 15.9092 9.05822 15.7617 9.43649Z" fill="black"/>
<path d="M7.46508 4.47243L7.11637 3.95892C6.76554 4.1968 6.41835 4.45788 6.08496 4.73517L6.48203 5.21245C6.80026 4.94788 7.13062 4.69909 7.46508 4.47243Z" fill="black"/>
<path d="M9.62521 3.3255L9.40037 2.74802C8.99754 2.90584 8.60426 3.08717 8.22266 3.29109L8.51481 3.83901C8.87459 3.64616 9.24528 3.47469 9.62521 3.3255Z" fill="black"/>
<path d="M4.00503 7.93826L3.49122 7.59183C3.24971 7.94887 3.02744 8.31865 2.8252 8.69935L3.37357 8.99059C3.56551 8.629 3.77625 8.27772 4.00503 7.93826Z" fill="black"/>
<path d="M5.57282 6.04298L5.13315 5.60452C4.82886 5.90911 4.53701 6.22992 4.26562 6.55816L4.74411 6.95402C5.00337 6.64109 5.28233 6.33423 5.57282 6.04298Z" fill="black"/>
<path d="M2.86533 10.1028L2.28587 9.87891C2.1285 10.2843 1.99933 10.7002 1.89941 11.1233L2.50389 11.2646C2.59758 10.8695 2.71827 10.4813 2.86533 10.1028Z" fill="black"/>
<path d="M4.06738 16.9205C4.47522 17.1123 4.90837 17.2448 5.35381 17.3138L5.4519 16.7007C5.06483 16.6409 4.68838 16.5258 4.33407 16.3591L4.06738 16.9205Z" fill="black"/>
<path d="M11.1582 15.0626L11.5057 15.5775C11.8571 15.3399 12.2043 15.0792 12.538 14.8012L12.1409 14.3243C11.8233 14.5882 11.4924 14.837 11.1582 15.0626Z" fill="black"/>
<path d="M14.6182 11.6L15.1326 11.9475C15.3741 11.5901 15.597 11.2205 15.8 10.8399L15.2513 10.5481C15.0589 10.9095 14.8476 11.2607 14.6182 11.6Z" fill="black"/>
<path d="M13.0508 13.4944L13.49 13.9334C13.7943 13.6283 14.0866 13.3077 14.3595 12.9803L13.8792 12.5836C13.6208 12.8967 13.3417 13.2028 13.0508 13.4944Z" fill="black"/>
<path d="M8.99512 16.2085L9.21981 16.7875C9.62294 16.6302 10.0164 16.4491 10.3981 16.2454L10.1066 15.6958C9.74665 15.8886 9.37536 16.0598 8.99512 16.2085Z" fill="black"/>
<path d="M6.64062 16.7516L6.67807 17.3726C7.11562 17.3444 7.54984 17.279 7.97602 17.1769L7.8332 16.5724C7.44144 16.6659 7.04255 16.726 6.64062 16.7516Z" fill="black"/>
</g>
<defs>
<clipPath id="clip0_576_2434">
<rect width="18" height="18" fill="white"/>
</clipPath>
</defs>
</svg>
