<svg width="18" height="18" viewBox="0 0 18 18" fill="none" xmlns="http://www.w3.org/2000/svg">
<path d="M7.84304 3.37557H7.90772C8.50677 3.37557 9.15025 2.97115 9.52036 2.35748C9.81791 1.86446 9.91663 1.31464 9.79148 0.849182C9.70289 0.518724 9.51024 0.264481 9.2349 0.113455C8.87463 -0.085664 8.39624 -0.0201348 7.87538 0.294574C7.35424 -0.0201348 6.87613 -0.085664 6.51586 0.112892C6.24053 0.2642 6.04788 0.518442 5.95928 0.848901C5.83413 1.31436 5.93285 1.86418 6.2304 2.3572C6.60051 2.97115 7.24399 3.37557 7.84304 3.37557ZM6.50236 0.995146C6.53583 0.870556 6.61233 0.701812 6.78698 0.605908C6.97794 0.49988 7.33427 0.597752 7.71564 0.860713L7.87538 0.971522L8.03513 0.860713C8.41593 0.597471 8.77085 0.500162 8.96407 0.60619C9.13844 0.701812 9.21493 0.870275 9.2484 0.995146C9.33306 1.30901 9.25459 1.7095 9.03888 2.06696C8.74104 2.56054 8.24831 2.81309 7.90519 2.81309C7.89844 2.81309 7.89113 2.81281 7.8841 2.81281L7.87538 2.81253L7.86666 2.81281C7.51708 2.81337 7.01619 2.57094 6.71217 2.06696C6.49617 1.7095 6.41771 1.30901 6.50236 0.995146Z" fill="black"/>
<path d="M8.80251 12.3882C8.6543 12.341 8.49652 12.4242 8.4504 12.5727L8.09884 13.6977C8.05244 13.8456 8.13512 14.0037 8.28334 14.0498C8.31118 14.0585 8.33931 14.0628 8.36715 14.0628C8.48696 14.0628 8.59777 13.986 8.63545 13.8653L8.987 12.7404C9.03341 12.5921 8.95072 12.4344 8.80251 12.3882Z" fill="black"/>
<path d="M17.8535 15.0621L13.4225 8.37113C13.2999 8.19086 13.2524 7.97318 13.2878 7.75803L13.4186 6.97308L14.7238 10.2043C14.8509 10.5187 15.1496 10.7094 15.4686 10.7094C15.5614 10.7094 15.6559 10.6931 15.7484 10.6593C15.9568 10.5831 16.1205 10.429 16.2096 10.2254C16.2982 10.022 16.3002 9.79731 16.215 9.59228L14.4251 5.30054C14.311 5.02605 14.0646 4.83649 13.7772 4.79178C13.778 4.76759 13.776 4.74425 13.771 4.7209L13.7735 4.72034L13.2127 2.19283C13.1818 1.44472 12.5678 0.844273 11.8121 0.844273C11.0564 0.844273 10.4425 1.44472 10.4118 2.19311L9.85019 4.72062L9.85273 4.72118C9.84795 4.74284 9.84598 4.7645 9.84626 4.78671C9.55067 4.81231 9.28462 4.9923 9.15609 5.26314L8.10509 7.47566L7.19978 4.45851C7.05578 3.97899 6.62267 3.65669 6.12206 3.65669H4.49986V3.21908C4.83454 3.02389 5.06234 2.66503 5.06234 2.25048V1.12551C5.06234 0.505096 4.5578 0.000549316 3.93738 0.000549316H3.3749C2.75448 0.000549316 2.24993 0.505096 2.24993 1.12551V2.25048C2.24993 2.66503 2.47774 3.02389 2.81241 3.21908V3.65669H1.12497C0.483735 3.65669 0 4.13845 0 4.77743V10.1252C0 10.2808 0.125715 10.4065 0.281241 10.4065V10.5471C0.281241 10.9349 0.596513 11.2502 0.984345 11.2502C1.03047 11.2502 1.07406 11.255 1.11456 11.2589C1.13256 11.2606 1.1545 11.2612 1.17418 11.2629L1.40311 16.5257C1.23381 16.6773 1.12497 16.895 1.12497 17.1394V17.1729C1.12497 17.629 1.49592 18 1.95181 18H2.82901C3.2849 18 3.65586 17.629 3.65586 17.1731C3.65586 17.629 4.02681 18 4.48271 18H5.3599C5.81579 18 6.18675 17.629 6.18675 17.1731V17.1394C6.18675 16.895 6.07791 16.677 5.9086 16.5257L5.92238 16.2085C6.1575 16.6087 6.55405 17.0516 7.17672 17.1391C7.24365 17.3619 7.39833 17.5554 7.6208 17.658C7.91919 17.7955 8.39674 17.9592 8.98257 17.9592C9.3569 17.9592 9.77651 17.8861 10.22 17.7027C10.5165 17.8675 10.9369 18 11.5309 18C12.2956 18 12.7748 17.7812 13.0665 17.5554C13.5842 17.782 14.0905 17.8627 14.5461 17.8627C15.2807 17.8627 15.8839 17.6558 16.1913 17.5247C16.3649 17.4507 16.4816 17.3 16.519 17.1273C17.21 16.9946 17.6954 16.4115 17.9325 15.8609C18.0447 15.5988 18.0149 15.299 17.8535 15.0621ZM11.8121 3.93793C11.347 3.93793 10.9684 3.55938 10.9684 3.0942V2.35848C11.3734 2.48757 12.0574 2.65969 12.6559 2.59388V3.0942C12.6559 3.55938 12.2773 3.93793 11.8121 3.93793ZM11.0618 4.27907C10.9836 4.59997 10.8939 4.76787 10.6934 4.78053C10.6011 4.71753 10.5176 4.66691 10.447 4.62781L10.6228 3.8364C10.7347 4.01499 10.884 4.1663 11.0618 4.27907ZM11.5916 4.47819C11.6639 4.48972 11.7365 4.50041 11.8121 4.50041C11.8743 4.50041 11.9333 4.49 11.9933 4.48213C12.0551 4.71472 12.1724 5.01789 12.4348 5.19676C12.2081 5.42682 11.9851 5.71903 11.8116 6.08633C11.633 5.70694 11.4024 5.41023 11.1729 5.18017C11.4181 4.99849 11.5315 4.70487 11.5916 4.47819ZM12.9306 4.78193H12.909C12.6961 4.77237 12.6044 4.61066 12.5268 4.29876C12.7194 4.18401 12.8823 4.02708 13.0012 3.83724L13.1767 4.62866C13.1061 4.66775 13.0226 4.71865 12.9306 4.78193ZM13.906 5.5171L15.6958 9.80884C15.7217 9.87099 15.7211 9.93877 15.6941 10.0004C15.6671 10.0617 15.6179 10.1084 15.5549 10.1314C15.4328 10.1761 15.295 10.1168 15.2452 9.9939L13.5955 5.91027L13.6889 5.3506C13.7848 5.36523 13.8677 5.42541 13.906 5.5171ZM11.8121 1.40676C12.2017 1.40676 12.5271 1.67337 12.6238 2.0328C12.1384 2.09608 11.4997 1.94111 11.0961 1.80949C11.2449 1.56875 11.509 1.40676 11.8121 1.40676ZM9.66373 5.50444C9.71014 5.40685 9.80998 5.34413 9.91769 5.34413H9.93316L10.0097 5.8034L8.53427 8.90802L8.34555 8.27917L9.66373 5.50444ZM8.03 10.0735C8.05841 10.159 8.012 10.2518 7.9265 10.2802C7.88516 10.294 7.84101 10.2909 7.80191 10.2712C7.76282 10.2518 7.73385 10.2183 7.72036 10.1781L7.66326 10.0043L7.98557 9.9399L8.03 10.0735ZM6.66092 4.61994L8.07922 9.34789L7.22537 9.51832L6.17522 6.10517C6.13415 5.97187 6 5.89115 5.86473 5.90971C5.72664 5.93052 5.62483 6.04864 5.62483 6.18786V9.844H5.06234C4.9071 9.844 4.7811 9.718 4.7811 9.56275V9.00027C4.7811 8.84475 4.65539 8.71903 4.49986 8.71903C4.34433 8.71903 4.21862 8.84475 4.21862 9.00027V9.28151H3.93738V5.69175L4.67367 4.21917H4.73442L4.22171 7.55132C4.21974 7.56538 4.21862 7.57972 4.21862 7.59407V8.15655C4.21862 8.31207 4.34433 8.43779 4.49986 8.43779C4.65539 8.43779 4.7811 8.31207 4.7811 8.15655V7.61544L5.30365 4.21917H6.12206C6.37236 4.21917 6.58892 4.38032 6.66092 4.61994ZM4.47202 16.3125L3.93597 11.1422C3.92078 10.9991 3.80041 10.8902 3.65614 10.8902C3.51186 10.8902 3.39149 10.9993 3.3763 11.1422L2.84026 16.3125H2.82929H1.9566L1.69982 10.4065H2.24993C2.61611 10.4065 2.92547 10.1705 3.04191 9.844H4.27065C4.38708 10.1705 4.69645 10.4065 5.06262 10.4065H5.61273L5.35596 16.3125H4.48299H4.47202ZM4.04481 4.21917L3.65614 4.99652L3.26746 4.21917H4.04481ZM3.3749 5.69175V9.28151H3.09365V7.59407C3.09365 7.57972 3.09253 7.56538 3.09028 7.55132L2.57786 4.21917H2.63861L3.3749 5.69175ZM4.49986 2.25048C4.49986 2.56069 4.24759 2.81296 3.93738 2.81296H3.3749C3.06469 2.81296 2.81241 2.56069 2.81241 2.25048V1.724C2.8591 1.72681 2.90635 1.73103 2.95135 1.73103C3.65979 1.73103 4.17587 1.39382 4.49255 1.05324C4.49564 1.07714 4.49986 1.10077 4.49986 1.12551V2.25048ZM3.3749 0.563032H3.93738C4.00909 0.563032 4.07744 0.577938 4.14072 0.602406C3.93907 0.847929 3.51383 1.21861 2.81241 1.16208V1.12551C2.81241 0.815305 3.06469 0.563032 3.3749 0.563032ZM3.3749 3.37545H3.93738V3.65669H3.3749V3.37545ZM0.562483 4.77743C0.562483 4.4436 0.788601 4.21917 1.12497 4.21917H2.00863L2.53117 7.61544V9.56275C2.53117 9.718 2.40518 9.844 2.24993 9.844H1.68745V6.18786C1.68745 6.03233 1.56173 5.90662 1.40621 5.90662C1.25068 5.90662 1.12497 6.03233 1.12497 6.18786V9.844H0.562483V4.77743ZM1.12468 10.6948C1.08025 10.6911 1.03328 10.6877 0.984345 10.6877C0.907003 10.6877 0.843724 10.6244 0.843724 10.5471V10.4065H1.12497L1.12468 10.6948ZM3.09365 17.1731C3.09365 17.3191 2.97497 17.4375 2.82929 17.4375H1.95181C1.80613 17.4375 1.68745 17.3188 1.68745 17.1731V17.1394C1.68745 16.9937 1.80613 16.875 1.95181 16.875H2.82901C2.97497 16.875 3.09337 16.9937 3.09337 17.1394V17.1731H3.09365ZM3.65614 17.1394C3.65614 16.8972 3.54955 16.6813 3.38305 16.5297L3.65614 13.897L3.92922 16.5299C3.76273 16.6813 3.65614 16.8972 3.65614 17.1394ZM5.62483 17.1731C5.62483 17.3191 5.50614 17.4375 5.36046 17.4375H4.48299C4.3373 17.4375 4.21862 17.3188 4.21862 17.1731V17.1394C4.21862 16.9934 4.3373 16.875 4.48299 16.875H5.36018C5.50614 16.875 5.62455 16.9937 5.62455 17.1394L5.62483 17.1731ZM6.18703 10.1373H6.18478C6.18506 10.1331 6.18731 10.1295 6.18731 10.1252V8.05811L6.76217 9.92668C6.80463 10.0648 6.94441 10.1486 7.08616 10.1199L7.10753 10.1157L7.186 10.355C7.28724 10.6588 7.5713 10.8514 7.87504 10.8514C7.95125 10.8514 8.02831 10.8396 8.10397 10.814C8.4198 10.7088 8.61245 10.4056 8.59614 10.0884L10.1711 6.77425L10.3351 7.75831C10.3708 7.97346 10.323 8.19114 10.1975 8.37592L5.98172 14.8473L6.18703 10.1373ZM17.4153 15.6387C17.3771 15.7276 17.0508 16.4402 16.4228 16.5713L15.1732 12.5729C15.1268 12.4244 14.9682 12.3414 14.8211 12.3884C14.6729 12.4345 14.5902 12.5926 14.6366 12.7405L15.9711 17.0075C15.5616 17.1821 14.5461 17.5112 13.4526 17.1045C13.4942 17.0072 13.5077 16.8981 13.4886 16.789L12.6514 12.0456C12.6244 11.8926 12.4784 11.7888 12.3257 11.8175C12.1727 11.8445 12.0706 11.9901 12.0976 12.1431L12.9382 16.8804C12.8344 17.0474 12.4891 17.4375 11.5309 17.4375C10.5727 17.4375 10.2273 17.0474 10.1269 16.8863L10.9642 12.1429C10.9915 11.9899 10.8891 11.8442 10.7361 11.8172C10.5828 11.7885 10.4374 11.8923 10.4104 12.0453L9.57289 16.789C9.54899 16.9259 9.57486 17.0643 9.64545 17.1768C9.66514 17.2086 9.69073 17.246 9.72251 17.2868C8.95275 17.5151 8.29606 17.3506 7.85732 17.1473C7.73385 17.0905 7.67254 16.9459 7.71445 16.8115L8.37143 14.7089C8.41783 14.561 8.33515 14.4029 8.18693 14.3568C8.03928 14.3093 7.88094 14.3928 7.83482 14.5413L7.20062 16.5704C6.69551 16.4627 6.40527 15.9649 6.27084 15.653C6.23428 15.5684 6.24496 15.4702 6.30262 15.3853L10.6661 8.68753C10.8703 8.38717 10.9498 8.02436 10.8902 7.66578L10.5018 5.33457C10.8838 5.62875 11.3771 6.16817 11.5312 7.05886C11.5368 7.11511 11.5596 7.16939 11.5967 7.21355C11.7039 7.33982 11.9196 7.33982 12.0262 7.21355C12.0638 7.16911 12.0863 7.11455 12.0917 7.05774C12.2427 6.18673 12.7203 5.64759 13.1205 5.33851L12.7324 7.66578C12.6727 8.02408 12.7523 8.38688 12.9545 8.68444L17.3863 15.3755C17.4412 15.4556 17.4519 15.554 17.4153 15.6387Z" fill="black"/>
</svg>
