<svg width="18" height="18" viewBox="0 0 18 18" fill="none" xmlns="http://www.w3.org/2000/svg">
<path d="M7.84304 3.37557H7.90772C8.50677 3.37557 9.15025 2.97115 9.52036 2.35748C9.81791 1.86446 9.91663 1.31464 9.79148 0.849182C9.70289 0.518724 9.51024 0.264481 9.2349 0.113455C8.87463 -0.085664 8.39624 -0.0201348 7.87538 0.294574C7.35424 -0.0201348 6.87613 -0.085664 6.51586 0.112892C6.24053 0.2642 6.04788 0.518442 5.95928 0.848901C5.83413 1.31436 5.93285 1.86418 6.2304 2.3572C6.60051 2.97115 7.24399 3.37557 7.84304 3.37557ZM6.50236 0.995146C6.53583 0.870556 6.61233 0.701812 6.78698 0.605908C6.97794 0.49988 7.33427 0.597752 7.71564 0.860713L7.87538 0.971522L8.03513 0.860713C8.41593 0.597471 8.77085 0.500162 8.96407 0.60619C9.13844 0.701812 9.21493 0.870275 9.2484 0.995146C9.33306 1.30901 9.25459 1.7095 9.03888 2.06696C8.74104 2.56054 8.24831 2.81309 7.90519 2.81309C7.89844 2.81309 7.89113 2.81281 7.8841 2.81281L7.87538 2.81253L7.86666 2.81281C7.51708 2.81337 7.01619 2.57094 6.71217 2.06696C6.49617 1.7095 6.41771 1.30901 6.50236 0.995146Z" fill="black"/>
<path d="M8.80251 12.3882C8.6543 12.341 8.49652 12.4242 8.4504 12.5727L8.09884 13.6977C8.05244 13.8456 8.13512 14.0037 8.28334 14.0498C8.31118 14.0585 8.33931 14.0628 8.36715 14.0628C8.48696 14.0628 8.59777 13.986 8.63545 13.8653L8.987 12.7404C9.03341 12.5921 8.95072 12.4344 8.80251 12.3882Z" fill="black"/>
<path d="M17.8535 15.0622L13.4225 8.3712C13.2999 8.19092 13.2524 7.97324 13.2878 7.75809L13.4186 6.97315L14.7238 10.2043C14.8509 10.5188 15.1496 10.7094 15.4686 10.7094C15.5614 10.7094 15.6559 10.6931 15.7484 10.6594C15.9568 10.5832 16.1205 10.429 16.2096 10.2254C16.2982 10.0221 16.3002 9.79737 16.215 9.59235L14.4251 5.3006C14.311 5.02611 14.0646 4.83656 13.7772 4.79184C13.778 4.76765 13.776 4.74431 13.771 4.72096L13.7735 4.7204L13.2127 2.19289C13.1818 1.44478 12.5678 0.844334 11.8121 0.844334C11.0564 0.844334 10.4425 1.44478 10.4118 2.19317L9.85019 4.72068L9.85273 4.72125C9.84795 4.7429 9.84598 4.76456 9.84626 4.78678C9.55067 4.81237 9.28462 4.99236 9.15609 5.2632L8.10509 7.47572L7.19978 4.45857C7.05578 3.97905 6.62267 3.65675 6.12206 3.65675H4.49986V3.21914C4.83454 3.02395 5.06234 2.66509 5.06234 2.25054V1.12558C5.06234 0.505157 4.5578 0.000610352 3.93738 0.000610352H3.3749C2.75448 0.000610352 2.24993 0.505157 2.24993 1.12558V2.25054C2.24993 2.66509 2.47774 3.02395 2.81241 3.21914V3.65675H1.12497C0.483735 3.65675 0 4.13851 0 4.77749V10.1253C0 10.2808 0.125715 10.4065 0.281241 10.4065V10.5472C0.281241 10.935 0.596513 11.2503 0.984345 11.2503C1.03047 11.2503 1.07406 11.255 1.11456 11.259C1.13256 11.2607 1.1545 11.2612 1.17418 11.2629L1.40311 16.5258C1.23381 16.6774 1.12497 16.8951 1.12497 17.1395V17.1729C1.12497 17.6291 1.49592 18.0001 1.95181 18.0001H2.82901C3.2849 18.0001 3.65586 17.6291 3.65586 17.1732C3.65586 17.6291 4.02681 18.0001 4.48271 18.0001H5.3599C5.81579 18.0001 6.18675 17.6291 6.18675 17.1732V17.1395C6.18675 16.8951 6.07791 16.6771 5.9086 16.5258L5.92238 16.2085C6.1575 16.6088 6.55405 17.0517 7.17672 17.1392C7.24365 17.3619 7.39833 17.5554 7.6208 17.6581C7.91919 17.7956 8.39674 17.9593 8.98257 17.9593C9.3569 17.9593 9.77651 17.8862 10.22 17.7028C10.5165 17.8676 10.9369 18.0001 11.5309 18.0001C12.2956 18.0001 12.7748 17.7812 13.0665 17.5554C13.5842 17.7821 14.0905 17.8628 14.5461 17.8628C15.2807 17.8628 15.8839 17.6558 16.1913 17.5248C16.3649 17.4508 16.4816 17.3 16.519 17.1274C17.21 16.9946 17.6954 16.4116 17.9325 15.8609C18.0447 15.5988 18.0149 15.299 17.8535 15.0622ZM11.8121 3.93799C11.347 3.93799 10.9684 3.55944 10.9684 3.09426V2.35854C11.3734 2.48763 12.0574 2.65975 12.6559 2.59394V3.09426C12.6559 3.55944 12.2773 3.93799 11.8121 3.93799ZM11.0618 4.27913C10.9836 4.60003 10.8939 4.76793 10.6934 4.78059C10.6011 4.71759 10.5176 4.66697 10.447 4.62787L10.6228 3.83646C10.7347 4.01505 10.884 4.16636 11.0618 4.27913ZM11.5916 4.47825C11.6639 4.48978 11.7365 4.50047 11.8121 4.50047C11.8743 4.50047 11.9333 4.49007 11.9933 4.48219C12.0551 4.71478 12.1724 5.01796 12.4348 5.19683C12.2081 5.42688 11.9851 5.71909 11.8116 6.08639C11.633 5.707 11.4024 5.41029 11.1729 5.18023C11.4181 4.99855 11.5315 4.70493 11.5916 4.47825ZM12.9306 4.78199H12.909C12.6961 4.77243 12.6044 4.61072 12.5268 4.29882C12.7194 4.18407 12.8823 4.02714 13.0012 3.8373L13.1767 4.62872C13.1061 4.66781 13.0226 4.71871 12.9306 4.78199ZM13.906 5.51716L15.6958 9.8089C15.7217 9.87106 15.7211 9.93884 15.6941 10.0004C15.6671 10.0617 15.6179 10.1084 15.5549 10.1315C15.4328 10.1762 15.295 10.1169 15.2452 9.99396L13.5955 5.91033L13.6889 5.35066C13.7848 5.36529 13.8677 5.42547 13.906 5.51716ZM11.8121 1.40682C12.2017 1.40682 12.5271 1.67343 12.6238 2.03286C12.1384 2.09614 11.4997 1.94118 11.0961 1.80955C11.2449 1.56881 11.509 1.40682 11.8121 1.40682ZM9.66373 5.5045C9.71014 5.40691 9.80998 5.3442 9.91769 5.3442H9.93316L10.0097 5.80346L8.53427 8.90809L8.34555 8.27923L9.66373 5.5045ZM8.03 10.0736C8.05841 10.159 8.012 10.2519 7.9265 10.2803C7.88516 10.294 7.84101 10.2909 7.80191 10.2713C7.76282 10.2519 7.73385 10.2184 7.72036 10.1782L7.66326 10.0044L7.98557 9.93996L8.03 10.0736ZM6.66092 4.62L8.07922 9.34795L7.22537 9.51838L6.17522 6.10523C6.13415 5.97193 6 5.89121 5.86473 5.90977C5.72664 5.93058 5.62483 6.04871 5.62483 6.18792V9.84406H5.06234C4.9071 9.84406 4.7811 9.71806 4.7811 9.56282V9.00033C4.7811 8.84481 4.65539 8.71909 4.49986 8.71909C4.34433 8.71909 4.21862 8.84481 4.21862 9.00033V9.28157H3.93738V5.69181L4.67367 4.21923H4.73442L4.22171 7.55138C4.21974 7.56544 4.21862 7.57978 4.21862 7.59413V8.15661C4.21862 8.31214 4.34433 8.43785 4.49986 8.43785C4.65539 8.43785 4.7811 8.31214 4.7811 8.15661V7.6155L5.30365 4.21923H6.12206C6.37236 4.21923 6.58892 4.38038 6.66092 4.62ZM4.47202 16.3126L3.93597 11.1423C3.92078 10.9991 3.80041 10.8903 3.65614 10.8903C3.51186 10.8903 3.39149 10.9994 3.3763 11.1423L2.84026 16.3126H2.82929H1.9566L1.69982 10.4065H2.24993C2.61611 10.4065 2.92547 10.1706 3.04191 9.84406H4.27065C4.38708 10.1706 4.69645 10.4065 5.06262 10.4065H5.61273L5.35596 16.3126H4.48299H4.47202ZM4.04481 4.21923L3.65614 4.99658L3.26746 4.21923H4.04481ZM3.3749 5.69181V9.28157H3.09365V7.59413C3.09365 7.57978 3.09253 7.56544 3.09028 7.55138L2.57786 4.21923H2.63861L3.3749 5.69181ZM4.49986 2.25054C4.49986 2.56075 4.24759 2.81302 3.93738 2.81302H3.3749C3.06469 2.81302 2.81241 2.56075 2.81241 2.25054V1.72406C2.8591 1.72687 2.90635 1.73109 2.95135 1.73109C3.65979 1.73109 4.17587 1.39388 4.49255 1.0533C4.49564 1.0772 4.49986 1.10083 4.49986 1.12558V2.25054ZM3.3749 0.563093H3.93738C4.00909 0.563093 4.07744 0.577999 4.14072 0.602467C3.93907 0.847991 3.51383 1.21867 2.81241 1.16214V1.12558C2.81241 0.815366 3.06469 0.563093 3.3749 0.563093ZM3.3749 3.37551H3.93738V3.65675H3.3749V3.37551ZM0.562483 4.77749C0.562483 4.44366 0.788601 4.21923 1.12497 4.21923H2.00863L2.53117 7.6155V9.56282C2.53117 9.71806 2.40518 9.84406 2.24993 9.84406H1.68745V6.18792C1.68745 6.03239 1.56173 5.90668 1.40621 5.90668C1.25068 5.90668 1.12497 6.03239 1.12497 6.18792V9.84406H0.562483V4.77749ZM1.12468 10.6948C1.08025 10.6912 1.03328 10.6878 0.984345 10.6878C0.907003 10.6878 0.843724 10.6245 0.843724 10.5472V10.4065H1.12497L1.12468 10.6948ZM3.09365 17.1732C3.09365 17.3192 2.97497 17.4376 2.82929 17.4376H1.95181C1.80613 17.4376 1.68745 17.3189 1.68745 17.1732V17.1395C1.68745 16.9938 1.80613 16.8751 1.95181 16.8751H2.82901C2.97497 16.8751 3.09337 16.9938 3.09337 17.1395V17.1732H3.09365ZM3.65614 17.1395C3.65614 16.8973 3.54955 16.6813 3.38305 16.5297L3.65614 13.897L3.92922 16.53C3.76273 16.6813 3.65614 16.8973 3.65614 17.1395ZM5.62483 17.1732C5.62483 17.3192 5.50614 17.4376 5.36046 17.4376H4.48299C4.3373 17.4376 4.21862 17.3189 4.21862 17.1732V17.1395C4.21862 16.9935 4.3373 16.8751 4.48299 16.8751H5.36018C5.50614 16.8751 5.62455 16.9938 5.62455 17.1395L5.62483 17.1732ZM6.18703 10.1374H6.18478C6.18506 10.1332 6.18731 10.1295 6.18731 10.1253V8.05817L6.76217 9.92674C6.80463 10.0648 6.94441 10.1486 7.08616 10.12L7.10753 10.1157L7.186 10.3551C7.28724 10.6588 7.5713 10.8515 7.87504 10.8515C7.95125 10.8515 8.02831 10.8397 8.10397 10.8141C8.4198 10.7089 8.61245 10.4057 8.59614 10.0885L10.1711 6.77431L10.3351 7.75837C10.3708 7.97352 10.323 8.1912 10.1975 8.37598L5.98172 14.8473L6.18703 10.1374ZM17.4153 15.6388C17.3771 15.7276 17.0508 16.4403 16.4228 16.5713L15.1732 12.5729C15.1268 12.4244 14.9682 12.3415 14.8211 12.3884C14.6729 12.4346 14.5902 12.5926 14.6366 12.7406L15.9711 17.0076C15.5616 17.1822 14.5461 17.5113 13.4526 17.1046C13.4942 17.0073 13.5077 16.8982 13.4886 16.789L12.6514 12.0456C12.6244 11.8926 12.4784 11.7888 12.3257 11.8175C12.1727 11.8445 12.0706 11.9902 12.0976 12.1432L12.9382 16.8804C12.8344 17.0475 12.4891 17.4376 11.5309 17.4376C10.5727 17.4376 10.2273 17.0475 10.1269 16.8863L10.9642 12.1429C10.9915 11.9899 10.8891 11.8442 10.7361 11.8172C10.5828 11.7886 10.4374 11.8923 10.4104 12.0453L9.57289 16.789C9.54899 16.926 9.57486 17.0644 9.64545 17.1769C9.66514 17.2086 9.69073 17.246 9.72251 17.2868C8.95275 17.5152 8.29606 17.3507 7.85732 17.1473C7.73385 17.0905 7.67254 16.946 7.71445 16.8115L8.37143 14.709C8.41783 14.561 8.33515 14.403 8.18693 14.3569C8.03928 14.3093 7.88094 14.3929 7.83482 14.5413L7.20062 16.5705C6.69551 16.4628 6.40527 15.965 6.27084 15.6531C6.23428 15.5684 6.24496 15.4703 6.30262 15.3854L10.6661 8.68759C10.8703 8.38723 10.9498 8.02443 10.8902 7.66584L10.5018 5.33463C10.8838 5.62881 11.3771 6.16823 11.5312 7.05892C11.5368 7.11517 11.5596 7.16945 11.5967 7.21361C11.7039 7.33988 11.9196 7.33988 12.0262 7.21361C12.0638 7.16917 12.0863 7.11461 12.0917 7.0578C12.2427 6.18679 12.7203 5.64766 13.1205 5.33857L12.7324 7.66584C12.6727 8.02414 12.7523 8.38695 12.9545 8.6845L17.3863 15.3755C17.4412 15.4557 17.4519 15.5541 17.4153 15.6388Z" fill="black"/>
</svg>
