<svg width="62" height="225" viewBox="0 0 62 225" fill="none" xmlns="http://www.w3.org/2000/svg">
<g id="Group">
<path id="Vector" d="M56.8966 110.991C57.1034 110.317 57.1825 109.53 57.305 108.812C57.3572 108.568 57.409 108.326 57.4598 108.087C57.4701 108.049 57.4787 108.009 57.4899 107.971C57.4881 107.971 57.4865 107.971 57.4845 107.971C61.6231 88.5232 60.3516 85.2604 60.3516 85.2604C60.9011 82.3192 58.7815 74.9116 58.4674 74.149C58.1534 73.3864 58.5271 66.0447 58.5271 66.0447C58.7074 64.7437 58.089 60.7784 57.3933 57.0996C57.3509 56.6765 57.317 56.2828 57.317 55.9436C57.317 55.5724 57.3113 55.2074 57.2995 54.8479C57.2296 52.7207 57.0864 50.4741 56.344 48.4676C55.6137 46.4936 54.5185 44.7737 53.0059 43.3015C52.2685 42.5838 51.4626 41.9389 50.6149 41.3564C49.3614 40.4948 48.0861 39.769 46.5958 39.4164C44.6657 38.9595 42.4934 38.3597 40.7896 37.3798C38.9817 36.3403 37.1936 35.1802 35.1883 34.5548C34.7983 34.4333 34.4347 34.2748 34.0626 34.1358C32.6778 33.6182 30.9548 34.0141 29.5104 34.0141C27.741 34.0141 25.8421 33.8392 24.1912 34.3547C22.8559 34.7717 22.3081 35.4075 21.2537 36.2394C20.2426 37.0368 18.992 37.4873 17.8281 38.0058C15.7625 38.926 14.7401 39.1537 12.7179 40.0883C10.6614 41.0386 8.58392 41.5691 6.94243 43.2274C5.45796 44.727 4.35479 46.7253 3.91904 48.793C3.14923 52.4456 2.93072 57.0331 2.93072 60.8716C2.93072 61.2767 2.86509 62.4121 2.9565 63.4651C2.46252 67.9231 2.72087 71.8376 3.60751 76.3759C4.09915 78.8927 3.09532 80.6474 2.48036 82.9468C1.75958 85.642 2.02136 88.8879 2.2002 91.6463C2.58313 97.5468 2.84941 103.326 4.17775 109.07C4.18785 109.067 4.19794 109.065 4.20804 109.061C4.28232 109.587 4.30269 110.07 4.49325 110.691L0 117.238L3.7164 123.359L4.48153 123.414C4.48153 123.414 9.40044 124.398 10.9853 123.742C12.5704 123.086 10.2748 122.539 9.45506 122.649L6.33974 122.047C6.33974 122.047 7.32355 119.042 6.7223 117.402C6.7223 117.402 8.90844 117.511 9.67357 116.965C9.67357 116.965 8.63531 121.774 10.5478 122.485C10.8175 122.585 11.0021 122.329 11.1077 122.13C11.3106 121.748 11.1548 121.225 11.1451 120.826C11.131 120.256 11.1957 119.677 11.4211 119.149C11.6122 118.701 11.8996 118.259 11.6958 117.785C11.6958 117.785 11.3133 113.084 10.2748 112.483C10.2748 112.483 9.01769 111.827 8.85381 111.335C8.85381 110.281 8.8603 109.226 8.87455 108.171C8.8484 108.171 8.82479 108.171 8.79901 108.171C8.80712 107.386 8.8174 106.602 8.8338 105.818C8.90321 102.46 10.3729 91.2422 10.4991 88.9204C10.6323 86.4724 10.6547 83.9795 11.2341 81.6132C12.1364 77.9296 11.563 73.4795 11.7645 69.7059C11.8179 68.7069 11.6423 66.5159 11.5842 65.5593C11.5314 64.6916 11.8905 59.6418 12.1851 58.4682C12.2251 58.9238 14.1881 66.2931 14.7392 67.3622C17.5591 72.8335 17.1731 78.3596 17.3824 84.3737C17.3824 84.3737 17.596 88.4001 16.7779 89.8423C16.7779 89.8423 15.9598 91.7654 17.2142 94.5898C17.2142 94.5898 14.7414 100.234 14.4686 101.977L46.5174 101.577C46.2446 99.8337 43.993 94.5896 43.993 94.5896C45.0838 92.907 44.1567 89.4816 44.1567 89.4816C43.9754 87.0129 44.0067 84.5562 44.0057 84.3809C43.9754 79.5612 43.5968 73.436 45.7182 69.2849C46.3099 68.1271 47.4078 63.8978 48.4428 61.2621C48.2069 62.3243 49.3533 63.3817 49.5296 64.5696C49.7925 66.3414 49.7454 68.1452 50.0288 69.9152C50.2901 71.5463 51.2084 72.8677 51.4947 74.4557C51.7055 75.6245 51.9236 76.7585 52.1342 77.9253C52.3951 79.3712 52.2854 80.0669 52.028 81.4838C51.7275 83.1377 51.5151 84.8686 51.5553 86.5794C51.5973 88.3705 51.695 90.0614 51.7734 91.8687C51.8358 93.3051 51.9016 94.725 51.9016 96.1532C51.9016 99.5047 52.5914 102.799 52.6595 106.143C52.6732 106.811 52.6823 107.479 52.6898 108.148C52.6949 109.217 52.6516 110.291 52.6516 111.359C52.4883 111.85 51.2355 112.503 51.2355 112.503C50.2006 113.102 49.8193 117.787 49.8193 117.787C49.6165 118.259 49.9026 118.7 50.0932 119.147C50.3178 119.673 50.3824 120.25 50.3683 120.818C50.3584 121.216 50.2033 121.736 50.4054 122.118C50.5107 122.316 50.6946 122.571 50.9634 122.471C52.8694 121.762 51.8346 116.97 51.8346 116.97C52.5972 117.514 54.7757 117.405 54.7757 117.405C54.1766 119.039 55.157 122.035 55.157 122.035L52.0523 122.634C51.2353 122.525 48.9476 123.07 50.5273 123.724C52.107 124.377 57.0089 123.397 57.0089 123.397L57.7715 123.342L61.4753 117.242L56.8966 110.991Z" fill="#E6BA9F"/>
<path id="Vector_2" d="M31.8286 64.6763C33.5743 65.0967 35.9269 65.736 38.0283 65.9388C40.8719 66.2134 44.3779 66.5271 46.5603 64.2973C48.169 62.6537 48.6981 60.0037 49.4667 57.9177C50.1764 55.9912 50.5622 53.1952 52.7828 52.2887C51.1583 52.952 48.2867 54.7866 47.982 56.6853C47.7597 58.0723 47.4366 59.4642 47.2279 60.8339C47.0685 61.8786 46.7638 62.8646 45.769 63.486C44.8461 64.0626 43.3918 64.225 42.3356 64.3837C40.353 64.6817 38.934 65.1809 36.9177 65.2006C35.1969 65.2171 33.5298 64.8697 31.8286 64.6763Z" fill="#D8A88E"/>
<path id="Vector_3" d="M42.0651 61.9064C42.8691 62.7426 45.2361 60.8828 44.0237 60.2988C43.5232 60.0578 42.9503 60.4109 42.55 60.6888C42.2012 60.9309 41.6704 61.4959 42.0651 61.9064Z" fill="#CF7D75"/>
<path id="Vector_4" d="M35.082 69.7659C35.082 69.7659 38.868 70.9076 40.3703 70.427C40.3703 70.427 43.3149 68.9847 44.7572 68.5641C44.7572 68.5641 40.7909 69.5858 39.8295 69.8861C39.8295 69.8861 35.6229 69.9462 35.082 69.7659Z" fill="#D8A88E"/>
<path id="Vector_5" d="M55.5416 47.7026C55.8526 48.4387 55.8682 49.8725 55.9551 50.4855C56.2577 52.6195 56.2912 55.1785 56.1012 57.3181C55.9413 59.1194 55.0379 60.9579 54.6201 62.7388C54.1579 64.7095 53.8467 66.7757 54.3122 68.7772C54.3153 66.1438 54.7148 63.4805 55.649 61.0111C56.4581 58.8724 57.4059 57.2201 57.2997 54.848C57.2314 53.3212 57.2296 52.2642 56.8025 50.7988C56.5523 49.9401 55.9963 47.9676 55.3177 47.3579C55.406 47.4371 55.4797 47.556 55.5416 47.7026Z" fill="#D8A88E"/>
<path id="Vector_6" d="M6.06177 54.8383C5.92836 55.1765 5.6381 55.5192 5.46124 55.7816C3.19253 53.9511 5.15764 49.2442 4.24684 46.9124C4.62869 47.8899 3.62125 49.6437 3.4873 50.6285C3.34992 51.639 3.29854 53.1021 3.64901 54.0784C3.98777 55.0215 4.7109 55.8021 5.0675 56.725C5.62747 58.1739 6.21159 60.719 6.05582 62.338C6.30065 59.812 5.76286 57.3378 6.06177 54.8383Z" fill="#D8A88E"/>
<path id="Vector_7" d="M52.2815 79.5561C52.2664 80.1438 52.1701 80.705 52.0284 81.4841C51.7278 83.138 51.5155 84.8689 51.5557 86.5796C51.5977 88.3708 51.6954 90.0617 51.7738 91.869C51.7771 91.9457 51.7781 92.0223 51.7805 92.0989C52.4099 86.329 53.6628 80.6113 56.4261 75.892C55.2737 77.669 53.4948 78.1419 52.2815 79.5561Z" fill="#D8A88E"/>
<path id="Vector_8" d="M5.26465 81.9684C6.36745 83.3969 7.48667 85.1113 8.72432 84.8785C9.48675 84.6104 10.1412 83.9623 10.7122 83.0973C10.776 82.7405 10.8484 82.3855 10.9346 82.0336C11.5838 79.3832 11.8114 75.6041 11.7055 72.3047C10.3222 76.8497 10.8641 86.7127 5.26465 81.9684Z" fill="#D8A88E"/>
<g id="Group_2" opacity="0.62">
<path id="Vector_9" d="M49.9253 44.1654C49.9253 44.1654 54.0417 46.2387 53.9516 51.9177C53.9516 51.9177 55.2136 44.2856 51.0546 43.2988C51.0546 43.2988 50.1056 43.3541 49.9253 44.1654Z" fill="#EDCFB9"/>
</g>
<g id="Group_3">
<path id="Vector_10" d="M39.8793 71.874C39.8101 71.9044 39.7361 72.0373 39.6611 72.234C39.8854 71.9686 39.9929 71.8238 39.8793 71.874Z" fill="#D8A88E"/>
<path id="Vector_11" d="M39.661 72.234C39.0771 72.9252 37.6977 74.4375 37.3431 75.4797C36.8522 76.922 33.9889 75.3895 33.3345 75.2994C32.9948 75.2527 32.6294 75.5769 32.3557 75.8998C32.4184 75.4442 32.4626 74.9877 32.4357 74.5336C32.433 74.4885 32.43 74.4434 32.4265 74.3983C32.3662 73.604 32.1972 72.8131 32.1974 72.0078C32.1435 72.816 31.8612 73.6002 31.7301 74.3964C31.5186 75.6809 31.7759 76.9557 31.7168 78.2397C31.6308 80.1082 31.2143 82.3159 31.309 84.21L31.1528 84.554C31.1528 84.554 31.228 84.5679 31.3355 84.5875C31.338 84.6162 31.3394 84.6458 31.3423 84.6742C31.3814 85.0624 31.433 85.4826 31.5015 85.852C31.983 85.5279 32.2317 85.6112 32.2666 84.9746C32.2717 84.8836 32.271 84.7934 32.2683 84.7034C33.617 84.3937 35.296 84.166 36.4337 83.3129C36.4276 84.0072 36.5165 84.8542 36.4193 85.5708C36.3122 86.3603 36.3679 87.1375 36.194 87.9145C35.9077 89.1933 33.7221 89.8306 32.7552 90.4477C33.4873 90.1183 34.237 89.7974 34.9707 89.435C36.0052 88.9241 36.45 88.6813 36.7145 87.4386C37.3148 84.6165 37.2028 81.8218 38.0233 79.0236C38.2052 78.403 38.3866 77.7819 38.5429 77.1527C38.6585 76.6871 38.8912 76.2457 38.897 75.7503L38.8975 75.7501C38.8975 75.7501 39.2927 73.2007 39.661 72.234ZM37.8616 77.7286C37.735 78.4344 37.4459 79.0052 37.2757 79.7117C37.1042 80.4233 37.2245 81.9126 36.6898 82.416C35.8011 83.2523 34.0771 84.0696 32.8437 84.1934C32.6005 84.2178 32.3995 84.2217 32.2306 84.2136C32.2028 83.967 32.1695 83.7212 32.159 83.4723C32.1159 82.447 32.0499 81.4469 32.0499 80.4105C32.0499 79.3511 32.0559 78.3076 32.1619 77.2825C32.1979 76.9342 32.2546 76.5829 32.3077 76.2304L33.1291 75.6553C33.1291 75.6553 35.965 76.9474 37.8466 76.2262L38.0516 76.1334C37.9591 76.709 37.917 77.4199 37.8616 77.7286Z" fill="#D8A88E"/>
</g>
<path id="Vector_12" d="M30.9724 90.7138C31.3112 90.7138 31.5859 90.4111 31.5859 90.0377C31.5859 89.6643 31.3112 89.3616 30.9724 89.3616C30.6336 89.3616 30.3589 89.6643 30.3589 90.0377C30.3589 90.4111 30.6336 90.7138 30.9724 90.7138Z" fill="#B3816A"/>
<path id="Vector_13" d="M29.5615 89.5756C29.5615 89.5756 30.7988 88.246 32.4248 89.6095C32.4248 89.6095 30.9728 88.7532 29.5615 89.5756Z" fill="#B3816A"/>
<path id="Vector_14" d="M9.37402 54.6497C11.0368 55.3732 11.2881 57.7539 11.7514 59.2766C12.0897 60.3886 12.6076 61.2509 13.1973 62.2536C13.6297 62.989 13.9652 64.2272 14.5174 64.8429C14.5188 64.8445 14.5201 64.8461 14.5217 64.8476C15.5021 65.7593 17.1777 65.9518 18.4341 66.0674C21.3066 66.3313 23.2892 65.763 26.0666 65.1238C26.8141 64.9516 27.8432 64.7841 28.4204 64.478C27.3901 64.5979 26.1589 64.8724 25.2867 64.9584C22.6906 65.2148 20.6837 65.5649 18.1353 65.0185C17.5002 64.8824 15.8236 64.7205 15.371 64.117C14.15 62.4891 13.835 60.628 12.9952 58.7653C12.2489 57.1103 11.3272 55.0979 9.37402 54.6497Z" fill="#D8A88E"/>
<path id="Vector_15" d="M19.7343 61.5759C18.9302 62.4121 16.5632 60.5522 17.7756 59.9683C18.2761 59.7273 18.8491 60.0804 19.2493 60.3581C19.5981 60.6004 20.1287 61.1654 19.7343 61.5759Z" fill="#CF7D75"/>
<path id="Vector_16" d="M15.4525 44.2264C15.6373 44.1992 15.819 44.1939 16.028 44.1806C16.4356 44.1544 16.8425 44.1114 17.2514 44.1101C18.0412 44.1077 18.5051 43.9988 18.1728 44.7661C17.7358 45.7754 16.1336 46.6847 15.1943 47.0738C15.3807 46.9966 15.5987 46.6988 15.7492 46.5596C15.9427 46.3806 16.1345 46.1994 16.3139 46.0062C16.6188 45.6775 16.8758 45.3176 17.0927 44.9223C17.2611 44.6152 16.9957 44.521 16.7251 44.4712C16.1949 44.374 15.644 44.3531 15.1074 44.3062C15.228 44.2671 15.3409 44.2428 15.4525 44.2264Z" fill="#D8A88E"/>
<path id="Vector_17" d="M44.8588 43.1446C44.674 43.1174 44.4923 43.1122 44.2834 43.0989C43.8757 43.0727 43.4688 43.0296 43.0599 43.0284C42.2701 43.026 41.8062 42.9171 42.1385 43.6844C42.5753 44.6937 44.1775 45.603 45.117 45.9921C44.9306 45.9149 44.7126 45.6171 44.5621 45.4779C44.3686 45.2989 44.1768 45.1177 43.9974 44.9244C43.6926 44.5958 43.4355 44.2359 43.2186 43.8405C43.0502 43.5335 43.3156 43.4392 43.5862 43.3895C44.1164 43.2923 44.6674 43.2714 45.2039 43.2245C45.0833 43.1854 44.9706 43.1611 44.8588 43.1446Z" fill="#D8A88E"/>
<path id="Vector_18" d="M30.0318 85.816C29.5277 84.0649 29.9774 81.6909 29.9774 79.8062C29.9774 78.7164 29.9573 77.6512 29.9106 76.5748C29.8744 75.7427 29.8495 74.8999 29.7758 74.0764C29.7331 73.5986 29.5634 72.8962 29.4936 72.2517C29.4493 71.8423 29.4455 71.4561 29.5402 71.1662C29.2317 72.1118 29.3298 73.4409 29.3081 74.4286C29.2939 75.0827 29.3649 75.742 29.4475 76.4003C28.9072 75.9119 27.8004 75.1667 26.4255 75.6297C24.4621 76.2908 22.9731 76.767 22.9731 76.767L21.7897 71.8437L21.1353 71.4231L22.1169 77.3125L22.4555 77.4917C22.5051 78.9859 22.7674 83.5121 24.1262 84.3977C23.8175 84.7543 23.5617 85.0981 23.6304 85.6193C23.7552 86.5669 24.3112 87.4314 24.6393 88.3101C24.9649 89.1819 25.2634 89.725 26.0439 90.2332C26.7237 90.6758 28.0441 90.8781 28.8253 90.8341C27.08 90.3532 25.7908 90.1068 25.3469 88.6573C25.1201 87.9169 25.0516 87.0511 24.9532 86.2669C24.8109 85.1324 25.1551 85.0256 25.7789 84.3406C26.86 84.2295 28.3103 84.1624 29.0905 84.4727C29.0781 84.4987 29.0685 84.5272 29.0554 84.5526C29.2685 84.7732 29.5488 84.8886 29.7181 85.1403C29.8638 85.357 29.9031 85.6729 30.0168 85.9186C30.1306 85.7965 30.0495 85.8771 30.0318 85.816ZM29.6076 81.4425C29.5685 82.3922 29.5091 83.5363 29.1219 84.401C28.6616 84.0121 27.3697 83.1611 25.1163 83.4422C24.2437 83.2031 23.8275 81.1764 23.5347 80.2571C23.3383 79.6409 23.1544 79.0613 22.9893 78.4542C22.9406 78.2754 22.9111 77.9255 22.8539 77.5914L27.3297 75.8653L29.4789 76.6516C29.54 77.1284 29.6022 77.6044 29.6377 78.0769C29.7228 79.2048 29.6532 80.3397 29.6076 81.4425Z" fill="#D8A88E"/>
<path id="Vector_19" d="M36.904 90.6237C36.3272 92.1581 34.9405 96.2125 32.333 98.9006C33.7138 98.5359 34.9215 96.3899 35.5951 95.1308C36.4148 93.5984 36.4916 92.1707 37.0556 90.6556C37.0042 90.782 36.9406 90.526 36.904 90.6237Z" fill="#D8A88E"/>
<path id="Vector_20" d="M25.5237 90.5335C26.1004 92.0679 27.4872 96.1224 30.0946 98.8104C28.7138 98.4457 27.5063 96.2998 26.8326 95.0407C26.0128 93.5082 25.936 92.0806 25.3721 90.5654C25.4235 90.6918 25.4869 90.4358 25.5237 90.5335Z" fill="#D8A88E"/>
<path id="Vector_21" d="M16.896 89.2565C16.896 90.4776 16.8998 91.6543 17.1841 92.8476C17.4652 94.028 17.9941 95.1351 18.1702 96.343C18.3985 97.9072 19.0964 99.9505 18.6363 101.544C18.6711 99.975 18.149 98.3736 17.6447 96.954C17.0065 95.1573 16.2095 93.113 16.4568 91.1764C16.5266 90.6296 16.8881 89.8309 16.896 89.2565Z" fill="#D8A88E"/>
<path id="Vector_22" d="M21.3153 12.9571C21.3153 12.9571 19.7829 11.65 19.3623 11.7402C19.3623 11.7402 18.8815 11.8604 18.7012 12.1909C18.7012 12.1909 18.4007 14.9853 18.7914 15.1957C18.7914 15.1957 19.1218 15.4962 19.2421 15.4962C19.3623 15.4962 19.1218 15.4962 19.1218 15.4962C19.4032 15.6206 19.2594 15.7921 19.1892 16.0077C19.0883 16.3183 19.1647 16.3178 19.266 16.6147C19.4254 17.0811 19.1481 17.501 19.3086 17.9535C19.5864 18.7369 19.8213 19.9534 20.9011 19.1995C21.0419 19.101 21.4695 18.9794 21.6532 19.0053C21.6795 18.4877 21.4825 17.9499 21.458 17.4428C21.4297 16.8623 21.3307 16.3274 21.4069 15.7605C21.4783 15.2296 21.4655 14.653 21.4655 14.1138C21.4655 13.6651 21.5178 13.0838 21.1351 12.7918L21.3153 12.9571Z" fill="#E8BAA0"/>
<path id="Vector_23" d="M21.0675 17.8924C20.9341 17.8228 20.6651 17.9517 20.4816 17.916C20.2919 17.8793 20.1481 17.7239 20.0129 17.6018C19.9303 17.8892 20.1102 18.0763 20.3864 18.1228C20.7084 18.1771 20.8182 17.9669 21.0928 17.8699C21.125 17.8758 21.0751 17.8962 21.0675 17.8924Z" fill="#D8A88E"/>
<path id="Vector_24" d="M18.9565 12.4613C18.9574 12.7341 19.0667 12.8828 19.2983 13.0206C19.4575 13.1152 19.7734 13.1769 19.7828 13.3929C19.7909 13.5814 19.6732 13.8533 19.6292 14.039C19.5756 14.266 19.5228 14.4913 19.4669 14.7151C19.4267 14.8759 19.4409 15.1294 19.3351 15.2543C19.3436 14.9558 19.1462 14.899 18.9753 14.7113C18.8148 14.535 18.8411 14.2357 18.8514 14.0093C18.8635 13.7406 18.9006 13.465 18.9122 13.1976C18.9217 12.9779 18.8817 12.6616 18.9565 12.4613Z" fill="#BE886D"/>
<path id="Vector_25" d="M20.4141 17.2839C20.7667 17.2731 20.7092 16.8689 20.5888 16.6762C20.4242 16.4126 20.2623 16.1519 20.2333 15.8417C20.1796 15.2671 20.7035 14.8496 21.1562 14.6507C21.1598 14.6244 21.1529 14.6008 21.1352 14.5797C20.9764 14.3893 20.8262 14.233 20.6681 14.0338C20.4988 13.8205 20.3752 13.5616 20.1381 13.4129C19.7169 13.1482 18.9419 13.0094 18.9042 12.378C18.8481 12.8918 19.4218 13.2575 19.7781 13.5263C20.1965 13.8418 20.5322 14.1196 20.8668 14.5348C20.693 14.6981 20.4402 14.7196 20.2562 14.9348C20.0707 15.1517 19.9461 15.4117 19.9634 15.7066C19.9794 15.9812 20.1518 16.2219 20.2958 16.4554C20.3561 16.5525 20.7206 17.4271 20.4141 17.2839Z" fill="#CE9B7D"/>
<path id="Vector_26" d="M19.6778 13.4828C19.7257 13.67 19.6037 13.9959 19.573 14.204C19.5362 14.4538 19.4663 14.7024 19.4524 14.9552C19.421 15.53 19.3131 16.0072 19.5613 16.5619C19.6107 16.6722 19.6859 16.7689 19.7236 16.8774C19.7394 16.923 19.7475 16.9762 19.7562 17.0251C19.7596 17.0445 19.7795 17.1907 19.7679 17.1336C19.7077 17.0671 19.6659 16.9589 19.5752 16.956C19.5312 17.1215 19.5276 17.2861 19.5276 17.4641C19.5276 17.6543 19.5799 17.8198 19.5883 18.0004C19.3477 17.5519 19.4209 17.082 19.257 16.6236C19.1762 16.3973 19.1077 16.1965 19.1856 15.95C19.2146 15.8581 19.3141 15.7319 19.284 15.6309C19.2442 15.4973 19.1434 15.5206 19.1778 15.345C19.2083 15.1892 19.312 15.052 19.3585 14.895C19.4059 14.7354 19.443 14.5764 19.4829 14.4142C19.5478 14.1504 19.778 13.755 19.6778 13.4828Z" fill="#CE9B7D"/>
<path id="Vector_27" d="M37.8235 35.9868C37.8998 35.7585 37.8385 35.476 37.7575 35.2548C37.7307 35.1813 37.7083 35.1073 37.6832 35.0334C37.1658 33.5051 37.0176 31.8916 36.9325 30.2881C36.839 28.5233 36.8123 26.7026 36.8123 25.0599C34.5003 25.3736 32.1959 24.8177 29.8397 24.7126C27.7041 24.6174 24.9448 24.5491 22.9903 24.9996C22.9844 24.9266 22.9903 24.8507 22.9903 24.7775C22.9583 26.5119 23.2568 28.4033 23.1704 30.2279C23.1434 30.7985 23.0955 31.368 23.0307 31.9354C22.9644 32.5172 22.88 33.097 22.7787 33.6737C22.7286 33.9593 22.6741 34.2441 22.6154 34.5281C22.5593 34.7989 22.5126 35.0798 22.4309 35.3441C22.4275 35.3551 22.4239 35.366 22.4199 35.3769C22.4255 35.3617 22.5212 35.365 22.5398 35.3666C22.5708 35.3695 22.6018 35.3745 22.6323 35.3808C22.7033 35.3954 22.7731 35.4171 22.8412 35.4414C23.0089 35.5014 23.1703 35.5792 23.3282 35.661C23.6816 35.8443 24.0201 36.0542 24.3618 36.2579C24.5552 36.3733 24.7505 36.4991 24.9601 36.5832C26.1165 37.0463 27.1901 37.3216 28.4007 37.5596C29.5859 37.7925 30.9128 38.0354 32.1279 37.8567C33.2345 37.6941 34.2649 37.2636 35.313 36.8534C36.1669 36.5197 37.0256 36.2839 37.8235 35.9868Z" fill="#E6BA9F"/>
<path id="Vector_28" d="M29.84 24.7126C27.7045 24.6174 24.9458 24.5491 22.9913 24.9996C22.9893 25.6308 23.0261 26.2811 23.0683 26.9399C25.7177 27.5456 25.3739 31.8934 26.8968 33.9239C26.5362 32.662 26.1156 30.198 26.1156 28.936C27.0171 30.7388 29.7213 30.9492 31.5242 30.769C32.8098 30.769 33.7228 29.9094 34.5222 28.9513C34.7277 27.6819 34.8901 26.4093 35.0266 25.1513C33.3099 25.1165 31.5893 24.7907 29.84 24.7126Z" fill="#D8A88E"/>
<path id="Vector_29" d="M37.826 35.258C37.1197 34.364 36.9574 30.7552 36.9325 30.2881C36.839 28.5233 36.8123 26.7026 36.8123 25.0598C36.2168 25.1406 35.6217 25.1631 35.0262 25.1511C34.8897 26.4093 34.7273 27.6817 34.5218 28.9511C34.0478 31.8772 32.5855 35.5665 34.6337 38.2625C35.2074 36.89 36.9814 36.308 38.4172 35.9323C38.258 35.9741 37.9499 35.4147 37.826 35.258Z" fill="#D8A88E"/>
<path id="Vector_30" d="M39.0959 12.7554C39.0959 14.3311 38.9587 15.9107 38.7454 17.4428C38.6573 18.0754 38.6622 18.7208 38.6025 19.3381C38.5457 19.9262 38.351 20.4804 38.3297 21.0485C38.3032 21.7581 38.3645 22.5234 38.237 23.2096C38.1062 23.9145 37.7616 24.5258 37.3493 25.1073C36.7475 25.9557 35.7684 26.3528 35.0957 27.1342C34.0157 28.3888 33.2518 29.7433 31.4338 29.9252C30.7328 29.9953 29.9143 30.0391 29.2253 29.9274C28.637 29.832 28.0684 29.627 27.6177 29.2664C27.1901 28.9243 25.8477 27.3331 25.3843 27.0066C24.3278 26.2622 23.2027 25.8971 22.4758 24.733C22.018 24.0001 22.1673 23.3089 22.0954 22.501C22.0236 21.6941 21.9369 20.857 21.8109 20.0483C21.536 18.282 21.0695 16.537 21.0674 14.7385C21.0665 13.9745 21.2661 13.2948 21.3376 12.5749C21.4209 11.7375 21.3378 10.8472 21.3378 10.0058C21.3378 8.39427 21.3605 5.79978 22.9153 4.86789C23.4248 4.56248 24.0401 4.2084 24.6282 4.02163C25.4883 3.74831 26.347 3.46003 27.2411 3.32554C29.2462 3.02392 31.1825 3.17753 33.1815 3.37927C35.2701 3.59002 37.6282 4.00378 38.5561 6.12988C39.0287 7.21286 39.0768 8.7442 39.141 9.91588C39.1994 10.9844 39.0959 12.0068 39.0959 13.0709V12.7554Z" fill="#E6BA9F"/>
<path id="Vector_31" d="M38.5549 13.0709C38.5549 13.0709 40.0874 11.7638 40.508 11.8539C40.508 11.8539 40.9888 11.9742 41.1691 12.3047C41.1691 12.3047 41.4696 15.0991 41.0789 15.3095C41.0789 15.3095 40.7485 15.61 40.6282 15.61C40.508 15.61 40.7485 15.61 40.7485 15.61C40.467 15.7344 40.6109 15.9059 40.681 16.1215C40.782 16.4321 40.7055 16.4316 40.6042 16.7285C40.4449 17.1949 40.7221 17.6148 40.5617 18.0673C40.2839 18.8506 40.049 20.0672 38.9692 19.3132C38.8284 19.2148 38.6831 19.0347 38.4996 19.0609C38.4733 18.5433 38.5306 18.0399 38.5551 17.5329C38.5832 16.9524 38.5398 16.4411 38.4633 15.8743C38.3919 15.3434 38.4048 14.7668 38.4048 14.2278C38.4048 13.779 38.3525 13.1978 38.7352 12.9057L38.5549 13.0709Z" fill="#E8BAA0"/>
<path id="Vector_32" d="M38.8031 18.0062C38.9365 17.9366 39.2055 18.0655 39.389 18.03C39.5786 17.9932 39.7225 17.8378 39.8577 17.7155C39.9403 18.0029 39.7604 18.1901 39.4842 18.2366C39.1622 18.2908 39.0524 18.0806 38.7778 17.9836C38.7455 17.9896 38.7957 18.0101 38.8031 18.0062Z" fill="#D8A88E"/>
<path id="Vector_33" d="M40.9141 12.5751C40.9131 12.8478 40.8039 12.9966 40.5722 13.1343C40.413 13.229 40.0972 13.2906 40.0878 13.5066C40.0797 13.6952 40.1974 13.9671 40.2414 14.1527C40.295 14.3797 40.3478 14.6051 40.4038 14.8288C40.444 14.9896 40.4298 15.2431 40.5356 15.3681C40.5272 15.0695 40.7246 15.0127 40.8955 14.825C41.0559 14.6487 41.0296 14.3494 41.0193 14.123C41.0073 13.8544 40.9701 13.5787 40.9586 13.3114C40.9487 13.0918 40.9889 12.7756 40.9141 12.5751Z" fill="#BE886D"/>
<path id="Vector_34" d="M35.8733 14.6147C35.8885 14.7172 35.9153 14.758 35.8712 14.8624C35.8364 14.9444 35.7789 15.0201 35.7246 15.0874C35.5831 15.2628 35.3952 15.3573 35.1859 15.4404C34.9955 15.5159 34.7759 15.5433 34.5776 15.5727C34.4146 15.5968 34.2248 15.5166 34.0732 15.4541C34.0124 15.429 33.846 15.4382 33.7925 15.3996C34.1361 15.6616 34.5246 15.6789 34.8028 15.6508C35.1794 15.6125 35.5416 15.4798 35.8531 15.2485C35.9655 15.1652 36.1459 15.083 36.1324 14.919C36.1225 14.7969 35.9819 14.6493 35.8733 14.6147Z" fill="#E2DEDE"/>
<path id="Vector_35" d="M32.9232 27.9585C32.6959 27.5451 32.8617 27.0509 32.5904 26.5923C32.3439 26.1756 31.9165 25.6043 31.4337 25.4931C30.8158 25.3506 30.2544 25.5253 29.6462 25.6043C29.1439 25.6696 28.8372 25.3389 28.4391 25.0921C28.5751 25.6483 28.6088 26.1266 28.3687 26.6674C29.2149 26.2169 29.9809 26.3528 30.9527 26.3519C31.9955 26.3509 32.471 27.1365 32.9232 27.9585Z" fill="#D8A88E"/>
<g id="Group_4">
<path id="Vector_36" d="M32.5494 19.272C32.5375 19.5067 32.5631 19.7155 32.3061 19.8132C32.0784 19.8997 31.8242 19.8599 31.5878 19.8921C31.2856 19.9332 31.1697 20.0522 30.968 20.2406C30.7502 20.444 30.403 20.656 30.0999 20.7C29.805 20.7427 29.3099 20.3764 29.0375 20.2749C28.771 20.1757 28.6165 20.2048 28.3389 20.1698C28.1296 20.1433 27.866 20.2697 27.7072 20.1025C27.5254 19.9112 27.7036 19.5319 27.798 19.336C27.6408 19.522 27.3962 19.6614 27.2756 19.8777C27.1492 20.1047 27.2211 20.4941 27.5125 20.523C27.76 20.5473 28.0151 20.5103 28.2637 20.5226C28.5269 20.5356 28.7227 20.6091 28.939 20.7595C29.1388 20.8985 29.2895 21.0315 29.5261 21.0905C30.0808 21.2286 30.7495 21.0867 31.1524 20.6611C31.3453 20.4573 31.5891 20.4141 31.8694 20.4027C32.0627 20.3948 32.4622 20.4813 32.6176 20.3685C32.7209 20.2936 32.7573 20.1999 32.7822 20.0769C32.8026 19.9758 32.8098 19.8714 32.8063 19.7685C32.8013 19.6057 32.7889 19.224 32.5494 19.272Z" fill="#C58774"/>
</g>
<path id="Vector_37" d="M38.5551 15.685C38.3959 16.3091 37.8111 16.9483 37.4374 17.4902C37.018 18.0985 36.4759 18.6444 36.2733 19.3457C36.0892 19.9825 35.8658 20.6263 35.7133 21.2715C35.5267 22.0602 35.3971 22.8724 35.1265 23.6466C35.5541 22.423 36.3044 20.7716 37.336 19.9578C37.7575 19.6251 38.5486 19.1115 38.6929 18.5719C38.8512 17.9791 38.7527 16.9304 38.6929 16.316C38.6748 16.1325 38.5892 15.7077 38.5551 15.685Z" fill="#D8A88E"/>
<path id="Vector_38" d="M33.1014 23.9181C32.9489 24.1007 32.7205 24.2428 32.5542 24.4303C32.361 24.6482 32.1902 24.8522 32.0258 25.0899C31.7125 25.5432 31.2493 25.9353 30.667 25.8792C30.5028 25.8634 30.3407 25.8053 30.1718 25.7886C29.9853 25.77 29.8424 25.8419 29.6772 25.8574C29.3004 25.8926 29.0331 25.785 28.7807 25.5138C28.3251 25.0241 27.7385 24.6421 27.3633 24.1195C27.3817 24.1213 27.4042 24.1247 27.4224 24.1211C28.5548 23.9053 29.7497 23.7153 30.8659 23.7155C31.3205 23.7155 31.7318 23.8474 32.1726 23.8907C32.4302 23.9157 32.8993 23.9432 33.1014 23.9181Z" fill="#E2A18F"/>
<path id="Vector_39" d="M33.2592 23.8505C32.7905 23.8505 32.4532 23.7854 32.0709 23.5294C31.7356 23.3048 31.4482 22.9534 31.028 22.904C30.66 22.8609 30.3795 23.1238 30.0364 23.1519C29.6477 23.1836 29.3681 22.8912 28.9772 23.0105C28.6349 23.1151 28.3987 23.4207 28.0994 23.6019C27.8086 23.7782 27.5274 23.9985 27.1987 24.0944C27.2031 24.0598 27.2213 24.0888 27.242 24.0757C27.5788 24.1896 27.7331 24.2785 28.0984 24.2785C28.4714 24.2785 28.7878 24.1088 29.1626 24.1833C29.5134 24.2531 29.801 24.449 30.1716 24.4137C30.4909 24.3832 30.7805 24.2011 31.0951 24.1427C31.4479 24.0773 31.856 24.0917 32.2224 24.0744C32.4721 24.0629 33.1698 24.0935 33.2592 23.8505Z" fill="#CF7D75"/>
<path id="Vector_40" d="M32.4067 15.3095C32.5236 15.4878 32.8991 15.2451 33.0415 15.1934C33.1057 15.17 33.161 15.1635 33.2128 15.1635C33.1659 15.0632 33.152 14.948 33.1484 14.7961C32.909 14.9906 32.6645 15.1835 32.4067 15.3095Z" fill="#F9DCDC"/>
<path id="Vector_41" d="M35.886 14.8912C35.9586 14.6796 35.8068 14.599 35.637 14.505C35.2962 14.3163 34.8924 14.2142 34.5017 14.1951C34.2075 14.1807 33.9127 14.2263 33.6508 14.3669C33.5514 14.4203 33.459 14.4634 33.38 14.5442C33.321 14.6046 33.1837 14.7243 33.1525 14.7968C33.1384 14.8296 33.1678 15.1633 33.2127 15.1633C33.4368 15.1636 33.5675 15.3484 33.786 15.451C33.9454 15.5258 34.1325 15.5723 34.3045 15.5972C34.664 15.6493 34.9863 15.6109 35.2955 15.4115C35.4942 15.2835 35.7823 15.1485 35.8768 14.9156C35.8802 14.9074 35.8832 14.8992 35.886 14.8912Z" fill="white"/>
<path id="Vector_42" d="M33.6314 14.3442C33.6314 14.3442 33.4736 15.3021 34.176 15.4897C34.176 15.4897 34.5667 15.6363 35.0023 15.4146C35.0023 15.4146 35.5806 15.0426 35.3102 14.2878L34.4538 14.2278L33.6314 14.3442Z" fill="#596C5E"/>
<path id="Vector_43" d="M36.7123 15.0286C36.5004 15.0147 36.0917 14.5773 35.8812 14.4681C35.6289 14.3372 35.0737 14.0736 34.5214 14.085C34.2687 14.0902 33.6939 14.1701 33.4872 14.3253C33.2764 14.4836 33.1208 14.7358 32.914 14.9094C32.7447 15.0515 32.5212 15.2255 32.3618 15.3394C32.5441 15.2311 32.7437 15.1752 32.9261 15.0284C33.1423 14.8546 33.3429 14.6588 33.5713 14.5083C33.9795 14.2393 34.6601 14.2238 35.0924 14.3289C35.4009 14.4039 35.6742 14.5806 35.9576 14.7297C36.1442 14.8281 36.5178 15.1258 36.7123 15.0286Z" fill="#281A13"/>
<path id="Vector_44" d="M34.5025 15.2081C34.7328 15.2081 34.9195 15.0214 34.9195 14.7911C34.9195 14.5608 34.7328 14.3741 34.5025 14.3741C34.2721 14.3741 34.0854 14.5608 34.0854 14.7911C34.0854 15.0214 34.2721 15.2081 34.5025 15.2081Z" fill="#050404"/>
<path id="Vector_45" d="M34.8955 14.5696C34.8955 14.6476 34.8322 14.7109 34.7541 14.7109C34.6761 14.7109 34.6128 14.6476 34.6128 14.5696C34.6128 14.4915 34.6761 14.4282 34.7541 14.4282C34.8322 14.428 34.8955 14.4913 34.8955 14.5696Z" fill="white"/>
<path id="Vector_46" d="M21.8614 7.96841C21.7355 8.19737 21.6449 8.41714 21.6074 8.6077C21.5033 9.13738 21.5634 9.74007 21.5634 10.2876C21.5634 10.8142 21.5837 11.3408 21.6095 11.8563C21.636 12.3876 21.4512 13.0649 21.5974 13.552C21.9975 12.5008 22.136 11.3909 22.5225 10.3215C22.7958 9.5652 23.1062 8.77573 23.5458 8.09929C24.221 7.05995 25.4658 7.47713 26.5216 7.66229C27.7841 7.88368 29.283 8.47682 30.5629 8.09822C31.5003 7.82094 32.2572 7.23104 33.2684 7.1501C35.0334 7.00893 36.1914 8.08091 37.0086 9.51291C37.6266 10.5959 37.9982 11.4946 38.0606 12.7553C38.0964 13.4812 38.0775 14.2083 38.0463 14.9339C38.0175 15.6055 37.9392 16.2469 37.8421 16.9086C38.0234 16.9232 38.1891 17.1594 38.3746 17.0555C38.5618 16.9508 38.618 16.5839 38.6467 16.3944C38.7226 15.8929 38.6564 15.3846 38.6802 14.8805C38.7523 13.3526 39.0788 11.8449 39.0961 10.3112C39.1053 9.5021 38.8881 8.85397 38.7456 8.06775C38.5109 6.77222 38.2333 5.49525 36.7524 5.14947C34.9688 4.73301 33.1135 5.53618 31.4441 6.08461C29.885 6.5968 27.9235 6.85966 26.306 6.53641C25.4355 6.36243 24.3922 5.74081 23.5442 6.16484C23.0066 6.43364 22.2586 7.24619 21.8614 7.96841Z" fill="#D8A88E"/>
<path id="Vector_47" d="M21.6985 9.73559C21.6283 9.04582 22.0042 7.78382 22.1191 7.09134C22.857 6.8238 23.6147 6.61485 24.3876 6.49045C24.3876 6.49045 27.7829 7.61724 28.8196 7.57217C28.8196 7.57217 29.4055 7.66231 29.9914 7.43695C30.6729 7.17482 31.3091 6.83281 32.014 6.61359C33.0359 6.2961 35.2909 5.59335 36.2579 6.26329C36.7577 6.60944 37.4056 7.30426 37.8338 7.75227C38.4024 8.34775 38.5077 9.31174 38.5524 10.0814C38.5788 10.5335 38.979 12.7069 38.6451 12.9355L39.5015 12.3495C39.5015 12.3495 39.817 7.34663 40.2677 6.1297C40.2677 6.1297 39.5916 2.61414 37.8338 1.62257C37.8338 1.62257 29.5407 0.225357 28.6393 0C28.6393 0 21.7434 1.84792 19.625 3.78599C19.625 3.78599 20.4363 10.727 20.6467 12.4997C20.6467 12.4997 21.4729 12.9203 21.518 13.371C21.5182 13.3714 21.9689 12.3948 21.6985 9.73559Z" fill="#755237"/>
<path id="Vector_48" d="M27.4631 24.1348C27.3962 24.0883 27.3322 24.0387 27.2693 23.9866C27.171 23.9051 27.0209 23.7591 26.881 23.8274C26.5822 23.9735 27.3434 24.3064 27.4669 24.3241C27.8437 24.3778 28.2017 24.2621 28.5491 24.2336C28.9292 24.2022 29.1863 24.2464 29.523 24.3632C29.8641 24.4815 30.1641 24.5803 30.5101 24.4189C30.8793 24.2466 31.1175 24.1435 31.5462 24.1435C31.9021 24.1435 32.2421 24.0921 32.5823 24.0753C32.9018 24.0595 33.3231 24.1063 33.5315 23.8054C33.3518 23.6037 32.8421 23.9327 32.6267 23.9845C32.2818 24.0676 31.8871 24.0351 31.5235 24.0533C31.1366 24.0726 30.8496 24.0746 30.5144 24.261C30.1476 24.4651 29.9496 24.3661 29.5843 24.2111C29.2878 24.0852 28.8955 24.1375 28.589 24.1835C28.455 24.2035 28.3225 24.2314 28.188 24.2489C28.1062 24.2596 28.0159 24.2763 27.9331 24.2698C27.8484 24.2632 27.5125 24.1692 27.4631 24.1348Z" fill="#9B5B49"/>
<path id="Vector_49" d="M21.1353 16.2033C21.1353 16.2033 22.2395 18.4042 23.2311 19.3057L24.5531 23.332C24.4255 23.0089 23.9775 22.3689 23.742 22.0716C23.3585 21.5879 23.0914 20.9708 22.6826 20.5152C22.4073 20.2082 22.0899 19.9709 21.9465 19.5609C21.7915 19.1176 21.7416 18.7567 21.586 18.2989C21.3328 17.5545 21.3949 16.903 21.1353 16.2033Z" fill="#D8A88E"/>
<g id="Group_5" opacity="0.62">
<path id="Vector_50" d="M29.293 17.7583C29.5376 17.7956 29.8886 17.9005 30.021 18.1398C30.1585 17.8706 30.4014 17.7633 30.6886 17.7309C30.5981 17.6842 30.4446 17.6669 30.3298 17.6683C30.2014 17.6699 30.0906 17.7608 29.991 17.7601C29.8955 17.7594 29.7904 17.673 29.6763 17.6683C29.532 17.662 29.4026 17.6781 29.293 17.7583Z" fill="#EDCFB9"/>
</g>
<path id="Vector_51" d="M31.7044 18.3442C31.7044 18.3442 32.4706 19.2006 32.6959 19.3057C32.6959 19.3057 32.801 20.0118 32.5757 20.0868L31.4639 20.1169L31.1785 20.1319C31.1785 20.1319 30.848 20.8832 30.217 20.9432C30.217 20.9432 29.7362 21.0032 29.5108 20.7779C29.3747 20.6418 29.294 20.4865 29.1503 20.3573C29.0655 20.281 28.8312 20.2293 28.7071 20.2296C28.5762 20.23 28.3722 20.2381 28.2414 20.2446C28.0666 20.2532 27.8922 20.272 27.7172 20.2794C27.6299 20.283 27.4974 20.3118 27.4327 20.2365C27.3766 20.1712 27.3946 20.067 27.391 19.988C27.3838 19.8325 27.4714 19.6891 27.5805 19.5779C27.5805 19.5779 28.1214 19.0991 28.3617 18.3628C28.3581 18.3722 28.3653 18.352 28.3617 18.3628C28.3388 18.7102 28.0334 19.0953 27.9945 19.4416C27.9788 19.581 27.9195 19.668 27.9786 19.8014C28.0312 19.9201 28.3619 19.8545 28.4969 19.8316C28.5629 19.4369 28.7033 19.3482 28.895 18.9902C28.825 19.2685 28.6895 19.7791 28.88 20.0868C28.9777 20.2446 29.1202 20.2962 29.2251 20.3277C29.3311 20.3594 29.4113 20.4197 29.511 20.4734C29.727 20.59 29.9646 20.6317 30.2176 20.5823C30.5394 20.5195 30.7855 20.2927 30.9383 19.9967C31.0607 19.7596 31.1046 19.2473 30.9515 19.0105C31.0957 19.2249 31.2461 19.4369 31.3703 19.6671C31.4377 19.7921 31.4229 19.8305 31.5693 19.8467C31.6935 19.8604 31.821 19.8377 31.9449 19.8317C32.0626 19.826 32.2252 19.8489 32.2788 19.7566C32.3307 19.667 32.2681 19.4858 32.2638 19.3927C32.2551 19.2083 32.2353 19.1892 32.1215 19.0498C32.0471 18.9586 31.9807 18.8532 31.9108 18.7544C31.8468 18.6639 31.6124 18.4439 31.7044 18.3442Z" fill="#DAAA90"/>
<g id="Group_6" opacity="0.62">
<path id="Vector_52" d="M29.2515 19.06C29.2557 18.9579 29.2631 18.86 29.2712 18.7702C29.0689 18.9752 28.9989 19.2213 28.9851 19.5011C28.9627 19.9513 29.262 20.173 29.6561 20.2646C29.225 20.1646 29.2387 19.3774 29.2515 19.06Z" fill="#EDCFB9"/>
</g>
<g id="Group_7" opacity="0.62">
<path id="Vector_53" d="M30.5776 20.2073C30.5937 20.2289 30.6355 20.0861 30.6532 20.0266C30.6779 19.9433 30.6981 19.8629 30.6979 19.7715C30.6974 19.5903 30.6348 19.4124 30.6409 19.2323C30.8126 19.3489 30.8962 19.5272 30.8636 19.742C30.8432 19.8754 30.7156 20.1564 30.5776 20.2073Z" fill="#EDCFB9"/>
</g>
<path id="Vector_54" d="M31.1027 20.267C31.0997 20.2717 31.0973 20.2765 31.0957 20.2814C31.1238 20.1967 31.1732 20.1397 31.2484 20.0912C31.4501 19.9612 31.7139 19.9118 31.9499 19.8995C32.0647 19.8936 32.1832 19.8968 32.295 19.926C32.3779 19.9477 32.5201 20.0059 32.5099 20.1134C32.5005 20.2104 32.3444 20.2176 32.2733 20.2176C32.1102 20.2176 31.945 20.2039 31.7828 20.1889C31.6607 20.1777 31.5405 20.1512 31.4173 20.1512C31.3566 20.1512 31.2938 20.1568 31.2367 20.1788C31.1988 20.1932 31.1282 20.2269 31.1027 20.267Z" fill="#9B5B49"/>
<path id="Vector_55" d="M36.9323 14.3103C36.9556 14.3164 36.9668 14.3516 36.9756 14.3157C36.8546 14.2919 36.7342 14.2631 36.6156 14.2202C35.8806 13.9533 35.1097 13.6117 34.2955 13.6568C33.4867 13.7015 32.8327 14.2005 32.3574 14.761C32.9908 14.3374 33.5899 13.8596 34.3869 13.8596C35.2029 13.8596 35.8699 14.2225 36.6617 14.3103C36.8024 14.3258 36.9248 14.3368 37.0605 14.3103C37.0093 14.3209 36.9579 14.3139 36.9323 14.3103Z" fill="#B3816A"/>
<path id="Vector_56" d="M33.3042 15.6174C33.6925 15.6039 34.047 15.883 34.4398 15.9217C34.8826 15.9652 35.3504 15.8581 35.7045 15.5837C35.8853 15.4438 36.1127 15.2087 36.3543 15.2006C36.2021 15.2145 36.0375 15.4045 35.9274 15.502C35.7938 15.6203 35.6701 15.7348 35.5127 15.8235C35.1725 16.0148 34.7762 16.1181 34.3859 16.0546C34.184 16.0218 33.999 15.9282 33.8225 15.8204C33.7409 15.7705 33.6518 15.7076 33.5636 15.6711C33.4746 15.6342 33.3837 15.652 33.3042 15.6174Z" fill="#B3816A"/>
<path id="Vector_57" d="M38.3748 7.39187C37.955 6.73202 37.421 6.24363 36.7526 5.84682C36.3551 5.61083 35.8719 5.50572 35.4156 5.45758C34.4607 5.35699 33.4976 5.53042 32.5655 5.72495C32.2186 5.79742 31.8738 5.88811 31.5291 5.97843C31.0396 6.10679 29.9114 6.29699 29.5735 5.78174C29.381 5.48787 29.5102 4.91691 29.4868 4.56625C28.8684 6.09958 27.4822 6.65053 25.9802 6.25516C24.7444 5.92975 22.6314 5.48534 21.9689 7.03147C20.9836 9.33029 21.6651 10.9098 21.5182 13.3714C21.556 12.737 21.6963 12.9708 21.7387 12.3315C21.8018 11.3747 21.6458 10.3884 21.7888 9.44279C21.8953 8.73841 22.1008 7.9585 22.5719 7.39331C23.2125 6.62475 24.395 6.60564 25.2667 6.84867C26.2853 7.13262 27.3279 7.43153 28.3814 7.54997C28.5518 7.56908 28.7007 7.57756 28.8199 7.57251C28.8199 7.57251 29.4058 7.66265 29.9918 7.4373C29.9918 7.4373 32.6392 5.96437 35.7957 6.06389C35.9689 6.10878 36.1265 6.17241 36.2583 6.26382C36.758 6.60997 37.406 7.30479 37.8342 7.75279C38.4028 8.34828 38.5081 9.31226 38.5528 10.0819C38.5791 10.5341 38.9793 12.7074 38.6455 12.936C38.6455 12.936 38.8373 12.8048 39.0394 12.6665C39.2344 10.8638 39.4034 9.00812 38.3748 7.39187Z" fill="#533626"/>
<path id="Vector_58" d="M29.1228 20.3645C29.1259 20.3692 29.1282 20.3741 29.1299 20.3789C29.1017 20.2942 29.0523 20.2372 28.9771 20.1887C28.7754 20.0586 28.5117 20.0093 28.2757 19.9971C28.1608 19.9911 28.0424 19.9944 27.9306 20.0236C27.8477 20.0452 27.7054 20.1034 27.7159 20.2111C27.7253 20.3081 27.8814 20.3153 27.9524 20.3153C28.1156 20.3153 28.2807 20.3016 28.443 20.2866C28.565 20.2754 28.6853 20.2489 28.8084 20.2489C28.8692 20.2489 28.9319 20.2545 28.989 20.2765C29.0265 20.2909 29.0974 20.3245 29.1228 20.3645Z" fill="#9B5B49"/>
<path id="Vector_59" d="M39.4564 17.3977C39.1037 17.3869 39.1614 16.9827 39.2817 16.79C39.4463 16.5264 39.6082 16.2657 39.6372 15.9555C39.6909 15.3809 39.167 14.9634 38.7143 14.7645C38.7107 14.7384 38.7176 14.7146 38.7352 14.6935C38.8941 14.5031 39.0442 14.3468 39.2023 14.1476C39.3716 13.9343 39.4953 13.6754 39.7324 13.5267C40.1535 13.2622 40.9286 13.1232 40.9663 12.4918C41.0223 13.0056 40.4487 13.3713 40.0924 13.6401C39.674 13.9556 39.3381 14.2336 39.0037 14.6486C39.1775 14.8119 39.4302 14.8334 39.6143 15.0486C39.7998 15.2655 39.9244 15.5255 39.9073 15.8204C39.8912 16.095 39.7189 16.3357 39.5748 16.5692C39.5144 16.6665 39.1501 17.5411 39.4564 17.3977Z" fill="#CE9B7D"/>
<path id="Vector_60" d="M40.2075 13.6418C40.1595 13.829 40.2816 14.1549 40.3122 14.363C40.349 14.6128 40.419 14.8614 40.4328 15.1142C40.4642 15.689 40.5722 16.1662 40.3239 16.7209C40.2745 16.8312 40.1994 16.9279 40.1617 17.0364C40.1458 17.082 40.1377 17.1352 40.1291 17.1841C40.1256 17.2035 40.1058 17.3497 40.1173 17.2926C40.1774 17.2261 40.2194 17.1179 40.3101 17.115C40.3541 17.2805 40.3577 17.4451 40.3577 17.6232C40.3577 17.8134 40.3054 17.9789 40.2969 18.1596C40.5376 17.711 40.4644 17.2412 40.6283 16.7827C40.709 16.5565 40.7775 16.3557 40.6997 16.1092C40.6706 16.0173 40.5711 15.8911 40.6012 15.7899C40.6411 15.6565 40.7417 15.6796 40.7074 15.504C40.6769 15.3482 40.5733 15.211 40.5268 15.054C40.4794 14.8944 40.4422 14.7354 40.4024 14.5732C40.3375 14.3092 40.1072 13.914 40.2075 13.6418Z" fill="#CE9B7D"/>
<g id="Group_8" opacity="0.52">
<path id="Vector_61" d="M22.9904 24.9998L22.9912 24.9996C22.9913 24.9259 22.9892 24.8507 22.9904 24.7775C22.9904 24.8509 22.9845 24.9268 22.9904 24.9998Z" fill="#E6BA9F"/>
</g>
<g id="Group_9" opacity="0.52">
<path id="Vector_62" d="M22.9904 24.9998L22.9912 24.9996C22.9913 24.9259 22.9892 24.8507 22.9904 24.7775C22.9904 24.8509 22.9845 24.9268 22.9904 24.9998Z" fill="#E6BA9F"/>
</g>
<path id="Vector_63" d="M28.7769 33.2776C28.8917 33.3625 28.9644 33.5109 29.0325 33.6326C29.1017 33.7564 29.171 33.8878 29.28 33.982C29.48 34.1547 29.8944 34.0076 30.1645 34.0214C30.491 34.0382 30.8716 34.1826 31.149 33.9297C31.3906 33.7094 31.6378 33.3625 31.8563 33.1054C31.7617 33.2168 31.7285 33.4764 31.6591 33.6145C31.4853 33.9601 31.34 34.4649 30.8857 34.4949C30.5592 34.5163 30.2507 34.43 29.9273 34.4788C29.6646 34.5185 29.374 34.5367 29.1729 34.3146C29.0752 34.2064 29.0193 34.0595 28.9707 33.9244C28.9157 33.7714 28.8722 33.6144 28.829 33.4577C28.8129 33.3989 28.8023 33.3328 28.7769 33.2776Z" fill="#D8A88E"/>
<path id="Vector_64" d="M28.4337 13.1257C28.4436 13.1511 27.2902 13.1713 26.5888 13.0709C26.3296 13.0337 23.7441 12.8772 24.0483 13.5154C24.0722 13.5659 24.5574 13.71 24.6499 13.7543C24.886 13.8683 25.0667 13.8852 25.3342 13.882C25.583 13.8791 25.8196 13.8481 26.0554 13.8219C26.2735 13.7976 27.5362 14.2519 27.9118 14.4309C28.1306 14.5351 28.3089 14.7156 28.4433 14.9336C28.1963 15.4313 27.4551 16.5976 27.0621 16.4961C27.0309 16.5194 27.1412 16.5028 27.1232 16.5367C27.6165 16.395 27.8932 16.106 28.2891 15.7874C28.4669 15.6444 28.5841 15.5478 28.6461 15.4551C28.6841 15.6583 28.6899 15.8712 28.6879 16.0683C28.6866 16.1786 28.72 17.4761 28.6097 17.5102C28.9026 17.4201 29.3759 16.2933 29.3759 16.2933C29.5068 15.2889 28.8942 13.993 28.4337 13.1257Z" fill="#DAAA90"/>
<path id="Vector_65" d="M36.4129 13.0202C36.1343 12.8729 35.8356 12.7615 35.5176 12.7316C35.2003 12.7018 34.9452 12.7552 34.6565 12.8617C33.8633 13.1545 33.0846 13.2145 32.2445 13.2948C31.9404 13.3238 31.7078 13.3467 31.556 13.5591C31.5199 13.6095 31.4884 13.6708 31.4615 13.7453C31.3537 14.0448 31.2836 14.3648 31.1949 14.6705C31.049 15.1739 30.9032 15.6771 30.7573 16.1804C30.7573 16.1804 31.4476 17.4862 31.4484 17.4875C31.4045 17.4044 31.4411 17.192 31.4392 17.101C31.433 16.8175 31.3919 16.526 31.3973 16.2484C31.4029 15.9614 31.508 15.6616 31.6568 15.3803C31.7049 15.4212 31.7601 15.4659 31.8232 15.5168C32.2191 15.8353 32.4958 16.1243 32.9891 16.266C32.9709 16.2322 33.0814 16.2487 33.0502 16.2255C32.7363 16.3066 32.2007 15.579 31.8713 15.0286C31.9773 14.8732 32.0898 14.728 32.1985 14.6029C32.6956 14.0314 33.432 13.5825 34.1829 13.5437C34.5224 13.5263 34.8585 13.5818 35.1938 13.6249C35.3339 13.6429 35.4983 13.6874 35.6367 13.6873C35.7637 13.6869 35.8581 13.6314 35.9858 13.6115C36.114 13.5915 36.2614 13.6115 36.3914 13.6115C36.6409 13.6115 36.9755 13.6651 37.1722 13.4938C36.9649 13.3153 36.6593 13.1505 36.4129 13.0202Z" fill="#DAAA90"/>
<path id="Vector_66" d="M31.1611 12.8158C31.0905 13.068 31.1995 13.3308 31.265 13.5701C31.3081 13.7275 31.3311 13.9425 31.3885 14.0797C31.5682 13.8028 31.9272 13.7559 32.2245 13.6983C32.5055 13.6436 32.7808 13.5679 33.0507 13.4745C33.5222 13.3114 33.9977 13.1497 34.4775 13.0119C35.2534 12.7893 35.8354 13.0692 36.5463 13.3034C36.8529 13.4046 37.1596 13.5055 37.4648 13.611C37.5851 13.6525 37.8124 13.6869 37.9087 13.7769C37.9081 13.7763 36.256 12.2295 36.256 12.2295C35.6548 12.21 35.0501 12.2278 34.4499 12.2623C33.9074 12.2935 33.3651 12.3434 32.8279 12.4265C32.3674 12.4977 31.8403 12.4696 31.3959 12.6045C31.252 12.6483 31.1876 12.7211 31.1611 12.8158Z" fill="#755034"/>
<path id="Vector_67" d="M24.3276 12.2446C24.3276 12.2446 22.7501 13.6869 22.7051 14.1376C22.7051 14.1376 25.1389 12.9207 26.0629 13.2813C26.0629 13.2813 28.632 14.0024 28.8348 13.9799C28.8348 13.9799 29.263 12.47 28.7672 12.5376C28.2714 12.6052 27.9334 12.6052 27.6179 12.6953C27.3024 12.7855 24.8009 12.1319 24.3276 12.2446Z" fill="#755034"/>
<g id="Group_10">
<path id="Vector_68" d="M24.2917 14.632C24.2784 14.7347 24.2522 14.776 24.2984 14.8795C24.3346 14.9608 24.3936 15.0356 24.4489 15.1018C24.5937 15.2747 24.7832 15.3657 24.9939 15.4449C25.1857 15.517 25.4057 15.5402 25.6045 15.566C25.7679 15.5873 25.9563 15.5035 26.1068 15.4382C26.167 15.412 26.3336 15.418 26.3864 15.3785C26.0477 15.6468 25.6595 15.6711 25.3808 15.648C25.0035 15.6169 24.6391 15.4907 24.3233 15.2651C24.2095 15.1838 24.0274 15.105 24.038 14.9408C24.046 14.8187 24.1839 14.6686 24.2917 14.632Z" fill="#E2DEDE"/>
<path id="Vector_69" d="M27.7705 15.2629C27.6569 15.4434 27.2771 15.2076 27.1337 15.1585C27.069 15.1364 27.0138 15.1308 26.9619 15.1319C27.007 15.0307 27.0187 14.9153 27.0194 14.7632C27.2626 14.9534 27.5103 15.1418 27.7705 15.2629Z" fill="#F9DCDC"/>
<path id="Vector_70" d="M24.2837 14.9087C24.2071 14.6985 24.3575 14.6152 24.5257 14.5178C24.8628 14.3229 25.2648 14.2133 25.655 14.1872C25.949 14.1673 26.2445 14.2075 26.509 14.3433C26.6092 14.3949 26.7024 14.4361 26.783 14.5156C26.8431 14.575 26.9826 14.6921 27.0152 14.7641C27.03 14.7967 27.0068 15.1308 26.9617 15.1317C26.7378 15.1362 26.6103 15.3233 26.3938 15.4299C26.2359 15.5076 26.0496 15.5575 25.878 15.5855C25.5196 15.6441 25.1965 15.6116 24.8837 15.4182C24.6827 15.2938 24.3923 15.1641 24.2935 14.9328C24.2899 14.9247 24.2866 14.9166 24.2837 14.9087Z" fill="white"/>
<path id="Vector_71" d="M26.5284 14.3203C26.5284 14.3203 26.7036 15.275 26.0048 15.4757C26.0048 15.4757 25.617 15.6293 25.1773 15.4158C25.1773 15.4158 24.5921 15.0547 24.8488 14.2948L25.7039 14.2189L26.5284 14.3203Z" fill="#596C5E"/>
<path id="Vector_72" d="M23.4604 15.0612C23.6719 15.0434 24.044 14.6112 24.2524 14.4982C24.5023 14.3628 25.0814 14.0765 25.6336 14.0776C25.8864 14.0781 26.4626 14.1473 26.6722 14.299C26.8859 14.4533 27.046 14.7028 27.256 14.8725C27.4278 15.0115 27.6544 15.1813 27.816 15.2923C27.6317 15.1874 27.4312 15.1351 27.2461 14.9918C27.0267 14.822 26.8226 14.63 26.5915 14.4836C26.1784 14.2222 25.4977 14.2191 25.0675 14.3321C24.7605 14.4129 24.4904 14.5945 24.2099 14.7488C24.0246 14.8503 23.6566 15.1548 23.4604 15.0612Z" fill="#281A13"/>
<path id="Vector_73" d="M25.2486 14.791C25.2528 15.0212 25.443 15.2044 25.673 15.2002C25.9032 15.1961 26.0864 15.0059 26.0822 14.7756C26.0781 14.5454 25.8881 14.3623 25.6579 14.3664C25.4276 14.3705 25.2445 14.5606 25.2486 14.791Z" fill="#050404"/>
<path id="Vector_74" d="M25.2681 14.5689C25.2695 14.6469 25.3339 14.7091 25.412 14.7077C25.49 14.7062 25.5522 14.6419 25.5508 14.5638C25.5493 14.4857 25.485 14.4235 25.4069 14.425C25.3288 14.4264 25.2666 14.4908 25.2681 14.5689Z" fill="white"/>
<path id="Vector_75" d="M23.2532 14.3813C23.2302 14.3878 23.2195 14.4234 23.21 14.3877C23.3306 14.3617 23.4503 14.3307 23.568 14.2854C24.2982 14.0051 25.0626 13.6494 25.8773 13.6795C26.6868 13.7094 27.3499 14.1964 27.8352 14.748C27.1943 14.3361 26.5864 13.8693 25.7897 13.8839C24.9737 13.8989 24.3135 14.2741 23.5233 14.3763C23.383 14.3945 23.2608 14.4077 23.1245 14.3837C23.1764 14.3934 23.2278 14.3855 23.2532 14.3813Z" fill="#B3816A"/>
<path id="Vector_76" d="M26.8786 15.5875C26.4901 15.5812 26.1408 15.8667 25.7487 15.9125C25.3068 15.9641 24.8372 15.8655 24.4781 15.5977C24.2947 15.4611 24.0631 15.2303 23.8213 15.2267C23.9736 15.2379 24.1417 15.4249 24.2538 15.5202C24.3895 15.636 24.5152 15.7483 24.6742 15.8339C25.0178 16.0189 25.4159 16.115 25.8051 16.0443C26.0063 16.0077 26.1897 15.9109 26.3642 15.7998C26.445 15.7485 26.5328 15.6839 26.6202 15.6459C26.7087 15.6073 26.7998 15.6235 26.8786 15.5875Z" fill="#B3816A"/>
</g>
<g id="Group_11" opacity="0.39">
<path id="Vector_77" d="M23.2908 41.2255C24.7785 39.4751 24.5532 35.4693 22.7173 33.9643C22.0586 36.4448 20.0522 37.0365 17.8613 37.9455C15.9362 38.7442 15.1264 39.2773 13.1831 39.8955C16.5653 40.4104 20.2849 44.7616 23.2908 41.2255Z" fill="#D8A88E"/>
</g>
<g id="Group_12" opacity="0.39">
<path id="Vector_78" d="M36.8127 41.5861C38.7705 41.9124 40.7871 41.5094 42.6817 41.0275C44.1311 40.6588 46.3695 40.4535 47.66 39.7188C45.3453 39.7965 43.6542 38.6049 41.6325 37.7923C40.3912 37.2935 39.1548 36.749 38.0336 36.0122C37.2627 35.5056 36.3701 34.2349 35.334 34.5432C34.6179 34.7563 34.6744 35.6747 34.6268 36.2801C34.4831 38.1074 34.4427 41.1909 36.8127 41.5861Z" fill="#D8A88E"/>
</g>
<path id="Vector_79" d="M32.4913 40.8291C32.0833 41.1307 31.8482 41.5536 31.3649 41.803C30.9078 42.0386 30.3971 42.1682 29.884 42.1897C28.7381 42.2374 27.715 41.7654 27.1191 40.7787C28.4055 42.0274 31.1316 41.8343 32.4913 40.8291Z" fill="#D8A88E"/>
<path id="Vector_80" d="M15.9218 41.4959C16.5978 42.0142 18.2532 42.2722 19.08 42.4063C20.3288 42.609 20.9438 42.7181 22.169 42.4C23.2634 42.1159 24.5522 41.3735 25.7201 41.6091C26.7111 41.8091 27.5332 43.0099 28.316 43.5703C27.1236 43.6492 26.2249 43.0514 25.0098 43.1125C23.8882 43.169 23.3124 43.4491 22.1575 43.5068C20.9788 43.5658 19.501 43.6325 18.4488 43.1125C17.9759 42.8787 15.8305 41.9767 15.9218 41.4959Z" fill="#D8A88E"/>
<path id="Vector_81" d="M45.3214 40.138C44.9019 40.4979 43.9633 40.7385 43.4239 40.9397C42.6537 41.2269 41.8152 41.3836 41.0187 41.5729C40.0448 41.8044 39.0093 41.9059 38.0092 41.8644C37.0335 41.824 36.146 41.2956 35.1768 41.4912C34.0447 41.7196 33.1056 43.0914 32.2114 43.7314C32.4251 43.5786 33.4138 43.6368 33.7311 43.5659C34.2519 43.4497 34.7848 43.2524 35.3219 43.2297C36.4269 43.1827 37.5583 43.205 38.675 43.1486C39.4625 43.1087 40.2871 43.1095 41.0187 42.746C42.4949 42.0126 43.8743 40.9513 45.3214 40.138Z" fill="#D8A88E"/>
<path id="Vector_82" d="M34.2269 50.221C34.5889 49.5439 35.0777 48.9574 35.7543 48.6257C37.0356 47.9977 38.4542 47.5047 39.87 47.3031C38.6727 47.5759 37.2476 48.2723 36.1037 48.8829C34.9246 49.5123 34.3783 50.625 33.9402 51.9027C33.7333 52.5065 33.639 52.9633 33.4445 53.5704C33.3062 54.0016 33.1248 54.8704 33.0547 55.2757C33.2651 54.0609 33.2999 52.7845 33.6723 51.5851C33.8164 51.1219 33.996 50.653 34.2269 50.221Z" fill="#D8A88E"/>
<g id="Group_13" opacity="0.62">
<path id="Vector_83" d="M32.6186 58.8887C32.6186 58.8887 33.207 50.3299 34.7394 49.158L32.0352 50.6904C32.0352 50.6904 32.3781 53.7807 32.6186 58.8887Z" fill="#EDCFB9"/>
</g>
<path id="Vector_84" d="M23.6513 47.9862C25.3954 47.7693 26.8334 51.5802 27.3246 52.8742C27.7169 53.9075 28.1442 54.8529 28.4262 55.9234C28.6852 56.9069 28.3669 58.1489 28.7038 59.1366C28.6944 58.1997 28.4763 56.1315 27.9906 55.3433C27.4041 54.3914 26.9583 52.8166 26.368 51.8578C25.8477 51.0126 25.3303 50.7229 24.9258 49.8146C24.7718 49.4688 22.8469 47.5905 23.6513 47.9862Z" fill="#D8A88E"/>
<g id="Group_14" opacity="0.62">
<path id="Vector_85" d="M28.7894 59.7949C28.7894 57.6612 28.4905 56.7919 27.3471 54.9272C26.7125 53.8922 26.0951 52.8103 25.657 51.6774C25.3487 50.8801 25.5472 49.9978 25.2758 49.246C24.7301 47.734 22.1513 47.8393 20.7889 47.8961C18.7315 47.9817 16.5866 48.1216 14.5467 48.3468C14.4647 48.3558 14.0814 48.3316 14.1733 48.3468C15.8296 48.3468 17.5885 48.1782 19.2341 48.3471C21.117 48.5402 21.9342 49.7283 23.0401 51.1412C24.1144 52.5139 25.1424 54.0494 26.2849 55.3754C27.3295 56.5876 28.1957 57.7018 28.6089 59.2562C28.66 59.4478 28.7894 60.0706 28.7894 59.7949Z" fill="#EDCFB9"/>
</g>
<g id="Group_15" opacity="0.46">
<path id="Vector_86" d="M29.7211 10.8207C28.9657 10.734 28.2057 10.6473 27.4468 10.5765C26.8539 10.5211 26.0554 10.5283 25.872 11.2349C25.5016 12.6638 27.7214 11.7817 28.2186 11.7157C29.1359 11.594 33.8753 12.6813 33.8673 10.9976C33.861 9.66277 31.8106 10.5413 31.2231 10.6938C30.7046 10.8285 30.2512 10.8815 29.7211 10.8207Z" fill="#EDCFB9"/>
</g>
<g id="Group_16" opacity="0.62">
<path id="Vector_87" d="M7.03022 51.3519C6.42194 49.5936 6.11221 47.8308 7.15264 45.9729C7.87306 44.6866 9.2389 42.8994 10.7735 42.7463C10.8243 43.7734 10.8072 43.6146 10.8638 44.6462C10.9375 45.9895 10.037 45.6884 8.97081 46.449C7.13623 47.7577 7.54818 50.5383 7.54566 52.7212C7.36591 52.264 7.18797 51.808 7.03022 51.3519Z" fill="#EDCFB9"/>
</g>
<g id="Group_17">
<path id="Vector_88" d="M47.637 119.169C48.1607 119.949 50.6627 138.361 50.1388 147.1C50.1388 147.1 49.5103 163.642 48.6722 164.891C48.515 165.126 49.3639 168.59 49.422 168.988C49.7789 171.44 50.4244 173.784 50.7451 176.245C51.2576 180.178 50.9757 185.342 50.3483 189.237L48.1484 212.334C48.1484 212.334 49.0911 214.363 48.6722 215.611C48.3585 216.546 50.4725 220.306 50.8982 221.221C52.2636 224.157 49.2759 223.464 47.9389 223.57C47.5969 223.598 47.0738 223.779 46.7891 223.73C45.9964 223.593 46.3503 223.423 45.9253 222.981C45.6048 222.647 45.9502 221.995 45.3434 222.201C45.0367 222.306 44.9583 223.204 44.72 223.453C44.2126 223.983 43.1188 224.412 42.7017 223.57C42.2329 222.624 42.9611 221.16 43.1991 220.289C43.7693 218.201 43.0763 216.486 43.4087 214.52C43.7945 212.238 43.7574 210.725 43.2252 208.589L40.6064 187.208V182.526C41.0254 181.434 41.7588 177.688 41.7588 177.688C41.7588 177.688 40.2923 170.666 39.7684 169.886C38.3616 167.789 38.9799 164.984 39.2341 162.469C39.5137 159.702 38.5886 157.562 37.9594 155.017C37.3879 152.704 36.7306 150.491 36.7304 148.036C36.7302 144.446 35.2638 132.431 35.578 131.026C35.8923 129.622 37.0447 124.16 37.0447 124.16C37.0447 124.16 34.9496 127.905 32.2258 124.16C30.8886 122.321 32.2199 117.217 32.8253 114.991C33.2796 113.32 33.6398 111.731 33.7999 109.954C33.9261 108.554 33.8774 107.046 34.3238 105.745C35.235 103.088 37.8846 103.843 39.6662 103.872C41.7067 103.905 43.7646 104.459 45.7368 103.872C46.5351 103.634 47.1132 118.388 47.637 119.169Z" fill="#E6BA9F"/>
<path id="Vector_89" d="M40.6079 163.868C40.6079 163.868 41.8268 169.367 42.9064 170.457C43.9859 171.546 43.0457 171.65 41.8964 170.664C41.8964 170.664 40.8169 169.523 40.6079 163.868Z" fill="#D8A88E"/>
<path id="Vector_90" d="M43.8276 171.036C43.8276 171.036 45.8704 182.507 44.9276 189.354C44.9276 189.354 44.2989 171.036 43.8276 171.036Z" fill="#D8A88E"/>
<path id="Vector_91" d="M42.8674 205.863C42.8422 206.29 43.1052 206.741 43.2366 207.112C43.3481 207.427 43.4247 207.741 43.4952 208.073C43.6297 208.706 43.7697 209.344 43.921 209.974C44.1298 210.843 44.338 211.835 44.312 212.754C44.2875 213.624 44.0521 214.209 43.6221 214.862C43.458 215.111 43.4012 215.369 43.3742 215.681C43.2925 216.624 44.1577 217.12 44.0326 218.021C44.0092 218.19 43.5356 219.539 43.4263 219.53C43.422 219.545 43.4177 219.561 43.4133 219.576C43.5736 218.195 43.4643 217.462 43.2469 216.183C43.0944 215.286 43.3776 214.398 43.5036 213.527C43.6286 212.665 43.4734 211.886 43.4447 211.026C43.4259 210.464 43.3026 209.926 43.2604 209.37C43.1806 208.318 42.9675 207.271 42.8894 206.216C42.8804 206.096 42.8772 205.984 42.8674 205.863Z" fill="#D8A88E"/>
<path id="Vector_92" d="M39.0496 164.372C39.0662 164.239 39.0822 164.108 39.0965 163.977C39.2225 162.816 39.2834 161.646 39.1506 160.484C38.8603 157.947 37.835 155.839 37.4723 153.367C37.3196 152.327 36.9284 151.303 36.9228 150.235C36.9035 151.369 37.5772 152.53 37.9059 153.523C38.2535 154.573 38.6373 155.69 39.159 156.616C39.6011 157.4 41.7366 162.48 42.0952 161.86C41.6518 162.627 40.8034 162.93 40.1702 163.338C39.4698 163.79 38.9593 164.584 38.9274 165.638C38.9402 165.218 38.997 164.792 39.0496 164.372Z" fill="#D8A88E"/>
<path id="Vector_93" d="M46.6346 163.865C46.3028 164.291 46.3434 165.412 46.2457 165.994C46.1382 166.634 46.0515 167.256 45.8999 167.888C45.6987 168.728 45.416 170.507 44.6323 170.723C44.9741 171.314 45.7955 171.025 46.1161 170.581C46.5859 169.93 46.7368 169.073 46.7728 168.201C46.8388 166.605 46.362 165.067 46.8107 163.565C46.6476 163.757 46.5964 164.044 46.4617 164.27L46.6346 163.865Z" fill="#D8A88E"/>
<path id="Vector_94" d="M39.895 169.889C40.6176 171.127 41.3326 172.608 42.1048 173.852C42.408 174.341 43.2653 174.964 43.3789 175.562C43.5036 176.218 42.8414 177.183 42.5908 177.728C41.1588 180.842 40.786 184.32 40.7963 188.002C40.5558 186.501 40.4045 184.716 40.5403 183.11C40.6618 181.674 41.296 180.296 41.5517 178.9C41.8318 177.371 41.4565 176.006 41.0703 174.456C40.7777 173.283 40.524 170.645 39.895 169.889Z" fill="#D8A88E"/>
<g id="Group_18">
<path id="Vector_95" d="M49.2086 160.634C49.3265 159.099 49.4551 157.598 49.5724 156.067C49.6092 155.587 51.0241 142.546 48.8931 143.76C46.7535 144.979 47.7407 149.628 47.8275 152.078C47.941 155.286 47.7278 158.577 46.2319 161.253C47.8145 162.725 48.5616 165.555 48.0458 168.027C48.1505 167.525 48.2427 166.986 48.4531 166.525C48.8893 166.968 49.2692 168.225 49.3907 169.029C49.2414 167.875 48.8791 166.873 48.6844 165.748C48.6276 165.42 48.6263 165.062 48.6542 164.693C49.1408 163.765 49.1228 161.751 49.2086 160.634Z" fill="#D8A88E"/>
<path id="Vector_96" d="M49.3911 169.029C49.4003 169.1 49.4115 169.169 49.4189 169.242C49.4124 169.176 49.4025 169.103 49.3911 169.029Z" fill="#D8A88E"/>
</g>
<path id="Vector_97" d="M47.499 222.412C47.499 222.478 47.5046 222.538 47.5131 222.594C47.5127 222.537 47.5089 222.477 47.499 222.412Z" fill="#E6BA9F"/>
<path id="Vector_98" d="M50.1256 222.412C50.4022 222.773 49.9874 222.953 49.9874 222.953C49.4344 223.133 49.0196 222.953 48.743 222.232C48.743 222.412 48.743 222.773 48.743 222.953C48.3587 223.287 47.6191 223.31 47.5128 222.594C47.5185 223.336 46.7776 223.468 46.3927 223.133C46.1161 222.773 45.8395 221.871 45.5632 221.871C44.7337 222.232 44.3188 223.854 43.2128 223.494C42.9528 223.409 42.7242 223.244 42.5542 223C42.5697 223.203 42.615 223.395 42.7015 223.57C43.1187 224.411 44.2126 223.983 44.7198 223.453C44.9581 223.204 45.0365 222.305 45.3432 222.201C45.9499 221.995 45.6046 222.647 45.9252 222.981C46.3503 223.423 45.9962 223.592 46.7889 223.73C47.0736 223.779 47.5968 223.597 47.9388 223.57C49.0245 223.484 51.1983 223.924 51.2463 222.521C50.949 222.886 50.5374 222.949 50.1256 222.412Z" fill="#D8A88E"/>
<path id="Vector_99" d="M50.863 179.023C50.9658 180.983 51.0673 182.766 50.6838 184.673C50.6508 184.837 50.615 184.998 50.5769 185.156C50.1706 186.841 49.4972 188.197 48.994 189.814C47.8368 193.533 48.2639 197.702 48.0978 201.739C48.0475 202.961 47.5099 211.918 48.1899 211.956C48.1899 211.956 50.5403 187.196 50.6786 186.776C50.8304 186.314 50.7996 185.776 50.8347 185.297C50.8704 184.813 50.8711 184.351 50.909 183.861C50.9845 182.886 51.0473 181.882 51.0473 180.856C51.0473 180.346 51.1255 179.387 50.863 179.023Z" fill="#D8A88E"/>
<path id="Vector_100" d="M41.0566 191.112C41.1203 191.509 41.1888 191.901 41.2336 192.276C41.8228 197.202 42.3235 202.118 42.9316 207.035C43.0666 208.126 43.3556 211.02 44.0427 211.727C44.6264 210.969 44.0865 208.576 43.9484 207.629C43.7376 206.182 43.6082 204.726 43.4027 203.295C43.2042 201.915 43.0367 200.502 42.8449 199.095C42.5483 196.919 43.0527 194.139 42.3732 192.138C42.0152 191.084 41.2627 190.112 40.9091 189.171C40.8588 189.79 40.9511 190.456 41.0566 191.112Z" fill="#D8A88E"/>
<path id="Vector_101" d="M40.7243 185.754C40.1585 187.445 41.3331 189.331 42.0988 190.551C43.0763 192.109 44.2404 193.487 44.7234 195.443C44.8153 195.816 44.8788 196.3 44.9078 196.692C44.9839 197.716 44.7562 198.682 44.7798 199.678C44.6323 198.576 44.5011 197.545 44.2382 196.448C44.0832 195.8 43.816 195.249 43.5254 194.693C42.8689 193.439 42.0353 192.34 41.4633 191.005C40.7578 189.359 40.7719 187.816 40.542 186.031C40.5627 186.194 40.7683 185.623 40.7243 185.754Z" fill="#D8A88E"/>
<g id="Group_19" opacity="0.62">
<path id="Vector_102" d="M38.5581 152.642C39.5053 154.088 40.0087 156.356 40.6628 158.05C41.1677 159.358 43.3593 162.181 43.8118 159.673C44.1352 157.881 42.0241 156.873 41.1542 155.936C40.1904 154.899 39.2749 153.774 38.5581 152.642Z" fill="#EDCFB9"/>
</g>
</g>
<g id="Group_20">
<path id="Vector_103" d="M13.0463 118.987C12.499 119.768 11.2947 138.183 11.842 146.922C11.842 146.922 12.4988 163.464 13.3746 164.713C13.539 164.947 12.6517 168.411 12.5909 168.81C12.2179 171.262 11.5433 173.606 11.2083 176.067C10.6727 179.999 10.9673 185.163 11.6231 189.059L13.9221 212.156C13.9221 212.156 12.9369 214.185 13.3748 215.433C13.7026 216.367 11.4933 220.127 11.0486 221.043C9.62162 223.979 12.7438 223.286 14.1412 223.392C14.4987 223.419 15.0455 223.601 15.3428 223.552C16.1712 223.414 15.8013 223.245 16.2455 222.803C16.5805 222.469 16.2195 221.817 16.8536 222.023C17.1741 222.127 17.256 223.026 17.5051 223.275C18.0352 223.805 19.1784 224.233 19.6143 223.392C20.1041 222.446 19.3431 220.981 19.0945 220.111C18.4985 218.023 19.2227 216.307 18.8755 214.341C18.4724 212.059 18.5111 210.547 19.0673 208.41L21.8042 187.03V182.348C21.3663 181.256 20.5999 177.51 20.5999 177.51C20.5999 177.51 22.1325 170.488 22.6799 169.707C24.1499 167.611 23.504 164.806 23.2384 162.291C22.9461 159.523 23.913 157.384 24.5703 154.838C25.1676 152.526 25.8545 150.313 25.8547 147.858C25.8549 144.268 26.6999 131.782 26.3714 130.377C26.0429 128.972 25.5262 123.982 25.5262 123.982C25.5262 123.982 27.7158 127.727 30.5619 123.982C31.9593 122.143 30.5681 117.039 29.9354 114.813C29.4608 113.142 29.0843 111.553 28.9168 109.776C28.785 108.376 28.8359 106.868 28.3693 105.567C27.417 102.91 24.648 103.665 22.7864 103.694C20.654 103.726 18.5036 104.281 16.4424 103.694C15.6082 103.455 13.5937 118.207 13.0463 118.987Z" fill="#E6BA9F"/>
<path id="Vector_104" d="M21.8028 163.69C21.8028 163.69 20.5291 169.189 19.4009 170.279C18.2726 171.368 19.2554 171.472 20.4562 170.486C20.4562 170.486 21.5845 169.345 21.8028 163.69Z" fill="#D8A88E"/>
<path id="Vector_105" d="M18.4381 170.858C18.4381 170.858 16.3033 182.329 17.2886 189.176C17.2886 189.176 17.9454 170.858 18.4381 170.858Z" fill="#D8A88E"/>
<path id="Vector_106" d="M19.4415 205.685C19.4679 206.112 19.1931 206.562 19.0557 206.934C18.9394 207.249 18.8592 207.563 18.7855 207.894C18.6449 208.528 18.4986 209.166 18.3405 209.796C18.1224 210.665 17.9048 211.657 17.932 212.576C17.9576 213.445 18.2037 214.03 18.653 214.684C18.8244 214.933 18.8837 215.19 18.912 215.503C18.9973 216.446 18.0934 216.941 18.2239 217.843C18.2484 218.012 18.7433 219.361 18.8574 219.352C18.8619 219.367 18.8664 219.382 18.8709 219.398C18.7034 218.017 18.8176 217.284 19.0449 216.005C19.2043 215.108 18.9082 214.22 18.7766 213.349C18.6461 212.486 18.8082 211.708 18.8383 210.847C18.8579 210.285 18.9869 209.748 19.031 209.192C19.1145 208.14 19.3373 207.092 19.4188 206.038C19.428 205.917 19.4314 205.805 19.4415 205.685Z" fill="#D8A88E"/>
<path id="Vector_107" d="M23.4313 164.194C23.414 164.061 23.3972 163.93 23.3824 163.799C23.2506 162.638 23.187 161.468 23.326 160.306C23.6294 157.769 24.7007 155.661 25.0798 153.189C25.2394 152.149 25.6483 151.125 25.654 150.057C25.6742 151.191 24.9702 152.352 24.6266 153.345C24.2633 154.395 23.8622 155.512 23.317 156.438C22.8551 157.222 20.6233 162.302 20.2485 161.682C20.7117 162.449 21.5985 162.752 22.2602 163.16C22.9921 163.612 23.5256 164.406 23.5589 165.46C23.5456 165.04 23.4863 164.614 23.4313 164.194Z" fill="#D8A88E"/>
<path id="Vector_108" d="M15.5044 163.686C15.8511 164.113 15.8085 165.234 15.9107 165.816C16.0231 166.456 16.1137 167.078 16.272 167.71C16.4822 168.55 16.7777 170.329 17.5968 170.545C17.2396 171.135 16.3813 170.847 16.0463 170.403C15.5554 169.752 15.3977 168.894 15.36 168.023C15.2911 166.427 15.7892 164.888 15.3203 163.387C15.4909 163.578 15.5444 163.866 15.685 164.092L15.5044 163.686Z" fill="#D8A88E"/>
<path id="Vector_109" d="M22.5475 169.711C21.7925 170.949 21.0452 172.43 20.2382 173.674C19.9215 174.162 19.0254 174.786 18.9068 175.383C18.7765 176.04 19.4684 177.005 19.7304 177.55C21.2269 180.664 21.6163 184.142 21.6057 187.823C21.857 186.323 22.0151 184.537 21.8732 182.932C21.7463 181.495 21.0834 180.118 20.8162 178.722C20.5234 177.193 20.9157 175.827 21.3192 174.278C21.625 173.105 21.8902 170.467 22.5475 169.711Z" fill="#D8A88E"/>
<g id="Group_21">
<path id="Vector_110" d="M12.8142 160.456C12.6909 158.921 12.5566 157.419 12.434 155.889C12.3956 155.409 10.9169 142.368 13.144 143.582C15.3799 144.801 14.3483 149.45 14.2576 151.9C14.139 155.108 14.3618 158.399 15.9249 161.075C14.2711 162.547 13.4903 165.377 14.0294 167.849C13.9198 167.347 13.8237 166.808 13.6037 166.347C13.1478 166.79 12.7508 168.047 12.6239 168.851C12.78 167.697 13.1584 166.695 13.362 165.57C13.4213 165.242 13.4227 164.885 13.3933 164.515C12.8853 163.587 12.904 161.573 12.8142 160.456Z" fill="#D8A88E"/>
<path id="Vector_111" d="M12.6238 168.851C12.6142 168.922 12.6025 168.991 12.5947 169.063C12.6016 168.998 12.6119 168.925 12.6238 168.851Z" fill="#D8A88E"/>
</g>
<path id="Vector_112" d="M14.601 222.234C14.601 222.3 14.5951 222.36 14.5864 222.416C14.5868 222.359 14.5906 222.299 14.601 222.234Z" fill="#E6BA9F"/>
<path id="Vector_113" d="M11.8561 222.234C11.5671 222.595 12.0005 222.775 12.0005 222.775C12.5785 222.955 13.0119 222.775 13.3009 222.054C13.3009 222.234 13.3009 222.595 13.3009 222.775C13.7025 223.109 14.4752 223.132 14.5865 222.416C14.5805 223.157 15.3547 223.29 15.7571 222.955C16.0461 222.595 16.3351 221.693 16.6239 221.693C17.4907 222.054 17.9243 223.676 19.0801 223.316C19.3518 223.231 19.5907 223.066 19.7684 222.822C19.7522 223.024 19.7048 223.217 19.6145 223.391C19.1785 224.233 18.0353 223.805 17.5051 223.275C17.256 223.025 17.1741 222.127 16.8536 222.023C16.2195 221.817 16.5804 222.469 16.2455 222.802C15.8012 223.245 16.1712 223.414 15.3428 223.552C15.0453 223.601 14.4985 223.419 14.1412 223.392C13.0066 223.306 10.7347 223.746 10.6846 222.343C10.9957 222.708 11.4259 222.771 11.8561 222.234Z" fill="#D8A88E"/>
<path id="Vector_114" d="M11.0853 178.845C10.9778 180.805 10.8718 182.588 11.2726 184.495C11.3072 184.659 11.3445 184.82 11.3844 184.978C11.8089 186.663 12.5128 188.019 13.0385 189.636C14.2478 193.355 13.8015 197.524 13.9749 201.561C14.0274 202.783 14.5893 211.74 13.8786 211.777C13.8786 211.777 11.4224 187.018 11.278 186.598C11.1194 186.135 11.1516 185.598 11.1148 185.118C11.0777 184.634 11.0768 184.172 11.0373 183.683C10.9584 182.708 10.8929 181.704 10.8929 180.678C10.8927 180.168 10.8109 179.209 11.0853 178.845Z" fill="#D8A88E"/>
<path id="Vector_115" d="M21.3338 190.935C21.2673 191.331 21.1957 191.723 21.1488 192.098C20.5332 197.024 20.01 201.94 19.3745 206.857C19.2335 207.948 18.9313 210.842 18.2132 211.549C17.6032 210.791 18.1674 208.398 18.3119 207.451C18.5322 206.004 18.6674 204.548 18.8823 203.117C19.0896 201.737 19.2647 200.325 19.4651 198.917C19.7751 196.741 19.2479 193.961 19.958 191.96C20.3321 190.906 21.1185 189.934 21.4881 188.993C21.5406 189.612 21.4441 190.278 21.3338 190.935Z" fill="#D8A88E"/>
<path id="Vector_116" d="M21.681 185.576C22.2722 187.267 21.0448 189.153 20.2447 190.373C19.223 191.931 18.0067 193.309 17.502 195.265C17.4059 195.637 17.3396 196.122 17.3093 196.513C17.2298 197.538 17.4676 198.504 17.4431 199.5C17.5972 198.398 17.7344 197.367 18.009 196.27C18.1711 195.622 18.4502 195.071 18.7541 194.515C19.4401 193.261 20.3112 192.162 20.9091 190.827C21.6463 189.181 21.6316 187.638 21.8718 185.853C21.8498 186.016 21.6351 185.444 21.681 185.576Z" fill="#D8A88E"/>
<g id="Group_22" opacity="0.62">
<path id="Vector_117" d="M23.944 152.464C22.9541 153.91 22.4282 156.178 21.7447 157.872C21.2169 159.18 18.9267 162.002 18.4538 159.495C18.116 157.703 20.3219 156.694 21.2311 155.758C22.2384 154.721 23.1951 153.596 23.944 152.464Z" fill="#EDCFB9"/>
</g>
</g>
<path id="Vector_118" d="M26.7671 125.876C26.5525 125.855 26.3809 125.839 26.2466 125.826C26.4247 125.843 26.6228 125.862 26.7671 125.876Z" fill="black"/>
<path id="Vector_119" d="M26.9691 125.895C26.9642 125.894 26.9601 125.894 26.9551 125.893C26.9634 125.894 26.9691 125.895 26.9691 125.895Z" fill="black"/>
<path id="Vector_120" d="M26.824 125.881C26.8062 125.879 26.7872 125.877 26.7671 125.875C26.7851 125.877 26.8055 125.879 26.824 125.881Z" fill="black"/>
<path id="Vector_121" d="M26.9545 125.893C26.9441 125.892 26.9294 125.891 26.9082 125.889C26.924 125.891 26.9381 125.892 26.9545 125.893Z" fill="black"/>
<path id="Vector_122" d="M26.9082 125.889C26.8795 125.886 26.8521 125.884 26.8247 125.881C26.857 125.884 26.8858 125.887 26.9082 125.889Z" fill="black"/>
<path id="Vector_123" d="M26.0603 125.808C25.6969 125.773 25.8097 125.784 26.0603 125.808V125.808Z" fill="black"/>
<path id="Vector_124" d="M26.2465 125.826C26.1865 125.82 26.1289 125.815 26.0767 125.81C26.1253 125.815 26.1809 125.82 26.2465 125.826Z" fill="black"/>
<path id="Vector_125" d="M4.55365 76.5567C4.24806 72.432 3.81123 68.049 2.91774 63.8453C2.47964 68.1464 2.74665 71.9674 3.60787 76.3759C4.09951 78.8927 3.09568 80.6474 2.48073 82.9467C1.86884 85.2351 1.96529 87.9197 2.11781 90.3666C2.7324 85.6826 4.94162 81.2124 4.55365 76.5567Z" fill="#D8A88E"/>
<path id="Vector_126" d="M44.1303 89.2565C44.1303 90.4776 44.1265 91.6543 43.8422 92.8476C43.5611 94.028 43.0322 95.1351 42.856 96.343C42.6278 97.9072 41.9299 99.9505 42.39 101.544C42.3552 99.975 42.8773 98.3736 43.3816 96.954C44.0198 95.1573 44.8168 93.113 44.5695 91.1764C44.4995 90.6296 44.1382 89.8309 44.1303 89.2565Z" fill="#D8A88E"/>
<g id="Group_23">
<path id="Vector_127" d="M15.0583 99.9385C15.0583 99.9385 37.2382 102.195 46.2626 100.449C47.804 107.046 48.6252 113.663 49.7398 120.351C50.5813 125.402 51.3064 130.481 51.7501 135.587C51.9537 137.928 52.0986 140.277 52.1235 142.629C52.1336 143.578 52.2396 145.115 51.6398 145.9C51.0167 146.716 49.721 146.592 48.8336 146.6C46.6399 146.623 44.446 146.645 42.2523 146.667C40.0413 146.689 37.8303 146.711 35.6193 146.733C34.0492 146.749 32.639 147.531 32.8589 145.065C32.9593 143.941 33.2795 143.144 33.2795 141.94C33.2795 137.18 33.8426 131.793 33.5801 127.037C32.8137 127.145 28.8506 127.126 28.0814 127.082C27.9124 130.808 27.7945 134.807 27.5856 138.53C27.476 140.481 28.8926 145.426 28.0513 145.967C27.0319 146.622 24.3442 146.088 22.953 146.061C20.1423 146.007 17.3315 145.953 14.5208 145.899C13.2105 145.874 11.6978 146.065 10.4112 145.82C9.3984 145.627 9.28698 144.998 9.24605 143.897C9.11679 140.426 9.7541 136.768 10.0936 133.313C10.5086 129.087 10.9617 124.865 11.4829 120.652C12.0273 116.25 12.6214 111.845 13.4615 107.491C13.9268 105.08 13.588 101.973 15.0583 99.9385Z" fill="black"/>
<path id="Vector_128" d="M34.9043 144.95C35.2648 139 33.1014 132.87 35.4451 127.462C36.8874 124.397 40.4931 121.693 40.3128 117.907C39.3171 121.179 34.9991 124.072 31.0074 125.325C31.011 125.344 31.015 125.364 31.0186 125.383C29.8146 125.651 27.8017 125.828 26.9692 125.895C25.4452 132.6 26.9429 139.53 26.248 146.087C26.4301 145.991 27.9334 146.115 28.0509 145.967C29.3394 144.343 27.9413 140.826 28.0509 138.875C28.2599 135.152 28.2425 131.063 28.4115 127.337C28.4574 127.34 29.9149 127.261 29.958 127.265C30.0759 127.274 31.0034 127.314 31.402 127.331C31.4035 127.337 31.4047 127.344 31.4062 127.351C32.0545 127.374 32.8582 127.358 33.4295 127.277C33.6922 132.034 33.1016 136.889 33.1016 141.649C33.1016 142.853 32.9648 144.008 32.8643 145.133C32.6442 147.598 35.0252 146.809 36.5953 146.794C38.8064 146.771 41.0174 146.749 43.2284 146.727C43.2924 146.726 43.3564 146.726 43.4202 146.725C40.617 145.915 37.7609 145.33 34.9043 144.95Z" fill="black"/>
<path id="Vector_129" d="M15.5991 102.823C13.3982 103.201 13.9956 105.863 13.6726 107.51C13.2094 109.872 13.0463 112.027 12.9282 114.488C12.8734 115.63 12.7241 116.813 12.7145 117.967C12.7019 119.499 13.3758 119.467 14.6376 118.928C17.0895 117.882 18.1656 115.551 19.2382 113.28C20.5358 110.531 21.6268 108.023 21.3682 104.9C21.2175 103.078 20.5416 102.476 18.7508 102.315C17.5361 102.206 15.9263 102.412 14.878 103.184L15.5991 102.823Z" fill="black"/>
<path id="Vector_130" d="M45.0642 103.454C47.2651 103.832 46.6676 106.494 46.9907 108.141C47.4539 110.503 47.617 112.658 47.7351 115.119C47.7899 116.261 47.9392 117.444 47.9487 118.598C47.9614 120.13 47.2875 120.098 46.0256 119.559C43.5738 118.513 42.4976 116.182 41.4251 113.911C40.1274 111.162 39.0365 108.654 39.2951 105.531C39.4458 103.709 40.1217 103.108 41.9124 102.947C43.1272 102.837 44.7368 103.043 45.7853 103.815L45.0642 103.454Z" fill="black"/>
<path id="Vector_131" d="M52.1232 142.629C52.0985 140.277 51.9534 137.928 51.7498 135.587C51.306 130.481 50.5808 125.402 49.7394 120.351C48.8068 114.754 48.0779 109.207 46.9622 103.68C46.9476 103.607 46.9326 103.534 46.9178 103.462C46.863 103.193 46.8078 102.924 46.751 102.656C46.7166 102.492 46.6811 102.329 46.6459 102.166C46.6036 101.969 46.5617 101.773 46.5183 101.577C46.4352 101.201 46.3501 100.825 46.2623 100.449C46.109 100.479 45.9513 100.507 45.7905 100.534C36.4901 102.119 15.058 99.9383 15.058 99.9383C14.8306 100.253 14.6478 100.594 14.4973 100.953C14.4942 100.96 14.4911 100.967 14.4883 100.974C14.4363 101.1 14.3884 101.227 14.3442 101.357C14.3417 101.364 14.3393 101.371 14.337 101.378C14.2478 101.643 14.1731 101.916 14.1104 102.195C14.1095 102.199 14.1084 102.203 14.1073 102.208C14.0763 102.346 14.0482 102.486 14.0226 102.627C14.0213 102.635 14.0201 102.642 14.0186 102.649C13.9671 102.936 13.9249 103.227 13.8894 103.521C13.8892 103.523 13.889 103.525 13.8886 103.527C13.8753 103.637 13.8627 103.747 13.8509 103.858C13.8513 103.858 13.8517 103.858 13.852 103.858C13.7208 105.101 13.677 106.371 13.461 107.491C12.6209 111.844 12.0268 116.25 11.4824 120.652C10.9613 124.865 10.5081 129.087 10.0931 133.313C9.75379 136.768 9.1163 140.426 9.24556 143.897C9.28649 144.998 9.3979 145.627 10.4107 145.82C11.6974 146.064 13.21 145.874 14.5203 145.899C15.6835 145.921 16.8468 145.944 18.01 145.966C17.0503 145.463 16.0237 145.051 14.8173 144.89C13.5553 144.709 11.5721 145.791 11.5721 144.529C11.3554 136.298 12.4399 128.131 13.3014 119.912C14.3557 120.167 16.2531 119.901 16.8004 119.797C18.5513 119.464 19.8101 119.03 20.3122 117.152C21.2028 113.821 21.4878 109.753 21.4878 106.225C21.5479 108.728 19.965 111.868 18.6328 113.907C17.9481 114.955 15.1456 118.614 13.3784 119.172C13.8989 114.118 14.3159 109.043 14.2791 103.919C19.3203 104.638 24.4294 105.246 29.5493 105.502L29.6607 118.207C29.6607 118.207 33.1429 119.599 32.8067 105.615C37.0874 105.696 41.3666 105.495 45.6116 104.875C45.9235 106.434 46.2354 107.994 46.5475 109.554C47.1576 113.112 47.4235 116.499 47.7011 119.875C45.9976 119.872 42.7709 115.674 42.0294 114.538C40.6972 112.499 39.1143 109.359 39.1744 106.856C39.1744 110.384 39.4594 114.453 40.35 117.783C40.8521 119.662 42.1109 120.095 43.8618 120.428C44.485 120.546 46.859 120.876 47.7453 120.406C47.9471 122.839 48.1643 125.271 48.5306 127.763C49.5152 134.092 50.0575 140.311 49.9075 146.592C50.5715 146.558 51.2419 146.42 51.6393 145.9C52.2393 145.115 52.1333 143.578 52.1232 142.629Z" fill="black"/>
</g>
<path id="Vector_132" d="M27.2099 69.5856C27.2099 69.5856 23.4239 70.7274 21.9216 70.2467C21.9216 70.2467 18.977 68.8045 17.5347 68.3839C17.5347 68.3839 21.5009 69.4055 22.4624 69.7059C22.4624 69.7059 26.669 69.7659 27.2099 69.5856Z" fill="#D8A88E"/>
</g>
</svg>
