<svg width="52" height="202" viewBox="0 0 52 202" fill="none" xmlns="http://www.w3.org/2000/svg">
<g id="Group">
<g id="Group_2">
<path id="Vector" d="M40.3742 8.35388C40.3742 8.35388 41.1311 12.1603 40.3742 12.3486C39.6173 12.5374 38.4814 8.35388 38.4814 8.35388H40.3742Z" fill="#E6BA9F"/>
<path id="Vector_2" d="M38.9133 8.43604C38.9133 8.43604 39.6702 12.2425 38.9133 12.4307C38.1564 12.6196 37.0205 8.43604 37.0205 8.43604H38.9133Z" fill="#E6BA9F"/>
<path id="Vector_3" d="M37.1789 8.43604C37.1789 8.43604 37.9358 12.2425 37.1789 12.4307C36.422 12.6196 35.2861 8.43604 35.2861 8.43604H37.1789Z" fill="#E6BA9F"/>
<path id="Vector_4" d="M16.4702 9.78027C16.4702 9.78027 15.1736 10.2619 15.2215 11.7596C15.2695 13.2574 15.5571 16.9649 16.1154 16.966C16.9152 16.9683 17.0105 12.4964 17.0105 12.4964L16.4702 9.78027Z" fill="#E6BA9F"/>
<path id="Vector_5" d="M15.9851 11.1178L15.3681 10.8907C15.3681 10.8907 14.697 11.2072 14.4584 13.3737C14.2198 15.5402 13.5521 17.5611 14.0049 17.8225C14.4584 18.0838 16.151 13.4956 16.151 13.4956L15.9851 11.1178Z" fill="#E6BA9F"/>
<path id="Vector_6" d="M48.3536 8.3714L49.9402 2.3653C49.9402 2.3653 49.8651 0.0622296 45.0181 0.685488C40.1711 1.30875 25.2652 3.54213 25.2652 3.54213L17.2896 8.88507C16.5074 9.40941 16.0759 10.3148 16.1616 11.2505C16.3517 13.3299 16.7657 16.7857 17.4115 16.7002C18.3336 16.5777 17.8643 11.9036 17.8643 11.9036L35.2863 9.06041L43.8196 9.25486L48.3536 8.3714Z" fill="#E6BA9F"/>
<path id="Vector_7" d="M28.5863 201.26C26.0031 201.26 25.1943 200.485 25.1943 200.485C20.516 201.002 19.4551 199.727 18.0237 198.636C17.2143 198.016 16.8048 197.008 16.9295 196.001L17.4658 188.248C17.4658 188.248 6.94783 117.595 6.30487 107.781C5.65627 97.966 6.30487 93.7847 6.30487 93.7847L13.4107 89.1381L25.3196 99.5783V101.454L25.3557 164.575C25.3557 164.575 25.7138 167.294 26.2011 171.247C27.5124 181.822 29.7583 201.26 28.5863 201.26Z" fill="#E6BA9F"/>
<path id="Vector_8" d="M26.2009 171.248C18.4983 161.423 13.5086 142.522 13.089 140.45C12.6012 138.026 21.5693 101.439 21.5693 101.439H25.3194V101.455L25.3555 164.576C25.3555 164.576 25.713 167.294 26.2009 171.248Z" fill="#E6BA9F"/>
<path id="Vector_9" d="M39.4859 90.7257L45.8929 98.3133C45.8929 98.3133 46.7051 102.957 37.064 126.927C31.2515 140.201 29.798 143.338 29.798 143.338L43.0227 180.328C43.0227 180.328 44.7045 182.907 44.5996 184.786C44.4947 186.665 42.9228 197.317 42.1896 198.152C41.4559 198.987 36.2163 199.405 34.9586 199.823C33.7009 200.24 31.9198 201.076 31.9198 199.823C31.9198 198.57 32.9677 185.83 32.9677 185.83C32.9677 185.83 14.2096 146.254 14.9428 140.197C15.6766 134.141 23.259 106.654 23.259 106.654L25.3176 99.5772L35.3776 91.9542L39.4859 90.7257Z" fill="#E6BA9F"/>
<path id="Vector_10" d="M26.9335 5.04932C26.9335 5.04932 35.1261 3.84271 38.7594 16.0302C42.3927 28.2178 49.6587 42.2161 50.8696 66.712C50.8696 66.712 17.6884 73.7111 2.67188 62.9713C2.67188 62.9713 13.8131 35.0961 15.3873 27.6147C16.9608 20.1334 17.5293 5.77318 26.9335 5.04932Z" fill="#36221B"/>
<path id="Vector_11" d="M48.2029 50.7838L11.8751 52.9542C11.8751 52.9542 -0.355283 12.7701 0.00793282 10.9616L8.48317 14.2128C8.48317 14.2128 16.4762 34.4931 18.779 36.3022L26.9327 35.0978V27.6142L33.1881 25.9243L33.9348 32.0124L34.1576 33.8316C34.1576 33.8316 41.3051 32.6222 42.6328 29.8779L43.2397 5.01843L48.9293 1.18896C48.9293 1.18896 50.9884 1.24573 51.3517 11.5927C51.7137 21.9448 48.2029 50.7838 48.2029 50.7838Z" fill="#E6BA9F"/>
<path id="Vector_12" d="M33.9337 32.0125C33.2388 32.3845 32.4086 32.6121 31.4132 32.643C29.4888 32.7048 28.0314 32.1108 26.9316 31.1599V27.6143L33.187 25.9243L33.9337 32.0125Z" fill="#E6BA9F"/>
<path id="Vector_13" d="M8.48414 16.7008V14.21L20.7325 6.57745L25.2648 3.54096L34.8906 2.11685C34.8906 2.11685 28.2636 -0.421702 26.165 0.0610564C24.0663 0.543814 4.28627 6.41615 4.28627 6.41615C4.28627 6.41615 -0.154084 7.5424 0.00722036 10.9616L1.94456 15.2654C1.94456 15.2654 4.28572 16.6873 4.52824 16.7002C4.7702 16.7142 8.48414 16.7008 8.48414 16.7008Z" fill="#E6BA9F"/>
<path id="Vector_14" d="M42.7514 78.6876C44.8055 81.4577 47.3418 88.8019 45.8946 98.3121C45.8946 98.3121 32.8448 96.1984 23.2596 106.654C23.2596 106.654 20.3499 97.6456 6.30407 93.7846C6.30407 93.7846 5.33398 84.4504 12.2791 77.2096C12.2791 77.2096 15.1837 67.8809 15.5052 62.2474C15.5052 62.2474 10.0175 57.0995 10.8369 49.5333C10.8369 49.5333 11.8691 49.0112 13.7675 48.3031C17.0246 47.0886 22.8338 45.3211 30.3598 44.7113C42.4711 43.7239 48.8144 45.5178 48.8144 45.5178C48.8144 45.5178 50.0852 57.4569 43.6381 61.1729C43.6381 61.1729 42.1034 74.9874 42.7514 78.6876Z" fill="black"/>
<path id="Vector_15" d="M28.4084 11.595C28.4084 11.595 30.8438 15.5722 34.6998 15.235C34.6998 15.235 37.8791 29.5256 29.423 29.7953C20.967 30.0651 21.5756 17.7292 21.5756 17.7292C21.5756 17.7292 28.3407 16.1112 28.4084 11.595Z" fill="#E6BA9F"/>
<path id="Vector_16" d="M43.2888 36.4236C44.1529 38.109 45.692 39.4387 47.4889 40.0513C46.4275 40.3345 44.8968 40.0035 44.0525 39.3027C43.2082 38.6019 43.2014 37.5155 43.2888 36.4236Z" fill="#E6BA9F"/>
<path id="Vector_17" d="M13.0903 44.1332C14.392 43.0367 15.1839 41.3625 15.2053 39.6636C16.0784 41.5468 15.1106 43.633 13.0903 44.1332Z" fill="#E6BA9F"/>
<path id="Vector_18" d="M16.1177 76.8741C16.1177 76.8741 9.63956 87.5206 11.8905 90.7251C14.1363 93.9296 23.2184 96.6379 23.2596 106.654C23.2596 106.654 20.3499 97.6456 6.30407 93.7846C6.30407 93.7846 5.33398 84.4504 12.2791 77.2096C12.2791 77.2096 15.1837 67.8809 15.5052 62.2474C15.5052 62.2474 10.0175 57.0995 10.8369 49.5333C10.8369 49.5333 11.8691 49.0112 13.7675 48.3031C13.6169 51.316 13.6688 59.3891 18.2851 61.1982C23.9905 63.4361 30.4168 59.4773 30.4168 59.4773C30.4168 59.4773 27.7925 65.085 18.8034 63.9171L16.1177 76.8741Z" fill="#4B4B4B"/>
</g>
<g id="Group_3">
<g id="Group_4">
<g id="Group_5">
<path id="Vector_19" d="M28.042 17.6736C28.042 17.6736 30.382 22.9727 29.9686 23.1806C29.5552 23.3891 28.6968 23.1306 28.6968 23.1306L28.042 17.6736Z" fill="#E6BA9F"/>
<path id="Vector_20" d="M23.1604 23.533C23.3025 24.4839 24.1914 25.1398 25.1457 24.9987C26.1 24.8577 26.7581 23.9714 26.6166 23.021C26.4745 22.0701 25.5856 21.4137 24.6319 21.5554C23.677 21.6964 23.0183 22.5821 23.1604 23.533Z" fill="#E6BA9F"/>
<path id="Vector_21" d="M31.3069 22.3247C31.449 23.2756 32.3379 23.9315 33.2921 23.7904C34.2464 23.6488 34.9046 22.7631 34.7631 21.8122C34.6209 20.8613 33.7321 20.2054 32.7784 20.3465C31.8235 20.4887 31.1648 21.3738 31.3069 22.3247Z" fill="#E6BA9F"/>
<g id="Group_6">
<path id="Vector_22" d="M23.8757 17.3983C24.627 16.7374 25.8819 16.5396 26.6709 17.2381C26.8051 17.3567 26.6918 17.5545 26.5215 17.5051C25.7048 17.2673 24.9163 17.2926 24.2361 17.8451C23.9468 18.0794 23.5999 17.6411 23.8757 17.3983Z" fill="#36221B"/>
<path id="Vector_23" d="M32.9638 16.1208C32.0518 15.7066 30.7935 15.8814 30.2431 16.7784C30.1495 16.9307 30.3153 17.0869 30.4641 16.9902C31.1759 16.526 31.9379 16.3215 32.75 16.6519C33.0952 16.793 33.2988 16.2731 32.9638 16.1208Z" fill="#36221B"/>
</g>
</g>
<path id="Vector_24" d="M31.0418 25.3961L27.3408 25.626C27.3408 25.626 27.8772 28.4152 29.2584 28.2904C30.6397 28.1657 31.0418 25.3961 31.0418 25.3961Z" fill="white"/>
</g>
<path id="Vector_25" d="M26.5671 20.3145C26.5671 20.3145 26.1102 18.4335 25.1706 18.6583C24.2315 18.8831 24.1255 20.5691 24.1255 20.5691L25.3426 19.2928L26.5671 20.3145Z" fill="#36221B"/>
<path id="Vector_26" d="M33.193 19.4057C33.193 19.4057 32.7356 17.5247 31.7965 17.7495C30.8575 17.9743 30.7515 19.6603 30.7515 19.6603L31.9686 18.384L33.193 19.4057Z" fill="#36221B"/>
</g>
</g>
</svg>
