<svg width="75" height="196" viewBox="0 0 75 196" fill="none" xmlns="http://www.w3.org/2000/svg">
<g id="Group">
<g id="Group_2">
<path id="Vector" d="M69.8465 8.85282L73.3867 2.61462C73.3867 2.61462 71.3405 -0.683196 61.7125 1.43835C52.0839 3.55934 39.4277 7.31856 39.4277 7.31856L43.4513 12.8228L65.5302 10.3416L69.8465 8.85282Z" fill="#E6BA9F"/>
<path id="Vector_2" d="M55.6316 91.0627C55.6316 91.0627 48.5844 109.499 37.5086 132.291C32.7078 142.172 27.1547 152.87 21.0889 163.242C19.107 166.637 17.0698 169.991 14.983 173.276L16.5267 180.72C16.5267 180.72 20.9592 181.221 20.4612 183.697C19.9631 186.178 13.2403 186.173 10.7496 184.685C8.25959 183.201 3.77747 170.795 3.52875 168.81C3.39452 167.738 10.4214 153.049 16.9305 139.735C22.4932 128.336 27.6826 117.944 27.6826 117.944L34.4754 95.6975L35.4015 92.6655L52.5832 87.4254L55.6316 91.0627Z" fill="#E6BA9F"/>
<path id="Vector_3" d="M39.2318 95.1176L37.5088 132.292C32.708 142.172 27.1549 152.871 21.089 163.243L16.9307 139.735C22.4934 128.336 27.6828 117.945 27.6828 117.945L34.4756 95.6981L39.2318 95.1176Z" fill="#E6BA9F"/>
<path id="Vector_4" d="M37.2063 87.6738L36.4793 98.6739L37.2063 181.713C37.2063 181.713 46.8546 192.879 45.1119 194.367C43.3685 195.856 39.8283 194.367 39.8283 194.367C39.8283 194.367 33.1596 195.61 30.6695 193.128C28.1795 190.645 26.4361 183.699 26.4361 183.699L13.7365 103.057C13.7365 103.057 11.4952 89.9623 17.7206 83.2352L24.1948 79.4406L37.2063 87.6738Z" fill="#E6BA9F"/>
<path id="Vector_5" d="M30.15 1.51979C30.7597 0.267655 32.3953 -0.229152 33.7529 0.097932C35.1104 0.425016 36.2204 1.39278 37.1403 2.43979C38.0607 3.48679 38.8576 4.65069 39.9039 5.57237C43.1395 8.42284 48.0999 8.45656 51.551 11.044C54.3265 13.1245 55.7574 16.709 55.6192 20.167C55.481 23.6249 53.904 26.9284 51.6373 29.5507C49.3712 32.173 46.448 34.163 43.3719 35.7698C39.385 37.8525 34.9097 39.3604 30.436 38.8647C25.9624 38.369 21.5496 35.4809 20.3263 31.1642C18.9609 26.345 21.7053 21.133 20.5824 16.2521C20.1447 14.3497 19.1351 12.5979 18.843 10.668C18.5508 8.73756 19.3088 6.39177 21.1898 5.84776C21.086 4.38431 21.355 2.79666 22.3725 1.73616C23.39 0.675669 24.8659 0.0681466 26.338 0.104677C27.6092 0.136711 29.1315 0.763901 30.15 1.51979Z" fill="#36221B"/>
<path id="Vector_6" d="M74.3717 7.65346C73.9983 12.7401 56.9413 41.6466 56.9413 41.6466L27.8073 51.6957L22.9518 45.9886L10.6262 62.8413L17.1003 80.3538L11.7469 85.4404C11.7469 85.4404 -0.828098 63.4814 0.0432815 58.7668C0.914662 54.0522 14.9989 35.9046 17.8471 34.0984C20.6958 32.2921 32.1648 27.9501 32.1648 27.9501L31.5523 25.7369L30.2974 21.1763L36.6469 13.6781L40.9694 22.4419L41.3975 23.3153C41.8605 24.2533 42.8419 24.8338 43.8875 24.7793C44.4701 24.7495 45.1774 24.6849 45.9642 24.5607C49.1118 24.079 53.5539 22.6999 56.8161 18.8536C59.3462 15.871 61.089 13.4246 62.2344 11.638C62.4787 11.2711 62.6873 10.9282 62.8768 10.6158C63.7984 9.09724 64.1616 8.27335 64.1616 8.27335L67.5829 5.76739L72.6278 2.07056C72.6278 2.07056 74.7451 2.5668 74.3717 7.65346Z" fill="#E6BA9F"/>
<path id="Vector_7" d="M40.9699 22.4419C40.4618 24.0301 39.4911 25.5683 37.6829 26.4018C35.5217 27.3943 33.4451 26.9525 31.5523 25.7369L30.2974 21.1763L36.6469 13.6781L40.9699 22.4419Z" fill="#E6BA9F"/>
<path id="Vector_8" d="M68.2058 4.69617C68.0016 5.0536 67.7975 5.41047 67.5831 5.7679C65.0733 10.0953 62.2742 14.2788 59.386 18.3674C57.8869 20.4867 56.3133 22.5953 54.3015 24.238C52.2847 25.8808 49.7596 27.0317 47.1601 26.9424C46.2239 26.9075 45.9154 25.6723 45.965 24.5606C49.1127 24.079 53.5548 22.6998 56.817 18.8535C59.3471 15.871 61.0898 13.4246 62.2353 11.638C62.4942 11.33 62.7136 10.9928 62.8777 10.6157C62.9076 10.5511 62.9375 10.482 62.9623 10.4123C63.8833 7.9316 65.8054 5.83703 68.2058 4.69617Z" fill="#E6BA9F"/>
<path id="Vector_9" d="M35.6592 41.1813C36.9936 40.0578 38.7601 39.4565 40.5056 39.5318C42.2512 39.6071 43.9584 40.3579 45.1908 41.5915C45.6753 40.2028 46.6577 38.9029 47.907 38.12C49.1563 37.3372 50.6762 36.9921 52.1421 37.1585C50.5262 40.1224 49.2132 43.1522 48.1129 46.3427C44.3369 43.9204 40.0369 42.1788 35.6592 41.1813Z" fill="#E6BA9F"/>
<path id="Vector_10" d="M61.9315 43.7558C61.8266 46.8771 60.1786 48.8228 57.4246 50.316C57.4246 50.316 62.4944 71.0493 55.6316 91.0627C55.6316 91.0627 47.2698 98.675 36.4782 98.675C36.4782 98.675 32.1303 86.9584 16.5278 84.7503C16.5278 84.7503 19.9096 75.7336 27.3499 71.8777C27.3499 71.8777 29.0926 59.1389 27.8078 51.6952L29.347 29.0415L29.576 28.9522L32.1659 27.9495L34.4867 41.274C34.4867 41.274 42.2908 38.9614 46.7729 43.7552C46.7729 43.7552 47.2709 38.9614 51.4191 37.4676L43.8892 24.7787L46.6483 24.446L58.0625 35.8153C60.711 37.4878 62.0359 40.6345 61.9315 43.7558Z" fill="black"/>
<path id="Vector_11" d="M32.0853 65.1837C31.6668 69.8286 29.7797 74.2201 26.6918 77.7242C26.6918 77.7242 36.7467 82.4731 36.7467 95.0186C36.7467 96.1746 36.6622 97.3908 36.4777 98.6761C36.4777 98.6761 32.1298 86.9595 16.5273 84.7514C16.5273 84.7514 19.9091 75.7347 27.3494 71.8788C27.3494 71.8788 29.0921 59.14 27.8073 51.6963L29.3465 29.0426L29.5755 28.9532V48.7784C29.5755 52.1678 31.7914 55.2099 35.0638 56.113C38.2064 56.9813 42.5238 56.7981 47.5592 52.9372C47.5592 52.9372 44.3072 61.5717 32.6538 58.8724L32.0853 65.1837Z" fill="#4B4B4B"/>
<path id="Vector_12" d="M11.9725 83.2717L11.7446 85.4405C11.7446 85.4405 12.9618 89.2857 17.4472 88.0695L20.9762 86.6235C20.9762 86.6235 24.8351 89.7785 25.8576 89.2199C26.8801 88.6613 22.7906 84.8818 22.7906 84.8818C22.7906 84.8818 26.6495 87.866 27.672 87.4254C28.6945 86.9848 24.473 83.107 24.473 83.107C24.473 83.107 28.9585 86.0648 29.8818 85.4405C30.805 84.8161 25.0336 80.741 25.0336 80.741C25.0336 80.741 30.6403 83.4032 31.069 82.7457C31.4976 82.0881 26.5508 78.5391 25.0996 78.3418C23.6484 78.1446 18.8679 80.7888 17.1026 80.3538L15.7 79.7221L11.9725 83.2717Z" fill="#E6BA9F"/>
<path id="Vector_13" d="M24.3175 7.31848C25.6914 8.34357 27.4026 8.94266 29.1397 9.00729C30.8768 9.07192 32.6314 8.60153 34.0831 7.68154C33.6663 8.64705 34.1785 10.0335 34.9731 10.7472C35.8265 11.5138 37.2224 11.6611 38.2167 11.058C38.6256 10.8102 39.1518 10.7551 39.5607 11.0035C40.0373 11.2924 40.3221 11.8167 40.4264 12.3512C40.6458 13.478 40.0869 14.7082 39.0791 15.3191C39.0791 15.3191 40.1095 22.3902 35.3589 24.5758C32.6929 25.8027 30.1492 24.8416 27.9276 22.9297C25.7777 21.0796 24.2881 18.6248 23.5048 15.9542L22.4146 12.2377C23.8922 11.2244 24.525 9.5839 24.3175 7.31848Z" fill="#E6BA9F"/>
</g>
<g id="Group_3">
<g id="Group_4">
<path id="Vector_14" d="M29.0391 13.3127C29.0391 13.3127 29.4965 19.0839 29.9595 19.0727C30.4226 19.0614 31.0559 18.4286 31.0559 18.4286L29.0391 13.3127Z" fill="#E6BA9F"/>
<path id="Vector_15" d="M36.123 16.1705C36.4496 17.0747 35.9786 18.0723 35.0712 18.3977C34.1637 18.7231 33.1626 18.2538 32.836 17.3495C32.5095 16.4453 32.9804 15.4477 33.8879 15.1223C34.7954 14.7964 35.7959 15.2656 36.123 16.1705Z" fill="#E6BA9F"/>
<path id="Vector_16" d="M28.3735 18.9502C28.7001 19.855 28.2291 20.852 27.3217 21.1774C26.4142 21.5028 25.4131 21.0335 25.0865 20.1293C24.76 19.2245 25.2309 18.2275 26.1384 17.9021C27.0459 17.5767 28.047 18.046 28.3735 18.9502Z" fill="#E6BA9F"/>
<g id="Group_5">
<path id="Vector_17" d="M31.9298 12.8171C31.5463 12.9548 31.3416 13.3881 31.4797 13.7703C31.6179 14.1524 32.0528 14.3564 32.4363 14.2187C32.8198 14.081 33.0245 13.6477 32.8863 13.2656C32.7476 12.8834 32.3127 12.6794 31.9298 12.8171Z" fill="#36221B"/>
<path id="Vector_18" d="M26.1725 14.8819C25.789 15.0196 25.5842 15.4529 25.7224 15.835C25.8606 16.2172 26.2954 16.4212 26.6789 16.2835C27.0625 16.1458 27.2672 15.7125 27.129 15.3304C26.9908 14.9488 26.556 14.7448 26.1725 14.8819Z" fill="#36221B"/>
</g>
<g id="Group_6">
<path id="Vector_19" d="M32.5776 11.1041C31.6019 10.8765 30.4028 11.2941 30.0396 12.2815C29.9781 12.449 30.1716 12.5698 30.2979 12.4456C30.9042 11.851 31.6109 11.5009 32.4727 11.6667C32.8387 11.7375 32.9357 11.1878 32.5776 11.1041Z" fill="#36221B"/>
<path id="Vector_20" d="M24.4307 14.027C25.037 13.2318 26.2281 12.7917 27.1396 13.3223C27.2941 13.4122 27.2225 13.6285 27.0454 13.6134C26.1982 13.5403 25.4295 13.7196 24.8711 14.3946C24.6343 14.6806 24.2079 14.3187 24.4307 14.027Z" fill="#36221B"/>
</g>
</g>
<path id="Vector_21" d="M30.0669 21.5298L33.4357 19.986C33.4357 19.986 34.2884 22.6959 33.0127 23.2371C31.7375 23.7789 30.0669 21.5298 30.0669 21.5298Z" fill="white"/>
</g>
</g>
</svg>
