<?xml version="1.0" encoding="UTF-8"?>
<!DOCTYPE svg PUBLIC "-//W3C//DTD SVG 1.1//EN" "http://www.w3.org/Graphics/SVG/1.1/DTD/svg11.dtd">
<!-- Creator: CorelDRAW X8 -->
<svg xmlns="http://www.w3.org/2000/svg" xml:space="preserve" width="297mm" height="210mm" version="1.1" style="shape-rendering:geometricPrecision; text-rendering:geometricPrecision; image-rendering:optimizeQuality; fill-rule:evenodd; clip-rule:evenodd"
viewBox="0 0 29700 21000"
 xmlns:xlink="http://www.w3.org/1999/xlink">
 <defs>
  <style type="text/css">
   <![CDATA[
    .fil0 {fill:#051752}
    .fil1 {fill:#C7D1E8}
   ]]>
  </style>
 </defs>
 <g id="Layer_x0020_1">
  <metadata id="CorelCorpID_0Corel-Layer"/>
  <g id="_1768035714928">
   <path class="fil0" d="M18142 10877l360 -3 2 377 -361 4 -1 -378zm-762 -5l358 1 4 382 -359 1 -3 -384zm-2335 -93l439 -5 2 429 -438 4 -3 -428zm-895 419c-21,-41 -18,-367 -5,-429l436 -3c18,55 16,379 3,441 -31,4 -402,17 -434,-9zm3991 -1097l362 -1 2 372 -365 2 1 -373zm-762 0l363 -2 1 373 -363 1 -1 -372zm-2332 -173l441 0 -1 426 -442 5 2 -431zm-904 8c58,-18 371,-13 440,-2l0 420c-65,9 -386,12 -440,-3l0 -415zm3998 -594l361 -3 2 376 -363 8 0 -381zm-761 -2l357 -1 6 381 -362 4 -1 -384zm-3226 -254l427 -2c20,51 10,375 -4,435l-419 2 -4 -435zm895 -4l433 2 5 434 -443 4 5 -440zm3091 -510l361 -6c6,74 15,325 -6,383l-352 0 -3 -377zm-759 19l361 -2 2 359 -363 2 0 -359zm-2333 -338l434 2 5 417 -438 2 -1 -421zm-893 2l423 1 5 415 -429 3 1 -419zm3986 -436l355 -3c21,70 9,278 8,364l-364 -1 1 -360zm-759 -1l355 -2 7 363 -364 0 2 -361zm759 -763l361 -1 2 364 -358 0 -5 -363zm-760 1l361 -1 1 362 -360 1 -2 -362zm-2485 316c9,-50 193,-246 237,-265 18,60 13,391 11,481 -66,-7 -47,-16 -131,-94 -38,-35 -76,-78 -117,-122zm-47 -223l-1 -465 265 212c-34,62 -203,251 -264,253zm309 -911l-5 459c-52,-8 -278,-168 -267,-223 8,-38 223,-217 272,-236zm-311 23l0 -443c63,52 269,147 262,211 -5,42 -213,220 -262,232zm307 -873l1 435c-45,-7 -105,-64 -144,-94 -174,-131 -167,-155 -14,-251 34,-21 125,-88 157,-90zm-295 -412c44,21 73,64 114,96 47,38 67,61 116,90 -20,62 -181,200 -242,220l12 -406zm282 27c-44,-8 -52,-29 -78,-57 -24,-27 -43,-40 -62,-73l142 8 -2 122zm-851 -408c14,-53 48,-70 76,-101 30,-34 42,-66 91,-84 42,45 129,129 152,185l-319 0zm3593 -15c16,-45 147,-214 178,-232 43,11 104,80 138,107 32,26 99,89 117,124l-433 1zm-911 1c13,-50 179,-203 211,-223 56,37 196,157 237,211 -4,1 -8,3 -10,4l-438 8zm-822 -3c12,-30 143,-188 180,-208 47,20 196,159 219,209l-399 -1zm-793 1c17,-52 53,-76 90,-113 45,-46 49,-85 105,-103 37,39 160,172 171,217l-366 -1zm493 -116c-22,-37 -55,-81 -65,-111 24,-23 272,-7 312,6 -13,45 -43,80 -66,118 -77,128 -111,106 -181,-13zm-543 -124l39 10c-6,38 6,36 -50,47l11 -57zm-609 87c-91,-45 -81,-54 -88,-77 34,-21 34,-18 83,-8l5 85zm2961 136c-52,-38 -170,-163 -189,-228l384 1c-16,60 -139,208 -195,227zm-890 -8c-45,-33 -168,-156 -188,-223l387 3c-26,77 -135,205 -199,220zm-2725 -212l220 1c-8,41 -65,101 -94,137 -37,48 -68,87 -133,101l7 -239zm4510 221c-53,-5 -249,-211 -256,-221 133,-3 247,163 256,221zm-3652 -497c2,-42 59,-314 99,-350l119 350 -218 0zm-76 -457c4,52 -96,526 -117,571l-618 -5 735 -566zm1723 473c64,25 127,41 196,72 -56,45 -1054,27 -1110,27 -323,1 -342,35 -364,-66 -34,-157 -120,-416 -133,-557 123,17 1193,437 1411,524zm-3367 116c1,168 0,337 -1,505 0,115 29,110 88,172 72,76 49,55 93,162 132,2 566,35 661,-6 21,-17 18,-96 18,-121 0,-49 0,-98 0,-147l654 -3 0 2783c-140,-35 -760,-330 -997,-377l0 3582c0,262 -47,217 163,361 270,184 821,569 994,797 298,393 109,363 902,330 336,-14 697,-3 1036,-3 117,0 1477,16 1522,-13 15,-9 183,-262 212,-300 490,-640 414,104 416,-1647 0,-683 -1,-1366 -1,-2048 1,-682 -18,-1386 1,-2066l-411 1 0 623 -451 7 5 -630 -277 -1 1 622c-74,23 -709,9 -835,7 -22,211 6,2286 6,2570 -1,426 -9,853 -9,1280 0,205 10,437 -5,638 -15,210 4,430 -6,641l-1039 3 3 -3913c-146,-52 -544,-183 -628,-257l1 -3005c186,-9 1924,-11 1968,6 26,20 6,76 36,116l249 11c26,80 8,289 9,385 2,226 -76,128 -115,274 -69,258 193,351 207,570 -129,4 -84,-125 -205,-93 -59,168 107,291 261,213 52,-26 102,-91 88,-183 -12,-82 -74,-117 -98,-184 37,-49 94,-101 109,-195 21,-127 -28,-159 -77,-230 -88,-129 -23,-387 -29,-557 172,12 229,-7 288,-135 185,-1 365,4 547,10 475,14 318,-139 134,-343 -51,-56 -85,-106 -131,-149 -285,-266 -1016,48 -1486,-123 -139,-50 -257,-114 -392,-169 -396,-159 -833,-285 -1226,-455 -574,-248 -380,-281 -716,4 -167,141 -450,336 -631,490 -101,86 -200,167 -373,186 -195,22 -341,8 -533,4z"/>
   <path class="fil0" d="M20362 14729c-56,-436 -86,-767 265,-1123 47,-48 83,-75 124,-119l613 -569c219,-198 398,-390 597,-598 162,-169 322,-365 459,-504 29,-30 72,-87 104,-127 314,-400 246,-658 215,-1159 -19,-296 -35,-618 -38,-916 -6,-758 -12,-1000 -284,-1625 -99,-226 -193,-435 -298,-653 -102,-211 -182,-453 -281,-669 -153,-336 -432,-266 -554,-69 -246,395 81,1098 220,1499 144,420 102,430 145,806 182,54 308,94 375,246 71,163 33,372 -19,533l-333 911c-199,419 -433,693 -673,1191 -59,122 -163,314 -263,355 41,-276 459,-934 595,-1156 305,-500 318,-678 515,-1216 317,-863 -275,-852 -642,-532 -253,220 -448,734 -659,1072 -245,391 -500,612 -873,870 -709,489 -1384,1018 -1543,1930 -93,537 24,1083 53,1621l2180 1zm464 -5245c37,-26 50,-73 119,-142 153,-155 255,-246 164,-532 -74,-233 -159,-372 -219,-549 -25,-71 -34,-142 -56,-213 -68,-225 -193,38 -219,136 -37,145 -7,306 27,445 72,299 175,521 184,855zm428 -485c44,-8 224,-77 250,-97 148,-121 -263,-1172 -316,-1354 -28,-94 -48,-178 -65,-275 -17,-90 -9,-224 -52,-306 -185,-2 -294,197 -299,405 -4,203 55,410 120,581 64,169 134,333 198,497 59,155 121,298 141,467l23 82z"/>
   <path class="fil0" d="M11762 8897c82,-877 178,-792 399,-1512 73,-237 134,-602 -21,-795 -58,-73 -173,-162 -319,-154 -235,12 -293,357 -381,579 -134,338 -288,662 -445,982 -308,632 -259,871 -284,1629 -10,319 -29,596 -53,911 -35,482 -72,776 238,1159l564 631 600 595c139,120 349,339 488,462 748,662 470,1021 498,1344l2157 -1c18,-68 24,-312 33,-403 13,-133 33,-262 46,-395 62,-653 -28,-1217 -399,-1746 -32,-46 -63,-90 -93,-126 -36,-43 -65,-71 -98,-110 -37,-44 -64,-75 -106,-113 -38,-34 -73,-70 -114,-106 -79,-69 -159,-124 -246,-193 -226,-180 -518,-356 -761,-542 -203,-156 -177,-156 -341,-305 -315,-285 -486,-1047 -922,-1467 -68,-66 -146,-138 -268,-171 -120,-33 -260,-32 -351,34 -186,137 -74,467 -11,669 70,220 140,435 219,647 166,450 435,772 608,1122 63,128 240,464 258,603 -50,-14 -52,-38 -80,-74 -24,-30 -42,-56 -66,-92 -94,-145 -243,-436 -330,-597 -140,-259 -319,-492 -459,-785 -65,-137 -117,-298 -164,-455 -152,-504 -489,-1073 204,-1225zm809 569c33,-128 47,-269 80,-398 66,-262 248,-742 100,-994 -27,-46 -74,-107 -126,-120l-298 791c-106,300 -71,381 126,566 71,68 63,86 118,155zm-679 -583c44,32 219,104 272,114 64,-600 756,-1537 346,-1974 -46,-49 -172,-104 -195,15 -17,93 -14,194 -34,295 -96,465 -456,1153 -389,1550z"/>
   <path class="fil0" d="M17016 16357c70,65 407,924 496,1094l234 -7c34,-36 352,-782 430,-950 41,-87 29,-101 72,-129l0 1086 492 -6 -3 -2242 -498 2c-56,86 -565,1337 -605,1385l-30 -47c-6,-13 -11,-27 -17,-43l-562 -1296 -499 0 1 2247 491 -1 -2 -1093z"/>
   <path class="fil0" d="M9097 15702c467,-69 812,112 808,628 -2,235 -83,404 -212,517 -135,119 -377,119 -599,108l3 -1253zm-528 1745c215,19 530,7 753,3 651,-9 1131,-361 1124,-1120 -6,-702 -431,-1126 -1136,-1126 -196,-1 -566,-21 -742,3l1 2240z"/>
   <path class="fil0" d="M11192 15701c99,-8 368,-11 454,11 126,33 195,124 193,277 -3,333 -359,291 -652,281l5 -569zm804 982c122,-88 156,-91 239,-207 204,-285 184,-777 -23,-1025 -142,-170 -349,-247 -660,-247 -283,-1 -612,-15 -889,1l-1 2246 528 -1 -2 -685 291 2c71,83 257,548 335,683l543 0c-10,-62 -343,-673 -361,-767z"/>
   <path class="fil0" d="M21683 16829c-1,126 1,252 -1,379 -2,145 -37,138 174,202 553,166 1486,109 1364,-706 -68,-450 -484,-476 -821,-678 -231,-138 -156,-337 112,-363 314,-30 489,121 598,140l-5 -498c-285,-171 -808,-197 -1111,-16 -364,217 -366,699 -166,919 285,316 756,338 813,553 87,327 -521,228 -723,161 -73,-24 -175,-84 -234,-93z"/>
   <path class="fil0" d="M23801 15204l-557 -2 732 1977c110,296 60,273 178,273 61,-1 412,18 436,-13l56 -131c173,-495 385,-1044 569,-1539 35,-96 68,-177 101,-276 35,-102 75,-188 103,-290l-555 4 -523 1480c-19,-16 -6,-1 -20,-22 -7,-11 -6,-10 -13,-26 -103,-256 -447,-1326 -507,-1435z"/>
   <path class="fil0" d="M15306 15819c30,32 253,674 251,737l-503 -4 252 -733zm-460 1389c27,-65 55,-167 87,-214l765 -4 169 460 530 1 -621 -1689c-39,-109 -169,-495 -214,-558l-516 0 -219 610c-36,102 -214,532 -212,598 -3,2 -5,6 -6,8 -2,2 -5,5 -6,8l-97 248c-51,136 -277,715 -284,775l539 -2 85 -241z"/>
   <polygon class="fil0" points="13131,15699 14083,15693 14079,15204 12605,15205 12606,17450 14082,17445 14081,16956 13128,16957 13129,16535 13822,16535 13826,16100 13127,16096 "/>
   <polygon class="fil0" points="19922,15698 20512,15699 20509,17450 21037,17448 21038,15699 21625,15696 21626,15205 19922,15203 "/>
   <path class="fil1" d="M15296 4396c56,-11 44,-9 50,-47l-39 -10 -11 57z"/>
  </g>
 </g>
</svg>
