<svg width="22" height="22" viewBox="0 0 22 22" fill="none" xmlns="http://www.w3.org/2000/svg">
<path d="M11.2866 13.2944H16.2445C17.3257 13.2944 18.2052 14.174 18.2052 15.2552V21.0981H17.6824C17.5026 21.0981 17.3555 21.2452 17.3555 21.4249H17.0679C16.9098 21.4249 16.7803 21.5543 16.7803 21.7125C16.7803 21.8707 16.9098 22.0001 17.0679 22.0001H20.1267C20.2849 22.0001 20.4143 21.8707 20.4143 21.7125C20.4143 21.5543 20.2849 21.4249 20.1267 21.4249H19.8391C19.8391 21.2452 19.692 21.0981 19.5123 21.0981H18.9894V15.2552C18.9894 13.7415 17.758 12.5101 16.2444 12.5101H11.4605L11.4154 12.9346C11.4015 13.0675 11.3556 13.1896 11.2866 13.2944Z" fill="black"/>
<path d="M9.80923 12.764L9.83621 12.5101H4.47306C2.95946 12.5101 1.72804 13.7415 1.72804 15.2552V21.0981H1.20516C1.0254 21.0981 0.878344 21.2452 0.878344 21.4249H0.590822C0.432631 21.4249 0.303223 21.5543 0.303223 21.7125C0.303223 21.8707 0.432631 22.0001 0.590822 22.0001H3.64956C3.80775 22.0001 3.93716 21.8707 3.93716 21.7125C3.93716 21.5543 3.80775 21.4249 3.64956 21.4249H3.36196C3.36196 21.2452 3.2149 21.0981 3.03514 21.0981H2.51226V15.2552C2.51226 14.174 3.39184 13.2944 4.47299 13.2944H9.93832C9.83495 13.1383 9.78915 12.9527 9.80923 12.764Z" fill="black"/>
<path d="M5.99834 8.33269C6.95539 8.15044 7.58349 7.22686 7.40124 6.26981C7.21899 5.31276 6.29541 4.68466 5.33836 4.86691C4.38131 5.04916 3.75321 5.97274 3.93546 6.92979C4.11771 7.88684 5.04129 8.51494 5.99834 8.33269Z" fill="black"/>
<path d="M19.9984 0.31308L16.7253 3.83612L13.6728 5.0393C13.6482 5.0451 13.6235 5.05098 13.5977 5.05749C12.3071 5.48744 10.689 5.40776 9.57048 5.40211C8.76156 5.32721 7.89892 5.79128 7.86033 6.48004C7.82473 7.11406 8.27977 7.91286 9.289 8.17129L8.89207 7.26512C8.71333 6.85705 8.89991 6.37973 9.3079 6.20107C9.41096 6.15597 9.51989 6.13307 9.63173 6.13307C9.95267 6.13307 10.2432 6.32295 10.3719 6.6169L11.1297 8.34673C12.0208 8.34328 12.8376 8.19089 13.9234 7.85004C14.6716 7.55099 14.9375 7.09618 14.9965 6.62506L17.6513 5.57858C17.7877 5.52485 17.9102 5.44117 18.0101 5.3338L21.4348 1.64763C21.8034 1.25094 21.7806 0.630639 21.3839 0.262179C20.9873 -0.106438 20.367 -0.0835365 19.9984 0.31308Z" fill="black"/>
<path d="M10.2067 6.68918C10.0677 6.37177 9.69765 6.22723 9.38025 6.36621C9.06285 6.50518 8.91822 6.87529 9.05728 7.19269L10.2845 9.99434L9.98847 12.783C9.95184 13.1276 10.2016 13.4365 10.5461 13.4731C10.5686 13.4755 10.591 13.4767 10.6131 13.4767C10.9299 13.4767 11.2021 13.2375 11.2362 12.9155L11.5499 9.96132C11.5614 9.85285 11.5445 9.74321 11.5007 9.64329L10.2067 6.68918Z" fill="black"/>
</svg>
