<svg width="19" height="22" viewBox="0 0 19 22" fill="none" xmlns="http://www.w3.org/2000/svg">
<path d="M18.7604 9.43837C18.6061 9.16632 18.3849 8.93815 18.1178 8.77546C17.8507 8.61277 17.5465 8.52094 17.234 8.50867H17.1619C16.8736 8.50867 16.589 8.57714 16.3317 8.70686C14.9609 9.33387 13.4705 9.65818 11.9621 9.65458H9.83532C9.81587 9.34324 9.78992 9.00595 9.75749 8.63335L9.76614 8.6211L9.77262 8.59299C9.90523 8.38976 10.004 8.16706 10.0652 7.93211H10.9351C11.7102 7.93021 12.453 7.62162 13.0013 7.07377C13.5495 6.52591 13.8587 5.78332 13.8611 5.00826V3.93154C14.1997 3.81201 14.4848 3.57597 14.6654 3.26561L14.6755 3.24327L14.6863 3.22093L14.9443 2.69122C15.0709 2.45717 15.1041 2.18385 15.0372 1.9263C14.9704 1.66875 14.8084 1.44609 14.584 1.30316C14.3899 1.18331 14.1619 1.13026 13.9348 1.15212C13.7077 1.17399 13.494 1.26955 13.3264 1.42424C13.2303 1.2997 13.1086 1.19724 12.9695 1.1238C12.8304 1.05036 12.6772 1.00765 12.5202 0.998563C12.3631 0.989475 12.206 1.01422 12.0593 1.07112C11.9127 1.12802 11.78 1.21576 11.6702 1.32839L11.2803 1.71828L11.2652 1.7327L11.2515 1.74855C10.992 2.03827 10.8565 2.4188 10.8753 2.80797V4.94483H10.1704C10.1347 4.73492 10.0792 4.52885 10.0047 4.32936C10.1073 3.97121 10.1026 3.59081 9.99099 3.23535C10.122 2.9833 10.1554 2.69176 10.0847 2.41664C10.1063 2.36427 10.1241 2.31093 10.138 2.25664C10.1832 2.08385 10.1883 1.90303 10.1531 1.72794C10.1179 1.55286 10.0432 1.38811 9.93472 1.24622C9.82625 1.10433 9.68686 0.989044 9.52715 0.90912C9.36743 0.829197 9.1916 0.786741 9.01301 0.784983C8.95256 0.734635 8.88739 0.690227 8.81842 0.652375C8.5429 0.505186 8.2203 0.473057 7.92116 0.563009C7.56275 0.289147 7.11664 0.155658 6.66672 0.187643C6.2168 0.219629 5.79406 0.414886 5.478 0.736696C4.8715 0.801252 4.31048 1.08839 3.90341 1.54259C3.49633 1.99679 3.27212 2.58579 3.27412 3.19571V3.3103C2.65745 3.44427 2.10081 3.7745 1.68763 4.25148C1.27445 4.72846 1.02698 5.3265 0.982307 5.95597C0.977165 6.00383 0.975719 6.05202 0.977983 6.10011C0.951317 6.54045 1.00681 6.98224 1.14302 7.4024C0.712923 8.00057 0.481962 8.71892 0.482866 9.45566V10.141L0.369717 10.2758C0.133734 10.5697 0.00350902 10.9345 0 11.3115V11.9601C7.39404e-05 12.109 0.0309029 12.2562 0.0905546 12.3927C0.150206 12.5291 0.237395 12.6517 0.346654 12.7528C0.546393 12.938 0.808671 13.041 1.08104 13.0411H1.16825C1.31996 13.0286 1.46732 12.9841 1.60066 12.9107C1.73727 12.9625 1.88295 12.986 2.02892 12.9799C2.17488 12.9739 2.3181 12.9382 2.44992 12.8753C2.58174 12.8123 2.69943 12.7232 2.79587 12.6135C2.89232 12.5038 2.96552 12.3756 3.01106 12.2368C3.0668 12.1864 3.11725 12.1309 3.16241 12.0703C3.10086 12.3259 3.07061 12.588 3.07232 12.8509V13.2977C3.06791 14.0242 2.89666 14.7399 2.57177 15.3897C2.24688 16.0394 1.77704 16.6059 1.19852 17.0453C0.879889 17.2988 0.623364 17.6217 0.448505 17.9894C0.273647 18.3571 0.185074 18.7599 0.189543 19.167C0.190697 19.7822 0.405407 20.3778 0.79699 20.8522C1.18857 21.3266 1.73273 21.6503 2.33649 21.768C2.47583 21.8007 2.61756 21.817 2.7617 21.817H9.91172C10.2644 21.8153 10.609 21.7109 10.9033 21.5167C11.1977 21.3224 11.4291 21.0466 11.5693 20.723C11.7815 21.0571 12.0744 21.3324 12.4211 21.5235C12.7677 21.7146 13.1569 21.8153 13.5527 21.8163H15.1173L14.7123 20.8232L14.1826 19.5259C14.5136 19.3936 14.7984 19.1667 15.0014 18.8736C15.2044 18.5805 15.3166 18.2342 15.3241 17.8777C15.334 17.7723 15.3828 17.6744 15.4611 17.6031C15.5393 17.5318 15.6413 17.4922 15.7472 17.4921H16.5918C17.2502 17.4534 17.8682 17.1619 18.3168 16.6785C18.7655 16.1951 19.0101 15.5571 18.9997 14.8976V10.3356C18.9965 10.0212 18.9142 9.71264 18.7604 9.43837ZM10.9351 5.66553C11.111 5.66553 11.2796 5.59567 11.4039 5.47133C11.5283 5.34699 11.5981 5.17834 11.5981 5.00249V2.77554C11.5891 2.57457 11.6589 2.37802 11.7927 2.22781L12.1891 1.83143C12.2592 1.76025 12.3544 1.71937 12.4543 1.71756H12.4594C12.5148 1.7171 12.5697 1.72896 12.62 1.75227C12.6704 1.77559 12.7149 1.80979 12.7504 1.85239C12.7859 1.895 12.8115 1.94496 12.8254 1.99867C12.8392 2.05237 12.841 2.10848 12.8305 2.16295C12.8179 2.23672 12.7827 2.30473 12.7296 2.35754L12.7123 2.37484L13.2889 2.53771H13.3646C13.3919 2.53776 13.4187 2.53041 13.4422 2.51645C13.4656 2.5025 13.4849 2.48245 13.4979 2.45844L13.7573 2.02602C13.8009 1.95263 13.8716 1.89938 13.9542 1.87779C14.0368 1.8562 14.1245 1.86803 14.1984 1.91071C14.2707 1.95677 14.3223 2.02903 14.3425 2.11234C14.3626 2.19565 14.3498 2.28353 14.3065 2.35754L14.0399 2.90527C13.9718 3.02431 13.8735 3.12326 13.7549 3.1921C13.6364 3.26095 13.5017 3.29725 13.3646 3.29733H13.1404V5.00249C13.1385 5.58679 12.9056 6.14662 12.4924 6.55979C12.0792 6.97296 11.5194 7.20592 10.9351 7.20782H10.1243C10.0949 6.79508 9.95144 6.39862 9.70992 6.06263L9.49371 5.70228C9.49371 5.68138 9.50164 5.66048 9.50236 5.63958V5.66553H10.9351ZM8.12439 1.25343C8.18561 1.23371 8.25038 1.22748 8.31424 1.23516C8.37809 1.24285 8.43953 1.26428 8.49431 1.29798C8.5491 1.33167 8.59594 1.37683 8.63161 1.43035C8.66728 1.48387 8.69094 1.54448 8.70095 1.60802C8.7562 1.56447 8.82031 1.53352 8.88878 1.51733C8.95725 1.50115 9.02843 1.50012 9.09733 1.51433C9.15735 1.52628 9.21414 1.55083 9.26396 1.58636C9.31378 1.6219 9.35549 1.6676 9.38633 1.72044C9.41842 1.77274 9.4394 1.83108 9.44795 1.89184C9.45651 1.95259 9.45246 2.01446 9.43606 2.07359C9.40723 2.1889 9.33516 2.28979 9.23427 2.35466C9.30114 2.41153 9.35001 2.48665 9.37488 2.57084C9.39976 2.65503 9.39958 2.74465 9.37435 2.82874C9.34912 2.91283 9.29995 2.98775 9.23284 3.04434C9.16572 3.10093 9.08358 3.13675 8.99644 3.14742C8.88793 3.15968 8.7785 3.13423 8.68654 3.07535C8.65997 3.13079 8.62189 3.17993 8.57483 3.21949V3.38813L8.54168 4.20396C8.53443 4.51581 8.43817 4.81909 8.26426 5.07805C8.09034 5.337 7.84602 5.54084 7.56009 5.66553C7.10956 5.85975 6.60054 5.86803 6.14392 5.68859L6.07618 5.66048C5.79319 5.53544 5.55167 5.33239 5.37988 5.07508C5.20809 4.81778 5.11313 4.51687 5.10612 4.20756L5.07297 3.39174H5.0773V3.30021L5.07369 3.19427C5.06844 3.09367 5.09177 2.99365 5.14101 2.90577C5.19024 2.81789 5.26335 2.74576 5.35188 2.69771L5.3699 2.6905L5.3872 2.68329C5.57356 2.59919 5.72022 2.44633 5.79655 2.25664L5.82466 2.18962C5.83067 2.17434 5.84075 2.16099 5.8538 2.15103C5.86686 2.14106 5.88238 2.13485 5.89871 2.13307C5.91503 2.13129 5.93153 2.13401 5.94643 2.14092C5.96132 2.14784 5.97404 2.1587 5.98321 2.17232C6.10521 2.35038 6.26882 2.49596 6.45985 2.59644C6.65088 2.69691 6.86355 2.74924 7.07939 2.74888H7.68045L7.65306 2.73951C7.58317 2.71294 7.52106 2.66925 7.47243 2.61245C7.4238 2.55566 7.3902 2.48756 7.37471 2.41441C7.35922 2.34126 7.36234 2.2654 7.38377 2.19376C7.4052 2.12213 7.44427 2.05702 7.49739 2.0044C7.54277 1.95526 7.59893 1.91732 7.66146 1.89356C7.72399 1.8698 7.79117 1.86087 7.85774 1.86747C7.82923 1.80528 7.81448 1.73768 7.81448 1.66928C7.81448 1.60087 7.82923 1.53327 7.85774 1.47108L7.86999 1.44946C7.92892 1.35548 8.01975 1.28588 8.12584 1.25343H8.12439ZM2.79125 8.8928C2.69663 9.07327 2.64998 9.27503 2.65576 9.47873V11.4318C2.65632 11.4837 2.64565 11.5351 2.62451 11.5825C2.60336 11.6299 2.57223 11.6721 2.53324 11.7064C2.47623 11.7551 2.40544 11.7849 2.33073 11.7914C2.35864 11.8772 2.3534 11.9702 2.31604 12.0523C2.27868 12.1344 2.21192 12.1994 2.12893 12.2347C2.04162 12.2703 1.94382 12.2703 1.85651 12.2347C1.81279 12.2173 1.77288 12.1916 1.73904 12.159L1.45076 11.8772V11.9572C1.45104 12.0499 1.4163 12.1393 1.35349 12.2074C1.29068 12.2756 1.20443 12.3175 1.11203 12.3247H1.0832C0.987634 12.3247 0.895979 12.2868 0.8284 12.2192C0.760822 12.1516 0.722857 12.06 0.722857 11.9644V11.3158C0.723822 11.1064 0.794865 10.9035 0.924652 10.7392L1.14807 10.4726C1.1697 10.4468 1.18594 10.4169 1.19584 10.3847C1.20575 10.3525 1.20911 10.3187 1.20572 10.2852V9.45638C1.20348 8.74151 1.47653 8.05322 1.96822 7.53429C2.12677 7.36901 2.30262 7.22487 2.49577 7.10187L4.77316 5.99921C4.86445 5.95597 4.96054 5.93074 5.06144 5.92354H5.10829C5.28617 5.9243 5.45807 5.98782 5.59371 6.1029C5.72934 6.21799 5.82001 6.37725 5.84973 6.55263C5.87944 6.72802 5.84631 6.90826 5.75616 7.0616C5.66601 7.21495 5.52462 7.33155 5.35693 7.39087L3.86509 8.11877L3.19484 8.44741C3.02396 8.55848 2.88448 8.7116 2.78981 8.89208L2.79125 8.8928ZM3.37501 11.4239V9.6762C3.72671 9.79655 4.09499 9.86069 4.46615 9.86574L4.50723 10.1814C4.01629 10.5059 3.62409 10.9592 3.37357 11.4916C3.37501 11.4695 3.37549 11.4469 3.37501 11.4239ZM18.279 10.6816C18.2771 10.5082 18.2074 10.3425 18.0848 10.2199C17.9622 10.0973 17.7965 10.0276 17.6232 10.0257C17.4524 10.0385 17.2927 10.1155 17.1764 10.2411C17.0601 10.3668 16.9957 10.5319 16.9961 10.7032V11.3518C16.9962 11.6411 16.8817 11.9186 16.6778 12.1239C16.474 12.3291 16.1972 12.4454 15.9079 12.4473H15.6989C15.4478 12.4453 15.2062 12.5427 15.0266 12.7182C14.8471 12.8937 14.7442 13.1331 14.7404 13.3842C14.7413 13.5267 14.7141 13.6681 14.6602 13.8001C14.6063 13.9321 14.5268 14.0521 14.4263 14.1532C14.3258 14.2544 14.2063 14.3347 14.0747 14.3894C13.9431 14.4442 13.8019 14.4724 13.6593 14.4724H12.8738C12.7322 14.4715 12.5917 14.4985 12.4606 14.5521C12.3295 14.6056 12.2103 14.6846 12.1098 14.7844C12.0093 14.8842 11.9296 15.0029 11.8752 15.1336C11.8207 15.2644 11.7927 15.4046 11.7927 15.5463V15.5751L13.1621 18.9335L14.0442 21.0956H13.5541C13.2574 21.0947 12.9664 21.013 12.7125 20.8594C12.4586 20.7058 12.2513 20.486 12.1127 20.2236L11.7401 19.4978L11.5239 19.082L10.2677 16.6316H9.25877C8.97547 16.6328 8.70409 16.7458 8.50377 16.9461C8.30344 17.1465 8.1904 17.4178 8.18926 17.7011C8.18926 17.9885 8.0756 18.2642 7.87307 18.4681C7.67054 18.672 7.39559 18.7875 7.10821 18.7894H5.92627L4.7083 21.0956C4.46279 21.0969 4.22563 21.0066 4.04307 20.8424C3.86052 20.6783 3.74568 20.452 3.72095 20.2077C3.7065 20.0461 3.73122 19.8835 3.79302 19.7335L4.16778 18.7894H2.78404C2.47249 18.7894 2.17369 18.9132 1.95338 19.1335C1.73308 19.3538 1.60931 19.6526 1.60931 19.9641C1.61347 20.1931 1.68575 20.4157 1.81693 20.6035C1.94811 20.7913 2.13225 20.9358 2.34586 21.0185C2.40352 21.0392 2.46213 21.0552 2.52171 21.0668C2.51018 21.0673 2.49889 21.0661 2.48784 21.0632C2.35518 21.0383 2.22548 20.9996 2.10083 20.9479C1.78966 20.8158 1.51794 20.6054 1.31206 20.3373C1.10618 20.0692 0.973132 19.7524 0.925843 19.4177C0.878554 19.0829 0.918628 18.7417 1.04217 18.427C1.16572 18.1124 1.36854 17.835 1.63093 17.6219C2.29896 17.1153 2.84144 16.4618 3.21636 15.712C3.59129 14.9621 3.7886 14.136 3.79302 13.2977V12.8509C3.79306 12.3696 3.93319 11.8987 4.19631 11.4957C4.45942 11.0927 4.83415 10.775 5.27477 10.5814C5.22678 10.082 5.16019 9.58466 5.07513 9.09027C5.03477 8.85893 4.97712 8.63119 4.93099 8.40129L5.64665 8.05103C5.83246 7.97761 6.00163 7.86761 6.14412 7.72756C6.28661 7.58752 6.39952 7.42028 6.47614 7.23576C6.55277 7.05125 6.59156 6.85323 6.5902 6.65344C6.58884 6.45365 6.54737 6.25617 6.46824 6.07272C6.4341 6.00611 6.39482 5.94225 6.35076 5.88174L7.46856 6.8835C7.49617 6.90815 7.52873 6.9266 7.56406 6.93762C7.59939 6.94864 7.63667 6.95198 7.67339 6.9474C7.71012 6.94283 7.74544 6.93045 7.77699 6.9111C7.80853 6.89175 7.83557 6.86588 7.8563 6.83522C7.88359 6.79384 7.89882 6.74567 7.90026 6.69612V5.66553H8.62095L9.11102 6.4655C9.29728 6.71291 9.40274 7.01172 9.41306 7.32123C9.42338 7.63074 9.33804 7.9359 9.16868 8.19517C9.0658 8.33935 9.01962 8.51638 9.03896 8.69245C9.09013 9.28125 9.13121 9.85493 9.14994 10.3717H11.9621C13.5829 10.3717 15.1836 10.0236 16.6574 9.34828C16.8138 9.269 16.9868 9.22792 17.1619 9.22792H17.2059C17.4928 9.23922 17.7644 9.3606 17.9643 9.56687C18.1641 9.77314 18.2768 10.0484 18.279 10.3356V10.6816ZM11.7927 15.6003C11.7855 15.8273 11.7927 15.8165 11.7927 15.6003V15.6003ZM7.84332 2.14133C7.86866 2.10177 7.904 2.0696 7.94576 2.04809C7.98752 2.02657 8.03423 2.01647 8.08115 2.01881C8.06194 1.97249 8.05581 1.92179 8.06343 1.87222C8.07106 1.82266 8.09214 1.77614 8.12439 1.73774C8.1585 1.70065 8.20174 1.67314 8.24979 1.65797C8.29784 1.64279 8.34903 1.64048 8.39826 1.65126C8.44733 1.66612 8.4914 1.69412 8.5257 1.73223C8.55999 1.77034 8.58322 1.81711 8.59285 1.86747C8.62459 1.84142 8.66191 1.82306 8.70191 1.81381C8.74192 1.80456 8.78352 1.80467 8.82347 1.81413C8.85796 1.82091 8.89071 1.83462 8.91974 1.85444C8.94877 1.87426 8.97347 1.89977 8.99235 1.92943C9.01122 1.95908 9.02387 1.99226 9.02953 2.02695C9.03518 2.06165 9.03373 2.09713 9.02526 2.13124C9.00968 2.20123 8.96856 2.2629 8.90995 2.30421C8.96 2.34648 8.99324 2.40529 9.00364 2.46997C9.01467 2.50784 9.01512 2.548 9.00496 2.58611C8.9948 2.62422 8.9744 2.65882 8.94599 2.68618C8.90072 2.73481 8.83969 2.76584 8.77373 2.77375C8.70776 2.78167 8.64112 2.76596 8.58564 2.72942C8.57002 2.76817 8.54551 2.80271 8.51409 2.83025C8.48266 2.85779 8.44521 2.87756 8.40474 2.88797C8.35472 2.90203 8.30173 2.90156 8.25196 2.88663C8.20219 2.8717 8.1577 2.84292 8.12367 2.80365C8.09709 2.7693 8.07861 2.72939 8.06962 2.6869C8.05999 2.64468 8.05999 2.60083 8.06962 2.55861C8.02487 2.55861 7.98073 2.54819 7.9407 2.52818C7.90067 2.50816 7.86585 2.4791 7.839 2.4433C7.80732 2.39919 7.79028 2.34626 7.79028 2.29196C7.79028 2.23765 7.80732 2.18472 7.839 2.14061L7.84332 2.14133ZM6.02717 3.49624C5.94942 3.49994 5.87608 3.53346 5.8224 3.58983C5.76871 3.6462 5.73881 3.72109 5.73889 3.79893C5.73744 3.82533 5.73744 3.8518 5.73889 3.87821H5.60196C5.58747 3.87961 5.5729 3.87659 5.56016 3.86956C5.54719 3.86353 5.53577 3.85462 5.52678 3.84351C5.51778 3.83239 5.51145 3.81936 5.50827 3.80542C5.50399 3.79156 5.50399 3.77675 5.50827 3.76289L5.52413 3.71389C5.50764 3.70039 5.49435 3.68341 5.48521 3.66416C5.47599 3.6448 5.4712 3.62362 5.4712 3.60218C5.4712 3.58073 5.47599 3.55956 5.48521 3.5402C5.49375 3.52057 5.50655 3.50309 5.52269 3.48903C5.63868 3.4141 5.77377 3.37408 5.91186 3.37372C5.97909 3.37856 6.04495 3.39514 6.10645 3.42273C6.19126 3.44834 6.26723 3.49713 6.32581 3.5636C6.38438 3.63006 6.42323 3.71157 6.43797 3.79893C6.43749 3.82103 6.4298 3.83977 6.41491 3.85514C6.40778 3.86285 6.39906 3.8689 6.38935 3.87289C6.37964 3.87687 6.36918 3.87869 6.35869 3.87821H6.33275C6.3342 3.8518 6.3342 3.82533 6.33275 3.79893C6.33275 3.75894 6.32482 3.71934 6.30943 3.68242C6.29404 3.64551 6.27149 3.61201 6.24307 3.58387C6.21466 3.55572 6.18095 3.53349 6.14389 3.51845C6.10683 3.5034 6.06716 3.49586 6.02717 3.49624ZM8.11719 3.53948C8.13005 3.56845 8.13349 3.60073 8.12703 3.63177C8.12056 3.6628 8.10452 3.69102 8.08115 3.71245L8.09701 3.76145C8.10027 3.77544 8.10027 3.78999 8.09701 3.80397C8.09424 3.81844 8.08809 3.83204 8.07908 3.84369C8.07006 3.85534 8.05843 3.86469 8.04512 3.871C8.03238 3.87804 8.0178 3.88105 8.00332 3.87965H7.86927C7.87072 3.85324 7.87072 3.82678 7.86927 3.80037C7.86927 3.722 7.83814 3.64685 7.78272 3.59143C7.72731 3.53602 7.65215 3.50489 7.57378 3.50489C7.49542 3.50489 7.42026 3.53602 7.36484 3.59143C7.30943 3.64685 7.2783 3.722 7.2783 3.80037C7.27684 3.82678 7.27684 3.85324 7.2783 3.87965H7.24515C7.23461 3.87965 7.22419 3.87755 7.21447 3.87348C7.20476 3.8694 7.19595 3.86343 7.18857 3.85592C7.18119 3.84841 7.17538 3.8395 7.17149 3.82971C7.16759 3.81992 7.16568 3.80946 7.16587 3.79893C7.18096 3.70942 7.22134 3.62609 7.28226 3.55879C7.34317 3.49149 7.42207 3.44303 7.50964 3.41912C7.56753 3.39412 7.62913 3.37878 7.69198 3.37372C7.83007 3.37408 7.96515 3.4141 8.08115 3.48903C8.09668 3.50303 8.10898 3.52025 8.11719 3.53948ZM6.1641 3.67641C6.18015 3.69251 6.19287 3.71162 6.20152 3.73265C6.21018 3.75367 6.21461 3.77619 6.21455 3.79893C6.209 3.8293 6.19384 3.85709 6.17131 3.87821H5.86862C5.86121 3.8523 5.86121 3.82484 5.86862 3.79893C5.86862 3.76818 5.87607 3.73959 5.89096 3.71317C5.89609 3.72177 5.90338 3.72888 5.9121 3.73381C5.92082 3.73874 5.93067 3.74131 5.94069 3.74127C5.95256 3.74119 5.96411 3.73745 5.97377 3.73056C5.98343 3.72367 5.99073 3.71396 5.99467 3.70277C5.99861 3.69157 5.999 3.67944 5.99579 3.66801C5.99258 3.65659 5.98592 3.64643 5.97672 3.63893C6.00818 3.62608 6.04273 3.62278 6.07606 3.62945C6.10938 3.63611 6.14001 3.65245 6.1641 3.67641ZM7.72225 3.73263C7.73176 3.75339 7.73621 3.77611 7.73522 3.79893C7.74243 3.82535 7.74243 3.85178 7.73522 3.87821H7.43253C7.40999 3.85709 7.39484 3.8293 7.38929 3.79893C7.38929 3.77587 7.39361 3.75377 7.40226 3.73263L7.41163 3.71317C7.41676 3.72177 7.42405 3.72888 7.43277 3.73381C7.44149 3.73874 7.45134 3.74131 7.46135 3.74127C7.47322 3.74119 7.48477 3.73745 7.49444 3.73056C7.5041 3.72367 7.5114 3.71396 7.51534 3.70277C7.51928 3.69157 7.51967 3.67944 7.51646 3.66801C7.51325 3.65659 7.50659 3.64643 7.49739 3.63893C7.52885 3.62608 7.5634 3.62278 7.59672 3.62945C7.63005 3.63611 7.66067 3.65245 7.68477 3.67641C7.70063 3.69275 7.71312 3.71148 7.72225 3.73263ZM7.35325 4.71421C7.36039 4.72132 7.36523 4.73041 7.36716 4.7403C7.36909 4.75019 7.36801 4.76043 7.36406 4.76971C7.30487 4.86678 7.22171 4.947 7.12258 5.00267C7.02344 5.05833 6.91165 5.08757 6.79796 5.08757C6.68426 5.08757 6.57247 5.05833 6.47333 5.00267C6.3742 4.947 6.29104 4.86678 6.23185 4.76971C6.22861 4.76196 6.22735 4.75352 6.2282 4.74517C6.22904 4.73681 6.23196 4.7288 6.23668 4.72186C6.24141 4.71491 6.24779 4.70926 6.25525 4.70541C6.26271 4.70156 6.27102 4.69963 6.27942 4.6998C6.29335 4.6998 6.30536 4.7046 6.31545 4.71421C6.46524 4.78962 6.63061 4.8289 6.79832 4.8289C6.96602 4.8289 7.13139 4.78962 7.28118 4.71421C7.28588 4.70942 7.29148 4.70561 7.29767 4.70301C7.30386 4.70041 7.3105 4.69907 7.31722 4.69907C7.32393 4.69907 7.33057 4.70041 7.33676 4.70301C7.34295 4.70561 7.34855 4.70942 7.35325 4.71421ZM6.53166 4.43746C6.51563 4.41583 6.50487 4.39075 6.50024 4.36423C6.49561 4.3377 6.49724 4.31046 6.50499 4.28468L6.67796 3.72974C6.68649 3.70418 6.70321 3.68214 6.72553 3.66704C6.74744 3.65153 6.77363 3.6432 6.80048 3.6432C6.82733 3.6432 6.85352 3.65153 6.87543 3.66704C6.89753 3.6829 6.91339 3.7038 6.923 3.72974L7.09596 4.28468C7.10372 4.31046 7.10534 4.3377 7.10071 4.36423C7.09609 4.39075 7.08533 4.41583 7.0693 4.43746C7.05303 4.45917 7.03208 4.47693 7.00799 4.48941C6.98391 4.50189 6.95732 4.50877 6.9302 4.50953H6.67075C6.64364 4.50877 6.61705 4.50189 6.59296 4.48941C6.56888 4.47693 6.54792 4.45917 6.53166 4.43746ZM8.1352 3.07823C8.13812 3.09201 8.13812 3.10625 8.1352 3.12003C8.13255 3.13911 8.12515 3.15722 8.1137 3.1727C8.10224 3.18819 8.08709 3.20056 8.06962 3.20868C8.04702 3.21878 8.0219 3.22179 7.99755 3.21733H7.9471C7.80084 3.13761 7.63467 3.10182 7.46856 3.11427C7.43946 3.11913 7.40961 3.11243 7.38538 3.0956C7.36115 3.07877 7.34445 3.05315 7.33884 3.02418C7.33461 2.99654 7.34125 2.96833 7.35738 2.94549C7.37351 2.92264 7.39786 2.90693 7.42532 2.90166C7.65018 2.86563 7.88008 2.90311 8.08115 3.00977C8.09413 3.01553 8.10518 3.02394 8.1143 3.03499C8.12364 3.04814 8.13071 3.06275 8.1352 3.07823ZM5.50106 3.15751C5.48745 3.13344 5.48359 3.10507 5.49025 3.07823C5.49763 3.05172 5.51424 3.02871 5.5371 3.01337C5.74102 2.90784 5.97325 2.86997 6.20014 2.90527C6.21455 2.90671 6.22752 2.91127 6.23906 2.91896C6.25111 2.92618 6.26138 2.93602 6.26911 2.94774C6.27685 2.95947 6.28185 2.97279 6.28374 2.98671C6.28518 3.00112 6.28374 3.01481 6.27942 3.02779C6.27414 3.05525 6.25844 3.0796 6.23559 3.09573C6.21274 3.11185 6.18454 3.1185 6.1569 3.11427C5.9815 3.09004 5.80289 3.12022 5.6452 3.20075L5.59475 3.21517C5.57557 3.21412 5.55695 3.2083 5.54059 3.19823C5.52423 3.18816 5.51064 3.17417 5.50106 3.15751Z" fill="black"/>
</svg>
