<svg width="20" height="20" viewBox="0 0 20 20" fill="none" xmlns="http://www.w3.org/2000/svg">
<path d="M6.80659 18.9115H3.32306C2.03976 18.9115 1 17.8717 1 16.5884V9.75477C1.00078 9.25694 1.10794 8.76502 1.31428 8.31197C1.52063 7.85892 1.82141 7.45519 2.19647 7.12783L8.47529 1.65901C8.8981 1.2912 9.4396 1.08862 10 1.08862C10.5604 1.08862 11.1019 1.2912 11.5247 1.65901L17.8035 7.12889C18.1785 7.45613 18.4792 7.85969 18.6855 8.31255C18.8918 8.76541 18.9991 9.25712 19 9.75477V16.5884C19 17.2043 18.7554 17.7951 18.32 18.2307C17.8845 18.6663 17.2939 18.9112 16.678 18.9115H13.4835V11.9434C13.4835 10.9819 12.7042 10.2016 11.7418 10.2016H8.54941C7.58694 10.2016 6.80765 10.9819 6.80765 11.9434L6.80659 18.9115ZM6.80659 18.9115H13.4846" stroke="black" stroke-width="1.5" stroke-linejoin="round"/>
</svg>
