<svg width="20" height="20" viewBox="0 0 20 20" fill="none" xmlns="http://www.w3.org/2000/svg">
<path id="Vector" d="M6.80659 18.9114H3.32306C2.03976 18.9114 1 17.8717 1 16.5884V9.75473C1.00078 9.25689 1.10794 8.76498 1.31428 8.31193C1.52063 7.85887 1.82141 7.45515 2.19647 7.12778L8.47529 1.65896C8.8981 1.29115 9.4396 1.08858 10 1.08858C10.5604 1.08858 11.1019 1.29115 11.5247 1.65896L17.8035 7.12884C18.1785 7.45609 18.4792 7.85964 18.6855 8.3125C18.8918 8.76536 18.9991 9.25707 19 9.75473V16.5884C19 17.2043 18.7554 17.795 18.32 18.2306C17.8845 18.6663 17.2939 18.9112 16.678 18.9114H13.4835V11.9433C13.4835 10.9819 12.7042 10.2015 11.7418 10.2015H8.54941C7.58694 10.2015 6.80765 10.9819 6.80765 11.9433L6.80659 18.9114ZM6.80659 18.9114H13.4846" stroke="black" stroke-width="1.5" stroke-linejoin="round"/>
</svg>
