<svg width="20" height="20" viewBox="0 0 20 20" fill="none" xmlns="http://www.w3.org/2000/svg">
<path d="M16.0625 6.63648C16.1325 6.56668 16.188 6.48376 16.2259 6.39246C16.2638 6.30116 16.2833 6.20329 16.2833 6.10445C16.2833 6.0056 16.2638 5.90773 16.2259 5.81644C16.188 5.72514 16.1325 5.64222 16.0625 5.57241L14.4046 3.91468C14.3353 3.84291 14.2524 3.78566 14.1607 3.74627C14.069 3.70689 13.9704 3.68616 13.8706 3.68529C13.7708 3.68443 13.6718 3.70344 13.5795 3.74122C13.4871 3.77901 13.4032 3.83481 13.3327 3.90536C13.2621 3.97592 13.2063 4.05982 13.1685 4.15218C13.1307 4.24453 13.1117 4.34348 13.1126 4.44326C13.1134 4.54304 13.1342 4.64165 13.1736 4.73333C13.2129 4.82501 13.2702 4.90793 13.342 4.97725L14.9998 6.63648C15.1408 6.77736 15.3319 6.8565 15.5312 6.8565C15.7304 6.8565 15.9216 6.77736 16.0625 6.63648ZM7.22008 14.4157C7.29186 14.485 7.34911 14.5679 7.38849 14.6596C7.42788 14.7513 7.44861 14.8499 7.44948 14.9496C7.45035 15.0494 7.43133 15.1484 7.39355 15.2407C7.35576 15.3331 7.29996 15.417 7.22939 15.4875C7.15883 15.5581 7.07492 15.6139 6.98256 15.6517C6.8902 15.6895 6.79124 15.7085 6.69146 15.7076C6.59167 15.7067 6.49306 15.686 6.40137 15.6466C6.30968 15.6072 6.22675 15.55 6.15743 15.4782L4.49807 13.8205C4.42629 13.7512 4.36904 13.6683 4.32965 13.5766C4.29026 13.4849 4.26953 13.3863 4.26866 13.2865C4.2678 13.1867 4.28681 13.0878 4.3246 12.9954C4.36239 12.9031 4.41819 12.8192 4.48875 12.7486C4.55931 12.6781 4.64322 12.6223 4.73558 12.5845C4.82794 12.5467 4.9269 12.5277 5.02669 12.5285C5.12647 12.5294 5.22509 12.5501 5.31678 12.5895C5.40847 12.6289 5.49139 12.6861 5.56072 12.7579L7.22008 14.4157ZM19.4128 0.588693C19.2262 0.402057 19.0046 0.254007 18.7608 0.152998C18.5169 0.0519891 18.2556 0 17.9916 0C17.7277 0 17.4664 0.0519891 17.2225 0.152998C16.9787 0.254007 16.7571 0.402057 16.5705 0.588693L15.834 1.32663L15.5845 1.08015C15.3262 0.822461 15.0149 0.624169 14.6721 0.499089C14.3294 0.374009 13.9635 0.325146 13.5999 0.355906C13.2364 0.386665 12.8839 0.496306 12.567 0.677192C12.2502 0.858079 11.9766 1.10586 11.7653 1.40328C11.1216 1.27752 10.4546 1.36185 9.86246 1.64386C9.27036 1.92586 8.78453 2.39061 8.47657 2.96961C8.16861 3.5486 8.05483 4.21121 8.15199 4.85977C8.24914 5.50832 8.55211 6.10851 9.01622 6.57186L9.80231 7.35789L7.3794 9.77911L6.59331 8.99308C6.12985 8.52878 5.52945 8.2257 4.88064 8.12854C4.23183 8.03137 3.56896 8.14527 2.98981 8.45343C2.41066 8.7616 1.94587 9.24771 1.66401 9.84007C1.38215 10.4324 1.29813 11.0997 1.42434 11.7434C1.12665 11.9547 0.878627 12.2284 0.697568 12.5453C0.516508 12.8623 0.406769 13.2149 0.376003 13.5787C0.345237 13.9424 0.394184 14.3085 0.519432 14.6513C0.644679 14.9942 0.843212 15.3056 1.10119 15.5639L1.34919 15.8104L0.58865 16.5694C0.211744 16.9462 -6.87859e-09 17.4574 0 17.9904C6.87859e-09 18.5234 0.211744 19.0345 0.58865 19.4114C0.965557 19.7883 1.47675 20 2.00978 20C2.5428 20 3.054 19.7883 3.43091 19.4114L4.19145 18.6524L4.43945 18.9004C4.69783 19.158 5.00927 19.3562 5.35207 19.4812C5.69488 19.6061 6.06081 19.6548 6.42437 19.6239C6.78794 19.593 7.14039 19.4832 7.45718 19.3022C7.77398 19.1212 8.04749 18.8733 8.25868 18.5758C8.90235 18.7015 9.56939 18.6172 10.1615 18.3352C10.7536 18.0532 11.2394 17.5884 11.5474 17.0094C11.8554 16.4304 11.9691 15.7678 11.872 15.1193C11.7748 14.4707 11.4719 13.8705 11.0077 13.4072L10.2217 12.6212L12.6446 10.2014L13.4307 10.9875C13.8941 11.4518 14.4945 11.7548 15.1433 11.852C15.7921 11.9492 16.455 11.8353 17.0342 11.5271C17.6133 11.219 18.0781 10.7328 18.36 10.1405C18.6418 9.54811 18.7258 8.88085 18.5996 8.23711C18.7129 8.15695 18.8206 8.06627 18.9228 7.96508C19.3927 7.49449 19.6567 6.85664 19.6567 6.19162C19.6567 5.52659 19.3927 4.88875 18.9228 4.41816L18.6748 4.17018L19.4113 3.43374C19.5979 3.24714 19.746 3.02561 19.847 2.78179C19.948 2.53797 20 2.27663 20 2.01272C20 1.7488 19.948 1.48747 19.847 1.24365C19.746 0.999831 19.5979 0.778296 19.4113 0.591699M17.6121 3.1076L16.8952 2.39071L17.6317 1.65427C17.7267 1.559 17.8558 1.50541 17.9904 1.50526C18.125 1.50512 18.2541 1.55845 18.3494 1.65352C18.4446 1.74859 18.4982 1.8776 18.4984 2.01219C18.4985 2.14677 18.4452 2.2759 18.3501 2.37117L17.6121 3.1076ZM11.5819 9.13736L9.1575 11.5586L8.44055 10.8417L10.8635 8.42046L11.5819 9.13736ZM3.12879 17.5898L2.36825 18.3488C2.27318 18.4439 2.14423 18.4973 2.00978 18.4973C1.87532 18.4973 1.74638 18.4439 1.6513 18.3488C1.55623 18.2538 1.50282 18.1248 1.50282 17.9904C1.50282 17.8559 1.55623 17.727 1.6513 17.6319L2.41184 16.8729L3.12879 17.5898ZM13.1015 2.14272C13.2902 1.95504 13.5455 1.84968 13.8117 1.84968C14.0778 1.84968 14.3332 1.95504 14.5219 2.14272L17.8586 5.47923C17.9798 5.60083 18.0679 5.75139 18.1145 5.91661C18.1611 6.08183 18.1647 6.25623 18.125 6.42323C18.0852 6.59024 18.0034 6.74431 17.8874 6.8708C17.7713 6.9973 17.6248 7.09202 17.4618 7.14598C17.3612 7.17876 17.2686 7.23244 17.1901 7.30349C17.1117 7.37455 17.0491 7.46137 17.0065 7.55828C16.9639 7.65519 16.9423 7.76 16.9431 7.86585C16.9438 7.97169 16.967 8.07619 17.0109 8.17248C17.1621 8.50451 17.192 8.87905 17.0954 9.23085C16.9988 9.58265 16.7818 9.88942 16.4823 10.0977C16.1828 10.306 15.8197 10.4027 15.4562 10.3708C15.0928 10.339 14.752 10.1806 14.4933 9.92339L10.0789 5.50929C9.81897 5.25144 9.65824 4.91027 9.62491 4.5457C9.59159 4.18113 9.6878 3.81648 9.89664 3.51579C10.1055 3.21511 10.4136 2.99762 10.7669 2.90153C11.1202 2.80544 11.496 2.8369 11.8284 2.99038C11.9248 3.03458 12.0294 3.05789 12.1354 3.05878C12.2415 3.05966 12.3465 3.0381 12.4436 2.99552C12.5407 2.95293 12.6277 2.89029 12.6988 2.81169C12.77 2.73309 12.8237 2.64033 12.8565 2.5395C12.9074 2.39058 12.9912 2.25499 13.1015 2.14272ZM3.32569 10.0557C3.47031 9.91087 3.64205 9.79601 3.8311 9.71765C4.02014 9.63928 4.22278 9.59895 4.42742 9.59895C4.63207 9.59895 4.83471 9.63928 5.02375 9.71765C5.21279 9.79601 5.38453 9.91087 5.52915 10.0557L9.94359 14.4713C10.2018 14.7293 10.3611 15.0699 10.3937 15.4336C10.4263 15.7972 10.3301 16.1607 10.1218 16.4605C9.91361 16.7604 9.60663 16.9776 9.25454 17.0741C8.90244 17.1706 8.52762 17.1404 8.19555 16.9887C8.09918 16.9445 7.99454 16.9212 7.88851 16.9203C7.78249 16.9194 7.67747 16.9409 7.58037 16.9835C7.48327 17.0261 7.39628 17.0888 7.32512 17.1674C7.25395 17.246 7.20023 17.3387 7.16747 17.4395C7.11357 17.6024 7.01898 17.7487 6.89267 17.8647C6.76636 17.9807 6.61251 18.0625 6.44571 18.1024C6.2789 18.1423 6.10468 18.1389 5.93954 18.0926C5.77441 18.0463 5.62383 17.9586 5.5021 17.8378L2.16534 14.4998C2.04377 14.3783 1.95531 14.2278 1.90838 14.0625C1.86145 13.8971 1.85761 13.7226 1.89723 13.5553C1.93686 13.3881 2.01862 13.2338 2.13475 13.1071C2.25087 12.9804 2.39749 12.8856 2.56064 12.8316C2.66129 12.7988 2.75388 12.7451 2.83234 12.674C2.9108 12.603 2.97337 12.5162 3.01594 12.4193C3.05851 12.3223 3.08012 12.2175 3.07937 12.1117C3.07861 12.0058 3.05551 11.9014 3.01156 11.8051C2.87987 11.5157 2.83954 11.1932 2.89593 10.8803C2.95233 10.5675 3.10277 10.2793 3.3272 10.0541" fill="black"/>
</svg>
