<svg width="15" height="21" viewBox="0 0 15 21" fill="none" xmlns="http://www.w3.org/2000/svg">
<path d="M10.7506 4.5C11.3474 4.5 11.9197 4.26295 12.3416 3.84099C12.7636 3.41903 13.0006 2.84674 13.0006 2.25C13.0006 1.65326 12.7636 1.08097 12.3416 0.65901C11.9197 0.237053 11.3474 0 10.7506 0C10.1539 0 9.58158 0.237053 9.15963 0.65901C8.73767 1.08097 8.50062 1.65326 8.50062 2.25C8.50062 2.84674 8.73767 3.41903 9.15963 3.84099C9.58158 4.26295 10.1539 4.5 10.7506 4.5ZM7.88362 4.499C6.38862 4.289 2.97162 4.896 1.56362 8.649C1.47053 8.89738 1.47991 9.17256 1.58972 9.41401C1.69952 9.65546 1.90074 9.84341 2.14912 9.9365C2.39749 10.0296 2.67267 10.0202 2.91413 9.9104C3.15558 9.8006 3.34353 9.59937 3.43662 9.351C4.02062 7.796 5.07262 7.035 6.01062 6.696L4.84062 9.702C4.82128 9.752 4.80628 9.802 4.79562 9.852C4.74769 10.0057 4.73757 10.1687 4.76612 10.3271C4.79467 10.4855 4.86105 10.6347 4.95962 10.762L8.52162 15.369L8.75262 19.062C8.75919 19.1942 8.79195 19.3238 8.84898 19.4432C8.90602 19.5627 8.9862 19.6696 9.08487 19.7578C9.18354 19.846 9.29875 19.9138 9.4238 19.9571C9.54886 20.0005 9.68128 20.0186 9.81339 20.0104C9.94549 20.0022 10.0747 19.9678 10.1934 19.9093C10.3121 19.8508 10.418 19.7693 10.505 19.6696C10.592 19.5698 10.6584 19.4538 10.7002 19.3282C10.742 19.2026 10.7585 19.07 10.7486 18.938L10.4786 14.631L8.38662 11.924L9.75962 9.263L9.85262 9.397C10.113 9.77538 10.4957 10.0526 10.9364 10.1821C11.3771 10.3116 11.8489 10.2854 12.2726 10.108L14.3876 9.222C14.6261 9.11547 14.8135 8.91985 14.9096 8.67697C15.0058 8.43409 15.003 8.16323 14.9021 7.92233C14.8011 7.68142 14.6098 7.4896 14.3692 7.38787C14.1286 7.28615 13.8578 7.28261 13.6146 7.378L11.4996 8.264L9.89362 5.929C9.52376 5.28876 8.93325 4.80525 8.23262 4.569C8.11941 4.53083 8.00179 4.5073 7.88262 4.499" fill="black"/>
<path d="M3.95031 14.45L4.77731 11.998L6.24631 13.898L5.84431 15.089C5.70304 15.5078 5.42703 15.868 5.0594 16.1133C4.69178 16.3587 4.25324 16.4753 3.81231 16.445L0.932314 16.248C0.801255 16.2391 0.673238 16.2045 0.555572 16.1461C0.437907 16.0877 0.332897 16.0066 0.246538 15.9077C0.16018 15.8087 0.0941639 15.6936 0.0522598 15.5691C0.0103558 15.4446 -0.00661588 15.3131 0.00231401 15.182C0.0112439 15.051 0.0459004 14.923 0.104305 14.8053C0.162709 14.6876 0.243717 14.5826 0.342705 14.4963C0.441692 14.4099 0.55672 14.3439 0.68122 14.302C0.80572 14.2601 0.937255 14.2431 1.06831 14.252L3.95031 14.45Z" fill="black"/>
</svg>
