<svg width="14" height="20" viewBox="0 0 14 20" fill="none" xmlns="http://www.w3.org/2000/svg">
<path d="M10.1305 2C10.1305 2.53043 9.91979 3.03914 9.54472 3.41421C9.16965 3.78929 8.66094 4 8.1305 4C7.60007 4 7.09136 3.78929 6.71629 3.41421C6.34122 3.03914 6.1305 2.53043 6.1305 2C6.1305 1.46957 6.34122 0.960859 6.71629 0.585786C7.09136 0.210714 7.60007 0 8.1305 0C8.66094 0 9.16965 0.210714 9.54472 0.585786C9.91979 0.960859 10.1305 1.46957 10.1305 2ZM7.352 12.1985L9.9485 14.7605C10.0481 14.8587 10.1259 14.9768 10.177 15.107L11.5615 18.6345C11.6584 18.8814 11.6533 19.1567 11.5473 19.3999C11.4412 19.643 11.2429 19.8341 10.996 19.931C10.7491 20.0279 10.4738 20.0228 10.2306 19.9168C9.98749 19.8107 9.79644 19.6124 9.6995 19.3655L8.3925 16.035L3.9285 11.63C3.82064 11.5236 3.73835 11.3941 3.68785 11.2513C3.63735 11.1085 3.61997 10.956 3.637 10.8055L3.9945 7.6455C3.1325 8.5025 2.4675 9.707 1.958 11.3035C1.91991 11.4308 1.85684 11.5492 1.77248 11.6518C1.68812 11.7544 1.58415 11.8392 1.46666 11.9012C1.34917 11.9632 1.2205 12.0011 1.08817 12.0129C0.955842 12.0246 0.822506 12.0098 0.69595 11.9694C0.569394 11.929 0.452154 11.8638 0.351078 11.7776C0.250002 11.6914 0.167116 11.5859 0.107259 11.4673C0.0474032 11.3487 0.011777 11.2194 0.00246165 11.0869C-0.00685373 10.9543 0.0103283 10.8213 0.0530045 10.6955C0.988005 7.7655 2.5405 5.5725 5.1455 4.567L5.157 4.5625C5.8205 4.316 6.5105 4.336 7.1255 4.6535C7.716 4.959 8.1365 5.4865 8.412 6.0775L8.736 6.7775C8.98001 7.3065 9.185 7.7525 9.3825 8.1435C9.659 8.6935 9.8815 9.0585 10.1015 9.3145C10.3055 9.5515 10.508 9.6975 10.7665 9.7985C11.0445 9.907 11.434 9.982 12.0355 10C12.1676 10.0026 12.2979 10.0315 12.4189 10.0848C12.5398 10.1381 12.649 10.2148 12.7401 10.3106C12.8311 10.4064 12.9023 10.5192 12.9495 10.6427C12.9967 10.7661 13.019 10.8977 13.015 11.0298C13.0111 11.1619 12.981 11.2919 12.9264 11.4123C12.8719 11.5327 12.7941 11.6411 12.6974 11.7312C12.6008 11.8213 12.4872 11.8914 12.3633 11.9374C12.2394 11.9833 12.1076 12.0043 11.9755 11.999C11.253 11.9775 10.6115 11.885 10.039 11.6615C9.4475 11.4305 8.981 11.079 8.584 10.6165C8.334 10.3255 8.114 9.993 7.909 9.6315L7.352 12.1985Z" fill="black"/>
<path d="M3.63689 13.11L5.29439 14.7L4.53139 17.2735C4.47238 17.4726 4.35285 17.6484 4.18939 17.7765L1.62239 19.788C1.51897 19.869 1.40062 19.9288 1.27408 19.9641C1.14754 19.9993 1.0153 20.0093 0.884901 19.9934C0.754504 19.9776 0.628507 19.9362 0.514104 19.8717C0.399701 19.8071 0.299132 19.7207 0.21814 19.6172C0.137147 19.5138 0.0773166 19.3955 0.0420646 19.2689C0.00681262 19.1424 -0.00317085 19.0101 0.0126847 18.8797C0.0285404 18.7493 0.0699244 18.6234 0.134474 18.509C0.199023 18.3945 0.285474 18.294 0.38889 18.213L2.70489 16.399L3.40239 14.044L3.63689 13.11Z" fill="black"/>
</svg>
