<svg width="18" height="24" viewBox="0 0 18 24" fill="none" xmlns="http://www.w3.org/2000/svg">
<path fill-rule="evenodd" clip-rule="evenodd" d="M9.00011 1.87511C8.40338 1.87511 7.83109 2.11216 7.40913 2.53411C6.98718 2.95606 6.75013 3.52835 6.75013 4.12509C6.75013 4.72182 6.98718 5.29411 7.40913 5.71606C7.83109 6.13801 8.40338 6.37506 9.00011 6.37506C9.59684 6.37506 10.1691 6.13801 10.5911 5.71606C11.013 5.29411 11.2501 4.72182 11.2501 4.12509C11.2501 3.52835 11.013 2.95606 10.5911 2.53411C10.1691 2.11216 9.59684 1.87511 9.00011 1.87511ZM5.62514 4.12509C5.62514 3.22999 5.98072 2.37155 6.61365 1.73863C7.24658 1.1057 8.10501 0.750122 9.00011 0.750122C9.8952 0.750122 10.7536 1.1057 11.3866 1.73863C12.0195 2.37155 12.3751 3.22999 12.3751 4.12509C12.3751 5.02018 12.0195 5.87862 11.3866 6.51155C10.7536 7.14447 9.8952 7.50005 9.00011 7.50005C8.10501 7.50005 7.24658 7.14447 6.61365 6.51155C5.98072 5.87862 5.62514 5.02018 5.62514 4.12509ZM4.11091 9.4474C4.2817 9.03735 4.57005 8.68703 4.93962 8.44058C5.30919 8.19414 5.74344 8.0626 6.18764 8.06254H11.8126C12.2568 8.0626 12.691 8.19414 13.0606 8.44058C13.4302 8.68703 13.7185 9.03735 13.8893 9.4474L15.2955 12.8224C15.8766 14.2157 14.9479 15.7434 13.5001 15.9206V16.4392C13.5001 16.5346 13.5243 16.6284 13.5706 16.7119C13.6168 16.7953 13.6835 16.8656 13.7644 16.9162L16.8851 18.8664C17.3219 19.1393 17.658 19.5471 17.8425 20.0279C18.0271 20.5088 18.0501 21.0367 17.9081 21.5318C17.7661 22.0269 17.4668 22.4623 17.0554 22.7723C16.6441 23.0822 16.143 23.2499 15.628 23.2499H2.36999C1.85482 23.2499 1.35366 23.0821 0.942425 22.7718C0.531185 22.4615 0.232262 22.0256 0.0909268 21.5302C-0.0504086 21.0348 -0.0264576 20.5069 0.159152 20.0263C0.344762 19.5457 0.681921 19.1387 1.11957 18.8669L4.26278 16.9151C4.34405 16.8645 4.41109 16.7941 4.45755 16.7105C4.50401 16.6268 4.52835 16.5327 4.52828 16.437V15.9234C3.06411 15.7631 2.12024 14.2247 2.70467 12.8218L4.11091 9.4474ZM5.65327 15.9375V16.437C5.65323 16.7239 5.58002 17.0061 5.44056 17.2569C5.30109 17.5077 5.09997 17.7188 4.85621 17.8702L1.71356 19.822C1.48343 19.9647 1.30608 20.1785 1.20839 20.431C1.1107 20.6835 1.09801 20.961 1.17223 21.2213C1.24645 21.4817 1.40354 21.7108 1.61968 21.8738C1.83583 22.0369 2.09924 22.125 2.36999 22.1249H12.3751C12.5243 22.1249 12.6673 22.0656 12.7728 21.9601C12.8783 21.8547 12.9376 21.7116 12.9376 21.5624V21.4893C12.9375 21.3467 12.8832 21.2095 12.7858 21.1054C12.6884 21.0012 12.555 20.938 12.4128 20.9285L5.05309 20.4363C4.9042 20.4263 4.76539 20.3576 4.66718 20.2452C4.56897 20.1329 4.51941 19.9861 4.5294 19.8372C4.5394 19.6883 4.60813 19.5495 4.72047 19.4513C4.83282 19.3531 4.97958 19.3036 5.12846 19.3135L12.4876 19.8057C12.9148 19.8343 13.3151 20.0241 13.6076 20.3368C13.9 20.6495 14.0626 21.0617 14.0626 21.4898V21.5624C14.0626 21.7593 14.0288 21.9488 13.9669 22.1249H15.628C15.8988 22.1249 16.1622 22.0367 16.3784 21.8738C16.5947 21.7108 16.752 21.4819 16.8267 21.2216C16.9013 20.9613 16.8892 20.6838 16.7922 20.431C16.6952 20.1782 16.5185 19.9639 16.2889 19.8204L13.1682 17.8696C12.9255 17.7179 12.7254 17.507 12.5866 17.2567C12.4479 17.0063 12.3751 16.7248 12.3751 16.4386V15.9375H10.8243C10.5287 15.9375 10.2361 15.8793 9.96304 15.7661C9.69001 15.653 9.44193 15.4872 9.23298 15.2782L9.00011 15.0453L8.76723 15.2782C8.55829 15.4872 8.31021 15.653 8.03717 15.7661C7.76413 15.8793 7.47148 15.9375 7.17594 15.9375H5.65327ZM9.5626 14.0171L10.0283 14.4828C10.1329 14.5874 10.2569 14.6703 10.3935 14.7269C10.5301 14.7834 10.6765 14.8125 10.8243 14.8125H13.2188C13.4041 14.8125 13.5865 14.7668 13.7498 14.6793C13.9131 14.5919 14.0523 14.4655 14.1551 14.3114C14.2578 14.1572 14.3209 13.9801 14.3387 13.7957C14.3565 13.6113 14.3285 13.4253 14.2572 13.2544L12.8509 9.8794C12.7655 9.67448 12.6212 9.49943 12.4365 9.37632C12.2517 9.2532 12.0346 9.18751 11.8126 9.18753H6.18764C5.9656 9.18751 5.74852 9.2532 5.56375 9.37632C5.37897 9.49943 5.23476 9.67448 5.14927 9.8794L3.74304 13.2544C3.67172 13.4253 3.64372 13.6113 3.66153 13.7957C3.67935 13.9801 3.74242 14.1572 3.84516 14.3114C3.94789 14.4655 4.0871 14.5919 4.25043 14.6793C4.41376 14.7668 4.59615 14.8125 4.7814 14.8125H7.17594C7.32376 14.8125 7.47013 14.7834 7.6067 14.7269C7.74327 14.6703 7.86736 14.5874 7.97187 14.4828L8.43761 14.0171V12.7121C8.31049 12.7852 8.19574 12.8854 8.10012 13.0125L7.76262 13.4625C7.71023 13.5323 7.64229 13.589 7.56418 13.6281C7.48607 13.6672 7.39995 13.6875 7.31262 13.6875H5.62514C5.5293 13.6874 5.43506 13.6629 5.35136 13.6162C5.26766 13.5695 5.19729 13.5022 5.14691 13.4206C5.09654 13.3391 5.06783 13.246 5.06352 13.1503C5.05921 13.0546 5.07943 12.9593 5.12227 12.8736L5.68477 11.7486C5.71636 11.6802 5.76136 11.6188 5.81711 11.5682C5.87286 11.5175 5.93822 11.4786 6.00931 11.4536C6.0804 11.4287 6.15577 11.4183 6.23095 11.4231C6.30613 11.4278 6.37959 11.4477 6.44697 11.4813C6.51434 11.515 6.57427 11.5619 6.62318 11.6192C6.6721 11.6765 6.70901 11.743 6.73172 11.8148C6.75444 11.8867 6.7625 11.9623 6.75541 12.0373C6.74833 12.1123 6.72626 12.1851 6.69051 12.2514L6.53526 12.5625H7.03138L7.20013 12.3375C8.10012 11.1377 9.9001 11.1377 10.8001 12.3375L10.9688 12.5625H11.465L11.3097 12.2514C11.274 12.1851 11.2519 12.1123 11.2448 12.0373C11.2377 11.9623 11.2458 11.8867 11.2685 11.8148C11.2912 11.743 11.3281 11.6765 11.377 11.6192C11.4259 11.5619 11.4859 11.515 11.5532 11.4813C11.6206 11.4477 11.6941 11.4278 11.7693 11.4231C11.8444 11.4183 11.9198 11.4287 11.9909 11.4536C12.062 11.4786 12.1274 11.5175 12.1831 11.5682C12.2388 11.6188 12.2839 11.6802 12.3154 11.7486L12.8779 12.8736C12.9208 12.9593 12.941 13.0546 12.9367 13.1503C12.9324 13.246 12.9037 13.3391 12.8533 13.4206C12.8029 13.5022 12.7325 13.5695 12.6489 13.6162C12.5652 13.6629 12.4709 13.6874 12.3751 13.6875H10.6876C10.6003 13.6875 10.5141 13.6672 10.436 13.6281C10.3579 13.589 10.29 13.5323 10.2376 13.4625L9.9001 13.0125C9.80907 12.8906 9.69425 12.7884 9.5626 12.7121V14.0171Z" fill="black"/>
</svg>
