<svg width="18" height="18" viewBox="0 0 18 18" fill="none" xmlns="http://www.w3.org/2000/svg">
<path d="M3.8717 7.17503C3.8117 7.54403 4.0622 7.89753 4.4037 8.11653C4.7607 8.34503 5.2697 8.47003 5.8687 8.38153C6.1364 8.34501 6.39323 8.25182 6.62206 8.10818C6.85089 7.96453 7.04645 7.77374 7.1957 7.54853C7.4477 7.16703 7.5512 6.70253 7.4357 6.35803C7.42229 6.31823 7.39907 6.28246 7.36819 6.25401C7.33731 6.22556 7.29976 6.20534 7.259 6.19523C7.21825 6.18511 7.1756 6.18543 7.135 6.19614C7.0944 6.20685 7.05716 6.22762 7.0267 6.25653C6.1287 7.10853 5.1147 7.31803 4.2057 6.98053C4.17102 6.96763 4.13391 6.9626 4.09705 6.96579C4.06018 6.96897 4.02449 6.9803 3.99254 6.99896C3.96058 7.01761 3.93317 7.04313 3.91227 7.07366C3.89138 7.1042 3.87752 7.13849 3.8717 7.17503ZM13.9097 7.17503C13.9692 7.54403 13.7187 7.89753 13.3772 8.11653C13.0202 8.34503 12.5117 8.47003 11.9122 8.38153C11.6446 8.34494 11.3879 8.25172 11.1591 8.10808C10.9304 7.96444 10.7349 7.77368 10.5857 7.54853C10.3337 7.16703 10.2297 6.70253 10.3457 6.35803C10.3591 6.31823 10.3823 6.28246 10.4132 6.25401C10.4441 6.22556 10.4816 6.20534 10.5224 6.19523C10.5631 6.18511 10.6058 6.18543 10.6464 6.19614C10.687 6.20685 10.7242 6.22762 10.7547 6.25653C11.6527 7.10853 12.6667 7.31803 13.5757 6.98053C13.6104 6.96763 13.6475 6.9626 13.6844 6.96579C13.7212 6.96897 13.7569 6.9803 13.7889 6.99896C13.8208 7.01761 13.8482 7.04313 13.8691 7.07366C13.89 7.1042 13.9039 7.13849 13.9097 7.17503ZM13.6292 12.5C12.7692 10.719 11.0192 9.50003 9.0002 9.50003C6.9812 9.50003 5.2312 10.719 4.3712 12.5C4.1367 12.985 4.5292 13.5 5.0682 13.5H12.9322C13.4712 13.5 13.8637 12.985 13.6292 12.5Z" fill="black"/>
<path fill-rule="evenodd" clip-rule="evenodd" d="M9 18C13.9705 18 18 13.9705 18 9C18 4.0295 13.9705 0 9 0C4.0295 0 0 4.0295 0 9C0 13.9705 4.0295 18 9 18ZM9 17C13.4185 17 17 13.4185 17 9C17 4.5815 13.4185 1 9 1C4.5815 1 1 4.5815 1 9C1 13.4185 4.5815 17 9 17Z" fill="black"/>
</svg>
