<svg width="19" height="14" viewBox="0 0 19 14" fill="none" xmlns="http://www.w3.org/2000/svg">
<path fill-rule="evenodd" clip-rule="evenodd" d="M17.424 6.51521L14.2174 6.51759C14.2697 6.66628 14.2986 6.82637 14.2991 6.99264V7.29668C14.2991 7.76556 14.0735 8.1817 13.7243 8.44156C13.8621 8.66008 13.9414 8.91946 13.9419 9.19689V9.50093C13.9421 9.68812 13.9054 9.87352 13.8339 10.0465C13.7624 10.2195 13.6575 10.3768 13.5253 10.5093C13.393 10.6417 13.236 10.7469 13.0631 10.8186C12.8902 10.8904 12.7049 10.9274 12.5177 10.9275H12.2607C12.3129 11.0762 12.3419 11.2363 12.3419 11.4026L12.3424 11.7066C12.3426 11.8938 12.3059 12.0792 12.2344 12.2522C12.1629 12.4252 12.058 12.5824 11.9258 12.7149C11.7935 12.8474 11.6365 12.9525 11.4636 13.0243C11.2907 13.0961 11.1053 13.1331 10.9182 13.1332L5.66264 13.1375C2.53774 13.1398 0.00237768 10.6087 2.4146e-06 7.48385C-0.00107111 6.32155 0.355846 5.18712 1.02222 4.23482C1.6886 3.28251 2.63209 2.55854 3.72442 2.16135L9.41604 0.0924924C9.69182 -0.00802767 9.99069 -0.0270786 10.277 0.0376131C10.5633 0.102305 10.825 0.248008 11.0307 0.457334C11.8117 1.25067 11.5115 2.58557 10.4664 2.96942L9.38088 3.36704L17.4216 3.36086C17.8399 3.36055 18.2412 3.52641 18.5372 3.82196C18.8332 4.11752 18.9997 4.51856 19 4.93685C19.0003 5.35514 18.8345 5.75643 18.5389 6.05243C18.2433 6.34843 17.8423 6.5149 17.424 6.51521ZM17.4221 4.31097C17.5884 4.31084 17.748 4.37679 17.8657 4.4943C17.9833 4.61181 18.0495 4.77125 18.0497 4.93756C18.0498 5.10387 17.9838 5.26342 17.8663 5.38111C17.7488 5.49879 17.5894 5.56498 17.4231 5.56511H17.0991L17.1 5.52995V5.5271C17.1 5.13376 16.6744 4.81452 16.1499 4.81547C15.625 4.81547 15.1998 5.13518 15.1998 5.52853C15.1998 5.5412 15.2003 5.55386 15.2012 5.56653L10.2203 5.57081L10.2213 6.52092L12.8735 6.51854C12.9995 6.51854 13.1203 6.56859 13.2094 6.65768C13.2985 6.74677 13.3485 6.8676 13.3485 6.99359L13.349 7.29763C13.349 7.42362 13.299 7.54445 13.2099 7.63354C13.1208 7.72263 12.9999 7.77268 12.8739 7.77268L10.2222 7.77506L10.2232 8.72516L12.5162 8.72326C12.6422 8.72326 12.7631 8.77331 12.8521 8.8624C12.9412 8.95149 12.9913 9.07232 12.9913 9.19832L12.9918 9.50187C12.9918 9.62787 12.9417 9.7487 12.8526 9.83779C12.7635 9.92688 12.6427 9.97693 12.5167 9.97693L9.14098 9.98025L9.14193 10.9304L10.9167 10.9289C11.0426 10.9289 11.1634 10.9789 11.2525 11.0679C11.3416 11.1569 11.3917 11.2776 11.3918 11.4035L11.3923 11.7075C11.3923 11.8335 11.3422 11.9544 11.2531 12.0435C11.164 12.1326 11.0432 12.1826 10.9172 12.1826L5.66169 12.1874C3.06172 12.1893 0.952009 10.0829 0.950109 7.4829C0.949289 6.51579 1.24633 5.5719 1.80085 4.77956C2.35537 3.98722 3.14045 3.38489 4.04936 3.05445L9.7405 0.985593C9.88388 0.938393 10.04 0.948802 10.1758 1.01462C10.3117 1.08043 10.4166 1.1965 10.4684 1.33827C10.5203 1.48005 10.5149 1.63642 10.4535 1.77433C10.3922 1.91224 10.2796 2.02087 10.1395 2.07727L9.05357 2.47536C8.05643 2.84115 8.31961 4.31857 9.38136 4.31714L17.4221 4.31097Z" fill="black"/>
<path d="M16.1546 10.9907C16.9527 10.9907 17.5793 10.3921 17.5788 9.63202C17.5779 8.92657 16.1513 7.19025 16.1513 7.19025C16.1513 7.19025 14.7276 8.87479 14.7285 9.63487C14.7285 10.395 15.3565 10.9916 16.1546 10.9907Z" fill="black"/>
</svg>
