<svg width="29" height="23" viewBox="0 0 29 23" fill="none" xmlns="http://www.w3.org/2000/svg">
<path fill-rule="evenodd" clip-rule="evenodd" d="M22.2417 11.447L19.0686 11.4494C19.1203 11.5965 19.149 11.7549 19.1495 11.9195V12.2203C19.1495 12.6843 18.9262 13.0961 18.5807 13.3532C18.717 13.5695 18.7955 13.8261 18.796 14.1007V14.4015C18.7962 14.5868 18.7599 14.7702 18.6891 14.9414C18.6184 15.1126 18.5146 15.2682 18.3838 15.3993C18.2529 15.5304 18.0975 15.6344 17.9264 15.7054C17.7553 15.7764 17.5719 15.813 17.3867 15.8132H17.1324C17.1841 15.9603 17.2128 16.1187 17.2128 16.2833L17.2132 16.5841C17.2134 16.7693 17.1771 16.9528 17.1064 17.124C17.0356 17.2952 16.9319 17.4508 16.801 17.5819C16.6701 17.713 16.5147 17.817 16.3436 17.888C16.1725 17.959 15.9892 17.9956 15.8039 17.9958L10.6034 18C7.51118 18.0023 5.00235 15.4977 5 12.4055C4.99894 11.2554 5.35212 10.1328 6.01153 9.19051C6.67093 8.24816 7.60455 7.53177 8.68545 7.13874L14.3175 5.09152C14.5904 4.99206 14.8862 4.9732 15.1695 5.03722C15.4528 5.10123 15.7117 5.24541 15.9153 5.45255C16.6881 6.23759 16.391 7.55852 15.3569 7.93835L14.2827 8.3318L22.2393 8.32569C22.6533 8.32538 23.0504 8.48951 23.3433 8.78197C23.6362 9.07444 23.8009 9.47128 23.8012 9.88519C23.8015 10.2991 23.6374 10.6962 23.3449 10.9891C23.0525 11.282 22.6556 11.4467 22.2417 11.447ZM22.2398 9.26586C22.4044 9.26574 22.5623 9.33099 22.6787 9.44727C22.7952 9.56355 22.8607 9.72133 22.8608 9.8859C22.8609 10.0505 22.7957 10.2083 22.6794 10.3248C22.5631 10.4413 22.4053 10.5068 22.2408 10.5069H21.9202L21.9211 10.4721V10.4693C21.9211 10.08 21.4999 9.76415 20.9809 9.76509C20.4615 9.76509 20.0408 10.0815 20.0408 10.4707C20.0408 10.4832 20.0412 10.4958 20.0422 10.5083L15.1134 10.5125L15.1143 11.4527L17.7388 11.4503C17.8635 11.4503 17.983 11.4999 18.0712 11.588C18.1593 11.6762 18.2089 11.7957 18.2089 11.9204L18.2093 12.2213C18.2093 12.3459 18.1598 12.4655 18.0716 12.5537C17.9835 12.6418 17.8639 12.6914 17.7392 12.6914L15.1152 12.6937L15.1162 13.6339L17.3853 13.632C17.5099 13.632 17.6295 13.6815 17.7177 13.7697C17.8058 13.8578 17.8554 13.9774 17.8554 14.1021L17.8558 14.4025C17.8558 14.5271 17.8063 14.6467 17.7181 14.7349C17.63 14.823 17.5104 14.8725 17.3857 14.8725L14.0453 14.8758L14.0463 15.816L15.8025 15.8146C15.9271 15.8146 16.0466 15.864 16.1347 15.9521C16.2229 16.0402 16.2725 16.1596 16.2726 16.2842L16.2731 16.585C16.2731 16.7097 16.2235 16.8293 16.1354 16.9174C16.0472 17.0056 15.9276 17.0551 15.803 17.0551L10.6024 17.0598C8.02969 17.0617 5.94205 14.9774 5.94017 12.4046C5.93936 11.4476 6.23329 10.5136 6.78201 9.72955C7.33073 8.9455 8.1076 8.34947 9.00699 8.02249L14.6386 5.97528C14.7805 5.92857 14.9349 5.93887 15.0694 6.004C15.2038 6.06913 15.3076 6.18398 15.3589 6.32427C15.4102 6.46456 15.4049 6.6193 15.3442 6.75576C15.2834 6.89223 15.172 6.99973 15.0334 7.05553L13.9588 7.44946C12.9721 7.81142 13.2326 9.27338 14.2832 9.27197L22.2398 9.26586Z" fill="black"/>
<path d="M20.9854 15.8757C21.7751 15.8757 22.3952 15.2833 22.3947 14.5312C22.3938 13.8331 20.9821 12.115 20.9821 12.115C20.9821 12.115 19.5733 13.7819 19.5742 14.534C19.5742 15.2862 20.1957 15.8766 20.9854 15.8757Z" fill="black"/>
</svg>
