<svg width="29" height="23" viewBox="0 0 29 23" fill="none" xmlns="http://www.w3.org/2000/svg">
<path fill-rule="evenodd" clip-rule="evenodd" d="M22.424 11.5152L19.2174 11.5176C19.2697 11.6663 19.2986 11.8264 19.2991 11.9926V12.2967C19.2991 12.7656 19.0735 13.1817 18.7243 13.4416C18.8621 13.6601 18.9414 13.9195 18.9419 14.1969V14.5009C18.9421 14.6881 18.9054 14.8735 18.8339 15.0465C18.7624 15.2195 18.6575 15.3768 18.5253 15.5093C18.393 15.6417 18.236 15.7469 18.0631 15.8186C17.8902 15.8904 17.7049 15.9274 17.5177 15.9275H17.2607C17.3129 16.0762 17.3419 16.2363 17.3419 16.4026L17.3424 16.7066C17.3426 16.8938 17.3059 17.0792 17.2344 17.2522C17.1629 17.4252 17.058 17.5824 16.9258 17.7149C16.7935 17.8474 16.6365 17.9525 16.4636 18.0243C16.2907 18.0961 16.1053 18.1331 15.9182 18.1332L10.6626 18.1375C7.53774 18.1398 5.00238 15.6087 5 12.4838C4.99893 11.3215 5.35585 10.1871 6.02222 9.23482C6.6886 8.28251 7.63209 7.55854 8.72442 7.16135L14.416 5.09249C14.6918 4.99197 14.9907 4.97292 15.277 5.03761C15.5633 5.1023 15.825 5.24801 16.0307 5.45733C16.8117 6.25067 16.5115 7.58557 15.4664 7.96942L14.3809 8.36704L22.4216 8.36086C22.8399 8.36055 23.2412 8.52641 23.5372 8.82196C23.8332 9.11752 23.9997 9.51856 24 9.93685C24.0003 10.3551 23.8345 10.7564 23.5389 11.0524C23.2433 11.3484 22.8423 11.5149 22.424 11.5152ZM22.4221 9.31097C22.5884 9.31084 22.748 9.37679 22.8657 9.4943C22.9833 9.61181 23.0495 9.77125 23.0497 9.93756C23.0498 10.1039 22.9838 10.2634 22.8663 10.3811C22.7488 10.4988 22.5894 10.565 22.4231 10.5651H22.0991L22.1 10.53V10.5271C22.1 10.1338 21.6744 9.81452 21.1499 9.81547C20.625 9.81547 20.1998 10.1352 20.1998 10.5285C20.1998 10.5412 20.2003 10.5539 20.2012 10.5665L15.2203 10.5708L15.2213 11.5209L17.8735 11.5185C17.9995 11.5185 18.1203 11.5686 18.2094 11.6577C18.2985 11.7468 18.3485 11.8676 18.3485 11.9936L18.349 12.2976C18.349 12.4236 18.299 12.5445 18.2099 12.6335C18.1208 12.7226 17.9999 12.7727 17.8739 12.7727L15.2222 12.7751L15.2232 13.7252L17.5162 13.7233C17.6422 13.7233 17.7631 13.7733 17.8521 13.8624C17.9412 13.9515 17.9913 14.0723 17.9913 14.1983L17.9918 14.5019C17.9918 14.6279 17.9417 14.7487 17.8526 14.8378C17.7635 14.9269 17.6427 14.9769 17.5167 14.9769L14.141 14.9803L14.1419 15.9304L15.9167 15.9289C16.0426 15.9289 16.1634 15.9789 16.2525 16.0679C16.3416 16.1569 16.3917 16.2776 16.3918 16.4035L16.3923 16.7075C16.3923 16.8335 16.3422 16.9544 16.2531 17.0435C16.164 17.1326 16.0432 17.1826 15.9172 17.1826L10.6617 17.1874C8.06172 17.1893 5.95201 15.0829 5.95011 12.4829C5.94929 11.5158 6.24633 10.5719 6.80085 9.77956C7.35537 8.98722 8.14045 8.38489 9.04936 8.05445L14.7405 5.98559C14.8839 5.93839 15.04 5.9488 15.1758 6.01462C15.3117 6.08043 15.4166 6.1965 15.4684 6.33827C15.5203 6.48005 15.5149 6.63642 15.4535 6.77433C15.3922 6.91224 15.2796 7.02087 15.1395 7.07727L14.0536 7.47536C13.0564 7.84115 13.3196 9.31857 14.3814 9.31714L22.4221 9.31097Z" fill="black" fill-opacity="0.4"/>
<path d="M21.1546 15.9907C21.9527 15.9907 22.5793 15.3921 22.5788 14.632C22.5779 13.9266 21.1513 12.1902 21.1513 12.1902C21.1513 12.1902 19.7276 13.8748 19.7285 14.6349C19.7285 15.395 20.3565 15.9916 21.1546 15.9907Z" fill="black" fill-opacity="0.4"/>
</svg>
