<svg width="29" height="23" viewBox="0 0 29 23" fill="none" xmlns="http://www.w3.org/2000/svg">
<path fill-rule="evenodd" clip-rule="evenodd" d="M23.3411 11.8581L19.9657 11.8606C20.0207 12.0171 20.0512 12.1857 20.0517 12.3607V12.6807C20.0517 13.1743 19.8142 13.6123 19.4466 13.8858C19.5916 14.1159 19.6752 14.3889 19.6757 14.6809V15.001C19.6758 15.198 19.6372 15.3932 19.562 15.5753C19.4867 15.7574 19.3764 15.9229 19.2371 16.0624C19.0979 16.2018 18.9326 16.3125 18.7506 16.388C18.5686 16.4636 18.3735 16.5025 18.1765 16.5026H17.906C17.961 16.6592 17.9915 16.8277 17.9915 17.0027L17.992 17.3227C17.9922 17.5198 17.9535 17.7149 17.8783 17.8971C17.8031 18.0792 17.6927 18.2447 17.5535 18.3841C17.4142 18.5236 17.2489 18.6342 17.0669 18.7098C16.8849 18.7853 16.6898 18.8243 16.4928 18.8244L10.9607 18.8289C7.6713 18.8314 5.0025 16.1671 5 12.8777C4.99887 11.6543 5.37457 10.4601 6.07602 9.4577C6.77747 8.45527 7.77062 7.6932 8.92044 7.27511L14.9116 5.09736C15.2019 4.99155 15.5165 4.9715 15.8179 5.03959C16.1193 5.10769 16.3947 5.26106 16.6113 5.4814C17.4334 6.3165 17.1174 7.72166 16.0172 8.1257L14.8746 8.54425L23.3386 8.53775C23.7789 8.53742 24.2013 8.71201 24.5129 9.02312C24.8244 9.33423 24.9997 9.75637 25 10.1967C25.0003 10.637 24.8257 11.0594 24.5146 11.371C24.2035 11.6826 23.7814 11.8578 23.3411 11.8581ZM23.3391 9.53786C23.5141 9.53773 23.6821 9.60714 23.806 9.73084C23.9298 9.85453 23.9995 10.0224 23.9996 10.1974C23.9998 10.3725 23.9304 10.5404 23.8067 10.6643C23.683 10.7882 23.5151 10.8579 23.3401 10.858H22.999L23 10.821V10.818C23 10.404 22.552 10.0679 21.9999 10.0689C21.4474 10.0689 20.9998 10.4055 20.9998 10.8195C20.9998 10.8328 21.0003 10.8462 21.0013 10.8595L15.7582 10.864L15.7592 11.8641L18.551 11.8616C18.6836 11.8616 18.8108 11.9143 18.9046 12.0081C18.9984 12.1019 19.0511 12.2291 19.0511 12.3617L19.0516 12.6817C19.0516 12.8143 18.9989 12.9415 18.9051 13.0353C18.8113 13.1291 18.6841 13.1818 18.5515 13.1818L15.7602 13.1843L15.7612 14.1844L18.175 14.1824C18.3076 14.1824 18.4348 14.2351 18.5286 14.3288C18.6224 14.4226 18.675 14.5498 18.675 14.6824L18.6755 15.002C18.6755 15.1346 18.6229 15.2618 18.5291 15.3556C18.4353 15.4493 18.3081 15.502 18.1755 15.502L14.6221 15.5055L14.6231 16.5056L16.4913 16.5041C16.6238 16.5041 16.7509 16.5568 16.8447 16.6504C16.9385 16.7441 16.9912 16.8712 16.9913 17.0037L16.9918 17.3237C16.9918 17.4564 16.9392 17.5835 16.8454 17.6773C16.7516 17.7711 16.6244 17.8238 16.4918 17.8238L10.9597 17.8288C8.22286 17.8308 6.00212 15.6135 6.00011 12.8767C5.99925 11.8587 6.31193 10.8652 6.89563 10.0311C7.47934 9.19708 8.30574 8.56304 9.26248 8.21521L15.2532 6.03747C15.4041 5.98778 15.5684 5.99874 15.7114 6.06802C15.8544 6.1373 15.9649 6.25947 16.0194 6.40871C16.074 6.55795 16.0683 6.72255 16.0037 6.86772C15.9391 7.01288 15.8206 7.12723 15.6732 7.1866L14.5301 7.60564C13.4805 7.99069 13.7575 9.54586 14.8751 9.54436L23.3391 9.53786Z" fill="black"/>
<path d="M22.0051 16.5691C22.8452 16.5691 23.5047 15.939 23.5042 15.139C23.5032 14.3964 22.0016 12.5687 22.0016 12.5687C22.0016 12.5687 20.5029 14.3419 20.5039 15.142C20.5039 15.942 21.165 16.5701 22.0051 16.5691Z" fill="black"/>
</svg>
