<svg width="29" height="23" viewBox="0 0 29 23" fill="none" xmlns="http://www.w3.org/2000/svg">
<path fill-rule="evenodd" clip-rule="evenodd" d="M21.5899 11.8294L18.7208 11.8315C18.7676 11.9646 18.7935 12.1078 18.7939 12.2566V12.5286C18.7939 12.9481 18.592 13.3205 18.2796 13.553C18.4029 13.7485 18.4739 13.9806 18.4743 14.2288V14.5008C18.4745 14.6683 18.4416 14.8342 18.3777 14.989C18.3137 15.1438 18.2199 15.2845 18.1016 15.403C17.9832 15.5215 17.8427 15.6156 17.688 15.6798C17.5333 15.744 17.3675 15.7771 17.2 15.7772H16.9701C17.0168 15.9103 17.0427 16.0535 17.0427 16.2023L17.0432 16.4743C17.0433 16.6418 17.0105 16.8077 16.9466 16.9625C16.8826 17.1173 16.7888 17.258 16.6704 17.3765C16.5521 17.495 16.4116 17.5891 16.2569 17.6533C16.1022 17.7175 15.9364 17.7506 15.7689 17.7507L11.0666 17.7546C8.27061 17.7567 6.00213 15.492 6 12.6961C5.99904 11.6561 6.31839 10.6411 6.91462 9.78905C7.51085 8.93698 8.35503 8.28922 9.33238 7.93384L14.4249 6.08276C14.6716 5.99282 14.939 5.97577 15.1952 6.03365C15.4514 6.09154 15.6855 6.2219 15.8696 6.40919C16.5684 7.11902 16.2998 8.31341 15.3647 8.65685L14.3934 9.01261L21.5878 9.00709C21.962 9.0068 22.3211 9.15521 22.5859 9.41965C22.8508 9.6841 22.9997 10.0429 23 10.4172C23.0003 10.7914 22.8519 11.1505 22.5874 11.4153C22.323 11.6802 21.9642 11.8291 21.5899 11.8294ZM21.5882 9.85718C21.737 9.85707 21.8798 9.91607 21.9851 10.0212C22.0904 10.1264 22.1496 10.269 22.1497 10.4178C22.1498 10.5666 22.0908 10.7094 21.9857 10.8147C21.8805 10.92 21.7379 10.9792 21.5891 10.9793H21.2992L21.3 10.9479V10.9453C21.3 10.5934 20.9192 10.3077 20.4499 10.3086C19.9802 10.3086 19.5998 10.5946 19.5998 10.9466C19.5998 10.9579 19.6003 10.9692 19.6011 10.9806L15.1445 10.9844L15.1453 11.8345L17.5184 11.8324C17.6311 11.8324 17.7392 11.8772 17.8189 11.9569C17.8986 12.0366 17.9434 12.1447 17.9434 12.2574L17.9438 12.5295C17.9438 12.6422 17.8991 12.7503 17.8194 12.83C17.7396 12.9097 17.6315 12.9545 17.5188 12.9545L15.1462 12.9566L15.147 13.8067L17.1987 13.805C17.3115 13.805 17.4196 13.8498 17.4993 13.9295C17.579 14.0092 17.6238 14.1173 17.6238 14.2301L17.6242 14.5017C17.6242 14.6144 17.5794 14.7225 17.4997 14.8022C17.42 14.8819 17.3119 14.9267 17.1992 14.9267L14.1788 14.9297L14.1796 15.7798L15.7676 15.7785C15.8803 15.7785 15.9883 15.8232 16.068 15.9029C16.1477 15.9825 16.1925 16.0905 16.1926 16.2031L16.1931 16.4752C16.1931 16.5879 16.1483 16.696 16.0686 16.7757C15.9889 16.8554 15.8808 16.9002 15.768 16.9002L11.0657 16.9045C8.73944 16.9062 6.8518 15.0215 6.8501 12.6952C6.84936 11.8299 7.11514 10.9854 7.61129 10.2765C8.10744 9.56752 8.80988 9.02858 9.62311 8.73293L14.7152 6.88185C14.8435 6.83962 14.9832 6.84893 15.1047 6.90782C15.2262 6.9667 15.3201 7.07055 15.3665 7.1974C15.4129 7.32425 15.4081 7.46417 15.3532 7.58756C15.2983 7.71095 15.1975 7.80815 15.0722 7.85861L14.1006 8.2148C13.2084 8.54208 13.4439 9.86398 14.3938 9.86271L21.5882 9.85718Z" fill="black"/>
<path d="M20.4537 15.8337C21.1678 15.8337 21.7284 15.2982 21.728 14.6181C21.7272 13.9869 20.4508 12.4333 20.4508 12.4333C20.4508 12.4333 19.1769 13.9406 19.1777 14.6206C19.1777 15.3007 19.7396 15.8346 20.4537 15.8337Z" fill="black"/>
</svg>
