<svg width="19" height="13" viewBox="0 0 19 13" fill="none" xmlns="http://www.w3.org/2000/svg">
<path fill-rule="evenodd" clip-rule="evenodd" d="M17.2417 6.44704L14.0686 6.44939C14.1203 6.59653 14.149 6.75495 14.1495 6.91948V7.22033C14.1495 7.6843 13.9262 8.09609 13.5807 8.35323C13.717 8.56947 13.7955 8.82613 13.796 9.10066V9.40151C13.7962 9.58675 13.7599 9.77021 13.6891 9.94141C13.6184 10.1126 13.5146 10.2682 13.3838 10.3993C13.2529 10.5304 13.0975 10.6344 12.9264 10.7054C12.7553 10.7764 12.5719 10.813 12.3867 10.8132H12.1324C12.1841 10.9603 12.2128 11.1187 12.2128 11.2833L12.2132 11.5841C12.2134 11.7693 12.1771 11.9528 12.1064 12.124C12.0356 12.2952 11.9319 12.4508 11.801 12.5819C11.6701 12.713 11.5147 12.817 11.3436 12.888C11.1725 12.959 10.9892 12.9956 10.8039 12.9958L5.60339 13C2.51118 13.0023 0.0023528 10.4977 2.38933e-06 7.40554C-0.0010599 6.2554 0.352122 5.13285 1.01153 4.19051C1.67093 3.24816 2.60455 2.53177 3.68545 2.13874L9.31751 0.0915247C9.59041 -0.00794367 9.88616 -0.0267953 10.1695 0.0372196C10.4528 0.101234 10.7117 0.245413 10.9153 0.452549C11.6881 1.23759 11.391 2.55852 10.3569 2.93835L9.28273 3.3318L17.2393 3.32569C17.6533 3.32538 18.0504 3.48951 18.3433 3.78197C18.6362 4.07444 18.8009 4.47128 18.8012 4.88519C18.8015 5.29911 18.6374 5.6962 18.3449 5.9891C18.0525 6.28201 17.6556 6.44673 17.2417 6.44704ZM17.2398 4.26586C17.4044 4.26574 17.5623 4.33099 17.6787 4.44727C17.7952 4.56355 17.8607 4.72133 17.8608 4.8859C17.8609 5.05047 17.7957 5.20835 17.6794 5.3248C17.5631 5.44126 17.4053 5.50675 17.2408 5.50688H16.9202L16.9211 5.47209V5.46927C16.9211 5.08004 16.4999 4.76415 15.9809 4.76509C15.4615 4.76509 15.0408 5.08145 15.0408 5.47068C15.0408 5.48322 15.0412 5.49575 15.0422 5.50829L10.1134 5.51252L10.1143 6.45268L12.7388 6.45034C12.8635 6.45034 12.983 6.49986 13.0712 6.58802C13.1593 6.67618 13.2089 6.79574 13.2089 6.92042L13.2093 7.22127C13.2093 7.34594 13.1598 7.46551 13.0716 7.55367C12.9835 7.64183 12.8639 7.69135 12.7392 7.69135L10.1152 7.6937L10.1162 8.63387L12.3853 8.63199C12.5099 8.63199 12.6295 8.68151 12.7177 8.76967C12.8058 8.85783 12.8554 8.9774 12.8554 9.10207L12.8558 9.40245C12.8558 9.52713 12.8063 9.6467 12.7181 9.73485C12.63 9.82301 12.5104 9.87254 12.3857 9.87254L9.04534 9.87583L9.04628 10.816L10.8025 10.8146C10.9271 10.8146 11.0466 10.864 11.1347 10.9521C11.2229 11.0402 11.2725 11.1596 11.2726 11.2842L11.2731 11.585C11.2731 11.7097 11.2235 11.8293 11.1354 11.9174C11.0472 12.0056 10.9276 12.0551 10.803 12.0551L5.60245 12.0598C3.02969 12.0617 0.942048 9.97737 0.940168 7.4046C0.939357 6.44762 1.23329 5.5136 1.78201 4.72955C2.33073 3.9455 3.1076 3.34947 4.00699 3.02249L9.63858 0.97528C9.78046 0.928575 9.93494 0.938874 10.0694 1.004C10.2038 1.06913 10.3076 1.18398 10.3589 1.32427C10.4102 1.46456 10.4049 1.6193 10.3442 1.75576C10.2834 1.89223 10.172 1.99973 10.0334 2.05553L8.95884 2.44946C7.97214 2.81142 8.23256 4.27338 9.2832 4.27197L17.2398 4.26586Z" fill="black"/>
<path d="M15.9854 10.8757C16.7751 10.8757 17.3952 10.2833 17.3947 9.53122C17.3938 8.83314 15.9821 7.11499 15.9821 7.11499C15.9821 7.11499 14.5733 8.7819 14.5742 9.53404C14.5742 10.2862 15.1957 10.8766 15.9854 10.8757Z" fill="black"/>
</svg>
