<svg width="19" height="19" viewBox="0 0 19 19" fill="none" xmlns="http://www.w3.org/2000/svg">
<path d="M10.8976 5.85046L12.6697 4.07754C12.46 3.86796 12.3053 3.60991 12.2192 3.32624C12.1331 3.04258 12.1183 2.74207 12.176 2.45131C12.2338 2.16056 12.3624 1.88854 12.5504 1.65935C12.7384 1.43016 12.9801 1.25087 13.2539 1.13737C13.5278 1.02387 13.8254 0.979653 14.1204 1.00864C14.4154 1.03763 14.6987 1.13892 14.9453 1.30355C15.1918 1.46818 15.3939 1.69107 15.5337 1.95247C15.6735 2.21387 15.7467 2.50571 15.7468 2.80215C16.0433 2.80194 16.3353 2.87488 16.5969 3.01449C16.8585 3.15411 17.0816 3.3561 17.2465 3.60256C17.4113 3.84903 17.5128 4.13235 17.542 4.42743C17.5712 4.7225 17.5271 5.02022 17.4137 5.2942C17.3003 5.56818 17.1211 5.80995 16.8919 5.9981C16.6628 6.18625 16.3907 6.31496 16.0999 6.37283C15.8091 6.43069 15.5085 6.41593 15.2247 6.32984C14.941 6.24376 14.6829 6.089 14.4732 5.8793L12.8328 7.52063M1.39397 8.68335C2.44853 7.62789 5.30305 8.76898 7.7664 11.2332C10.2306 13.6966 11.3717 16.5502 10.3154 17.6066C9.26081 18.662 6.40628 17.5209 3.94294 15.0567C1.47869 12.5933 0.337605 9.73972 1.39397 8.68335ZM1.39397 8.68335C4.91368 5.16365 9.76543 4.30739 12.2288 6.77164C14.693 9.23498 13.8368 14.086 10.3171 17.6066M5.38147 12.7168L6.2828 13.6182" stroke="black" stroke-width="2" stroke-linecap="round" stroke-linejoin="round"/>
</svg>
