<svg width="30" height="23" viewBox="0 0 30 23" fill="none" xmlns="http://www.w3.org/2000/svg">
<path d="M7 14.2C8.55805 11.7997 12.78 7 17.2 7C17.9845 7 18.6909 7.0945 19.325 7.2583M19.325 7.2583C22.266 8.017 24 11.5 24 11.5C24 11.5 22.266 14.983 19.325 15.7417M19.325 7.2583C17.285 10.7044 18.475 14.3503 19.325 15.7417M7 8.8C8.55805 11.2003 12.78 16 17.2 16C17.9845 16 18.6909 15.9055 19.325 15.7417M15.5 10.15C15.075 10.6 14.48 11.77 15.5 12.85" stroke="black" stroke-width="2" stroke-linecap="round"/>
</svg>
