<svg width="30" height="23" viewBox="0 0 30 23" fill="none" xmlns="http://www.w3.org/2000/svg">
<path d="M5 14.8C6.92465 11.8663 12.14 6 17.6 6C18.5691 6 19.4417 6.1155 20.225 6.3157M20.225 6.3157C23.858 7.243 26 11.5 26 11.5C26 11.5 23.858 15.757 20.225 16.6843M20.225 6.3157C17.705 10.5276 19.175 14.9837 20.225 16.6843M5 8.2C6.92465 11.1337 12.14 17 17.6 17C18.5691 17 19.4417 16.8845 20.225 16.6843M15.5 9.85C14.975 10.4 14.24 11.83 15.5 13.15" stroke="black" stroke-width="2" stroke-linecap="round"/>
</svg>
