<svg width="30" height="23" viewBox="0 0 30 23" fill="none" xmlns="http://www.w3.org/2000/svg">
<path d="M6 14C7.74135 11.333 12.46 6 17.4 6C18.2768 6 19.0663 6.105 19.775 6.287M19.775 6.287C23.062 7.13 25 11 25 11C25 11 23.062 14.87 19.775 15.713M19.775 6.287C17.495 10.116 18.825 14.167 19.775 15.713M6 8C7.74135 10.667 12.46 16 17.4 16C18.2768 16 19.0663 15.895 19.775 15.713M15.5 9.5C15.025 10 14.36 11.3 15.5 12.5" stroke="black" stroke-opacity="0.4" stroke-width="2" stroke-linecap="round"/>
</svg>
