<svg width="19" height="15" viewBox="0 0 19 15" fill="none" xmlns="http://www.w3.org/2000/svg">
<path d="M18.9706 0.615867C18.9616 0.462959 18.8959 0.318653 18.7862 0.210347C18.6764 0.10204 18.5302 0.0372743 18.3752 0.0283447C14.2769 -0.206039 10.9862 1.02369 9.57201 3.32691C8.63769 4.84962 8.63927 6.69891 9.55934 8.46304C9.03556 9.07813 8.65282 9.79773 8.43737 10.5725L7.14912 9.29666C7.7683 8.02083 7.74455 6.69109 7.06994 5.58637C6.02477 3.88396 3.61217 2.97142 0.616803 3.14487C0.461837 3.1538 0.315589 3.21856 0.205825 3.32687C0.0960607 3.43518 0.0304229 3.57948 0.0213732 3.73239C-0.155197 6.68797 0.770412 9.06853 2.49573 10.0998C3.06505 10.4431 3.71932 10.6248 4.38654 10.6248C5.03414 10.6169 5.67167 10.4655 6.25201 10.1819L8.2315 12.135V14.375C8.2315 14.5407 8.29824 14.6997 8.41703 14.8169C8.53582 14.9341 8.69694 15 8.86494 15C9.03293 15 9.19405 14.9341 9.31284 14.8169C9.43163 14.6997 9.49837 14.5407 9.49837 14.375V12.071C9.49549 11.0766 9.83842 10.1114 10.4699 9.33651C11.2846 9.75665 12.1882 9.98149 13.1074 9.99278C13.9961 9.99561 14.8683 9.75605 15.6277 9.30057C17.9619 7.90676 19.2113 4.65977 18.9706 0.615867ZM3.14897 9.03103C1.93435 8.30522 1.24707 6.58718 1.2637 4.3746C3.50606 4.35585 5.24722 5.03634 5.9828 6.23483C6.36682 6.85985 6.42937 7.58878 6.17758 8.33959L4.24481 6.43249C4.12505 6.32022 3.96558 6.25856 3.80041 6.26065C3.63523 6.26273 3.47742 6.32841 3.36061 6.44366C3.2438 6.55892 3.17725 6.71464 3.17513 6.87762C3.17302 7.0406 3.23551 7.19795 3.34929 7.31612L5.28206 9.22322C4.52115 9.47167 3.78319 9.40995 3.14897 9.03103ZM14.9713 8.23256C13.9103 8.86618 12.6632 8.91462 11.3963 8.38881L15.6475 4.19334C15.7612 4.07518 15.8237 3.91783 15.8216 3.75484C15.8195 3.59186 15.7529 3.43614 15.6361 3.32089C15.5193 3.20563 15.3615 3.13996 15.1963 3.13787C15.0312 3.13579 14.8717 3.19745 14.7519 3.30972L10.5 7.49972C9.96474 6.24967 10.013 5.01838 10.6584 3.97224C11.7621 2.1753 14.3798 1.1737 17.7315 1.25105C17.8075 4.55742 16.794 7.14346 14.9713 8.23256Z" fill="black"/>
</svg>
