<svg width="20" height="20" viewBox="0 0 20 20" fill="none" xmlns="http://www.w3.org/2000/svg">
<path d="M6.88416 10C7.45769 10 7.92263 9.53508 7.92263 8.96156C7.92263 8.38803 7.45769 7.9231 6.88416 7.9231C6.31064 7.9231 5.8457 8.38803 5.8457 8.96156C5.8457 9.53508 6.31064 10 6.88416 10Z" fill="black"/>
<path d="M10.0019 15.5385C8.03665 15.5385 6.38377 14.2607 5.86064 12.517C5.84601 12.4651 5.84371 12.4105 5.85391 12.3576C5.86411 12.3046 5.88654 12.2548 5.9194 12.2121C5.95226 12.1693 5.99466 12.1348 6.0432 12.1114C6.09175 12.0879 6.1451 12.0761 6.19901 12.0769H13.801C13.8549 12.0761 13.9082 12.0879 13.9568 12.1114C14.0053 12.1348 14.0477 12.1693 14.0806 12.2121C14.1135 12.2548 14.1359 12.3046 14.1461 12.3576C14.1563 12.4105 14.154 12.4651 14.1393 12.517C13.6205 14.2607 11.9672 15.5385 10.0019 15.5385Z" fill="black"/>
<path d="M13.1156 10C13.6891 10 14.1541 9.53508 14.1541 8.96156C14.1541 8.38803 13.6891 7.9231 13.1156 7.9231C12.5421 7.9231 12.0771 8.38803 12.0771 8.96156C12.0771 9.53508 12.5421 10 13.1156 10Z" fill="black"/>
<path d="M10 19C14.9706 19 19 14.9706 19 10C19 5.02944 14.9706 1 10 1C5.02944 1 1 5.02944 1 10C1 14.9706 5.02944 19 10 19Z" stroke="black" stroke-miterlimit="10"/>
</svg>
