<svg width="18" height="18" viewBox="0 0 18 18" fill="none" xmlns="http://www.w3.org/2000/svg">
<path d="M18 9C18 7.8181 17.7672 6.64778 17.3149 5.55585C16.8626 4.46392 16.1997 3.47177 15.364 2.63604C14.5282 1.80031 13.5361 1.13738 12.4442 0.685084C11.3522 0.232792 10.1819 0 9 0C7.8181 0 6.64778 0.232792 5.55585 0.685084C4.46392 1.13738 3.47177 1.80031 2.63604 2.63604C1.80031 3.47177 1.13738 4.46392 0.685084 5.55585C0.232792 6.64778 -1.76116e-08 7.8181 0 9C3.55683e-08 11.3869 0.948211 13.6761 2.63604 15.364C4.32387 17.0518 6.61305 18 9 18C11.3869 18 13.6761 17.0518 15.364 15.364C17.0518 13.6761 18 11.3869 18 9ZM1.5 9C1.5 7.01088 2.29018 5.10322 3.6967 3.6967C5.10322 2.29018 7.01088 1.5 9 1.5C10.9891 1.5 12.8968 2.29018 14.3033 3.6967C15.7098 5.10322 16.5 7.01088 16.5 9C16.5 10.9891 15.7098 12.8968 14.3033 14.3033C12.8968 15.7098 10.9891 16.5 9 16.5C7.01088 16.5 5.10322 15.7098 3.6967 14.3033C2.29018 12.8968 1.5 10.9891 1.5 9ZM7.5 7.125C7.5 7.27274 7.4709 7.41903 7.41436 7.55552C7.35783 7.69201 7.27496 7.81603 7.1705 7.9205C7.06603 8.02496 6.94201 8.10783 6.80552 8.16436C6.66903 8.2209 6.52274 8.25 6.375 8.25C6.22726 8.25 6.08097 8.2209 5.94448 8.16436C5.80799 8.10783 5.68397 8.02496 5.5795 7.9205C5.47504 7.81603 5.39217 7.69201 5.33564 7.55552C5.2791 7.41903 5.25 7.27274 5.25 7.125C5.25 6.82663 5.36853 6.54048 5.5795 6.3295C5.79048 6.11853 6.07663 6 6.375 6C6.67337 6 6.95952 6.11853 7.1705 6.3295C7.38147 6.54048 7.5 6.82663 7.5 7.125ZM12.75 7.125C12.75 7.42337 12.6315 7.70952 12.4205 7.9205C12.2095 8.13147 11.9234 8.25 11.625 8.25C11.3266 8.25 11.0405 8.13147 10.8295 7.9205C10.6185 7.70952 10.5 7.42337 10.5 7.125C10.5 6.82663 10.6185 6.54048 10.8295 6.3295C11.0405 6.11853 11.3266 6 11.625 6C11.9234 6 12.2095 6.11853 12.4205 6.3295C12.6315 6.54048 12.75 6.82663 12.75 7.125ZM6.198 13.233C7.5855 11.589 10.413 11.589 11.802 13.233C11.864 13.3127 11.9414 13.3791 12.0297 13.4282C12.118 13.4773 12.2152 13.508 12.3157 13.5186C12.4161 13.5292 12.5176 13.5193 12.6142 13.4897C12.7107 13.4601 12.8003 13.4112 12.8775 13.3462C12.9547 13.2811 13.018 13.2011 13.0636 13.1109C13.1091 13.0208 13.136 12.9224 13.1425 12.8216C13.1491 12.7208 13.1353 12.6197 13.1019 12.5244C13.0684 12.4291 13.0161 12.3416 12.948 12.267C10.9605 9.912 7.038 9.912 5.052 12.267C4.9839 12.3416 4.93157 12.4291 4.89814 12.5244C4.86471 12.6197 4.85087 12.7208 4.85745 12.8216C4.86404 12.9224 4.8909 13.0208 4.93644 13.1109C4.98198 13.2011 5.04526 13.2811 5.12248 13.3462C5.1997 13.4112 5.28927 13.4601 5.38581 13.4897C5.48236 13.5193 5.5839 13.5292 5.68433 13.5186C5.78477 13.508 5.88204 13.4773 5.97031 13.4282C6.05857 13.3791 6.13602 13.3127 6.198 13.233Z" fill="black"/>
</svg>
