<svg width="18" height="18" viewBox="0 0 18 18" fill="none" xmlns="http://www.w3.org/2000/svg">
<path d="M5.013 16.2C3.807 16.2 2.826 15.219 2.826 14.013C2.826 13.05 3.888 11.25 5.013 9.729C6.138 11.25 7.2 13.05 7.2 14.013C7.2 14.3002 7.14343 14.5846 7.03352 14.8499C6.92362 15.1153 6.76252 15.3564 6.55944 15.5594C6.35636 15.7625 6.11527 15.9236 5.84993 16.0335C5.58459 16.1434 5.3002 16.2 5.013 16.2ZM9 0C7.8181 0 6.64778 0.232792 5.55585 0.685084C4.46392 1.13738 3.47177 1.80031 2.63604 2.63604C0.948211 4.32387 0 6.61305 0 9C0 10.575 0.405 12.042 1.116 13.329C1.26 12.6 1.629 11.763 2.079 10.953C1.89334 10.3186 1.79939 9.66097 1.8 9C1.8 7.09044 2.55857 5.25909 3.90883 3.90883C5.25909 2.55857 7.09044 1.8 9 1.8C10.9096 1.8 12.7409 2.55857 14.0912 3.90883C15.4414 5.25909 16.2 7.09044 16.2 9C16.2 10.9096 15.4414 12.7409 14.0912 14.0912C12.7409 15.4414 10.9096 16.2 9 16.2C8.784 16.2 8.577 16.2 8.361 16.164C7.938 16.83 7.326 17.352 6.606 17.667C7.371 17.883 8.172 18 9 18C10.1819 18 11.3522 17.7672 12.4442 17.3149C13.5361 16.8626 14.5282 16.1997 15.364 15.364C16.1997 14.5282 16.8626 13.5361 17.3149 12.4442C17.7672 11.3522 18 10.1819 18 9C18 7.8181 17.7672 6.64778 17.3149 5.55585C16.8626 4.46392 16.1997 3.47177 15.364 2.63604C14.5282 1.80031 13.5361 1.13738 12.4442 0.685084C11.3522 0.232792 10.1819 0 9 0ZM9 10.8C8.631 10.8 8.271 10.836 7.929 10.908C8.244 11.475 8.523 12.06 8.721 12.6H9C10.125 12.6 11.088 13.05 11.493 13.707L12.771 12.429C11.961 11.448 10.575 10.8 9 10.8ZM12.15 5.4C11.43 5.4 10.8 6.03 10.8 6.75C10.8 7.47 11.43 8.1 12.15 8.1C12.87 8.1 13.5 7.47 13.5 6.75C13.5 6.03 12.87 5.4 12.15 5.4ZM7.2 6.75C7.2 6.03 6.57 5.4 5.85 5.4C5.13 5.4 4.5 6.03 4.5 6.75C4.5 7.47 5.13 8.1 5.85 8.1C6.57 8.1 7.2 7.47 7.2 6.75Z" fill="black"/>
</svg>
