<svg width="18" height="18" viewBox="0 0 18 18" fill="none" xmlns="http://www.w3.org/2000/svg">
<path d="M7.5 7.5C7.5 7.64774 7.4709 7.79403 7.41436 7.93052C7.35783 8.06701 7.27496 8.19103 7.1705 8.2955C7.06603 8.39996 6.94201 8.48283 6.80552 8.53936C6.66903 8.5959 6.52274 8.625 6.375 8.625C6.22726 8.625 6.08097 8.5959 5.94448 8.53936C5.80799 8.48283 5.68397 8.39996 5.5795 8.2955C5.47504 8.19103 5.39217 8.06701 5.33564 7.93052C5.2791 7.79403 5.25 7.64774 5.25 7.5C5.25 7.20163 5.36853 6.91548 5.5795 6.7045C5.79048 6.49353 6.07663 6.375 6.375 6.375C6.67337 6.375 6.95952 6.49353 7.1705 6.7045C7.38147 6.91548 7.5 7.20163 7.5 7.5ZM11.625 8.625C11.9234 8.625 12.2095 8.50647 12.4205 8.2955C12.6315 8.08452 12.75 7.79837 12.75 7.5C12.75 7.20163 12.6315 6.91548 12.4205 6.7045C12.2095 6.49353 11.9234 6.375 11.625 6.375C11.3266 6.375 11.0405 6.49353 10.8295 6.7045C10.6185 6.91548 10.5 7.20163 10.5 7.5C10.5 7.79837 10.6185 8.08452 10.8295 8.2955C11.0405 8.50647 11.3266 8.625 11.625 8.625ZM6 10.5C5.80109 10.5 5.61032 10.579 5.46967 10.7197C5.32902 10.8603 5.25 11.0511 5.25 11.25C5.25 11.4489 5.32902 11.6397 5.46967 11.7803C5.61032 11.921 5.80109 12 6 12H12C12.1989 12 12.3897 11.921 12.5303 11.7803C12.671 11.6397 12.75 11.4489 12.75 11.25C12.75 11.0511 12.671 10.8603 12.5303 10.7197C12.3897 10.579 12.1989 10.5 12 10.5H6ZM9 0C10.1819 -1.76116e-08 11.3522 0.232792 12.4442 0.685084C13.5361 1.13738 14.5282 1.80031 15.364 2.63604C16.1997 3.47177 16.8626 4.46392 17.3149 5.55585C17.7672 6.64778 18 7.8181 18 9C18 10.1819 17.7672 11.3522 17.3149 12.4442C16.8626 13.5361 16.1997 14.5282 15.364 15.364C14.5282 16.1997 13.5361 16.8626 12.4442 17.3149C11.3522 17.7672 10.1819 18 9 18C6.61305 18 4.32387 17.0518 2.63604 15.364C0.948211 13.6761 0 11.3869 0 9C0 6.61305 0.948211 4.32387 2.63604 2.63604C4.32387 0.948211 6.61305 3.55683e-08 9 0ZM9 1.5C7.01088 1.5 5.10322 2.29018 3.6967 3.6967C2.29018 5.10322 1.5 7.01088 1.5 9C1.5 10.9891 2.29018 12.8968 3.6967 14.3033C5.10322 15.7098 7.01088 16.5 9 16.5C10.9891 16.5 12.8968 15.7098 14.3033 14.3033C15.7098 12.8968 16.5 10.9891 16.5 9C16.5 7.01088 15.7098 5.10322 14.3033 3.6967C12.8968 2.29018 10.9891 1.5 9 1.5Z" fill="black"/>
</svg>
