<svg width="22" height="20" viewBox="0 0 22 20" fill="none" xmlns="http://www.w3.org/2000/svg">
<g id="Icon">
<g id="Group">
<path id="Vector" d="M4.13552 2.79463C4.16383 2.7748 5.23983 2.46413 5.22775 2.43728L7.98176 0.693117C8.06363 0.638764 8.12096 0.5545 8.14144 0.458386C8.16193 0.362272 8.14395 0.261957 8.09135 0.178943C8.03876 0.0959291 7.95573 0.0368236 7.86007 0.0142954C7.76442 -0.00823268 7.66374 0.00760952 7.57963 0.0584262L4.86709 1.77616L3.90971 2.07774C3.30084 2.27188 2.75878 2.63319 2.34531 3.12048C1.93184 3.60777 1.6636 4.20143 1.57119 4.83379L1.35711 6.34534L0.0108298 11.853C0.00200634 11.889 -0.001456 11.9261 0.000554734 11.9631L0.428893 19.5822C0.43593 19.6806 0.481371 19.7722 0.555409 19.8374C0.629447 19.9026 0.726144 19.936 0.824631 19.9305C0.923117 19.9251 1.01549 19.8811 1.08182 19.8081C1.14816 19.735 1.18312 19.6389 1.17917 19.5403L0.753955 11.977L2.09381 6.48769L2.31486 4.94017C2.38682 4.44788 2.59565 3.9857 2.91756 3.60635C3.23947 3.227 3.6615 2.94574 4.13552 2.79463Z" fill="black"/>
<path id="Vector_2" d="M21.0193 11.915L20.2615 9.6418L19.5969 6.37946L19.4485 4.79122C19.3931 4.2222 19.1804 3.67984 18.8342 3.22484C18.488 2.76984 18.0221 2.42017 17.4884 2.21495L16.0229 1.65802L13.3278 0.0529033C13.2854 0.0276569 13.2384 0.0110087 13.1896 0.0039093C13.1408 -0.00319015 13.091 -0.000601846 13.0432 0.0115265C12.9953 0.0236548 12.9504 0.0450855 12.9108 0.0745951C12.8713 0.104105 12.8379 0.141115 12.8127 0.183514C12.7874 0.225912 12.7708 0.272868 12.7637 0.3217C12.7566 0.370533 12.7592 0.420285 12.7713 0.468117C12.7834 0.515949 12.8049 0.560924 12.8344 0.600474C12.8639 0.640024 12.9009 0.673374 12.9433 0.69862L15.6667 2.32025C15.6854 2.33131 15.705 2.34076 15.7254 2.3485L17.2215 2.91717C17.6241 3.07206 17.9756 3.3359 18.2368 3.67917C18.498 4.02245 18.6585 4.43162 18.7004 4.86093L18.8507 6.46935C18.8633 6.53418 19.5156 9.75478 19.5298 9.8139C19.5328 9.82878 19.5367 9.84347 19.5415 9.85789L20.2863 12.0922C20.2399 15.2683 20.0133 18.789 19.7114 19.2252C19.6732 19.2817 19.6511 19.3475 19.6473 19.4156C19.6435 19.4837 19.6582 19.5516 19.6898 19.612C19.7215 19.6724 19.7688 19.7232 19.8269 19.7589C19.8851 19.7946 19.9517 19.8139 20.0199 19.8148C21.0159 19.9744 21.0148 13.0835 21.0193 11.915Z" fill="black"/>
<path id="Vector_3" d="M17.6139 14.04L17.7335 11.3775C17.736 11.3233 17.7266 11.2691 17.7061 11.2188C17.6856 11.1685 17.6544 11.1233 17.6147 11.0862C15.9433 9.52439 16.9121 6.23967 16.9222 6.20665C16.9508 6.11142 16.9405 6.00871 16.8935 5.92106C16.8465 5.83341 16.7667 5.76797 16.6716 5.73907C16.5764 5.71018 16.4737 5.7202 16.3859 5.76693C16.2981 5.81366 16.2324 5.89329 16.2033 5.98836C16.0463 6.54471 15.9456 7.11542 15.9026 7.6919L14.8678 8.69963L10.8913 7.94825V6.3325C10.8913 6.23286 10.8517 6.1373 10.7813 6.06684C10.7108 5.99639 10.6153 5.95681 10.5156 5.95681C10.416 5.95681 10.3204 5.99639 10.25 6.06684C10.1795 6.1373 10.1399 6.23286 10.1399 6.3325V7.94825L6.15906 8.69963L5.10127 7.67208C5.05072 7.09806 4.9402 6.53091 4.77151 5.97991C4.74027 5.88529 4.67273 5.80694 4.58373 5.76212C4.49473 5.71729 4.39157 5.70965 4.29694 5.74089C4.20231 5.77212 4.12397 5.83967 4.07914 5.92867C4.03432 6.01767 4.02668 6.12082 4.05792 6.21545C4.2134 6.74293 4.31316 7.28526 4.35555 7.83355C4.43759 8.89085 4.31833 10.2208 3.41477 11.1258C3.37987 11.1607 3.35219 11.2021 3.3333 11.2477C3.31441 11.2933 3.30469 11.3421 3.30469 11.3914V14.6945L2.57533 16.8232C2.56453 16.8547 2.55793 16.8875 2.5557 16.9208L2.3875 19.537C2.38108 19.6365 2.41442 19.7344 2.4802 19.8093C2.54598 19.8841 2.6388 19.9298 2.73824 19.9362C2.83769 19.9426 2.93561 19.9093 3.01047 19.8435C3.08533 19.7777 3.13099 19.6849 3.13741 19.5855L3.30234 17.0191L4.03574 14.8791C4.04926 14.8399 4.05614 14.7987 4.0561 14.7573V11.5423C4.25604 11.3214 4.42846 11.0772 4.56958 10.8148L5.07932 11.762V13.3165C4.95774 13.6742 4.43862 15.3632 4.94687 16.6588L4.60842 19.5811C4.59889 19.679 4.62819 19.7768 4.69002 19.8534C4.75185 19.93 4.84128 19.9793 4.93906 19.9906C5.03684 20.002 5.13516 19.9745 5.21288 19.9141C5.29061 19.8537 5.34152 19.7652 5.35467 19.6676L5.47803 18.6026H15.5492L15.6726 19.6677C15.6782 19.7167 15.6935 19.7641 15.7175 19.8072C15.7415 19.8503 15.7738 19.8882 15.8125 19.9188C15.8511 19.9494 15.8954 19.9722 15.9429 19.9857C15.9903 19.9992 16.04 20.0032 16.089 19.9975C16.138 19.9918 16.1854 19.9765 16.2285 19.9525C16.2716 19.9285 16.3095 19.8963 16.3401 19.8576C16.3708 19.8189 16.3935 19.7746 16.407 19.7272C16.4205 19.6797 16.4245 19.6301 16.4188 19.5811L16.0803 16.6588C16.5921 15.3628 16.0704 13.6745 15.9481 13.3162V11.762L16.4606 10.8098C16.6019 11.0642 16.7748 11.2998 16.9754 11.5107L16.8605 14.0672C16.8587 14.1075 16.8634 14.1479 16.8745 14.1868L17.7475 17.2576V19.5785C17.749 19.6771 17.7893 19.7712 17.8595 19.8404C17.9298 19.9096 18.0245 19.9484 18.1232 19.9484C18.2218 19.9484 18.3165 19.9096 18.3868 19.8404C18.4571 19.7712 18.4973 19.6771 18.4988 19.5785V17.2051C18.4989 17.1704 18.4941 17.1358 18.4845 17.1024L17.6139 14.04ZM5.56508 17.8512L5.67434 16.9079H15.3529L15.4621 17.8512H5.56508ZM15.2416 11.4894C15.2121 11.5441 15.1967 11.6052 15.1967 11.6674C15.2252 11.7118 15.1595 13.5559 15.2199 13.5102C15.2256 13.5259 15.7552 14.9958 15.4524 16.1566H5.57264C5.26731 15.0156 5.80195 13.5256 5.80777 13.5095C5.84505 13.6602 5.82747 11.6265 5.83069 11.6674C5.92507 11.6367 4.94894 9.98333 4.93537 9.90913C5.03882 9.52661 5.10078 9.13405 5.12017 8.73826L5.77548 9.37471C5.81873 9.41662 5.87141 9.44752 5.9291 9.46483C5.98678 9.48213 6.04778 9.48532 6.10695 9.47414L10.5156 8.64198L14.9202 9.47414C14.9795 9.48536 15.0406 9.48216 15.0984 9.46479C15.1561 9.44742 15.2089 9.41639 15.2521 9.37434L15.8959 8.74747C15.9182 9.14268 15.9829 9.53436 16.0888 9.91578L15.2416 11.4894Z" fill="black"/>
<path id="Vector_4" d="M13.877 10.4479L13.3546 10.8753L11.0131 10.2207C10.9863 10.1007 10.9179 8.97131 10.8223 8.90016C10.7791 8.83768 10.7179 8.78977 10.6469 8.76275C10.5759 8.73574 10.4984 8.73088 10.4246 8.74882C10.3508 8.76675 10.2841 8.80665 10.2334 8.86324C10.1827 8.91983 10.1504 8.99046 10.1407 9.0658L10.0152 10.2207L7.67374 10.8749L7.15166 10.4478C7.07449 10.3848 6.97545 10.355 6.87632 10.365C6.77718 10.375 6.68606 10.4239 6.62299 10.501C6.55991 10.5781 6.53004 10.6772 6.53995 10.7763C6.54986 10.8754 6.59872 10.9666 6.67581 11.0297C6.99891 11.2786 7.41549 11.7637 7.87589 11.5987L10.4622 10.876C10.4772 10.8648 10.4954 10.8587 10.5142 10.8587C10.5329 10.8587 10.5511 10.8648 10.5661 10.876L13.1533 11.5991C13.2186 11.6172 13.2861 11.6263 13.3538 11.6263C13.7095 11.6636 14.094 11.215 14.3525 11.0297C14.4274 10.966 14.4744 10.8754 14.4832 10.7774C14.4921 10.6794 14.4622 10.5819 14.3999 10.5057C14.3377 10.4296 14.2481 10.3808 14.1503 10.37C14.0525 10.3592 13.9544 10.3871 13.877 10.4479Z" fill="black"/>
<path id="Vector_5" d="M12.9287 12.4745L12.5291 12.8814L10.8899 12.2639V11.5342C10.888 11.4358 10.8475 11.3421 10.7773 11.2732C10.707 11.2044 10.6126 11.1658 10.5142 11.1658C10.4158 11.1658 10.3213 11.2044 10.2511 11.2733C10.1808 11.3422 10.1404 11.4358 10.1385 11.5342V12.2636L8.49926 12.881C8.25817 12.6636 7.9365 12.128 7.5683 12.4701C7.22166 12.8344 7.74757 13.16 7.96308 13.4071C8.065 13.5113 8.19505 13.5835 8.33734 13.615C8.47963 13.6465 8.62801 13.6358 8.76434 13.5843L10.5142 12.9251L12.264 13.5844C12.4003 13.6357 12.5486 13.6464 12.6908 13.6151C12.833 13.5837 12.963 13.5118 13.0651 13.4079L13.4647 13.0014C13.5323 12.9299 13.5691 12.8347 13.5673 12.7363C13.5655 12.6379 13.5252 12.5441 13.455 12.4752C13.3848 12.4062 13.2904 12.3675 13.1919 12.3673C13.0935 12.3672 12.999 12.4057 12.9287 12.4745Z" fill="black"/>
<path id="Vector_6" d="M12.1662 14.2521L11.7845 14.6197L10.8339 14.2135V13.4823C10.832 13.3839 10.7916 13.2902 10.7213 13.2213C10.6511 13.1523 10.5566 13.1137 10.4582 13.1137C10.3597 13.1137 10.2652 13.1523 10.195 13.2213C10.1247 13.2902 10.0843 13.384 10.0825 13.4824V14.2135L9.13207 14.6197L8.75032 14.2521C8.67843 14.1831 8.58215 14.1455 8.48257 14.1474C8.38299 14.1493 8.28823 14.1907 8.21907 14.2623C7.89142 14.6232 8.38784 14.9277 8.61037 15.1605C8.7166 15.2632 8.85081 15.3323 8.99617 15.3591C9.14152 15.3858 9.29154 15.3691 9.4274 15.3109L10.4582 14.8703L11.4889 15.3105C11.6247 15.3688 11.7746 15.3857 11.9199 15.3592C12.0652 15.3326 12.1994 15.2637 12.3058 15.1612L12.6875 14.7936C12.757 14.7239 12.7963 14.6298 12.7972 14.5315C12.798 14.4331 12.7603 14.3383 12.6921 14.2675C12.6239 14.1966 12.5306 14.1553 12.4323 14.1524C12.334 14.1496 12.2384 14.1853 12.1662 14.2521Z" fill="black"/>
</g>
</g>
</svg>
