<svg width="22" height="22" viewBox="0 0 22 22" fill="none" xmlns="http://www.w3.org/2000/svg">
<path d="M10.8481 13.5512V12.3864C10.8481 12.2952 10.8119 12.2078 10.7474 12.1434C10.683 12.0789 10.5955 12.0427 10.5044 12.0427C10.4132 12.0427 10.3258 12.0789 10.2614 12.1434C10.1969 12.2078 10.1607 12.2952 10.1607 12.3864V13.5512C10.1605 13.7667 10.0747 13.9733 9.92234 14.1256C9.76993 14.2779 9.56331 14.3635 9.34783 14.3636H7.40129C7.31014 14.3636 7.22273 14.3998 7.15828 14.4643C7.09383 14.5287 7.05762 14.6162 7.05762 14.7073C7.05762 14.7985 7.09383 14.8859 7.15828 14.9503C7.22273 15.0148 7.31014 15.051 7.40129 15.051H9.34783C9.74553 15.0506 10.1268 14.8925 10.4081 14.6113C10.6893 14.3302 10.8476 13.9489 10.8481 13.5512Z" fill="black"/>
<path d="M14.6051 14.3636H12.6838C12.4681 14.3638 12.2613 14.2782 12.1087 14.1259C11.9561 13.9736 11.8702 13.7668 11.87 13.5512V12.3864C11.87 12.2952 11.8337 12.2078 11.7693 12.1434C11.7048 12.0789 11.6174 12.0427 11.5263 12.0427C11.4351 12.0427 11.3477 12.0789 11.2833 12.1434C11.2188 12.2078 11.1826 12.2952 11.1826 12.3864V13.5512C11.1831 13.9489 11.3413 14.3302 11.6226 14.6113C11.9038 14.8925 12.2852 15.0506 12.6828 15.051H14.6042C14.6953 15.051 14.7828 15.0148 14.8472 14.9503C14.9117 14.8859 14.9479 14.7985 14.9479 14.7073C14.9479 14.6162 14.9117 14.5287 14.8472 14.4643C14.7828 14.3998 14.6953 14.3636 14.6042 14.3636H14.6051Z" fill="black"/>
<path d="M17.7262 12.6854C17.0132 12.9058 16.4088 13.0341 16.4029 13.0355C16.3322 13.0504 16.2681 13.0872 16.2196 13.1407C16.1711 13.1942 16.1406 13.2616 16.1325 13.3333L15.2023 21.6176C15.1973 21.6624 15.2012 21.7078 15.2137 21.7512C15.2262 21.7945 15.2472 21.835 15.2753 21.8702C15.3035 21.9054 15.3384 21.9348 15.3779 21.9565C15.4174 21.9783 15.4608 21.992 15.5057 21.997C15.5184 21.9987 15.5313 21.9994 15.5442 21.9993C15.6287 21.9992 15.7103 21.9681 15.7732 21.9117C15.8362 21.8553 15.8762 21.7777 15.8856 21.6937L16.7883 13.6527C17.0389 13.5936 17.4577 13.4877 17.9292 13.3416C17.9723 13.3282 18.0124 13.3066 18.0471 13.2777C18.0818 13.2489 18.1105 13.2136 18.1315 13.1737C18.1525 13.1338 18.1655 13.0902 18.1697 13.0453C18.1739 13.0004 18.1692 12.9551 18.1558 12.912C18.1425 12.8689 18.1208 12.8289 18.092 12.7941C18.0632 12.7594 18.0279 12.7308 17.988 12.7097C17.9481 12.6887 17.9044 12.6757 17.8595 12.6715C17.8146 12.6673 17.7693 12.6721 17.7262 12.6854Z" fill="black"/>
<path d="M18.558 3.07458C18.0187 2.80397 17.4118 2.69754 16.8126 2.76849C16.1156 2.88121 15.0837 3.52456 15.0837 4.54778C15.0837 4.85473 15.1629 5.1565 15.3136 5.42388C15.4644 5.69126 15.6816 5.91521 15.9442 6.07405C16.2069 6.23289 16.5061 6.32125 16.8129 6.33057C17.1197 6.3399 17.4238 6.26988 17.6956 6.12729L18.1405 8.82211L16.8011 8.53297C16.7166 8.51408 16.628 8.52835 16.5537 8.57284L14.5435 9.7601L12.5731 9.40819V8.34052C12.9898 8.00934 13.2901 7.55398 13.4304 7.04053C13.5527 7.02326 13.6727 6.99253 13.7883 6.94889C14.3877 6.72298 14.7836 5.90184 14.6896 5.07978C14.6823 4.95838 14.6489 4.83999 14.5915 4.73274C14.5342 4.62548 14.4543 4.53191 14.3574 4.45843C14.2745 4.39919 14.1813 4.35599 14.0825 4.33104C14.2203 4.17014 14.3402 3.99467 14.4399 3.80774C14.6718 3.35748 14.7879 2.85651 14.7776 2.35013C14.8092 1.58343 14.5755 0.829266 14.1159 0.214793C14.0837 0.176954 14.0437 0.146518 13.9986 0.125562C13.9535 0.104605 13.9044 0.0936224 13.8547 0.0933627C13.8047 0.0915328 13.755 0.101438 13.7094 0.122284C13.6639 0.143131 13.6239 0.174342 13.5926 0.213418C13.5894 0.216626 13.2719 0.567627 12.9736 0.50989C12.7869 0.467978 12.6032 0.413634 12.4237 0.34722C11.8096 0.114836 11.1576 -0.00138794 10.501 0.00446685C9.74274 -0.0303909 8.98907 0.139271 8.31891 0.495685C8.24173 0.54306 8.18637 0.618983 8.16486 0.706949C8.14335 0.794916 8.15743 0.887817 8.20404 0.96546C8.25065 1.0431 8.32602 1.09921 8.41377 1.12159C8.50152 1.14397 8.59456 1.1308 8.67266 1.08496C9.23735 0.796624 9.86767 0.661082 10.501 0.691806C11.0818 0.684612 11.6587 0.787865 12.201 0.996068C12.4092 1.07307 12.6224 1.13539 12.8393 1.18257C13.003 1.20884 13.1704 1.20211 13.3314 1.16276C13.4925 1.12341 13.6441 1.05225 13.7773 0.953453C13.9994 1.37778 14.1086 1.85214 14.0944 2.33088C14.1064 2.73403 14.0166 3.1337 13.8332 3.49294C13.7133 3.71219 13.5622 3.91285 13.3846 4.08864C13.3556 3.91003 13.2906 3.73916 13.1936 3.58637C13.0967 3.43357 12.9698 3.30203 12.8205 3.19968C12.7429 3.16782 12.6584 3.15652 12.5752 3.16688C12.4919 3.17723 12.4128 3.20889 12.3453 3.25879C12.1522 3.43294 11.9205 3.55886 11.6693 3.62624C11.4181 3.69362 11.1545 3.70054 10.9001 3.64645C10.5081 3.59462 10.1306 3.46417 9.79027 3.26291C9.74651 3.23367 9.69664 3.21484 9.64447 3.20787C9.5923 3.2009 9.53923 3.20597 9.48933 3.22269C9.43943 3.23941 9.39402 3.26735 9.35659 3.30434C9.31916 3.34134 9.2907 3.38642 9.27339 3.43612C9.16585 3.70133 9.02112 3.94988 8.84358 4.17433C8.82067 4.20457 8.79775 4.23344 8.77484 4.26001C8.46127 3.99516 8.22279 3.65258 8.08326 3.26657C7.94373 2.88055 7.90806 2.46466 7.97982 2.06053C8.0085 1.91682 8.05756 1.77795 8.12554 1.64812C8.14966 1.60808 8.16536 1.56354 8.17168 1.51722C8.178 1.4709 8.1748 1.42378 8.16228 1.37874C8.14976 1.3337 8.12819 1.29168 8.09887 1.25527C8.06956 1.21885 8.03312 1.1888 7.9918 1.16695C7.95047 1.1451 7.90512 1.13191 7.85852 1.12819C7.81192 1.12447 7.76505 1.1303 7.72078 1.14531C7.6765 1.16033 7.63576 1.18422 7.60104 1.21552C7.56632 1.24682 7.53835 1.28488 7.51884 1.32737C7.42011 1.51481 7.34867 1.7154 7.30669 1.92306C7.21898 2.34406 7.22737 2.77942 7.33122 3.19673C7.43507 3.61403 7.63171 4.00254 7.9065 4.33333C7.80484 4.35761 7.70883 4.40133 7.62378 4.46209C7.52693 4.5356 7.44713 4.62919 7.38986 4.73644C7.3326 4.8437 7.29922 4.96207 7.29202 5.08345C7.19809 5.90825 7.59399 6.72665 8.19335 6.95255C8.30889 6.99625 8.42891 7.02698 8.55123 7.0442C8.69316 7.56232 8.9985 8.02081 9.42186 8.35152V9.41323L7.45149 9.76514L5.43804 8.5733C5.3636 8.52912 5.27515 8.51487 5.1906 8.53343L3.84891 8.82349L4.29385 6.12866C4.56567 6.27125 4.8697 6.34127 5.17651 6.33195C5.48332 6.32262 5.78253 6.23426 6.04519 6.07542C6.30785 5.91658 6.52507 5.69264 6.67582 5.42526C6.82658 5.15788 6.90577 4.85611 6.90574 4.54915C6.90574 3.52594 5.87381 2.88259 5.17685 2.76986C4.57942 2.69925 3.9744 2.80519 3.43651 3.07458C1.61277 3.82195 0.167521 9.8128 0.00897507 10.4937C-0.00428682 10.5506 -0.00283081 10.6099 0.0132054 10.666C0.0292417 10.7221 0.0593282 10.7732 0.10062 10.8145C0.718226 11.4337 1.38769 11.9989 2.10169 12.504C3.07644 13.0345 4.12266 13.4216 5.20801 13.6532L6.11072 21.6937C6.12006 21.7776 6.15998 21.8552 6.22287 21.9115C6.28575 21.9679 6.36718 21.9992 6.45164 21.9993C6.46445 22.0002 6.47731 22.0002 6.49013 21.9993C6.53497 21.9944 6.5784 21.9806 6.61792 21.9589C6.65745 21.9371 6.69229 21.9078 6.72047 21.8725C6.74864 21.8373 6.76959 21.7968 6.78212 21.7535C6.79465 21.7101 6.7985 21.6648 6.79347 21.6199L5.86511 13.3334C5.85704 13.2616 5.82659 13.1942 5.77806 13.1407C5.72953 13.0873 5.66539 13.0505 5.59475 13.0355C5.57367 13.0309 3.49149 12.5864 2.47881 11.928C1.8551 11.4882 1.26872 10.9978 0.725641 10.4616C1.31675 8.00968 2.60024 4.16104 3.69815 3.71152C4.12107 3.49207 4.59874 3.40051 5.07283 3.44804C5.54343 3.5241 6.22436 3.95988 6.22436 4.54778C6.22519 4.77064 6.1581 4.98846 6.03202 5.17223C5.90594 5.356 5.72686 5.49698 5.51864 5.57641C5.31041 5.65584 5.08293 5.66994 4.86649 5.61682C4.65005 5.56371 4.45494 5.44591 4.30714 5.27911C4.26395 5.23066 4.20792 5.19543 4.14554 5.1775C4.08316 5.15957 4.01697 5.15968 3.95465 5.1778C3.89233 5.19592 3.83641 5.23132 3.79337 5.2799C3.75032 5.32849 3.72192 5.38826 3.71144 5.45232L3.09009 9.20977C3.08094 9.26514 3.08549 9.3219 3.10333 9.3751C3.12118 9.42829 3.15178 9.47632 3.19246 9.51496C3.23314 9.55361 3.28267 9.58171 3.33671 9.5968C3.39075 9.6119 3.44767 9.61353 3.50249 9.60156L5.2048 9.23498L7.20908 10.4186C7.28014 10.46 7.36359 10.475 7.44461 10.4607L9.82235 10.036C9.90172 10.0218 9.97358 9.98011 10.0253 9.91829C10.0771 9.85647 10.1055 9.77842 10.1055 9.69778V8.73093C10.3907 8.83788 10.6927 8.89312 10.9972 8.89406C11.3025 8.89362 11.6052 8.83804 11.8908 8.73001V9.69916C11.8908 9.77979 11.9192 9.85785 11.971 9.91967C12.0227 9.98149 12.0946 10.0231 12.174 10.0373L14.5517 10.4621C14.6327 10.4762 14.7161 10.4613 14.7872 10.4199L16.7915 9.23635L18.4938 9.60293C18.5486 9.61491 18.6056 9.61327 18.6596 9.59818C18.7136 9.58308 18.7632 9.55499 18.8039 9.51634C18.8445 9.47769 18.8751 9.42967 18.893 9.37647C18.9108 9.32327 18.9154 9.26651 18.9062 9.21115L18.2849 5.45369C18.2744 5.38964 18.246 5.32986 18.2029 5.28128C18.1599 5.2327 18.104 5.1973 18.0417 5.17917C17.9793 5.16105 17.9132 5.16095 17.8508 5.17888C17.7884 5.19681 17.7324 5.23203 17.6892 5.28048C17.5413 5.44634 17.3465 5.56334 17.1306 5.61599C16.9147 5.66864 16.6879 5.65445 16.4802 5.57529C16.2726 5.49614 16.0939 5.35576 15.9678 5.17275C15.8417 4.98975 15.7742 4.77276 15.7742 4.55053C15.7742 3.96171 16.4552 3.52594 16.9258 3.45079C17.3999 3.40337 17.8775 3.49492 18.3005 3.71427C19.4002 4.16379 20.6832 8.01243 21.273 10.4644C20.7299 11.0006 20.1436 11.4911 19.5198 11.9307C19.274 12.084 19.0154 12.2156 18.7468 12.3239C18.6735 12.3545 18.613 12.4096 18.5758 12.4798C18.5385 12.5499 18.5267 12.6308 18.5424 12.7087C18.558 12.7866 18.6002 12.8567 18.6617 12.907C18.7232 12.9573 18.8002 12.9847 18.8796 12.9846C18.9251 12.9845 18.9701 12.9755 19.0121 12.9581C19.3189 12.8338 19.6143 12.6828 19.8946 12.5067C20.6086 12.0017 21.2781 11.4364 21.8957 10.8172C21.937 10.776 21.9671 10.7249 21.9831 10.6687C21.9991 10.6126 22.0006 10.5533 21.9873 10.4965C21.827 9.8128 20.3817 3.82195 18.558 3.07458ZM13.55 6.30737C13.5404 6.31103 13.5317 6.31241 13.5225 6.31562V5.00967C13.6659 4.97093 13.8174 4.97379 13.9592 5.01792C13.994 5.04312 14.005 5.1256 14.0105 5.15951C14.0485 5.37475 14.0254 5.59631 13.9441 5.79915C13.8627 6.00199 13.7262 6.17803 13.55 6.30737ZM7.97295 5.15951C7.97707 5.12514 7.9899 5.04312 8.02427 5.01792C8.16594 4.9738 8.31726 4.97094 8.4605 5.00967V6.31562C8.45133 6.31241 8.44309 6.31103 8.43346 6.30737C8.25729 6.17803 8.1208 6.00199 8.03942 5.79915C7.95804 5.59631 7.93501 5.37475 7.97295 5.15951ZM10.9867 8.20672C10.503 8.21014 10.0377 8.02153 9.69285 7.68229C9.34803 7.34305 9.15186 6.88088 9.14738 6.39718V4.869C9.23209 4.78084 9.31194 4.68814 9.38657 4.59131C9.52518 4.41161 9.649 4.22097 9.75682 4.02128C10.09 4.17274 10.4433 4.27551 10.8057 4.32646C11.1151 4.39042 11.4346 4.38758 11.7428 4.31812C12.0509 4.24865 12.3408 4.11417 12.5928 3.92368C12.7045 4.19274 12.7861 4.47336 12.8361 4.7604V6.39535C12.8338 6.63578 12.7842 6.87341 12.6899 7.09463C12.5957 7.31585 12.4588 7.51632 12.287 7.68456C12.1153 7.85281 11.912 7.98553 11.6889 8.07512C11.4657 8.16472 11.2271 8.20944 10.9867 8.20672Z" fill="black"/>
</svg>
