<svg width="21" height="22" viewBox="0 0 21 22" fill="none" xmlns="http://www.w3.org/2000/svg">
<path d="M7.98662 5.64209L7.40039 6.08171L7.92754 6.7846C8.03265 6.926 8.08358 7.10039 8.07109 7.27614C8.05859 7.45188 7.98349 7.61731 7.85943 7.74241L7.80075 7.80111L8.319 8.31913L8.37763 8.26048C8.62572 8.01028 8.77588 7.67943 8.80086 7.32797C8.82583 6.97651 8.72397 6.62775 8.51376 6.34498L7.98662 5.64209Z" fill="black" fill-opacity="0.4"/>
<path d="M8.53223 6.33643L9.26484 5.60381L9.78289 6.12186L9.05027 6.85447L8.53223 6.33643Z" fill="black" fill-opacity="0.4"/>
<path d="M6.11328 6.57202L6.34483 5.87665L7.44429 6.24276L7.21275 6.93812L6.11328 6.57202Z" fill="black" fill-opacity="0.4"/>
<path d="M19.0783 17.8575L18.3185 17.3826V9.19552L18.8246 6.66497C18.9027 6.27095 18.8494 5.86219 18.6729 5.50135C18.4965 5.14051 18.2065 4.84751 17.8475 4.66727L16.9559 4.22145C16.5869 4.03552 16.1657 3.98034 15.7612 4.06494C15.3567 4.14954 14.9929 4.36892 14.7294 4.68717L14.4224 5.05557C14.148 5.38476 13.9977 5.79974 13.9977 6.22828C13.9977 6.65683 14.148 7.07181 14.4224 7.40099L15.3649 8.53197L14.1569 15.7799L12.7008 14.1159C12.4984 13.8837 12.2405 13.7065 11.9512 13.6007C11.6618 13.495 11.3504 13.4641 11.046 13.511L8.79287 11.9017V10.3806C9.44061 10.124 9.99642 9.67884 10.3883 9.10279C10.7802 8.52674 10.9902 7.84631 10.9911 7.14959V2.56458H10.9891C11.4667 1.93132 11.7246 1.15954 11.7238 0.366369C11.7238 0.269202 11.6852 0.176015 11.6165 0.107308C11.5478 0.0386007 11.4546 9.71653e-07 11.3574 0H5.86191C4.79345 0.0012069 3.76909 0.426189 3.01356 1.18171C2.25804 1.93723 1.83306 2.96159 1.83185 4.03006V8.94462C1.83318 9.42936 1.73834 9.90955 1.55283 10.3574C1.36733 10.8052 1.09483 11.2118 0.751129 11.5536C0.512247 11.7912 0.322861 12.0739 0.193932 12.3851C0.0650022 12.6964 -0.000910151 13.0302 9.49233e-06 13.3671V13.5557C0.000826796 14.138 0.19951 14.7028 0.563475 15.1574C0.927441 15.612 1.43508 15.9294 2.00314 16.0576L1.78758 16.4887C1.32701 17.4065 1.23558 18.4659 1.53208 19.449L2.21365 21.721C2.2363 21.7965 2.28267 21.8627 2.34589 21.9097C2.40911 21.9567 2.4858 21.9821 2.56459 21.9821H14.0688C14.7837 21.9824 15.4858 21.7922 16.1029 21.4312L17.0072 21.8188C17.5262 22.0412 18.1101 22.0595 18.6421 21.8701C19.1741 21.6807 19.615 21.2974 19.8767 20.797C20.1383 20.2965 20.2014 19.7158 20.0534 19.1708C19.9054 18.6258 19.5571 18.1568 19.0783 17.8575ZM12.1494 14.5984L13.9912 16.7033C13.9661 16.762 13.9261 16.8132 13.8752 16.8519C13.8243 16.8905 13.7642 16.9152 13.7009 16.9236L12.1684 17.1151L12.7497 16.34L12.1634 15.9004L11.276 17.0837L10.7386 16.7117L11.3188 15.5513L10.6634 15.2237L10.13 16.2904L9.5256 15.8719V15.6211C9.52545 15.4059 9.5885 15.1955 9.70693 15.0159C9.82536 14.8363 9.99395 14.6954 10.1917 14.6108L10.8893 14.3119C11.1026 14.22 11.3396 14.1982 11.5661 14.2497C11.7925 14.3012 11.9968 14.4233 12.1494 14.5984ZM9.82238 21.1546L9.83591 21.2494H9.63652L9.12303 20.9071C9.02094 19.5719 9.31242 18.2361 9.96142 17.0648L10.8061 17.6496C10.409 18.1342 10.1165 18.6959 9.94721 19.2991C9.7779 19.9024 9.7354 20.5341 9.82238 21.1546ZM5.12918 9.67398C5.77272 10.2863 6.62766 10.6269 7.51599 10.6247C7.69821 10.6246 7.88015 10.6103 8.06013 10.5818V11.9792L7.5502 12.7442L5.12918 11.8363V9.67398ZM9.43262 9.10841L7.44327 8.44529L7.21151 9.14042L8.68255 9.63077C8.17207 9.87121 7.5998 9.94818 7.04393 9.85116C6.48807 9.75415 5.97571 9.48788 5.57685 9.08874L5.12918 8.64108V6.96101C5.13005 6.18394 5.43913 5.43895 5.9886 4.88948C6.53807 4.34001 7.28306 4.03094 8.06013 4.03006C8.85329 4.03088 9.62508 3.77291 10.2583 3.29533V7.14958C10.2585 7.51468 10.1855 7.87611 10.0437 8.21254C9.90186 8.54897 9.69409 8.85359 9.43262 9.10841ZM0.732747 13.5557V13.3671C0.732084 13.1264 0.779164 12.888 0.871261 12.6657C0.963358 12.4433 1.09864 12.2415 1.26929 12.0718C1.68124 11.6621 2.00784 11.1747 2.23018 10.6379C2.45252 10.1012 2.56618 9.52562 2.56459 8.94462V4.03006C2.56558 3.15586 2.91329 2.31774 3.53144 1.69959C4.1496 1.08143 4.98771 0.733723 5.86191 0.732738H10.9683C10.8781 1.44067 10.5332 2.09151 9.99791 2.56353C9.46266 3.03554 8.77378 3.2964 8.06013 3.29732C7.08879 3.29842 6.15756 3.68476 5.47072 4.3716C4.78388 5.05844 4.39753 5.98968 4.39644 6.96101V13.5557C4.39644 14.0415 4.20344 14.5074 3.8599 14.851C3.51636 15.1945 3.05043 15.3875 2.56459 15.3875C2.07876 15.3875 1.61282 15.1945 1.26928 14.851C0.925745 14.5074 0.732747 14.0415 0.732747 13.5557ZM2.23391 19.2385C1.99132 18.4341 2.06613 17.5673 2.44295 16.8164L2.7965 16.1093C3.43355 16.0507 4.0258 15.7564 4.45727 15.2841C4.88873 14.8118 5.12834 14.1954 5.12918 13.5557V12.6188L7.56514 13.5323C7.64256 13.5614 7.72754 13.5634 7.80625 13.538C7.88496 13.5126 7.95275 13.4613 7.99859 13.3925L8.52145 12.6082L10.2026 13.809L9.90311 13.9374C9.61187 14.062 9.358 14.2602 9.16637 14.5125C8.97474 14.7647 8.85192 15.0624 8.80995 15.3765L6.80319 13.9872L6.38611 14.5896L9.35444 16.6446C8.69905 17.7883 8.35845 19.0852 8.36733 20.4033L4.23329 17.6473L3.82685 18.2569L8.31558 21.2494H2.83718L2.23391 19.2385ZM10.5761 21.2494L10.5478 21.051C10.4692 20.4909 10.5167 19.9203 10.6868 19.3809C10.857 18.8415 11.1454 18.3469 11.5312 17.9332L13.7918 17.6506C14.0263 17.6202 14.2449 17.5155 14.4155 17.3517C14.5861 17.1879 14.6997 16.9738 14.7396 16.7407L16.1153 8.48673C16.1239 8.43473 16.1213 8.38148 16.1075 8.3306C16.0937 8.27973 16.0691 8.23243 16.0353 8.19194L14.9853 6.93192C14.8206 6.7344 14.7305 6.48541 14.7305 6.22828C14.7305 5.97116 14.8206 5.72217 14.9853 5.52465L15.2922 5.15627C15.4504 4.96534 15.6687 4.83372 15.9113 4.78296C16.154 4.7322 16.4067 4.76529 16.6282 4.87682L17.5198 5.32264C17.7352 5.43077 17.9092 5.60657 18.0151 5.82308C18.121 6.03959 18.1529 6.28486 18.1061 6.52128L17.5928 9.08738C17.5881 9.11104 17.5857 9.1351 17.5857 9.15923V17.6959C17.5855 18.483 17.304 19.2441 16.7919 19.8418L16.5723 20.0979C16.2629 20.4593 15.8789 20.7493 15.4468 20.9481C15.0146 21.1469 14.5445 21.2497 14.0688 21.2494H10.5761ZM18.9571 20.8253C18.7444 21.0394 18.4721 21.1845 18.1758 21.2415C17.8795 21.2986 17.5728 21.2651 17.2958 21.1453L16.7869 20.9272C16.9079 20.8168 17.022 20.6991 17.1287 20.5748L17.3482 20.3186C17.856 19.7259 18.1808 18.9985 18.2834 18.2248L18.6899 18.4789C18.8824 18.5992 19.0452 18.7614 19.1663 18.9534C19.2874 19.1453 19.3637 19.3622 19.3893 19.5877C19.415 19.8132 19.3895 20.0416 19.3147 20.2559C19.2398 20.4702 19.1176 20.6648 18.9571 20.8253Z" fill="black"/>
</svg>
