<svg width="19" height="23" viewBox="0 0 19 23" fill="none" xmlns="http://www.w3.org/2000/svg">
<path d="M15.4636 11.4678C15.8757 10.4285 15.9414 9.20646 15.0189 8.55774C15.0656 8.17493 15.7589 7.19178 15.0592 6.04101C14.8969 5.77397 14.6688 4.90699 14.6702 3.81559C14.6713 2.92557 14.8222 1.63802 15.5346 0.558409C15.6441 0.392413 15.5984 0.169074 15.4324 0.0595203C15.2664 -0.0498986 15.0431 -0.00421364 14.9335 0.161738C14.123 1.39015 13.9513 2.82623 13.9501 3.81465C13.9488 4.8654 14.1519 5.93479 14.444 6.41513C14.9468 7.24219 14.375 7.89344 14.3065 8.48203C14.1364 8.57174 13.8147 8.69394 13.1165 8.69394C12.9176 8.69394 12.7564 8.85516 12.7564 9.05402C12.7564 9.25287 12.9176 9.4141 13.1165 9.4141C13.9278 9.4141 14.3556 9.26421 14.5979 9.14273C15.4807 9.75505 14.7427 11.3248 14.7354 11.3401C14.5612 11.7006 14.9941 11.7637 15.4614 13.2043C15.2774 13.2244 12.8154 13.6819 9.38312 13.6792C5.86858 13.6764 3.44044 13.2151 3.3051 13.2043C3.45377 12.746 3.64815 12.3082 3.88854 11.8931C4.70481 12.0252 5.5957 12.1064 5.68067 12.1064C5.86633 12.1064 6.02386 11.9638 6.03916 11.7755C6.05523 11.5773 5.9076 11.4035 5.70939 11.3875C4.92634 11.3239 4.27048 11.2257 3.96204 11.1752C3.79812 10.7516 3.45264 9.626 4.17826 9.13553C4.63207 8.82888 4.44808 8.32468 4.31378 7.95654C4.15062 7.50923 3.96564 7.00233 4.3226 6.41518C4.6147 5.93479 4.81773 4.8654 4.81643 3.81469C4.81521 2.82628 4.6436 1.39019 3.833 0.161783C3.72345 -0.00421364 3.50012 -0.0498536 3.33418 0.0595653C3.16819 0.169119 3.12242 0.392458 3.23197 0.558454C3.94435 1.63806 4.09522 2.92561 4.09634 3.81564C4.09774 4.90703 3.86968 5.77406 3.70734 6.04106C3.0076 7.19196 3.7009 8.1748 3.74767 8.55778C2.8295 9.20278 2.88752 10.4202 3.30299 11.4678C1.93101 13.7835 1.99861 16.4714 2.79597 19.0196C3.48356 21.2169 4.54179 22.7779 4.58653 22.8432C4.65363 22.9414 4.76485 23 4.88371 23H13.8828C14.0017 23 14.1129 22.9413 14.18 22.8432C14.2248 22.7779 15.2829 21.2169 15.9706 19.0196C16.7751 16.4485 16.8258 13.7671 15.4636 11.4678ZM9.02319 22.2798H5.0795C3.95943 20.4989 3.064 18.1451 2.95881 15.9905C4.54462 16.4032 7.48275 17.3742 9.02319 19.184V22.2798ZM13.687 22.2798H9.74332V19.184C11.2838 17.3742 14.2219 16.4032 15.8077 15.9905C15.7026 18.1438 14.8079 20.4975 13.687 22.2798ZM9.38325 18.506C7.82809 16.8401 5.17055 15.7996 2.95368 15.2458C2.9711 14.7614 3.02677 14.3273 3.11756 13.9041C3.41051 13.9275 5.80543 14.4142 9.38312 14.4119C12.8693 14.4096 15.4072 13.931 15.649 13.9041C15.7406 14.3311 15.7956 14.7655 15.8129 15.2458C13.5947 15.7999 10.938 16.8406 9.38325 18.506Z" fill="black"/>
<path d="M0.554592 5.50837L1.49989 6.06806L1.15437 6.25922C0.830491 6.43832 0.957549 6.93446 1.32895 6.93446C1.4904 6.93446 1.50723 6.87063 2.39033 6.39848C2.51321 6.33052 2.60043 6.18185 2.57626 6.02242L2.5786 5.06948C2.5791 4.87062 2.41828 4.70899 2.21944 4.7085C2.02073 4.708 1.85897 4.86873 1.85847 5.06768L1.85757 5.44292L0.921497 4.88872C0.750332 4.78735 0.529522 4.84398 0.428254 5.01515C0.326896 5.18623 0.383472 5.40705 0.554592 5.50837Z" fill="black"/>
<path d="M2.01242 9.86886L1.12499 9.37798C0.951038 9.28162 0.731939 9.34481 0.635622 9.51877C0.53935 9.69278 0.602406 9.91189 0.776407 10.0081L1.12193 10.1993L0.176675 10.7589C0.0055549 10.8602 -0.0510201 11.0811 0.0502929 11.2522C0.151921 11.4239 0.37291 11.4796 0.543536 11.3786L1.47961 10.8244L1.48051 11.1997C1.48101 11.3982 1.64209 11.5588 1.84058 11.5588C2.03965 11.5588 2.20113 11.3973 2.20064 11.1979L2.1983 10.2449C2.22256 10.0854 2.13547 9.93691 2.01242 9.86886Z" fill="black"/>
<path d="M16.3794 6.3984L17.2668 6.88928C17.4407 6.98565 17.6598 6.9225 17.7562 6.74849C17.8524 6.57448 17.7894 6.35537 17.6154 6.25914L17.2698 6.06799L18.2151 5.50829C18.3863 5.40697 18.4428 5.18615 18.3415 5.01503C18.2403 4.84385 18.0193 4.78723 17.8483 4.88859L16.9122 5.4428L16.9113 5.06755C16.9108 4.86897 16.7497 4.70837 16.5512 4.70837C16.3522 4.70837 16.1907 4.86996 16.1912 5.06935L16.1935 6.0223C16.1693 6.18164 16.2564 6.33039 16.3794 6.3984Z" fill="black"/>
<path d="M18.5921 10.7589L17.6468 10.1992L17.9923 10.008C18.1663 9.91182 18.2294 9.69271 18.1331 9.5187C18.0368 9.34469 17.8178 9.28173 17.6437 9.37791L16.7563 9.86879C16.6355 9.93563 16.5461 10.0847 16.5704 10.2448L16.5681 11.1977C16.5676 11.3966 16.7284 11.5582 16.9272 11.5587C17.1298 11.5587 17.2877 11.3952 17.2882 11.1995L17.2891 10.8243L18.2252 11.3785C18.3956 11.4794 18.6167 11.424 18.7184 11.2521C18.8198 11.081 18.7631 10.8602 18.5921 10.7589Z" fill="black"/>
<path d="M9.38542 12.2484C9.67131 12.2484 9.84599 11.9274 9.68472 11.6885C9.5785 11.5272 9.35207 11.4767 9.18558 11.589C8.89173 11.7825 9.02783 12.2484 9.38542 12.2484Z" fill="black"/>
</svg>
