<svg width="19" height="22" viewBox="0 0 19 22" fill="none" xmlns="http://www.w3.org/2000/svg">
<path d="M17.1569 8.7483C16.1607 6.51936 16.1425 2.79861 16.5464 0.424695C16.5841 0.203119 16.4133 0 16.1879 0H1.97437C1.75007 0 1.578 0.201983 1.61582 0.424695C2.02074 2.80607 2.00433 6.51304 1.00528 8.74835C-0.863884 12.9307 0.0948854 17.6367 2.07057 21.7924C2.13085 21.9192 2.25869 22 2.39902 22H8.07467C8.27552 22 8.43836 21.8371 8.43836 21.6363C8.4665 14.5275 8.36976 14.7369 8.51569 14.4678C8.83723 13.8737 9.7239 14.1196 9.7239 14.7731V21.6363C9.7239 21.8372 9.88674 22 10.0876 22H15.7632C15.9036 22 16.0314 21.9193 16.0917 21.7925C18.074 17.6228 19.0209 12.9327 17.1569 8.7483ZM16.7834 9.76699C14.4651 10.7085 11.8622 12.094 10.0368 13.7911C9.50942 13.2775 8.65912 13.2713 8.12554 13.7911C6.29965 12.0937 3.69602 10.7081 1.37884 9.76699C1.66374 8.97611 1.77421 8.91719 2.03911 8.04975L2.98933 7.9301C3.18863 7.905 3.32983 7.72307 3.30474 7.52377C3.2796 7.32451 3.09744 7.18304 2.89846 7.20836L2.23927 7.29137C2.28992 7.06721 2.33515 6.83604 2.37488 6.59796C3.43667 6.49808 8.59402 5.64674 15.7874 6.59819C15.8272 6.83617 15.8723 7.0673 15.923 7.29142C15.1422 7.22241 11.5297 6.56023 6.49227 6.85545C6.29174 6.86722 6.13877 7.03929 6.1505 7.23977C6.16223 7.4403 6.3342 7.59292 6.53487 7.58159C11.5849 7.28565 15.1554 7.96265 16.1232 8.0498C16.3817 8.89637 16.5085 9.00397 16.7834 9.76699ZM15.7672 0.727373C15.558 2.31377 15.4967 4.20672 15.6832 5.85067C8.39408 4.88663 2.59741 5.84304 2.47912 5.8504C2.66365 4.22349 2.60696 2.3346 2.39511 0.727373H15.7672ZM2.62992 21.2726C1.05193 17.8784 0.141528 14.0319 1.15567 10.4613C4.88882 11.9802 6.93879 13.6653 7.75231 14.4394C7.7364 14.5026 7.72476 14.5676 7.71803 14.634C7.56315 14.8127 7.14509 15.2533 6.50841 15.6139C5.42599 16.2269 4.27019 16.307 3.07307 15.8521C2.88536 15.7808 2.67529 15.8752 2.60391 16.0629C2.53254 16.2507 2.62692 16.4607 2.81467 16.5321C4.59896 17.21 6.33248 16.8252 7.71099 15.6559V21.2727H2.62992V21.2726ZM15.5323 21.2726H10.4513V15.6464C11.8185 16.8123 13.5553 17.2173 15.3585 16.532C15.5463 16.4607 15.6407 16.2506 15.5693 16.0629C15.498 15.875 15.2878 15.7808 15.1002 15.8521C13.9119 16.3037 12.7639 16.2279 11.6879 15.6268C11.0249 15.2565 10.5888 14.7888 10.4423 14.6183C10.4354 14.5574 10.4246 14.4976 10.41 14.4394C11.2235 13.6653 13.2735 11.9802 17.0065 10.4613C18.0205 14.0309 17.111 17.877 15.5323 21.2726Z" fill="black"/>
<path d="M4.9087 7.11045C4.62988 6.83164 4.16486 7.13736 4.31543 7.50691C4.41458 7.74436 4.72294 7.80923 4.9087 7.62466C5.05067 7.47859 5.05035 7.25615 4.9087 7.11045Z" fill="black"/>
</svg>
