<svg width="21" height="22" viewBox="0 0 21 22" fill="none" xmlns="http://www.w3.org/2000/svg">
<path d="M2.48309 17.0303C2.3341 17.0303 2.19576 16.9345 2.1461 16.7856C2.05742 16.5195 0 10.1983 0 7.80748C0 5.57272 1.52178 4.02612 4.51922 3.21026C5.56212 2.92648 6.17935 2.67817 6.58374 2.3873C6.91009 2.15318 7.10164 1.76298 7.10164 1.34796L7.09454 0.361822C7.09454 0.166724 7.25062 0.00709795 7.44572 0.00355071C7.64082 0.00355071 7.80045 0.159629 7.80045 0.354728L7.80754 1.34441C7.80754 1.98646 7.50248 2.58949 6.99522 2.9584C6.51989 3.30249 5.83171 3.58272 4.70013 3.89133C2.05032 4.61496 0.705907 5.93099 0.705907 7.80748C0.705907 10.0848 2.79525 16.5018 2.81653 16.5656C2.87684 16.7501 2.77751 16.9523 2.58951 17.0126C2.55404 17.0232 2.51502 17.0303 2.47954 17.0303H2.48309Z" fill="black"/>
<path d="M4.6187 21.9965C4.59032 21.9965 4.5584 21.9929 4.53002 21.9858C4.33847 21.9361 4.22496 21.7411 4.27462 21.553C4.47681 20.7762 4.6187 18.3854 4.6187 17.385C4.6187 16.1116 4.45553 14.9091 4.32428 13.9407L4.26752 13.5292C4.24269 13.3341 4.37749 13.1567 4.57259 13.1319C4.76769 13.1071 4.94505 13.2419 4.96988 13.437L5.02664 13.8484C5.16143 14.8381 5.32816 16.0655 5.32816 17.3886C5.32816 18.396 5.18627 20.8755 4.96279 21.734C4.92022 21.8936 4.77833 22 4.6187 22V21.9965Z" fill="black"/>
<path d="M15.9697 21.9965C15.8136 21.9965 15.6681 21.89 15.6256 21.7304C15.4021 20.872 15.2602 18.3925 15.2602 17.385C15.2602 16.0619 15.4269 14.831 15.5653 13.8413L15.622 13.437C15.6468 13.2419 15.8278 13.1071 16.0193 13.1319C16.2144 13.1567 16.3492 13.3376 16.3244 13.5292L16.2676 13.9371C16.1364 14.9055 15.9697 16.108 15.9697 17.385C15.9697 18.3854 16.1115 20.7762 16.3137 21.553C16.3634 21.7411 16.2499 21.9361 16.0583 21.9858C16.03 21.9929 15.998 21.9965 15.9697 21.9965Z" fill="black"/>
<path d="M18.1051 17.0303C18.0696 17.0303 18.0306 17.0232 17.9951 17.0126C17.8071 16.9523 17.7078 16.7501 17.7681 16.5656C17.7894 16.5018 19.8787 10.0848 19.8787 7.80748C19.8787 5.93453 18.5343 4.61496 15.8845 3.89132C14.7529 3.58271 14.0683 3.30248 13.5894 2.9584C13.0822 2.58949 12.7771 1.98646 12.7771 1.3444L12.7842 0.351177C12.7842 0.156079 12.9545 0.0106417 13.1425 0C13.3376 0 13.4972 0.159626 13.4937 0.358271L13.4866 1.34795C13.4866 1.75943 13.6817 2.14963 14.0045 2.38375C14.4089 2.67462 15.0261 2.92293 16.069 3.20671C19.0664 4.02612 20.5882 5.57272 20.5882 7.80393C20.5882 10.1948 18.5308 16.516 18.4421 16.782C18.3924 16.931 18.2541 17.0268 18.1051 17.0268V17.0303Z" fill="black"/>
<path d="M10.2942 8.16222C10.1736 8.16222 10.0565 8.10191 9.98915 7.9884C9.02429 6.3815 7.06265 6.03032 7.04137 6.02678C6.84981 5.99485 6.71857 5.81039 6.75049 5.61884C6.78242 5.42729 6.96333 5.2925 7.15843 5.32797C7.25066 5.34216 9.46061 5.73235 10.5957 7.62303C10.6951 7.78975 10.6418 8.00968 10.4751 8.10901C10.4184 8.14448 10.3545 8.15867 10.2942 8.15867V8.16222Z" fill="black"/>
<path d="M10.2942 8.16222C10.2339 8.16222 10.1699 8.14448 10.1131 8.11256C9.94643 8.01323 9.88967 7.79331 9.99254 7.62659C11.1277 5.73591 13.3376 5.34571 13.4298 5.33152C13.6214 5.29605 13.8059 5.43084 13.8378 5.62239C13.8697 5.81394 13.7385 5.9984 13.5469 6.03033C13.5256 6.03033 11.564 6.38505 10.5991 7.99195C10.5317 8.10192 10.4147 8.16577 10.2941 8.16577L10.2942 8.16222Z" fill="black"/>
<path d="M10.2943 14.1925C4.77828 14.1925 4.48741 13.8697 4.36325 13.7349C4.34197 13.7136 4.32423 13.6853 4.31005 13.6604L2.89114 11.1809C2.79536 11.0106 2.85212 10.7943 3.02239 10.6985C3.19265 10.5992 3.40904 10.6595 3.50481 10.8297L4.87761 13.2312C5.10818 13.2986 6.1298 13.4902 10.2907 13.4902C10.4858 13.4902 10.6455 13.6498 10.6455 13.8449C10.6455 14.04 10.4858 14.1996 10.2907 14.1996L10.2943 14.1925ZM4.96629 13.405C4.97338 13.4405 4.97693 13.4795 4.97338 13.5185C4.97693 13.476 4.97338 13.4405 4.96629 13.405Z" fill="black"/>
<path d="M4.97311 7.45276C4.77801 7.45276 4.61838 7.29313 4.61838 7.09803V3.55079C4.61838 3.35569 4.77801 3.19607 4.97311 3.19607C5.16821 3.19607 5.32784 3.35569 5.32784 3.55079V7.09803C5.32784 7.29313 5.16821 7.45276 4.97311 7.45276Z" fill="black"/>
<path d="M14.5507 12.7736C13.8945 12.7736 13.2418 12.6104 12.5501 12.4331C11.8264 12.2522 11.078 12.0642 10.294 12.0642C9.51007 12.0642 8.76159 12.2522 8.03795 12.4331C7.34623 12.6069 6.69354 12.7736 6.03729 12.7736C4.32751 12.7736 2.49002 11.7733 2.49002 9.5811C2.49002 7.67269 3.30234 6.74331 4.97311 6.74331C5.98408 6.74331 6.44523 7.1406 6.98441 7.60174C7.09083 7.69042 7.2008 7.7862 7.3214 7.88552C8.0415 8.46017 8.99572 9.22638 10.294 9.22638C11.5923 9.22638 12.5465 8.46017 13.2453 7.90326C13.3872 7.78975 13.4972 7.69397 13.6036 7.60529C14.1428 7.14415 14.6075 6.74686 15.6149 6.74686C17.2857 6.74686 18.098 7.67623 18.098 9.58465C18.098 11.7768 16.2605 12.7772 14.5507 12.7772V12.7736ZM10.294 11.3547C11.1666 11.3547 11.9577 11.5534 12.7239 11.7485C13.373 11.9116 13.9832 12.0642 14.5507 12.0642C15.6043 12.0642 17.3886 11.5427 17.3886 9.5811C17.3886 7.61948 16.5372 7.45276 15.6149 7.45276C14.8664 7.45276 14.5649 7.71171 14.0648 8.14092C13.9548 8.2367 13.8377 8.33602 13.71 8.43889C12.9509 9.04547 11.8406 9.93583 10.2976 9.93583C8.7545 9.93583 7.64066 9.04547 6.90282 8.45663C6.75384 8.33957 6.63678 8.2367 6.52681 8.14092C6.02665 7.71171 5.72513 7.45276 4.97666 7.45276C4.05437 7.45276 3.20302 7.71171 3.20302 9.5811C3.20302 11.4505 4.9873 12.0642 6.04084 12.0642C6.6084 12.0642 7.22208 11.9116 7.86768 11.7485C8.63389 11.5569 9.42493 11.3547 10.2976 11.3547H10.294Z" fill="black"/>
<path d="M10.2943 14.1925C10.0992 14.1925 9.93929 14.0329 9.93929 13.8378C9.93929 13.6427 10.0989 13.4831 10.294 13.4831C14.455 13.4831 15.4801 13.2915 15.7072 13.2241L17.0799 10.8226C17.1757 10.6524 17.3921 10.5921 17.5624 10.6914C17.7326 10.7872 17.7929 11.0035 17.6936 11.1738L16.2747 13.6569C16.2605 13.6853 16.2428 13.7101 16.2215 13.7314C16.0974 13.8697 15.8065 14.189 10.2905 14.189L10.2943 14.1925ZM15.622 13.4015C15.6149 13.4334 15.6114 13.4724 15.6149 13.515C15.6114 13.476 15.6149 13.4405 15.622 13.4015Z" fill="black"/>
<path d="M15.6149 7.45276C15.4198 7.45276 15.2602 7.29313 15.2602 7.09803V3.55079C15.2602 3.35569 15.4198 3.19607 15.6149 3.19607C15.81 3.19607 15.9697 3.35569 15.9697 3.55079V7.09803C15.9697 7.29313 15.81 7.45276 15.6149 7.45276Z" fill="black"/>
<path d="M10.294 20.2228C10.4899 20.2228 10.6487 20.064 10.6487 19.8681C10.6487 19.6722 10.4899 19.5134 10.294 19.5134C10.0981 19.5134 9.93929 19.6722 9.93929 19.8681C9.93929 20.064 10.0981 20.2228 10.294 20.2228Z" fill="black"/>
</svg>
