<svg width="19" height="22" viewBox="0 0 19 22" fill="none" xmlns="http://www.w3.org/2000/svg">
<path d="M4.79961 22H0.214844C0.0945313 22 0 21.9055 0 21.7852V20.7626C0 20.6895 0.0386718 20.6208 0.0988281 20.5821C1.5168 19.6668 3.05078 18.4165 3.05078 17.9911C3.05078 17.6946 2.95625 17.0629 2.84453 16.3325C2.65977 15.125 2.43203 13.6211 2.43203 12.4094C2.43203 10.7422 2.95625 9.64224 3.09805 9.38013L3.01211 7.99653C2.85312 7.80747 2.43203 7.2231 2.43203 6.28638C2.43203 4.70513 3.41172 0.348096 3.45469 0.16333L3.87578 0.257861C3.86719 0.30083 2.86172 4.75669 2.86172 6.28638C2.86172 7.22739 3.35156 7.73442 3.37305 7.75591C3.40742 7.79458 3.4332 7.84185 3.4332 7.89341L3.52773 9.4102C3.53203 9.45317 3.51914 9.49614 3.49766 9.53052C3.49336 9.53911 2.86172 10.6477 2.86172 12.4051C2.86172 13.5825 3.08516 15.0692 3.26992 16.2637C3.38594 17.0415 3.48047 17.6559 3.48047 17.9868C3.48047 18.2489 3.31289 18.7258 1.87344 19.843C1.27187 20.3114 0.666016 20.7196 0.429688 20.8743V21.5704H4.79961C5.01875 21.5704 5.2293 21.4715 5.37109 21.304C5.51289 21.1364 5.56875 20.9129 5.53008 20.6981C5.43125 20.1653 5.27656 19.7743 5.13906 19.4305C4.96719 19.0008 4.8168 18.627 4.88555 18.1844C4.91563 17.9911 4.9457 17.7247 4.98008 17.4153C5.15195 15.9329 5.31953 14.6782 5.68906 14.3129C6.0457 13.9563 6.44961 12.0829 5.9168 9.91294C5.9082 9.86997 5.9082 9.82271 5.92539 9.78403L7.2875 6.32505C7.2918 6.32075 7.2918 6.31216 7.29609 6.30786C7.30469 6.28638 8.36172 4.10356 8.7957 0.189111L9.22109 0.236377C8.78711 4.14653 7.76445 6.31216 7.68281 6.48833L6.35078 9.87856C6.8707 12.0743 6.49687 14.111 5.99414 14.618C5.70625 14.9059 5.51289 16.5731 5.40977 17.4668C5.37539 17.7805 5.34102 18.0512 5.31094 18.2532C5.25938 18.584 5.37969 18.8719 5.53867 19.2758C5.67617 19.6196 5.84805 20.0493 5.95547 20.625C6.01992 20.9688 5.92539 21.3168 5.70195 21.5833C5.47422 21.8454 5.14766 22 4.79961 22Z" fill="black"/>
<path d="M5.4877 8.52497C5.41895 8.52497 5.3502 8.51208 5.28574 8.4906C4.70137 8.28435 4.28457 7.84607 4.03965 7.18435L3.39082 8.04373C3.35215 8.09529 3.29629 8.12537 3.23613 8.12966C3.17598 8.13396 3.11152 8.11248 3.06855 8.06951C3.04277 8.04373 2.43262 7.42068 2.43262 6.2949C2.43262 4.71365 3.4123 0.356616 3.45527 0.171851C3.47676 0.0730225 3.5627 0.00427246 3.66582 0.00427246H8.03144C8.0916 0.00427246 8.15176 0.0300537 8.19473 0.0773193C8.2377 0.124585 8.25488 0.184741 8.24629 0.249194C8.24199 0.266382 7.99277 2.08396 7.58457 3.97888C7.34395 5.09607 7.09473 6.0199 6.84551 6.72458C6.51895 7.6613 6.18809 8.2156 5.84004 8.42615C5.72402 8.4906 5.60371 8.52497 5.4877 8.52497ZM4.12559 6.50115C4.13848 6.50115 4.15566 6.50115 4.16855 6.50544C4.2502 6.52263 4.31465 6.58708 4.33184 6.66873C4.50371 7.41208 4.87324 7.88904 5.42324 8.08669C5.46191 8.09958 5.51777 8.10818 5.60801 8.05662C5.88301 7.88904 6.45449 7.1199 7.15488 3.88435C7.47715 2.41052 7.69629 0.98396 7.77793 0.429663H3.8334C3.64863 1.25896 2.85801 4.92849 2.85801 6.2906C2.85801 6.90076 3.06426 7.32615 3.21465 7.55818L3.95371 6.58279C3.99668 6.53123 4.06113 6.50115 4.12559 6.50115Z" fill="black"/>
<path d="M3.8416 10.4156C3.80293 10.4156 3.77285 10.4113 3.74277 10.407C3.39902 10.3468 3.1627 9.99878 3.10254 9.45737L3.52793 9.40581C3.5709 9.77964 3.7041 9.9644 3.81582 9.98159C3.95762 10.0074 4.20684 9.81401 4.44316 9.33276L4.82988 9.52183C4.46465 10.2695 4.08223 10.4156 3.8416 10.4156Z" fill="black"/>
<path d="M5.71582 14.2909L5.96891 14.6381L4.77111 15.5112L4.51802 15.164L5.71582 14.2909Z" fill="black"/>
<path d="M3.68242 22H2.40625C2.28594 22 2.19141 21.9054 2.19141 21.7851V21.0589C2.19141 21.0031 2.21289 20.9472 2.25586 20.9085L2.98203 20.1824L3.28711 20.4875L2.62109 21.1492V21.5703H3.54492L3.82422 20.9687L4.21523 21.1492L3.87578 21.8753C3.84141 21.9527 3.76836 22 3.68242 22Z" fill="black"/>
<path d="M1.33203 21.0547H1.76172V21.7852H1.33203V21.0547Z" fill="black"/>
<path d="M0.601562 21.0547H1.03125V21.7852H0.601562V21.0547Z" fill="black"/>
<path d="M18.2617 22H13.677C13.3289 22 13.0023 21.8454 12.7789 21.579C12.5555 21.3125 12.4652 20.9645 12.5254 20.6208C12.6285 20.045 12.8047 19.6153 12.9422 19.2715C13.1055 18.8676 13.2215 18.5797 13.1699 18.2489C13.1398 18.0469 13.1098 17.7762 13.0711 17.4625C12.968 16.5688 12.7789 14.9059 12.4867 14.6137C11.984 14.111 11.6102 12.07 12.1301 9.87427L10.798 6.48403C10.7121 6.31216 9.69375 4.14224 9.25977 0.23208L9.68516 0.184814C10.1191 4.10356 11.1762 6.28208 11.1848 6.30356C11.1891 6.30786 11.1891 6.31646 11.1934 6.32075L12.5555 9.77974C12.5727 9.82271 12.5727 9.86567 12.5641 9.90864C12.0312 12.0743 12.4352 13.952 12.7918 14.3086C13.157 14.6739 13.3289 15.9286 13.5008 17.411C13.5352 17.7204 13.5652 17.9868 13.5953 18.1801C13.6641 18.627 13.5137 18.9965 13.3418 19.4262C13.2043 19.77 13.0453 20.161 12.9508 20.6938C12.9121 20.9086 12.968 21.1321 13.1098 21.2997C13.2516 21.4672 13.4578 21.5661 13.6812 21.5661H18.0469V20.8743C17.8148 20.7196 17.2047 20.3114 16.6031 19.843C15.1637 18.7258 14.9961 18.2489 14.9961 17.9868C14.9961 17.6559 15.0906 17.0415 15.2066 16.2637C15.3871 15.0692 15.6148 13.5868 15.6148 12.4051C15.6148 10.6391 14.9832 9.54341 14.9789 9.53052C14.9574 9.49185 14.9488 9.44888 14.9488 9.4102L15.0434 7.89341C15.0477 7.84185 15.0691 7.79028 15.1078 7.75591C15.1293 7.73442 15.6191 7.22739 15.6191 6.28638C15.6191 4.75239 14.618 0.30083 14.6051 0.257861L15.0262 0.16333C15.0691 0.348096 16.0488 4.70942 16.0488 6.28638C16.0488 7.2231 15.6277 7.80747 15.4688 7.99653L15.3828 9.38013C15.5246 9.64224 16.0488 10.7465 16.0488 12.4094C16.0488 13.6211 15.8211 15.125 15.6363 16.3325C15.5246 17.0629 15.4301 17.6946 15.4301 17.9911C15.4301 18.4165 16.9641 19.6668 18.382 20.5821C18.4422 20.6208 18.4809 20.6895 18.4809 20.7626V21.7852C18.4766 21.9055 18.382 22 18.2617 22Z" fill="black"/>
<path d="M12.9895 8.525C12.8734 8.525 12.7574 8.49063 12.6457 8.42188C12.2977 8.21133 11.9711 7.65273 11.6402 6.72031C11.391 6.01133 11.1418 5.0875 10.9012 3.97461C10.493 2.08398 10.2395 0.262109 10.2395 0.244922C10.2309 0.184766 10.248 0.120313 10.291 0.0730469C10.3297 0.0257813 10.3898 0 10.4543 0H14.8199C14.9188 0 15.009 0.06875 15.0305 0.167578C15.0734 0.352344 16.0531 4.71367 16.0531 6.29062C16.0531 7.41641 15.443 8.03945 15.4172 8.06523C15.3742 8.1082 15.3141 8.13398 15.2496 8.12539C15.1895 8.12109 15.1293 8.09102 15.0949 8.03945L14.4461 7.18008C14.2012 7.8418 13.7844 8.28008 13.2043 8.48633C13.127 8.51641 13.0582 8.525 12.9895 8.525ZM10.6992 0.429688C10.7809 0.983984 11.0043 2.41484 11.3223 3.88438C12.0227 7.11992 12.5898 7.88906 12.8691 8.05664C12.9551 8.1082 13.0109 8.09961 13.0539 8.08672C13.6082 7.88906 13.9734 7.41211 14.1453 6.66875C14.1625 6.58711 14.227 6.52266 14.3086 6.50547C14.3902 6.48828 14.4762 6.51836 14.5234 6.58711L15.2625 7.5625C15.4129 7.33047 15.6191 6.90078 15.6191 6.29492C15.6191 4.93281 14.8285 1.26328 14.6437 0.433984H10.6992V0.429688Z" fill="black"/>
<path d="M14.6357 10.4157C14.3951 10.4157 14.017 10.2696 13.6475 9.52622L14.0342 9.33716C14.2705 9.81841 14.5197 10.0118 14.6615 9.98599C14.7732 9.9645 14.9064 9.77974 14.9494 9.4102L15.3748 9.46177C15.3104 10.0075 15.0783 10.3512 14.7346 10.4114C14.7045 10.4114 14.6701 10.4157 14.6357 10.4157Z" fill="black"/>
<path d="M12.7607 14.2909L13.9585 15.164L13.7055 15.5112L12.5077 14.6381L12.7607 14.2909Z" fill="black"/>
<path d="M16.0697 22H14.7936C14.7119 22 14.6346 21.9527 14.6002 21.8753L14.2607 21.1492L14.6518 20.9687L14.9311 21.5703H15.8549V21.1492L15.1932 20.4875L15.4982 20.1824L16.2244 20.9085C16.2631 20.9472 16.2889 21.0031 16.2889 21.0589V21.7851C16.2846 21.9054 16.19 22 16.0697 22Z" fill="black"/>
<path d="M16.7148 21.0547H17.1445V21.7852H16.7148V21.0547Z" fill="black"/>
<path d="M17.4453 21.0547H17.875V21.7852H17.4453V21.0547Z" fill="black"/>
</svg>
