<svg width="67" height="223" viewBox="0 0 67 223" fill="none" xmlns="http://www.w3.org/2000/svg">
<g id="Group">
<g id="Group_2">
<path id="Vector" d="M16.2437 117.727C15.4635 118.618 15.4038 120.895 15.1952 121.989C14.7036 124.566 14.4876 126.484 13.5451 128.849C13.2223 129.659 13.0403 130.503 12.6885 131.364C11.7494 133.664 10.5956 135.876 9.7048 138.175C7.9901 142.6 8.63264 146.135 8.85764 150.654C9.01287 153.773 9.34118 156.356 10.1144 159.304C10.9005 162.3 11.3887 164.285 10.4853 167.237C8.47419 173.807 10.3273 181.722 11.1411 188.274C11.1426 188.285 15.5767 210.892 15.5767 210.892C15.5767 210.892 14.3473 212.921 14.8938 214.169C15.3029 215.104 12.5461 218.863 11.991 219.779C10.2103 222.715 14.1063 222.022 15.8498 222.128C16.2959 222.155 16.9782 222.337 17.3493 222.288C18.383 222.151 17.9213 221.981 18.4757 221.539C18.8938 221.205 18.4432 220.553 19.2345 220.759C19.6346 220.863 19.7368 221.762 20.0476 222.011C20.7091 222.541 22.1355 222.969 22.6796 222.128C23.2909 221.182 22.3412 219.717 22.0311 218.847C21.2874 216.759 22.1912 215.043 21.7576 213.077C21.2546 210.795 21.3029 209.283 21.997 207.146L25.4122 185.766V181.084C24.8657 179.992 23.9095 176.246 23.9095 176.246C23.9095 176.246 25.8218 169.224 26.5049 168.443C28.3393 166.347 27.5332 163.542 27.2018 161.027C26.8371 158.259 28.0436 156.12 28.8639 153.574C29.6092 151.261 30.4663 149.048 30.4665 146.594C30.4666 143.004 32.3789 130.989 31.9691 129.584C31.5593 128.18 30.0567 122.717 30.0567 122.717C30.0567 122.717 32.7887 126.463 36.3403 122.717C38.0841 120.878 36.3479 115.775 35.5586 113.548C34.9662 111.878 34.4964 110.288 34.2876 108.511C34.1232 107.112 34.1865 105.604 33.6043 104.302C32.4161 101.646 28.9609 102.401 26.6379 102.43C23.9771 102.462 21.2937 103.017 18.7218 102.43C17.6806 102.191 16.9267 116.946 16.2437 117.727Z" fill="#E6BA9F"/>
<path id="Vector_2" d="M24.2393 163.449C24.2393 163.449 22.6499 168.948 21.2423 170.037C19.8346 171.127 21.0605 171.231 22.5591 170.245C22.5591 170.245 23.9669 169.104 24.2393 163.449Z" fill="#D8A88E"/>
<path id="Vector_3" d="M19.5891 171.907C19.5891 171.907 16.9253 183.378 18.1547 190.225C18.1547 190.225 18.9743 171.907 19.5891 171.907Z" fill="#D8A88E"/>
<path id="Vector_4" d="M22.4633 204.421C22.4961 204.848 22.1534 205.298 21.9818 205.67C21.8367 205.985 21.7366 206.299 21.6447 206.63C21.4692 207.264 21.2866 207.902 21.0894 208.532C20.8172 209.401 20.5456 210.393 20.5795 211.312C20.6116 212.181 20.9187 212.766 21.4792 213.42C21.693 213.669 21.7671 213.926 21.8024 214.239C21.9088 215.182 20.7807 215.677 20.9439 216.579C20.9745 216.748 21.592 218.097 21.7344 218.088C21.74 218.103 21.7458 218.118 21.7514 218.134C21.5423 216.753 21.6849 216.02 21.9685 214.741C22.1673 213.844 21.7981 212.956 21.6337 212.085C21.4709 211.222 21.6732 210.444 21.7107 209.583C21.7352 209.021 21.896 208.484 21.951 207.928C22.0552 206.876 22.3332 205.828 22.4349 204.774C22.4464 204.653 22.4505 204.541 22.4633 204.421Z" fill="#D8A88E"/>
<path id="Vector_5" d="M27.4422 162.929C27.4206 162.797 27.3997 162.666 27.3811 162.535C27.2167 161.373 27.1372 160.204 27.3106 159.042C27.6892 156.504 29.026 154.397 29.4991 151.925C29.6981 150.885 30.2085 149.861 30.2155 148.793C30.2406 149.927 29.3623 151.088 28.9335 152.081C28.4803 153.13 27.9796 154.248 27.2994 155.173C26.723 155.957 23.9382 161.038 23.4707 160.418C24.0487 161.185 25.1551 161.487 25.9808 161.896C26.8941 162.348 27.5598 163.142 27.6014 164.196C27.585 163.776 27.5107 163.35 27.4422 162.929Z" fill="#D8A88E"/>
<path id="Vector_6" d="M14.065 164.225C14.4975 164.651 14.4447 165.772 14.572 166.354C14.7121 166.994 14.8253 167.617 15.0227 168.249C15.285 169.089 15.6537 170.868 16.6757 171.083C16.2301 171.674 15.159 171.386 14.7409 170.942C14.1283 170.291 13.9314 169.433 13.8845 168.562C13.7985 166.966 14.4202 165.427 13.835 163.925C14.0477 164.117 14.1146 164.404 14.2902 164.631L14.065 164.225Z" fill="#D8A88E"/>
<path id="Vector_7" d="M26.3394 168.447C25.3972 169.685 24.4648 171.166 23.4579 172.41C23.0625 172.898 21.9446 173.522 21.7966 174.119C21.6339 174.776 22.4973 175.741 22.8242 176.286C24.6916 179.4 25.1776 182.878 25.1643 186.559C25.4778 185.059 25.675 183.273 25.4982 181.668C25.3399 180.231 24.5127 178.854 24.1794 177.458C23.8141 175.929 24.3036 174.563 24.8071 173.014C25.1881 171.84 25.5191 169.203 26.3394 168.447Z" fill="#D8A88E"/>
<g id="Group_3">
<path id="Vector_8" d="M10.119 159.488C9.63507 157.622 9.23538 156.331 9.08232 154.801C9.03436 154.321 7.27946 140.828 10.7588 142.558C13.4852 143.913 12.2615 148.426 12.1484 150.876C12.0002 154.084 12.2784 157.375 14.2289 160.051C12.1654 161.523 11.1911 164.353 11.8636 166.825C11.7574 166.435 11.6757 166.053 11.4709 165.701C10.9553 166.344 10.7656 167.292 10.307 167.955C10.7173 166.757 10.8836 165.59 10.885 164.311C10.8857 163.702 10.7366 163.176 10.6586 162.598C10.585 162.052 10.2562 160.017 10.119 159.488Z" fill="#D8A88E"/>
<path id="Vector_9" d="M13.9561 167.586C13.9441 167.657 13.9297 167.727 13.9199 167.799C13.9286 167.733 13.9415 167.661 13.9561 167.586Z" fill="#D8A88E"/>
</g>
<path id="Vector_10" d="M16.4236 220.97C16.4236 221.036 16.4163 221.096 16.4053 221.152C16.4058 221.095 16.4107 221.035 16.4236 220.97Z" fill="#E6BA9F"/>
<path id="Vector_11" d="M12.9986 220.97C12.638 221.33 13.1788 221.511 13.1788 221.511C13.9 221.691 14.4408 221.511 14.8014 220.79C14.8014 220.97 14.8014 221.33 14.8014 221.511C15.3026 221.845 16.267 221.868 16.4056 221.152C16.398 221.893 17.3642 222.026 17.8663 221.691C18.2268 221.33 18.5874 220.429 18.948 220.429C20.0297 220.79 20.5705 222.412 22.0128 222.052C22.3518 221.967 22.6498 221.801 22.8717 221.557C22.8513 221.76 22.7924 221.953 22.6795 222.127C22.1354 222.969 20.709 222.541 20.0475 222.01C19.7367 221.761 19.6345 220.863 19.2344 220.759C18.4432 220.553 18.8937 221.205 18.4756 221.538C17.9214 221.981 18.383 222.15 17.3492 222.288C16.978 222.337 16.2958 222.155 15.8498 222.128C14.434 222.042 11.5992 222.482 11.5366 221.079C11.9248 221.443 12.4615 221.507 12.9986 220.97Z" fill="#D8A88E"/>
<path id="Vector_12" d="M10.2998 182.371C10.4696 183.452 11.7408 185.462 12.4607 186.531C13.6962 188.365 15.0428 190.201 15.4217 192.424C15.8585 194.985 15.5036 197.709 15.6424 200.296C15.7246 201.832 15.8441 203.39 15.9067 204.935C15.9509 206.026 16.5267 209.683 15.5409 210.407C14.389 209.272 10.8637 188.469 10.2998 182.371Z" fill="#D8A88E"/>
<path id="Vector_13" d="M24.8245 189.67C24.7416 190.066 24.6522 190.458 24.5936 190.834C23.8254 195.76 23.1726 200.676 22.3795 205.592C22.2035 206.683 21.8264 209.578 20.9305 210.285C20.1692 209.527 20.8734 207.134 21.0535 206.187C21.3284 204.74 21.4972 203.283 21.7653 201.853C22.024 200.473 22.2425 199.06 22.4925 197.653C22.8794 195.477 22.2214 192.697 23.1075 190.696C23.5744 189.642 24.5557 188.67 25.0167 187.728C25.0825 188.347 24.9621 189.014 24.8245 189.67Z" fill="#D8A88E"/>
<path id="Vector_14" d="M25.2581 184.312C25.9957 186.003 24.4644 187.889 23.4659 189.109C22.1911 190.667 20.6733 192.045 20.0436 194.001C19.9237 194.373 19.8409 194.858 19.8031 195.249C19.7039 196.274 20.0007 197.24 19.97 198.236C20.1622 197.133 20.3335 196.103 20.6762 195.005C20.8785 194.358 21.2268 193.807 21.6059 193.251C22.4619 191.997 23.549 190.897 24.2949 189.563C25.2147 187.917 25.1965 186.374 25.4963 184.589C25.4687 184.751 25.2006 184.18 25.2581 184.312Z" fill="#D8A88E"/>
<g id="Group_4" opacity="0.62">
<path id="Vector_15" d="M28.0823 151.199C26.5115 152.645 25.6766 154.914 24.592 156.608C23.7544 157.916 20.1199 160.738 19.3693 158.231C18.833 156.439 22.3341 155.43 23.7768 154.494C25.3754 153.457 26.8939 152.332 28.0823 151.199Z" fill="#EDCFB9"/>
</g>
</g>
<path id="Vector_16" d="M13.3202 73.1295C13.768 74.1474 14.0965 75.2644 14.289 76.5567C14.5052 78.0084 14.4291 79.5613 14.4291 81.0638C14.4291 84.2076 14.1709 86.5573 13.4009 89.3615C12.5559 92.4389 13.428 94.1933 13.8479 97.1085C14.0485 98.5007 14.6027 102.413 16.0515 103.239C17.3142 103.959 18.8949 101.243 20.3242 101.2C24.0015 101.09 27.6994 101.2 31.3781 101.2C36.1874 101.2 40.9902 100.945 45.7126 101.762C49.0307 102.335 52.1223 102.745 52.1084 99.0024C52.1001 96.7279 53.2761 93.265 52.8028 91.0392C52.4345 89.3074 51.8526 87.6904 51.9845 85.8621C52.1542 83.5114 51.7332 81.024 52.2986 78.7201C52.7852 76.7372 53.8119 74.91 54.1779 72.892C54.5031 71.0993 54.3311 69.2465 55.0665 67.525C55.9286 65.507 57.8836 64.1464 59.0326 62.321C60.4778 60.0247 62.9936 57.1847 62.8409 54.3863C62.7522 52.7625 62.4198 51.1334 61.849 49.6087C61.2571 48.0275 60.4428 46.5781 59.8186 45.0362C59.2884 43.7267 58.3773 42.5659 57.1311 41.8767C56.2631 41.3966 55.2733 41.1604 54.285 41.1348C54.0226 41.1279 51.3928 40.5494 48.373 38.9719C47.6939 38.6171 46.9818 37.9374 46.3041 37.5668C44.7841 36.7353 42.9336 35.9976 41.6291 34.843C39.669 33.1079 38.6324 28.105 38.8127 27.1135C37.0098 26.9782 36.89 26.9341 35.3126 27.0561C33.8678 27.1679 32.4154 27.2072 30.9667 27.1953C29.961 27.187 25.5945 27.5229 25.0594 26.2915C26.1731 28.859 23.6615 31.9134 22.3177 33.846C20.5397 36.4028 17.5199 38.4934 14.8472 40.0116C13.7334 40.6442 12.6472 40.8734 11.4302 41.2401C9.17107 41.9208 6.657 43.3177 5.17253 45.2159C4.31365 46.3142 3.45567 47.5901 2.8966 48.8874C1.70095 51.662 2.262 54.5502 2.2656 57.451C2.26687 58.4804 2.02385 59.4932 1.70006 60.4648C1.41899 61.308 1.11232 62.2539 1.09375 63.1599C1.93406 63.2982 2.50538 62.5177 3.3776 62.6791C3.73006 62.7443 4.19376 62.8462 4.50566 62.9928C6.37918 63.8742 7.75242 65.895 9.17342 67.4236C10.9637 69.3498 12.3958 71.0284 13.3202 73.1295Z" fill="#E6BA9F"/>
<path id="Vector_17" d="M9.20654 56.9102C9.20654 56.9102 12.1506 64.4807 12.8121 67.9065C12.9642 68.6947 13.2741 69.3733 13.4878 70.138C13.7641 71.1269 13.8271 72.1672 13.9017 73.1863C14.6935 71.4741 14.0503 69.6841 13.7119 67.9748C13.3477 66.1361 13.0217 64.282 12.3916 62.4988C12.8276 63.7327 14.9766 66.671 16.2377 67.2463C16.9128 67.5542 17.2666 68.1077 17.4724 67.2122C17.7786 65.8806 16.0062 65.4377 15.2843 64.8076C13.8583 63.5627 12.7639 61.575 11.6191 60.0736C10.8149 59.0193 10.0108 57.9648 9.20654 56.9102Z" fill="#CE9C86"/>
<path id="Vector_18" d="M40.0952 70.1312C40.9429 70.0794 41.9094 69.7453 42.9197 69.8939C43.8897 70.0365 44.9544 70.3913 45.9276 70.0259C46.8467 69.6808 47.6892 69.0278 48.5055 68.4938C49.0853 68.1143 50.621 67.345 50.7484 66.5857C50.7724 66.4434 50.8121 66.3268 50.7832 66.1741C49.9062 66.0401 48.9881 67.0701 48.1949 67.3535C47.2686 67.6845 46.3219 67.7793 45.3839 68.073C44.4659 68.3604 43.6495 68.8279 42.7366 69.1695C41.9714 69.4556 40.7204 69.7343 40.0952 70.1312Z" fill="#CE9C86"/>
<path id="Vector_19" d="M34.2661 63.2803C34.4951 64.6516 35.2885 65.8377 35.4681 67.2466C36.3774 67.1336 39.9556 68.0591 40.8766 68.2109C42.4502 68.4702 44.8162 69.0092 46.4054 68.8091C47.8115 68.6321 49.5033 67.0587 50.612 66.1649C52.3303 64.7797 52.2456 63.5996 52.6491 61.5914C53.1652 59.0218 53.7519 56.0253 56.2514 54.5541C54.6268 55.2174 51.7552 57.052 51.4505 58.9508C51.2283 60.3377 50.9052 61.7297 50.6964 63.0993C50.534 64.1646 50.775 65.3159 49.5424 65.8079C48.374 66.2743 47.0346 66.4643 45.8044 66.6491C43.4915 66.9967 38.4376 68.3195 36.4564 66.6183C35.6296 65.9083 34.8742 64.1661 34.3653 63.1812C34.247 63.1458 34.3815 63.307 34.2661 63.2803Z" fill="#D8A88E"/>
<path id="Vector_20" d="M46.129 67.0744C46.9331 67.9106 49.3001 66.0508 48.0877 65.4668C47.5872 65.2258 47.0142 65.579 46.614 65.8568C46.2651 66.0989 45.7344 66.6639 46.129 67.0744Z" fill="#CF7D75"/>
<path id="Vector_21" d="M34.5063 69.8907C34.5063 69.8907 38.2923 71.0324 39.7947 70.5518C39.7947 70.5518 42.7393 69.1095 44.1815 68.6889C44.1815 68.6889 40.2153 69.7106 39.2538 70.0109C39.2538 70.0109 35.0472 70.071 34.5063 69.8907Z" fill="#D8A88E"/>
<path id="Vector_22" d="M31.9226 85.816C31.3673 84.0649 31.8626 81.6907 31.8626 79.8062C31.8626 78.7164 31.8406 77.6512 31.789 76.5749C31.7474 75.7043 31.4982 74.3425 32.2682 73.7219C33.6191 72.6335 33.3413 77.8245 33.3047 78.5444C33.2021 80.5675 33.1455 82.6843 33.3665 84.6741C33.4096 85.0622 33.4664 85.4825 33.5419 85.8519C34.0725 85.5277 34.3464 85.611 34.385 84.9744C34.416 84.4635 34.2894 83.9746 34.2662 83.4721C34.2186 82.4468 34.1459 81.4468 34.1459 80.4103C34.1459 79.351 34.1524 78.3075 34.2692 77.2824C34.3781 76.3251 34.6146 75.3764 34.5667 74.3978C34.5288 73.628 34.3722 72.2301 33.8605 71.6169C33.1336 70.7461 31.8765 71.395 31.5018 72.2344C30.7845 73.842 31.3481 76.382 31.4885 78.0769C31.5819 79.2046 31.5053 80.3395 31.4551 81.4423C31.4095 82.4472 31.3443 83.6737 30.8467 84.5522C31.0816 84.7729 31.3904 84.8883 31.5768 85.1399C31.7373 85.3566 31.7807 85.6725 31.906 85.9182C32.0313 85.7965 31.9419 85.8769 31.9226 85.816Z" fill="#D8A88E"/>
<path id="Vector_23" d="M18.6615 83.224C18.2894 82.8501 17.7418 82.5712 17.3358 82.2552C16.6911 81.7531 15.844 81.1453 15.304 80.5522C14.6548 79.839 14.6496 78.5849 14.3058 77.7197C14.253 78.3574 14.4291 79.1247 14.4291 79.8018C14.4291 80.6625 14.1257 81.7277 14.8822 82.2685C15.3801 82.6244 16.0468 82.7948 16.6057 83.0353C17.2735 83.3226 18.0137 83.4912 18.7404 83.3082C18.7154 83.2795 18.6889 83.2516 18.6615 83.224Z" fill="#D8A88E"/>
<g id="Group_5" opacity="0.62">
<path id="Vector_24" d="M46.3458 55.6481C46.3458 55.6481 45.8049 60.4257 43.9119 61.868C42.0189 63.3103 48.5092 59.0736 48.7796 56.0988L46.3458 55.6481Z" fill="#EDCFB9"/>
</g>
<g id="Group_6" opacity="0.62">
<path id="Vector_25" d="M51.2124 44.7409C51.2124 44.7409 55.8998 47.8057 55.8097 53.4847C55.8097 53.4847 58.9647 43.0282 53.7364 43.2986C53.7364 43.2986 51.3927 43.9296 51.2124 44.7409Z" fill="#EDCFB9"/>
</g>
<path id="Vector_26" d="M50.3589 79.1153C48.7342 80.6027 47.0009 82.2286 44.952 83.1104C44.9073 83.1083 44.9073 83.1059 44.952 83.1037C45.854 83.4497 47.0119 82.9025 47.8288 82.5497C50.4368 81.4237 51.6528 78.7953 53.076 76.5012C52.4535 77.4767 51.2025 78.3431 50.3589 79.1153Z" fill="#D8A88E"/>
<g id="Group_7">
<path id="Vector_27" d="M45.6241 71.8737C45.5479 71.9042 45.4664 72.0371 45.3838 72.2339C45.6308 71.9685 45.749 71.8238 45.6241 71.8737Z" fill="#D8A88E"/>
<path id="Vector_28" d="M45.3835 72.2339C44.7401 72.9252 43.2202 74.4374 42.8294 75.4794C42.2885 76.9217 39.1335 75.3893 38.4124 75.2992C37.6913 75.209 36.0687 76.9217 36.0687 76.9217L37.6913 76.2907C37.6913 76.2907 41.0094 77.6357 43.0838 76.9268C43.0257 77.1357 43.0019 77.3544 42.9495 77.6196C42.8099 78.3254 42.7465 79.0632 42.5588 79.7697C42.3698 80.4813 42.2561 81.2152 41.6669 81.7186C40.6876 82.5549 39.2304 84.0697 37.8714 84.1935C36.5493 84.3138 36.3088 83.9532 36.3088 83.9532L36.0083 84.5541L37.09 84.7344C38.5992 84.4081 40.532 84.1944 41.827 83.3132C41.8203 84.0075 41.4639 84.7989 41.3566 85.5156C41.2386 86.305 41.1142 87.1423 40.9223 87.9193C40.6068 89.1981 38.839 89.8307 37.7735 90.4478C38.5801 90.1184 39.4061 89.7975 40.2147 89.4352C41.3546 88.9242 41.8447 88.6814 42.136 87.4387C42.3205 86.6519 42.2126 85.6611 42.5179 84.9482C42.6338 84.6774 43.5577 83.3393 43.8686 83.3595C42.601 83.2768 42.7785 82.9622 42.9552 81.7943C43.0958 80.8651 43.2821 79.9399 43.5783 79.0235C43.7788 78.4029 43.9785 77.7819 44.1507 77.1527C44.2782 76.687 44.5344 76.2458 44.5408 75.7504L44.5415 75.7499C44.5421 75.7499 44.9777 73.2005 45.3835 72.2339Z" fill="#D8A88E"/>
</g>
<path id="Vector_29" d="M32.9593 90.7136C33.3327 90.7136 33.6353 90.4109 33.6353 90.0375C33.6353 89.6641 33.3327 89.3615 32.9593 89.3615C32.5859 89.3615 32.2832 89.6641 32.2832 90.0375C32.2832 90.4109 32.5859 90.7136 32.9593 90.7136Z" fill="#B3816A"/>
<path id="Vector_30" d="M31.4043 89.5756C31.4043 89.5756 32.7678 88.246 34.5593 89.6095C34.5593 89.6095 32.9593 88.753 31.4043 89.5756Z" fill="#B3816A"/>
<path id="Vector_31" d="M16.8724 44.2262C17.0572 44.199 17.2389 44.1937 17.4479 44.1804C17.8555 44.1543 18.2624 44.1112 18.6713 44.1099C19.4611 44.1076 19.925 43.9987 19.5927 44.766C19.1559 45.7752 17.5535 46.6846 16.6142 47.0736C16.8006 46.9964 17.0186 46.6986 17.1691 46.5594C17.3626 46.3804 17.5546 46.1992 17.7338 46.006C18.0387 45.6773 18.2958 45.3175 18.5126 44.9221C18.681 44.6151 18.4157 44.5208 18.145 44.471C17.6148 44.3738 17.0639 44.3529 16.5273 44.306C16.648 44.2671 16.7608 44.2426 16.8724 44.2262Z" fill="#D8A88E"/>
<path id="Vector_32" d="M46.8203 43.1445C46.6355 43.1172 46.4537 43.112 46.2448 43.0987C45.8372 43.0725 45.4303 43.0294 45.0214 43.0282C44.2315 43.0258 43.7677 42.9169 44.0999 43.6842C44.537 44.6935 46.1391 45.6028 47.0784 45.9919C46.892 45.9147 46.6741 45.6169 46.5235 45.4777C46.3301 45.2987 46.138 45.1175 45.9588 44.9242C45.654 44.5956 45.3971 44.2357 45.18 43.8404C45.0116 43.5333 45.277 43.439 45.5476 43.3893C46.0778 43.2921 46.6288 43.2712 47.1653 43.2243C47.0445 43.1854 46.9319 43.1609 46.8203 43.1445Z" fill="#D8A88E"/>
<path id="Vector_33" d="M27.5599 76.6469L29.8435 77.0074C29.8435 77.0074 28.281 75.2046 26.1176 75.8657C23.9541 76.5268 22.5119 76.7671 22.5119 76.7671L21.1381 72.481C22.7237 72.3991 24.6841 71.3403 26.0314 70.747C27.4663 70.1151 28.9298 69.1665 30.4017 68.6874C29.1388 68.7628 27.6583 69.599 26.4403 69.9961C25.6802 70.244 24.9372 70.4827 24.17 70.672C23.5518 70.8245 22.838 71.1957 22.1958 71.0836C22.2429 70.2119 22.0456 69.2914 21.9634 68.3927C23.6864 68.3613 25.8585 68.1504 28.5869 67.6373L29.9391 62.6794L27.5954 66.4654C27.5954 66.4654 18.0403 66.9161 17.229 65.8344C16.4177 64.7527 9.38656 56.3694 8.8457 56.2793C8.8457 56.2793 14.6148 63.9414 15.7867 67.0964C15.7867 67.0964 16.7224 68.1433 20.206 68.3588C20.7905 69.1553 21.026 70.6821 20.0833 71.1015C19.0491 71.5614 16.9735 70.3035 16.1359 69.7895C17.6581 70.7238 18.4677 72.1422 20.4324 72.4444L21.3699 77.5488L21.7442 77.7594C21.8017 79.2842 22.0969 83.7544 23.5839 84.634C23.2437 84.9906 22.962 85.3344 23.0376 85.8555C23.175 86.803 23.7878 87.6675 24.1492 88.5462C24.508 89.4181 24.8368 89.9611 25.6968 90.4693C26.4459 90.9119 27.9008 91.114 28.7616 91.0702C26.8385 90.5894 25.4181 90.3429 24.9289 88.8935C24.6791 88.153 24.6035 87.2873 24.4952 86.503C24.3383 85.3685 24.7177 85.2618 25.4051 84.5767C26.723 84.4537 28.5395 84.3843 29.3027 84.8204C29.3027 84.8204 27.8604 83.3181 24.6753 83.6787C23.7138 83.4396 23.2552 81.4129 22.9325 80.4936C22.7161 79.8774 22.5135 79.2978 22.3316 78.6907C22.2885 78.5471 22.2587 78.2925 22.2162 78.0248L22.3316 78.0897L27.5599 76.6469Z" fill="#D8A88E"/>
<path id="Vector_34" d="M40.7568 90.6235C40.1213 92.1579 38.5934 96.2123 35.7202 98.9004C37.2416 98.5357 38.5723 96.3897 39.3146 95.1306C40.2178 93.5982 40.3024 92.1705 40.9238 90.6554C40.8674 90.7818 40.7972 90.526 40.7568 90.6235Z" fill="#D8A88E"/>
<path id="Vector_35" d="M25.124 90.7692C25.7595 92.3036 27.2874 96.358 30.1606 99.0461C28.639 98.6812 27.3085 96.5354 26.5663 95.2763C25.663 93.7439 25.5785 92.3162 24.957 90.8011C25.0135 90.9275 25.0834 90.6717 25.124 90.7692Z" fill="#D8A88E"/>
<path id="Vector_36" d="M51.7539 89.4818C51.7539 90.5442 51.9329 91.4661 51.3933 92.4262C50.8819 93.3361 50.09 93.801 49.2313 94.333C47.3167 95.5188 45.7807 97.013 44.5558 98.9168C43.9109 99.919 43.3652 101.116 43.1694 102.274C44.0698 102.082 45.1125 100.855 45.681 100.165C46.4412 99.2429 47.2338 98.3071 48.1349 97.52C49.4365 96.3827 51.7211 95.275 52.0997 93.4482C52.2295 92.8219 52.3303 92.0589 52.2378 91.4018C52.1608 90.8548 51.7627 90.0563 51.7539 89.4818Z" fill="#D8A88E"/>
<path id="Vector_37" d="M13.401 89.3615C13.401 90.4239 13.222 91.3458 13.7616 92.3059C14.2731 93.2158 15.0649 93.6807 15.9236 94.2126C17.8382 95.3985 19.3742 96.8925 20.5991 98.7963C21.244 99.7985 21.7897 100.995 21.9855 102.154C21.0851 101.962 20.0424 100.735 19.4739 100.045C18.7137 99.1225 17.9211 98.1866 17.0201 97.3995C15.7184 96.2622 13.4338 95.1546 13.0552 93.3277C12.9254 92.7014 12.8248 91.9384 12.9171 91.2813C12.9941 90.7347 13.3924 89.936 13.401 89.3615Z" fill="#D8A88E"/>
<path id="Vector_38" d="M23.2763 12.9569C23.2763 12.9569 21.7439 11.6498 21.3233 11.74C21.3233 11.74 20.8424 11.8602 20.6622 12.1907C20.6622 12.1907 20.3616 14.9851 20.7523 15.1955C20.7523 15.1955 21.0828 15.4961 21.203 15.4961C21.3233 15.4961 21.0828 15.4961 21.0828 15.4961C21.3642 15.6205 21.2203 15.7919 21.1502 16.0075C21.0492 16.318 21.1257 16.3176 21.227 16.6144C21.3864 17.0808 21.1091 17.5007 21.2695 17.9533C21.5474 18.7367 21.7823 19.9532 22.862 19.1993C23.0028 19.1009 23.4304 18.979 23.6141 19.0051C23.6405 18.4875 23.4434 17.9497 23.4189 17.4426C23.3906 16.8621 23.2916 16.3272 23.3679 15.7604C23.4393 15.2294 23.4265 14.6529 23.4265 14.1138C23.4265 13.6651 23.4787 13.0838 23.096 12.7918L23.2763 12.9569Z" fill="#E8BAA0"/>
<path id="Vector_39" d="M23.0285 17.8922C22.895 17.8226 22.6261 17.9514 22.4425 17.9159C22.2529 17.8791 22.109 17.7237 21.9738 17.6014C21.8912 17.8888 22.0712 18.0759 22.3473 18.1225C22.6693 18.1767 22.7791 17.9665 23.0537 17.8695C23.0858 17.8757 23.0359 17.8962 23.0285 17.8922Z" fill="#D8A88E"/>
<path id="Vector_40" d="M20.9176 12.4612C20.9185 12.7339 21.0278 12.8827 21.2595 13.0204C21.4188 13.115 21.7345 13.1767 21.7439 13.3927C21.752 13.5813 21.6341 13.8531 21.5903 14.0388C21.5367 14.2658 21.4839 14.4912 21.4278 14.7149C21.3876 14.8757 21.4019 15.1292 21.2961 15.2541C21.3045 14.9556 21.1071 14.8988 20.9362 14.7111C20.7758 14.5348 20.8021 14.2355 20.8123 14.0091C20.8244 13.7405 20.8616 13.4648 20.8731 13.1974C20.883 12.9779 20.8428 12.6616 20.9176 12.4612Z" fill="#BE886D"/>
<path id="Vector_41" d="M22.3746 17.2838C22.7272 17.2729 22.6695 16.8686 22.5492 16.6758C22.3846 16.4123 22.2227 16.1516 22.1937 15.8415C22.14 15.2669 22.6639 14.8494 23.1166 14.6505C23.1202 14.6244 23.1134 14.6006 23.0957 14.5795C22.9369 14.3891 22.7867 14.2328 22.6286 14.0336C22.4593 13.8203 22.3356 13.5614 22.0985 13.4127C21.6774 13.148 20.9023 13.009 20.8647 12.3778C20.8086 12.8917 21.3823 13.2573 21.7385 13.5259C22.157 13.8414 22.4928 14.1194 22.8272 14.5344C22.6535 14.6977 22.4009 14.7192 22.2166 14.9345C22.0311 15.1513 21.9065 15.4113 21.9237 15.7063C21.9397 15.9808 22.1121 16.2215 22.2561 16.455C22.3163 16.5525 22.6809 17.4269 22.3746 17.2838Z" fill="#CE9B7D"/>
<path id="Vector_42" d="M21.6389 13.4828C21.6868 13.67 21.5648 13.9959 21.5341 14.204C21.4973 14.4538 21.4274 14.7024 21.4135 14.9552C21.3822 15.53 21.2742 16.0072 21.5224 16.5619C21.5718 16.6722 21.647 16.7689 21.6847 16.8774C21.7005 16.923 21.7086 16.9762 21.7173 17.0251C21.7207 17.0445 21.7406 17.1907 21.729 17.1336C21.6688 17.0671 21.627 16.9589 21.5363 16.956C21.4923 17.1215 21.4885 17.2861 21.4885 17.4642C21.4885 17.6544 21.5408 17.8199 21.5493 18.0006C21.3086 17.552 21.3818 17.0822 21.2179 16.6237C21.1372 16.3975 21.0686 16.1966 21.1465 15.9502C21.1756 15.8583 21.2751 15.7321 21.2449 15.6311C21.2051 15.4975 21.1043 15.5208 21.1388 15.3452C21.1692 15.1894 21.2729 15.0522 21.3194 14.8952C21.3667 14.7356 21.404 14.5766 21.4438 14.4144C21.5089 14.1502 21.7391 13.755 21.6389 13.4828Z" fill="#CE9B7D"/>
<path id="Vector_43" d="M39.7846 35.9866C39.8609 35.7583 39.7996 35.4758 39.7186 35.2546C39.6918 35.181 39.6694 35.1071 39.6444 35.0332C39.127 33.5049 38.9787 31.8914 38.8937 30.2879C38.8001 28.5231 38.7734 26.7024 38.7734 25.0596C36.4614 25.3733 34.157 24.8175 31.8009 24.7124C29.6652 24.6172 26.9059 24.5489 24.9515 24.9994C24.9455 24.9264 24.9515 24.8505 24.9515 24.7771C24.9194 26.5115 25.2179 28.4029 25.1316 30.2277C25.1045 30.7983 25.0566 31.3678 24.9917 31.9352C24.9252 32.517 24.8409 33.0968 24.7396 33.6735C24.6895 33.9591 24.6351 34.2439 24.5763 34.5277C24.5202 34.7985 24.4735 35.0794 24.3919 35.3437C24.3884 35.3547 24.385 35.3657 24.3809 35.3765C24.3864 35.3613 24.4822 35.3646 24.5008 35.3662C24.5318 35.3691 24.5628 35.3741 24.5932 35.3804C24.6643 35.395 24.734 35.4167 24.8022 35.441C24.9699 35.5009 25.1312 35.5788 25.2892 35.6608C25.6425 35.844 25.9811 36.0538 26.3227 36.2577C26.5162 36.3731 26.7114 36.4989 26.9211 36.5829C28.0774 37.0461 29.151 37.3214 30.3617 37.5594C31.5469 37.7923 32.8737 38.0351 34.0889 37.8565C35.1955 37.6939 36.2258 37.2633 37.274 36.8532C38.1278 36.5195 38.9865 36.2837 39.7846 35.9866Z" fill="#E6BA9F"/>
<path id="Vector_44" d="M31.8009 24.7126C29.6654 24.6174 26.9067 24.5491 24.9522 24.9996C24.9502 25.6308 24.987 26.2811 25.0292 26.9399C27.6789 27.5456 27.3349 31.8934 28.8577 33.9239C28.4972 32.662 28.0766 30.198 28.0766 28.936C28.978 30.7388 31.6823 30.9492 33.4851 30.769C34.7707 30.769 35.6837 29.9094 36.4831 28.9513C36.6886 27.6819 36.851 26.4093 36.9875 25.1513C35.2708 25.1165 33.5502 24.7905 31.8009 24.7126Z" fill="#D8A88E"/>
<path id="Vector_45" d="M38.7732 25.0597C38.1777 25.1404 37.5826 25.163 36.9871 25.1509C36.8507 26.4091 36.6882 27.6815 36.4827 28.9509C36.0087 31.877 34.5464 35.5663 36.5947 38.2623C37.1683 36.8898 42.0793 36.3681 43.5151 35.9923C43.3557 36.0342 38.347 33.6488 38.7732 25.0597Z" fill="#D8A88E"/>
<path id="Vector_46" d="M41.0569 12.7552C41.0569 14.3309 40.9197 15.9106 40.7064 17.4426C40.6184 18.0752 40.6233 18.7207 40.5634 19.338C40.5066 19.9261 40.3119 20.4802 40.2906 21.0483C40.2641 21.7579 40.3253 22.5232 40.198 23.2094C40.0671 23.9143 39.7226 24.5257 39.3103 25.1071C38.7085 25.9555 37.7293 26.3527 37.0567 27.134C35.9768 28.3886 35.2127 29.7431 33.3947 29.925C32.6938 29.9952 31.8753 30.039 31.1862 29.9272C30.5978 29.8318 30.0293 29.6268 29.5786 29.2663C29.151 28.9241 27.8086 27.3329 27.3452 27.0064C26.2888 26.262 25.1636 25.8969 24.4367 24.7328C23.979 23.9998 24.1281 23.3087 24.0563 22.5009C23.9846 21.6939 23.8978 20.8569 23.7718 20.0481C23.4969 18.2818 23.0305 16.5369 23.0283 14.7383C23.0274 13.9743 23.227 13.2946 23.2986 12.5747C23.3819 11.7373 23.2988 10.8471 23.2988 10.0057C23.2988 8.3941 23.3215 5.79961 24.8762 4.86772C25.3857 4.56231 26.001 4.20823 26.5891 4.02146C27.4493 3.74815 28.308 3.45987 29.202 3.32538C31.2072 3.02376 33.1434 3.17736 35.1424 3.37928C37.231 3.59003 39.5893 4.00379 40.5171 6.1299C40.9896 7.21287 41.0377 8.74421 41.1019 9.91589C41.1603 10.9846 41.0569 12.0068 41.0569 13.0709V12.7552Z" fill="#E6BA9F"/>
<path id="Vector_47" d="M40.516 13.0707C40.516 13.0707 42.0485 11.7636 42.4691 11.8538C42.4691 11.8538 42.9499 11.974 43.1302 12.3045C43.1302 12.3045 43.4307 15.0989 43.04 15.3093C43.04 15.3093 42.7096 15.6098 42.5893 15.6098C42.4691 15.6098 42.7096 15.6098 42.7096 15.6098C42.4281 15.7342 42.572 15.9057 42.6421 16.1213C42.7431 16.4319 42.6667 16.4314 42.5652 16.7283C42.4058 17.1947 42.6831 17.6146 42.5226 18.0671C42.2448 18.8505 42.0099 20.067 40.9302 19.3131C40.7894 19.2146 40.644 19.0345 40.4605 19.0607C40.4342 18.5431 40.4915 18.0397 40.516 17.5327C40.5442 16.9522 40.5005 16.4409 40.4243 15.8741C40.3529 15.3432 40.3657 14.7666 40.3657 14.2276C40.3657 13.7788 40.3134 13.1976 40.6962 12.9055L40.516 13.0707Z" fill="#E8BAA0"/>
<path id="Vector_48" d="M40.764 18.006C40.8974 17.9364 41.1664 18.0653 41.3499 18.0298C41.5396 17.993 41.6835 17.8376 41.8187 17.7154C41.9013 18.0027 41.7213 18.1899 41.4451 18.2364C41.1231 18.2907 41.0134 18.0804 40.7388 17.9834C40.7065 17.9896 40.7564 18.0099 40.764 18.006Z" fill="#D8A88E"/>
<path id="Vector_49" d="M42.875 12.5749C42.8741 12.8477 42.7648 12.9964 42.5332 13.1341C42.374 13.2288 42.0581 13.2904 42.0487 13.5064C42.0406 13.695 42.1585 13.9669 42.2024 14.1526C42.2559 14.3795 42.3087 14.6049 42.3648 14.8286C42.405 14.9895 42.3907 15.2429 42.4966 15.3679C42.4881 15.0693 42.6855 15.0125 42.8564 14.8249C43.0169 14.6485 42.9905 14.3493 42.9803 14.1228C42.9682 13.8542 42.931 13.5785 42.9195 13.3112C42.9096 13.0916 42.9498 12.7754 42.875 12.5749Z" fill="#BE886D"/>
<path id="Vector_50" d="M37.8341 14.6145C37.8492 14.7171 37.8761 14.7578 37.8319 14.8622C37.7971 14.9442 37.7396 15.0199 37.6854 15.0872C37.5438 15.2626 37.356 15.3571 37.1468 15.4402C36.9565 15.5157 36.7369 15.5431 36.5386 15.5725C36.3756 15.5967 36.1857 15.5164 36.0341 15.4539C35.9734 15.4288 35.807 15.438 35.7534 15.3994C36.097 15.6614 36.4856 15.6787 36.7637 15.6506C37.1404 15.6124 37.5026 15.4797 37.8141 15.2484C37.9264 15.1651 38.1069 15.0829 38.0933 14.9188C38.0831 14.7967 37.9424 14.6493 37.8341 14.6145Z" fill="#E2DEDE"/>
<path id="Vector_51" d="M34.8841 27.9585C34.6568 27.5451 34.8227 27.0507 34.5513 26.5923C34.3049 26.1756 33.8774 25.6043 33.3946 25.4931C32.7768 25.3506 32.2154 25.5253 31.6071 25.6043C31.1048 25.6696 30.7981 25.3389 30.4001 25.0921C30.536 25.6483 30.5697 26.1266 30.3296 26.6674C31.1758 26.2169 31.9419 26.3528 32.9136 26.3519C33.9564 26.3509 34.432 27.1365 34.8841 27.9585Z" fill="#D8A88E"/>
<g id="Group_8">
<path id="Vector_52" d="M34.5099 19.2718C34.498 19.5065 34.5236 19.7153 34.2665 19.813C34.0388 19.8996 33.7846 19.8597 33.5483 19.892C33.2461 19.9331 33.1302 20.0521 32.9284 20.2405C32.7107 20.4438 32.3634 20.6559 32.0605 20.6998C31.7656 20.7426 31.2705 20.3762 30.9979 20.2747C30.7315 20.1756 30.577 20.2046 30.2993 20.1696C30.09 20.1431 29.8264 20.2695 29.6676 20.1024C29.4859 19.9113 29.664 19.5318 29.7585 19.3358C29.6011 19.5219 29.3566 19.6612 29.236 19.8776C29.1096 20.1045 29.1816 20.494 29.4731 20.5228C29.7206 20.5471 29.9757 20.5102 30.2243 20.5224C30.4876 20.5356 30.6833 20.609 30.8997 20.7595C31.0994 20.8985 31.2501 21.0316 31.4867 21.0905C32.0414 21.2286 32.7101 21.0867 33.113 20.6611C33.3059 20.4574 33.5497 20.4141 33.83 20.4027C34.0233 20.395 34.4228 20.4813 34.5782 20.3685C34.6815 20.2937 34.7179 20.1999 34.7428 20.077C34.7632 19.9758 34.7704 19.8714 34.767 19.7685C34.7619 19.6055 34.7493 19.2238 34.5099 19.2718Z" fill="#C58774"/>
</g>
<path id="Vector_53" d="M40.5161 15.6848C40.3567 16.3091 39.7718 16.9479 39.3983 17.49C38.979 18.0983 38.4368 18.6442 38.2342 19.3453C38.0501 19.9821 37.8268 20.6259 37.6742 21.2713C37.4876 22.0601 37.358 22.8723 37.0874 23.6464C37.515 22.4228 38.2654 20.7714 39.297 19.9576C39.7185 19.625 40.5096 19.1113 40.6538 18.5717C40.8121 17.9791 40.7137 16.9302 40.6538 16.3158C40.6356 16.1325 40.5501 15.7075 40.5161 15.6848Z" fill="#D8A88E"/>
<path id="Vector_54" d="M35.0625 23.9179C34.91 24.1005 34.6816 24.2426 34.5153 24.4301C34.3221 24.6481 34.1514 24.852 33.9869 25.0898C33.6736 25.5428 33.2104 25.9351 32.6281 25.8791C32.4639 25.8632 32.3018 25.8051 32.1329 25.7884C31.9465 25.7698 31.8035 25.8417 31.6382 25.8572C31.2614 25.8924 30.994 25.7848 30.7416 25.5136C30.286 25.024 29.6994 24.6419 29.3242 24.1193C29.3426 24.1211 29.3651 24.1245 29.3834 24.1209C30.5157 23.9051 31.7105 23.7151 32.8268 23.7153C33.2815 23.7153 33.6927 23.8472 34.1335 23.8905C34.3913 23.9157 34.8602 23.943 35.0625 23.9179Z" fill="#E2A18F"/>
<path id="Vector_55" d="M35.2201 23.8503C34.7514 23.8503 34.4141 23.7852 34.0319 23.5292C33.6966 23.3046 33.4092 22.9532 32.9889 22.9038C32.621 22.8607 32.3404 23.1236 31.9974 23.1517C31.6087 23.1834 31.329 22.891 30.9382 23.0104C30.5958 23.1149 30.3596 23.4205 30.0604 23.6019C29.7696 23.7782 29.4883 23.9985 29.1597 24.0944C29.164 24.0598 29.1822 24.0888 29.2029 24.0757C29.5397 24.1896 29.6939 24.2785 30.0593 24.2785C30.4321 24.2785 30.7487 24.1088 31.1235 24.1833C31.4743 24.2531 31.7619 24.449 32.1326 24.4137C32.4519 24.3832 32.7414 24.2011 33.056 24.1427C33.4088 24.0773 33.817 24.0917 34.1833 24.0744C34.4328 24.0629 35.1305 24.0933 35.2201 23.8503Z" fill="#CF7D75"/>
<path id="Vector_56" d="M34.3672 15.3093C34.4842 15.4876 34.8595 15.2449 35.002 15.1932C35.0662 15.1698 35.1213 15.1633 35.1732 15.1633C35.1264 15.063 35.1125 14.9478 35.1089 14.7958C34.8695 14.9904 34.6252 15.1833 34.3672 15.3093Z" fill="#F9DCDC"/>
<path id="Vector_57" d="M37.8469 14.8912C37.9196 14.6796 37.7678 14.5992 37.5979 14.505C37.2572 14.3163 36.8534 14.2142 36.4627 14.1951C36.1685 14.1807 35.8737 14.2263 35.6117 14.3669C35.5124 14.4203 35.4199 14.4634 35.341 14.5442C35.282 14.6046 35.1446 14.7243 35.1134 14.7968C35.0994 14.8296 35.1286 15.1633 35.1736 15.1633C35.3977 15.1636 35.5284 15.3484 35.7469 15.451C35.9061 15.5258 36.0935 15.5723 36.2654 15.5972C36.6249 15.6493 36.9473 15.6109 37.2565 15.4115C37.4552 15.2835 37.7433 15.1485 37.8377 14.9156C37.841 14.9073 37.844 14.8992 37.8469 14.8912Z" fill="white"/>
<path id="Vector_58" d="M35.5918 14.344C35.5918 14.344 35.4341 15.3019 36.1365 15.4896C36.1365 15.4896 36.5271 15.6361 36.9627 15.4144C36.9627 15.4144 37.5411 15.0425 37.2706 14.2876L36.4143 14.2276L35.5918 14.344Z" fill="#596C5E"/>
<path id="Vector_59" d="M38.6729 15.0284C38.4611 15.0145 38.0524 14.5772 37.8418 14.4679C37.5896 14.337 37.0343 14.0734 36.4821 14.0848C36.2293 14.09 35.6544 14.1699 35.4476 14.3251C35.2368 14.4834 35.0813 14.7356 34.8745 14.9092C34.7052 15.0513 34.4816 15.2253 34.3223 15.3392C34.5045 15.2309 34.7041 15.175 34.8866 15.0282C35.1027 14.8544 35.3034 14.6586 35.5318 14.5081C35.94 14.2391 36.6205 14.2236 37.0529 14.3287C37.3613 14.4037 37.6346 14.5804 37.918 14.7295C38.105 14.8279 38.4786 15.1256 38.6729 15.0284Z" fill="#281A13"/>
<path id="Vector_60" d="M36.4634 15.208C36.6937 15.208 36.8804 15.0213 36.8804 14.791C36.8804 14.5607 36.6937 14.374 36.4634 14.374C36.2331 14.374 36.0464 14.5607 36.0464 14.791C36.0464 15.0213 36.2331 15.208 36.4634 15.208Z" fill="#050404"/>
<path id="Vector_61" d="M36.8564 14.5694C36.8564 14.6475 36.7931 14.7108 36.7151 14.7108C36.637 14.7108 36.5737 14.6475 36.5737 14.5694C36.5737 14.4913 36.637 14.4281 36.7151 14.4281C36.7931 14.4281 36.8564 14.4913 36.8564 14.5694Z" fill="white"/>
<path id="Vector_62" d="M23.8222 7.96825C23.6964 8.19722 23.6057 8.41698 23.5682 8.60754C23.464 9.13722 23.5242 9.7401 23.5242 10.2874C23.5242 10.8141 23.5446 11.3407 23.5704 11.8561C23.5969 12.3874 23.4123 13.0647 23.5583 13.5519C23.9584 12.5006 24.0968 11.3908 24.4833 10.3213C24.7567 9.56504 25.0671 8.77557 25.5065 8.09914C26.1816 7.0598 27.4265 7.47698 28.4823 7.66213C29.7448 7.88352 31.2437 8.47666 32.5235 8.09806C33.461 7.82078 34.2179 7.23089 35.2291 7.14994C36.9941 7.00877 38.152 8.08075 38.9693 9.51275C39.5873 10.5957 39.9589 11.4945 40.0212 12.7552C40.0571 13.481 40.0382 14.2081 40.007 14.9338C39.9782 15.6053 39.8999 16.2468 39.8027 16.9084C39.9841 16.923 40.1498 17.1592 40.3355 17.0554C40.5226 16.9506 40.5787 16.5837 40.6075 16.3942C40.6834 15.8929 40.6173 15.3845 40.6411 14.8804C40.7132 13.3525 41.0397 11.8447 41.057 10.3111C41.0662 9.50212 40.8488 8.85381 40.7065 8.06759C40.4718 6.77206 40.1941 5.4951 38.7133 5.14931C36.9297 4.73286 35.0744 5.53602 33.405 6.08445C31.8459 6.59664 29.8843 6.8595 28.2668 6.53625C27.3964 6.36227 26.3531 5.74065 25.505 6.16468C24.9676 6.43366 24.2194 7.24603 23.8222 7.96825Z" fill="#D8A88E"/>
<path id="Vector_63" d="M23.6594 9.73541C23.5893 9.04564 23.9652 7.78364 24.08 7.09116C24.8179 6.82362 25.5758 6.61467 26.3485 6.49027C26.3485 6.49027 29.7438 7.61706 30.7805 7.57198C30.7805 7.57198 31.3664 7.66213 31.9523 7.43677C32.6338 7.17464 33.2699 6.83263 33.975 6.61359C34.9968 6.2961 37.2518 5.59335 38.2189 6.26329C38.7186 6.60944 39.3666 7.30426 39.7948 7.75227C40.3634 8.34775 40.4687 9.31174 40.5134 10.0816C40.5397 10.5337 40.9399 12.7071 40.606 12.9355L41.4624 12.3495C41.4624 12.3495 41.7779 7.34663 42.2286 6.1297C42.2286 6.1297 41.5525 2.61414 39.7948 1.62257C39.7948 1.62257 31.5016 0.225357 30.6002 0C30.6002 0 23.7043 1.84792 21.5859 3.78599C21.5859 3.78599 22.3972 10.727 22.6076 12.4997C22.6076 12.4997 23.4339 12.9203 23.4789 13.371C23.4789 13.371 23.9298 12.3946 23.6594 9.73541Z" fill="#755237"/>
<path id="Vector_64" d="M29.424 24.1348C29.3572 24.0883 29.2932 24.0387 29.2302 23.9866C29.132 23.9051 28.982 23.7591 28.8419 23.8274C28.5432 23.9734 29.3043 24.3064 29.4278 24.3241C29.8044 24.3778 30.1625 24.2621 30.5101 24.2334C30.8901 24.202 31.1472 24.2462 31.484 24.363C31.8251 24.4813 32.1251 24.5801 32.471 24.4187C32.8403 24.2464 33.0784 24.1433 33.5072 24.1433C33.863 24.1433 34.2031 24.0919 34.5433 24.0751C34.8627 24.0593 35.284 24.1061 35.4925 23.8052C35.3127 23.6033 34.803 23.9325 34.5876 23.9843C34.2427 24.0674 33.8481 24.0349 33.4846 24.0531C33.0977 24.0724 32.8107 24.0744 32.4756 24.2608C32.1087 24.4649 31.9107 24.3657 31.5455 24.2109C31.2489 24.085 30.8566 24.1373 30.5501 24.1833C30.4161 24.2033 30.2836 24.2312 30.1491 24.2487C30.0673 24.2594 29.977 24.2761 29.8942 24.2696C29.8091 24.2632 29.4734 24.169 29.424 24.1348Z" fill="#9B5B49"/>
<path id="Vector_65" d="M23.0962 16.2032C23.0962 16.2032 24.2004 18.4041 25.192 19.3055L26.514 23.3318C26.3864 23.0087 25.9384 22.3687 25.7029 22.0714C25.3195 21.5877 25.0523 20.9706 24.6436 20.515C24.3683 20.2082 24.0508 19.9708 23.9075 19.561C23.7524 19.1176 23.7025 18.7567 23.5469 18.299C23.2936 17.5546 23.3556 16.903 23.0962 16.2032Z" fill="#D8A88E"/>
<g id="Group_9" opacity="0.62">
<path id="Vector_66" d="M31.2534 17.7581C31.4981 17.7955 31.8491 17.9004 31.9814 18.1396C32.1188 17.8704 32.3618 17.7632 32.6488 17.7307C32.5583 17.684 32.4051 17.6667 32.2901 17.6682C32.1617 17.6698 32.0508 17.7607 31.9513 17.7599C31.8557 17.7592 31.7506 17.673 31.6365 17.6682C31.4925 17.662 31.3629 17.6781 31.2534 17.7581Z" fill="#EDCFB9"/>
</g>
<path id="Vector_67" d="M33.6653 18.3441C33.6653 18.3441 34.4315 19.2004 34.6569 19.3055C34.6569 19.3055 34.762 20.0117 34.5366 20.0867L33.4248 20.1168L33.1394 20.1318C33.1394 20.1318 32.809 20.883 32.178 20.943C32.178 20.943 31.6971 21.0031 31.4718 20.7777C31.3357 20.6416 31.2549 20.4864 31.1112 20.3571C31.0265 20.2809 30.7921 20.2291 30.6681 20.2295C30.5372 20.2298 30.3331 20.2379 30.2024 20.2444C30.0275 20.2531 29.8532 20.2718 29.6781 20.2792C29.5909 20.2828 29.4584 20.3117 29.3936 20.2363C29.3376 20.1711 29.3556 20.0669 29.352 19.9879C29.3448 19.8323 29.4324 19.689 29.5415 19.5777C29.5415 19.5777 30.0823 19.0989 30.3226 18.3626C30.319 18.372 30.3262 18.3518 30.3226 18.3626C30.2997 18.71 29.9943 19.0951 29.9554 19.4413C29.9397 19.5806 29.8804 19.6677 29.9395 19.8011C29.9922 19.9197 30.3228 19.8541 30.4579 19.8312C30.5238 19.4366 30.6643 19.3479 30.8559 18.9898C30.786 19.2682 30.6504 19.7788 30.841 20.0865C30.9387 20.2443 31.0811 20.2958 31.186 20.3274C31.292 20.3591 31.3723 20.4193 31.472 20.473C31.6879 20.5897 31.9256 20.6313 32.1785 20.5819C32.5003 20.5192 32.7464 20.2924 32.8993 19.9964C33.0217 19.7593 33.0655 19.2469 32.9124 19.01C33.0567 19.2244 33.2068 19.4364 33.3312 19.6666C33.3987 19.7916 33.3839 19.83 33.5303 19.8462C33.6545 19.8599 33.782 19.8372 33.9058 19.8312C34.0235 19.8255 34.1862 19.8484 34.2397 19.756C34.2916 19.6664 34.2291 19.4853 34.2247 19.3922C34.2161 19.2078 34.1962 19.1887 34.0825 19.0493C34.008 18.9581 33.9417 18.8526 33.8717 18.7538C33.8076 18.6637 33.5734 18.4439 33.6653 18.3441Z" fill="#DAAA90"/>
<g id="Group_10" opacity="0.62">
<path id="Vector_68" d="M31.2128 19.0597C31.2169 18.9577 31.2243 18.86 31.2326 18.77C31.0301 18.975 30.9604 19.2211 30.9465 19.5009C30.9241 19.9511 31.2234 20.1728 31.6175 20.2644C31.1863 20.1643 31.2 19.3772 31.2128 19.0597Z" fill="#EDCFB9"/>
</g>
<g id="Group_11" opacity="0.62">
<path id="Vector_69" d="M32.5386 20.2071C32.5546 20.2287 32.5964 20.0859 32.6141 20.0265C32.639 19.9432 32.659 19.8628 32.6588 19.7713C32.6583 19.5902 32.5957 19.4122 32.6018 19.2321C32.7735 19.3488 32.8571 19.5271 32.8245 19.7418C32.804 19.8752 32.6763 20.1563 32.5386 20.2071Z" fill="#EDCFB9"/>
</g>
<path id="Vector_70" d="M33.0637 20.2668C33.0606 20.2715 33.0583 20.2763 33.0566 20.2812C33.0848 20.1965 33.134 20.1395 33.2093 20.091C33.4111 19.961 33.6748 19.9116 33.9108 19.8994C34.0257 19.8934 34.1441 19.8967 34.2559 19.9259C34.3388 19.9475 34.4811 20.0057 34.4708 20.1134C34.4614 20.2104 34.3053 20.2176 34.2341 20.2176C34.0711 20.2176 33.9058 20.2037 33.7435 20.1889C33.6215 20.1777 33.5012 20.1512 33.3781 20.1512C33.3173 20.1512 33.2546 20.1568 33.1974 20.1788C33.1599 20.1932 33.0891 20.2268 33.0637 20.2668Z" fill="#9B5B49"/>
<path id="Vector_71" d="M38.8936 14.3101C38.9167 14.3163 38.928 14.3514 38.9369 14.3155C38.8159 14.2917 38.6955 14.2629 38.5768 14.22C37.8418 13.9532 37.0709 13.6115 36.2569 13.6566C35.4482 13.7013 34.7941 14.2003 34.3188 14.7608C34.9522 14.3372 35.5513 13.8594 36.3481 13.8594C37.1641 13.8594 37.8312 14.2223 38.6232 14.3101C38.7638 14.3258 38.8862 14.3366 39.022 14.3101C38.9706 14.3209 38.919 14.3139 38.8936 14.3101Z" fill="#B3816A"/>
<path id="Vector_72" d="M35.2651 15.6172C35.6535 15.6037 36.0079 15.8828 36.4007 15.9215C36.8435 15.9651 37.3112 15.8579 37.6654 15.5835C37.8461 15.4436 38.0738 15.2085 38.3152 15.2004C38.163 15.2143 37.9985 15.4043 37.8883 15.5018C37.7547 15.6201 37.631 15.7346 37.4736 15.8233C37.1334 16.0146 36.7372 16.1179 36.3468 16.0544C36.1449 16.0216 35.96 15.9282 35.7835 15.8202C35.7018 15.7703 35.6127 15.7073 35.5246 15.6709C35.4353 15.634 35.3446 15.6518 35.2651 15.6172Z" fill="#B3816A"/>
<path id="Vector_73" d="M40.3358 7.39171C39.9159 6.73187 39.3819 6.24348 38.7136 5.84667C38.316 5.61067 37.8329 5.50557 37.3766 5.45743C36.4216 5.35683 35.4585 5.53027 34.5264 5.7248C34.1796 5.79727 33.8347 5.88795 33.49 5.97828C33.0005 6.10664 31.8723 6.29702 31.5344 5.78159C31.3419 5.48772 31.4711 4.91676 31.4477 4.5661C30.8293 6.09943 29.4431 6.65038 27.9412 6.25502C26.7053 5.9296 24.5924 5.4852 23.9298 7.03132C22.9446 9.33014 23.626 10.9096 23.4791 13.3712C23.517 12.7368 23.6572 12.9706 23.6994 12.3313C23.7627 11.3746 23.6066 10.3882 23.7495 9.44264C23.8561 8.73827 24.0616 7.95835 24.5327 7.39316C25.1732 6.6246 26.3557 6.60549 27.2274 6.84851C28.246 7.13246 29.2886 7.43137 30.3422 7.54982C30.5126 7.56893 30.6615 7.5774 30.7807 7.57236C30.7807 7.57236 31.3666 7.6625 31.9525 7.43714C31.9525 7.43714 34.6 5.96422 37.7564 6.06373C37.9297 6.10844 38.0873 6.17227 38.2191 6.26367C38.7188 6.60982 39.3667 7.30463 39.7949 7.75264C40.3635 8.34812 40.4688 9.31211 40.5135 10.0819C40.5399 10.5341 40.9401 12.7074 40.6062 12.9358C40.6062 12.9358 40.798 12.8046 40.9999 12.6663C41.1952 10.8636 41.3641 9.00797 40.3358 7.39171Z" fill="#533626"/>
<path id="Vector_74" d="M31.0838 20.3645C31.0868 20.3692 31.0892 20.3741 31.0908 20.3789C31.0626 20.2942 31.0134 20.2372 30.9381 20.1887C30.7363 20.0586 30.4726 20.0093 30.2366 19.9971C30.1218 19.9911 30.0033 19.9944 29.8915 20.0236C29.8086 20.0452 29.6664 20.1034 29.6768 20.2109C29.6862 20.3079 29.8423 20.3151 29.9133 20.3151C30.0763 20.3151 30.2416 20.3014 30.4039 20.2864C30.526 20.2753 30.6462 20.2488 30.7693 20.2488C30.8301 20.2488 30.8928 20.2543 30.95 20.2763C30.9875 20.2908 31.0583 20.3245 31.0838 20.3645Z" fill="#9B5B49"/>
<path id="Vector_75" d="M41.4173 17.3975C41.0647 17.3869 41.1224 16.9825 41.2426 16.7898C41.4072 16.5262 41.5691 16.2655 41.5981 15.9553C41.6519 15.3807 41.1279 14.9631 40.6752 14.7643C40.6716 14.7381 40.6785 14.7143 40.6962 14.6933C40.855 14.5029 41.0052 14.3466 41.1633 14.1473C41.3326 13.9341 41.4562 13.6752 41.6933 13.5264C42.1145 13.262 42.8895 13.123 42.9272 12.4916C42.9833 13.0054 42.4096 13.371 42.0533 13.6398C41.6349 13.9553 41.2992 14.2333 40.9646 14.6484C41.1384 14.8117 41.391 14.8332 41.5752 15.0484C41.7607 15.2653 41.8853 15.5253 41.8682 15.8202C41.8521 16.0948 41.6798 16.3355 41.5357 16.5689C41.4753 16.6663 41.1108 17.5409 41.4173 17.3975Z" fill="#CE9B7D"/>
<path id="Vector_76" d="M42.1689 13.6416C42.121 13.8288 42.243 14.1547 42.2736 14.3628C42.3104 14.6126 42.3804 14.8613 42.3943 15.114C42.4256 15.6888 42.5336 16.166 42.2854 16.7207C42.236 16.8311 42.1608 16.9277 42.1231 17.0362C42.1072 17.0818 42.0991 17.135 42.0905 17.1839C42.087 17.2034 42.0672 17.3496 42.0788 17.2924C42.1388 17.2259 42.1808 17.1177 42.2715 17.1148C42.3155 17.2803 42.3193 17.4449 42.3193 17.6229C42.3193 17.8131 42.267 17.9786 42.2585 18.1592C42.4992 17.7107 42.426 17.2409 42.5899 16.7824C42.6706 16.5561 42.7391 16.3553 42.6613 16.1088C42.6322 16.0169 42.5327 15.8907 42.5628 15.7897C42.6027 15.6561 42.7033 15.6794 42.669 15.5038C42.6385 15.348 42.5349 15.2108 42.4884 15.0538C42.441 14.8943 42.4038 14.7352 42.364 14.573C42.2989 14.3092 42.0689 13.9139 42.1689 13.6416Z" fill="#CE9B7D"/>
<g id="Group_12" opacity="0.52">
<path id="Vector_77" d="M24.9514 24.9996L24.9521 24.9995C24.9523 24.9257 24.9501 24.8505 24.9514 24.7773C24.9514 24.8507 24.9454 24.9268 24.9514 24.9996Z" fill="#E6BA9F"/>
</g>
<g id="Group_13" opacity="0.52">
<path id="Vector_78" d="M24.9514 24.9996L24.9521 24.9995C24.9523 24.9257 24.9501 24.8505 24.9514 24.7773C24.9514 24.8507 24.9454 24.9268 24.9514 24.9996Z" fill="#E6BA9F"/>
</g>
<path id="Vector_79" d="M30.7373 33.2774C30.8521 33.3623 30.9248 33.5107 30.9928 33.6324C31.062 33.7562 31.1314 33.8877 31.2403 33.982C31.4402 34.1547 31.8547 34.0076 32.1248 34.0214C32.4513 34.0382 32.8319 34.1826 33.1093 33.9297C33.3509 33.7094 33.5981 33.3625 33.8166 33.1054C33.7219 33.2168 33.6887 33.4764 33.6193 33.6145C33.4455 33.9601 33.3002 34.4649 32.8459 34.4949C32.5194 34.5163 32.2108 34.43 31.8875 34.4788C31.6249 34.5185 31.3342 34.5367 31.1332 34.3146C31.0355 34.2064 30.9796 34.0595 30.9309 33.9244C30.8759 33.7714 30.8325 33.6144 30.7892 33.4577C30.7734 33.3987 30.7627 33.3326 30.7373 33.2774Z" fill="#D8A88E"/>
<path id="Vector_80" d="M30.3947 13.1257C30.4046 13.1511 29.2511 13.1713 28.5498 13.0709C28.2905 13.0337 25.7051 12.8772 26.0092 13.5154C26.0332 13.5659 26.5183 13.7098 26.6108 13.7543C26.8472 13.8683 27.0276 13.8852 27.2952 13.882C27.544 13.8791 27.7805 13.8481 28.0163 13.8219C28.2345 13.7978 29.4972 14.2519 29.8727 14.4309C30.0916 14.5351 30.2699 14.7156 30.4042 14.9336C30.1572 15.4313 29.4161 16.5976 29.023 16.4961C28.9917 16.5194 29.1022 16.5028 29.0842 16.5367C29.5774 16.395 29.8542 16.106 30.2501 15.7874C30.4278 15.6444 30.545 15.5478 30.607 15.4551C30.6451 15.6581 30.6508 15.8712 30.6488 16.0683C30.6478 16.1786 30.6809 17.4761 30.5706 17.5102C30.8636 17.4201 31.3368 16.2933 31.3368 16.2933C31.4677 15.2887 30.8551 13.993 30.3947 13.1257Z" fill="#DAAA90"/>
<path id="Vector_81" d="M38.3738 13.0202C38.0953 12.8729 37.7965 12.7615 37.4785 12.7316C37.1612 12.7018 36.9061 12.7552 36.6175 12.8617C35.8242 13.1547 35.0456 13.2145 34.2054 13.2948C33.9013 13.3238 33.6687 13.3467 33.5169 13.5591C33.4809 13.6095 33.4493 13.6708 33.4225 13.7453C33.3146 14.0448 33.2445 14.3648 33.1558 14.6705C33.01 15.1739 32.8641 15.6771 32.7183 16.1804C32.7183 16.1804 33.4086 17.4862 33.4093 17.4875C33.3653 17.4046 33.4019 17.192 33.3999 17.101C33.3938 16.8175 33.3527 16.526 33.3581 16.2482C33.3637 15.9612 33.4688 15.6614 33.6175 15.3801C33.6657 15.4211 33.7208 15.4658 33.7839 15.5166C34.1798 15.8352 34.4566 16.1242 34.9498 16.2659C34.9316 16.232 35.0421 16.2486 35.0109 16.2253C34.6971 16.3064 34.1614 15.5788 33.8321 15.0284C33.9381 14.873 34.0506 14.7279 34.1593 14.6027C34.6563 14.0312 35.393 13.5823 36.1437 13.5436C36.4832 13.5261 36.8192 13.5816 37.1545 13.6247C37.2946 13.6427 37.459 13.6872 37.5975 13.6871C37.7242 13.6867 37.8189 13.6312 37.9465 13.6113C38.0745 13.5913 38.2222 13.6112 38.3522 13.6112C38.6017 13.6112 38.9363 13.6647 39.133 13.4934C38.9257 13.3151 38.6203 13.1504 38.3738 13.0202Z" fill="#DAAA90"/>
<path id="Vector_82" d="M33.1221 12.8156C33.0514 13.068 33.1605 13.3307 33.2259 13.5699C33.269 13.7273 33.2921 13.9424 33.3494 14.0796C33.5292 13.8026 33.8881 13.7558 34.1854 13.6981C34.4665 13.6434 34.7418 13.5677 35.0116 13.4743C35.4831 13.3112 35.9587 13.1495 36.4384 13.0117C37.2144 12.7891 37.7963 13.0691 38.5072 13.3032C38.8139 13.4044 39.1205 13.5053 39.4257 13.6108C39.546 13.6523 39.7733 13.6865 39.8696 13.7767C39.8691 13.7761 38.2169 12.2293 38.2169 12.2293C37.6157 12.2098 37.011 12.2277 36.4107 12.2621C35.8682 12.2933 35.3259 12.3432 34.7886 12.4263C34.3282 12.4975 33.801 12.4694 33.3566 12.6043C33.2129 12.6481 33.1486 12.7209 33.1221 12.8156Z" fill="#755034"/>
<path id="Vector_83" d="M26.2886 12.2444C26.2886 12.2444 24.7111 13.6867 24.666 14.1374C24.666 14.1374 27.0999 12.9205 28.0238 13.2811C28.0238 13.2811 30.5929 14.0022 30.7957 13.9797C30.7957 13.9797 31.2239 12.4698 30.7281 12.5374C30.2323 12.605 29.8943 12.605 29.5788 12.6951C29.2633 12.7853 26.7618 12.1317 26.2886 12.2444Z" fill="#755034"/>
<g id="Group_14">
<path id="Vector_84" d="M26.2522 14.6317C26.2388 14.7345 26.2127 14.7758 26.2588 14.8793C26.2951 14.9606 26.354 15.0354 26.4095 15.1016C26.5541 15.2745 26.7438 15.3655 26.9545 15.4447C27.1464 15.5168 27.3663 15.54 27.565 15.5658C27.7283 15.5871 27.9167 15.5032 28.0673 15.438C28.1275 15.4118 28.2941 15.4178 28.3469 15.3783C28.0081 15.6466 27.62 15.6709 27.3413 15.6478C26.9639 15.6166 26.5996 15.4904 26.2837 15.2649C26.1699 15.1836 25.9879 15.1048 25.9985 14.9406C26.0064 14.8185 26.1443 14.6685 26.2522 14.6317Z" fill="#E2DEDE"/>
<path id="Vector_85" d="M29.7309 15.2629C29.6174 15.4434 29.2375 15.2076 29.0942 15.1585C29.0295 15.1363 28.9741 15.1308 28.9224 15.1318C28.9674 15.0307 28.9792 14.9153 28.9801 14.7632C29.2231 14.9532 29.471 15.1416 29.7309 15.2629Z" fill="#F9DCDC"/>
<path id="Vector_86" d="M26.2446 14.9086C26.1682 14.6984 26.3183 14.6151 26.4865 14.5178C26.8237 14.3229 27.2257 14.2133 27.6159 14.1871C27.9099 14.1673 28.2054 14.2075 28.4699 14.3433C28.5701 14.3948 28.6633 14.4361 28.7439 14.5156C28.8039 14.5749 28.9435 14.6921 28.9759 14.7641C28.9907 14.7967 28.9675 15.1308 28.9224 15.1317C28.6985 15.1362 28.571 15.3233 28.3545 15.43C28.1965 15.5077 28.0103 15.5577 27.8387 15.5856C27.4803 15.6442 27.1572 15.6118 26.8444 15.4183C26.6434 15.2939 26.3529 15.1643 26.2541 14.933C26.2507 14.9247 26.2475 14.9166 26.2446 14.9086Z" fill="white"/>
<path id="Vector_87" d="M28.4894 14.3202C28.4894 14.3202 28.6646 15.275 27.9658 15.4757C27.9658 15.4757 27.578 15.6293 27.1383 15.4157C27.1383 15.4157 26.5531 15.0546 26.8097 14.2946L27.6647 14.2188L28.4894 14.3202Z" fill="#596C5E"/>
<path id="Vector_88" d="M25.4214 15.061C25.6329 15.0433 26.0048 14.611 26.2134 14.498C26.4633 14.3626 27.0423 14.0763 27.5946 14.0774C27.8473 14.0779 28.4235 14.1471 28.6332 14.2988C28.8466 14.4531 29.0069 14.7026 29.217 14.8722C29.3888 15.0112 29.6154 15.1811 29.7769 15.2921C29.5927 15.1872 29.3922 15.1349 29.207 14.9916C28.9876 14.8218 28.7835 14.6298 28.5524 14.4834C28.1394 14.222 27.4586 14.2189 27.0285 14.3319C26.7214 14.4127 26.4514 14.5942 26.1709 14.7486C25.9857 14.8503 25.6175 15.1548 25.4214 15.061Z" fill="#281A13"/>
<path id="Vector_89" d="M27.2091 14.7908C27.2132 15.021 27.4034 15.2042 27.6335 15.2C27.8637 15.1959 28.0468 15.0057 28.0427 14.7754C28.0385 14.5452 27.8484 14.362 27.6183 14.3662C27.3879 14.3705 27.2047 14.5605 27.2091 14.7908Z" fill="#050404"/>
<path id="Vector_90" d="M27.229 14.5689C27.2305 14.6469 27.2948 14.7091 27.3729 14.7077C27.451 14.7062 27.5132 14.6419 27.5117 14.5638C27.5103 14.4857 27.4459 14.4235 27.3679 14.425C27.2896 14.4262 27.2276 14.4906 27.229 14.5689Z" fill="white"/>
<path id="Vector_91" d="M25.214 14.3813C25.1909 14.3878 25.1803 14.4234 25.1709 14.3877C25.2913 14.3617 25.4112 14.3307 25.5289 14.2854C26.2591 14.0051 27.0235 13.6494 27.8382 13.6795C28.6477 13.7094 29.3108 14.1964 29.7961 14.748C29.1552 14.3361 28.5473 13.8693 27.7506 13.8839C26.9346 13.8989 26.2744 14.2741 25.4842 14.3763C25.344 14.3945 25.2217 14.4077 25.0854 14.3837C25.1372 14.3934 25.1886 14.3855 25.214 14.3813Z" fill="#B3816A"/>
<path id="Vector_92" d="M28.839 15.5873C28.4505 15.581 28.1013 15.8665 27.7092 15.9123C27.2673 15.9639 26.7977 15.8653 26.4385 15.5976C26.2554 15.4609 26.0235 15.2301 25.7817 15.2265C25.9341 15.2377 26.1021 15.4247 26.2143 15.52C26.35 15.6358 26.4757 15.7481 26.6349 15.8337C26.9785 16.0187 27.3765 16.1148 27.7658 16.0441C27.967 16.0075 28.1503 15.9107 28.3249 15.7997C28.4056 15.7483 28.4934 15.6837 28.5808 15.6457C28.6692 15.6071 28.7602 15.6233 28.839 15.5873Z" fill="#B3816A"/>
</g>
<g id="Group_15" opacity="0.39">
<path id="Vector_93" d="M25.2517 41.2253C26.3651 39.8892 26.2982 37.4719 25.7173 35.9503C25.439 35.221 25.0499 34.6068 24.7079 33.912C24.8725 35.3065 23.3451 35.7934 22.2769 36.1574C20.8776 36.6343 19.2741 36.9164 17.9501 37.6875C16.6713 38.4325 15.8674 39.7513 14.4367 40.2314C14.2847 40.2824 14.1309 40.3123 13.9761 40.3301C17.9862 41.7759 22.7232 44.2 25.2517 41.2253Z" fill="#D8A88E"/>
</g>
<g id="Group_16" opacity="0.39">
<path id="Vector_94" d="M38.7732 41.5859C42.3441 42.0959 45.5543 40.6224 48.9139 39.9072C48.6739 39.6871 48.4202 39.4389 48.148 39.152C46.6291 37.5511 44.8782 36.3248 42.6794 35.9956C42.1679 35.919 41.6822 35.7915 41.1802 35.6934C40.9115 35.641 40.5998 35.7078 40.3357 35.6379C39.4263 35.3969 38.2516 34.2596 37.2954 34.543C36.5786 34.7558 36.6348 35.6745 36.5872 36.2803C36.4435 38.1073 36.4033 41.1909 38.7732 41.5859Z" fill="#D8A88E"/>
</g>
<path id="Vector_95" d="M34.4522 40.8289C34.0442 41.1305 33.8091 41.5534 33.3258 41.8028C32.8688 42.0384 32.358 42.168 31.8449 42.1893C30.699 42.2371 29.6759 41.7651 29.0801 40.7784C30.3664 42.0272 33.0925 41.8341 34.4522 40.8289Z" fill="#D8A88E"/>
<path id="Vector_96" d="M17.3417 41.4957C18.0178 42.014 19.6731 42.272 20.4999 42.4062C21.7488 42.6088 22.9046 42.7179 24.13 42.3999C25.2243 42.1157 26.5132 41.3733 27.6811 41.6089C28.6721 41.8089 29.4942 43.0098 30.277 43.5701C29.0846 43.6491 28.1859 43.0512 26.9707 43.1123C25.8492 43.1688 24.7325 43.4489 23.5776 43.5066C22.3989 43.5656 20.9211 43.6323 19.8689 43.1123C19.3959 42.8787 17.2505 41.9767 17.3417 41.4957Z" fill="#D8A88E"/>
<path id="Vector_97" d="M47.2828 40.1378C46.8633 40.4977 45.9247 40.7384 45.3853 40.9396C44.6152 41.2267 43.7767 41.3832 42.9802 41.5727C42.0063 41.8042 40.9707 41.9057 39.9707 41.8642C38.995 41.8238 38.1074 41.2954 37.1382 41.491C36.0062 41.7195 35.0671 43.0913 34.1729 43.7313C34.3865 43.5784 35.3752 43.6366 35.6925 43.5658C36.2133 43.4495 36.7463 43.2523 37.2833 43.2295C38.3883 43.1825 39.5198 43.2047 40.6364 43.1484C41.4239 43.1086 42.2486 43.1093 42.9802 42.7458C44.4563 42.0124 45.8359 40.9511 47.2828 40.1378Z" fill="#D8A88E"/>
<path id="Vector_98" d="M35.5283 49.879C37.1671 48.7109 39.8227 47.5889 41.8311 47.3029C40.8281 48.1041 39.4666 48.793 38.3227 49.4036C37.5556 49.813 36.9982 50.0341 36.7048 50.7804C36.4467 51.4374 36.4153 52.1573 36.2494 52.8584C35.9017 54.3277 35.4719 55.7889 35.1701 57.2729C34.9355 58.4262 34.9994 60.4378 34.1039 61.3179C33.9395 60.1446 34.2692 58.6483 34.4242 57.4708C34.5762 56.3172 34.6092 55.1976 34.7147 54.0459C34.8191 52.9105 34.5782 50.5562 35.5283 49.879Z" fill="#D8A88E"/>
<g id="Group_17" opacity="0.62">
<path id="Vector_99" d="M34.0861 61.5074C34.0861 61.5074 35.1679 50.3297 36.7003 49.1578L33.996 50.6903C33.996 50.6903 32.6439 59.8848 34.0861 61.5074Z" fill="#EDCFB9"/>
</g>
<path id="Vector_100" d="M25.072 47.986C26.8162 47.7691 28.254 51.58 28.7453 52.8741C29.1376 53.9073 29.5649 54.8527 29.8468 55.9233C30.1059 56.9067 29.7875 58.1485 30.1245 59.1365C30.1151 58.1995 29.1854 56.8872 28.6997 56.0989C28.1132 55.1469 27.2601 54.3533 26.6697 53.3946C26.1493 52.5494 25.8348 51.5111 25.4302 50.6027C25.2764 50.2572 24.2675 47.5905 25.072 47.986Z" fill="#D8A88E"/>
<g id="Group_18" opacity="0.62">
<path id="Vector_101" d="M30.2098 59.7947C30.2098 57.661 29.9109 56.7917 28.7675 54.927C28.1329 53.892 27.5154 52.8101 27.0773 51.6772C26.769 50.88 26.9675 49.9976 26.6962 49.2459C26.1505 47.7338 23.5717 47.8391 22.2093 47.8959C20.1519 47.9815 18.007 48.1214 15.9671 48.3466C15.885 48.3556 15.5019 48.3314 15.5937 48.3466C17.25 48.3466 19.0088 48.178 20.6545 48.3469C22.5374 48.54 23.3546 49.7281 24.4605 51.141C25.5348 52.5137 26.5628 54.0492 27.7053 55.3752C28.7498 56.5874 29.6161 57.7016 30.0293 59.256C30.0803 59.4477 30.2098 60.0704 30.2098 59.7947Z" fill="#EDCFB9"/>
</g>
<g id="Group_19" opacity="0.46">
<path id="Vector_102" d="M31.6821 10.8205C30.9265 10.7336 30.1666 10.6471 29.4078 10.5762C28.8146 10.5209 28.0162 10.5283 27.833 11.2346C27.4625 12.6636 29.6823 11.7814 30.1796 11.7155C31.097 11.5938 35.8362 12.6811 35.8283 10.9974C35.822 9.66256 33.7716 10.5411 33.184 10.6936C32.6654 10.8285 32.2119 10.8815 31.6821 10.8205Z" fill="#EDCFB9"/>
</g>
<g id="Group_20" opacity="0.62">
<path id="Vector_103" d="M6.46724 52.0729C5.85896 50.3146 5.54922 48.5517 6.58964 46.6939C7.31006 45.4076 8.6759 43.6204 10.2105 43.4673C10.2613 44.4944 10.1715 45.5421 10.2283 46.5737C10.3021 47.917 10.2159 48.1 9.14986 48.8604C7.31528 50.1691 6.98538 51.2591 6.98285 53.442C6.80311 52.985 6.62517 52.529 6.46724 52.0729Z" fill="#EDCFB9"/>
</g>
<g id="Group_21">
<path id="Vector_104" d="M50.1311 117.727C50.9114 118.618 50.9711 120.895 51.1796 121.989C51.6713 124.566 51.8873 126.484 52.8298 128.849C53.1525 129.659 53.3346 130.503 53.6863 131.364C54.6254 133.664 55.7793 135.876 56.67 138.175C58.3847 142.6 57.7422 146.135 57.5172 150.654C57.362 153.773 57.0337 156.356 56.2602 159.304C55.4744 162.3 54.9862 164.285 55.8894 167.237C57.9005 173.807 56.0473 181.722 55.2335 188.274C55.2323 188.285 50.798 210.892 50.798 210.892C50.798 210.892 52.0273 212.921 51.4811 214.169C51.072 215.104 53.8288 218.863 54.3837 219.779C56.1643 222.715 52.2684 222.022 50.5248 222.128C50.0788 222.155 49.3964 222.337 49.0254 222.288C47.9916 222.151 48.4532 221.981 47.899 221.539C47.4809 221.205 47.9314 220.553 47.1402 220.759C46.7401 220.863 46.6379 221.762 46.3271 222.011C45.6656 222.541 44.2392 222.969 43.6951 222.128C43.0839 221.182 44.0335 219.717 44.3436 218.847C45.0872 216.759 44.1835 215.043 44.6171 213.077C45.1201 210.795 45.0718 209.283 44.3777 207.146L40.9625 185.766V181.084C41.509 179.992 42.4652 176.246 42.4652 176.246C42.4652 176.246 40.5529 169.224 39.8698 168.443C38.0354 166.347 38.8415 163.542 39.173 161.027C39.5377 158.259 38.3312 156.12 37.5109 153.574C36.7656 151.261 35.9086 149.048 35.9084 146.594C35.9082 143.004 33.9959 130.989 34.4057 129.584C34.8155 128.18 36.3182 122.717 36.3182 122.717C36.3182 122.717 33.5861 126.463 30.0345 122.717C28.2908 120.878 30.0269 115.775 30.8162 113.548C31.4085 111.878 31.8783 110.288 32.0872 108.511C32.2517 107.112 32.1884 105.604 32.7705 104.302C33.9588 101.646 37.4139 102.401 39.7369 102.43C42.3977 102.462 45.0811 103.017 47.6531 102.43C48.6942 102.191 49.448 116.946 50.1311 117.727Z" fill="#E6BA9F"/>
<path id="Vector_105" d="M42.1353 163.449C42.1353 163.449 43.7246 168.948 45.1323 170.037C46.54 171.127 45.314 171.231 43.8155 170.245C43.8155 170.245 42.4078 169.104 42.1353 163.449Z" fill="#D8A88E"/>
<path id="Vector_106" d="M46.7856 171.907C46.7856 171.907 49.4494 183.378 48.22 190.225C48.22 190.225 47.4004 171.907 46.7856 171.907Z" fill="#D8A88E"/>
<path id="Vector_107" d="M43.9109 204.421C43.8781 204.848 44.2208 205.298 44.3924 205.67C44.5376 205.985 44.6376 206.299 44.7296 206.63C44.905 207.264 45.0876 207.902 45.2848 208.532C45.5571 209.401 45.8286 210.393 45.7947 211.312C45.7626 212.181 45.4556 212.766 44.8951 213.42C44.6812 213.669 44.6071 213.926 44.572 214.239C44.4656 215.182 45.5937 215.677 45.4305 216.579C45.3999 216.748 44.7824 218.097 44.64 218.088C44.6344 218.103 44.6286 218.118 44.623 218.134C44.8321 216.753 44.6895 216.02 44.4059 214.741C44.2071 213.844 44.5765 212.956 44.7407 212.085C44.9035 211.222 44.7013 210.444 44.6638 209.583C44.6392 209.021 44.4784 208.484 44.4234 207.928C44.3192 206.876 44.0412 205.828 43.9395 204.774C43.9276 204.653 43.9235 204.541 43.9109 204.421Z" fill="#D8A88E"/>
<path id="Vector_108" d="M38.9321 162.929C38.9537 162.797 38.9746 162.666 38.9932 162.535C39.1576 161.373 39.2371 160.204 39.0637 159.042C38.6851 156.504 37.3483 154.397 36.8752 151.925C36.6761 150.885 36.1658 149.861 36.1587 148.793C36.1337 149.927 37.012 151.088 37.4407 152.081C37.894 153.13 38.3946 154.248 39.0749 155.173C39.6512 155.957 42.4361 161.038 42.9036 160.418C42.3256 161.185 41.2192 161.487 40.3935 161.896C39.4801 162.348 38.8145 163.142 38.7729 164.196C38.7893 163.776 38.8634 163.35 38.9321 162.929Z" fill="#D8A88E"/>
<path id="Vector_109" d="M52.3094 164.225C51.8769 164.651 51.9298 165.772 51.8025 166.354C51.6624 166.994 51.5492 167.617 51.3518 168.249C51.0894 169.089 50.7208 170.868 49.6987 171.083C50.1444 171.674 51.2155 171.386 51.6335 170.942C52.2462 170.291 52.443 169.433 52.4899 168.562C52.5759 166.966 51.9543 165.427 52.5393 163.925C52.3266 164.117 52.2597 164.404 52.0843 164.631L52.3094 164.225Z" fill="#D8A88E"/>
<path id="Vector_110" d="M40.0347 168.447C40.9768 169.685 41.9093 171.166 42.9162 172.41C43.3115 172.898 44.4295 173.522 44.5775 174.119C44.7401 174.776 43.8767 175.741 43.5499 176.286C41.6825 179.4 41.1964 182.878 41.2098 186.559C40.8962 185.059 40.699 183.273 40.8759 181.668C41.0342 180.231 41.8613 178.854 42.1947 177.458C42.5599 175.929 42.0705 174.563 41.5669 173.014C41.1858 171.84 40.855 169.203 40.0347 168.447Z" fill="#D8A88E"/>
<g id="Group_22">
<path id="Vector_111" d="M56.255 159.488C56.7389 157.622 57.1386 156.331 57.2916 154.801C57.3396 154.321 59.0945 140.828 55.6152 142.558C52.8887 143.913 54.1125 148.426 54.2255 150.876C54.3737 154.084 54.0955 157.375 52.145 160.051C54.2086 161.523 55.1828 164.353 54.5104 166.825C54.6166 166.435 54.6982 166.053 54.903 165.701C55.4186 166.344 55.6083 167.292 56.067 167.955C55.6566 166.757 55.4904 165.59 55.4889 164.311C55.4882 163.702 55.6373 163.176 55.7154 162.598C55.7889 162.052 56.1178 160.017 56.255 159.488Z" fill="#D8A88E"/>
<path id="Vector_112" d="M52.418 167.586C52.43 167.657 52.4446 167.727 52.4544 167.799C52.4455 167.733 52.4328 167.661 52.418 167.586Z" fill="#D8A88E"/>
</g>
<path id="Vector_113" d="M49.9507 220.97C49.9507 221.036 49.9581 221.096 49.9691 221.152C49.9684 221.095 49.9637 221.035 49.9507 220.97Z" fill="#E6BA9F"/>
<path id="Vector_114" d="M53.3761 220.97C53.7367 221.33 53.1958 221.511 53.1958 221.511C52.4747 221.691 51.9338 221.511 51.5732 220.79C51.5732 220.97 51.5732 221.33 51.5732 221.511C51.072 221.845 50.1077 221.868 49.9691 221.152C49.9766 221.893 49.0103 222.026 48.5084 221.691C48.1478 221.33 47.7872 220.429 47.4267 220.429C46.345 220.79 45.8041 222.412 44.3618 222.052C44.0229 221.967 43.7249 221.801 43.5029 221.557C43.5233 221.76 43.5823 221.953 43.6951 222.127C44.2392 222.969 45.6656 222.541 46.3271 222.01C46.6379 221.761 46.7401 220.863 47.1402 220.759C47.9315 220.553 47.4809 221.205 47.899 221.538C48.4532 221.981 47.9917 222.15 49.0254 222.288C49.3967 222.337 50.0788 222.155 50.5249 222.128C51.9406 222.042 54.7755 222.482 54.838 221.079C54.4497 221.443 53.913 221.507 53.3761 220.97Z" fill="#D8A88E"/>
<path id="Vector_115" d="M56.0744 182.371C55.9048 183.452 54.6336 185.462 53.9135 186.531C52.678 188.365 51.3315 190.201 50.9523 192.424C50.5155 194.985 50.8705 197.709 50.7317 200.296C50.6495 201.832 50.5299 203.39 50.4674 204.935C50.4232 206.026 49.8474 209.683 50.8332 210.407C51.9854 209.272 55.5105 188.469 56.0744 182.371Z" fill="#D8A88E"/>
<path id="Vector_116" d="M41.5495 189.67C41.6326 190.066 41.7218 190.458 41.7804 190.834C42.5486 195.76 43.2015 200.676 43.9945 205.592C44.1705 206.683 44.5476 209.578 45.4435 210.285C46.2048 209.527 45.5006 207.134 45.3205 206.187C45.0456 204.74 44.8768 203.283 44.6088 201.853C44.35 200.473 44.1315 199.06 43.8815 197.653C43.4946 195.477 44.1526 192.697 43.2665 190.696C42.7996 189.642 41.8183 188.67 41.3573 187.728C41.2917 188.347 41.4119 189.014 41.5495 189.67Z" fill="#D8A88E"/>
<path id="Vector_117" d="M41.1168 184.312C40.3792 186.003 41.9106 187.889 42.909 189.109C44.1838 190.667 45.7016 192.045 46.3313 194.001C46.4512 194.373 46.534 194.858 46.5718 195.249C46.671 196.274 46.3742 197.24 46.4049 198.236C46.2127 197.133 46.0414 196.103 45.6985 195.005C45.4962 194.358 45.1479 193.807 44.7688 193.251C43.9128 191.997 42.8257 190.897 42.0799 189.563C41.16 187.917 41.1782 186.374 40.8784 184.589C40.906 184.751 41.1741 184.18 41.1168 184.312Z" fill="#D8A88E"/>
<g id="Group_23" opacity="0.62">
<path id="Vector_118" d="M38.292 151.199C39.8628 152.645 40.6975 154.914 41.7823 156.608C42.6199 157.916 46.2543 160.738 47.005 158.231C47.5413 156.439 44.0402 155.43 42.5976 154.494C40.999 153.457 39.4806 152.332 38.292 151.199Z" fill="#EDCFB9"/>
</g>
</g>
<path id="Vector_119" d="M14.7142 99.9938C14.7142 99.9938 41.181 102.25 51.9496 100.505C53.7889 107.101 54.769 113.718 56.0989 120.407C57.1031 125.457 57.9683 130.536 58.498 135.642C58.7408 137.983 58.9139 140.333 58.9435 142.684C58.9553 143.633 59.0819 145.171 58.3662 145.956C57.6227 146.771 56.0766 146.647 55.0176 146.656C52.3998 146.678 49.7821 146.7 47.1641 146.722C44.5258 146.744 41.8874 146.767 39.2491 146.789C37.3756 146.805 34.5343 147.593 34.7969 145.128C34.9167 144.003 35.08 142.848 35.08 141.645C35.08 136.884 34.9101 132.176 34.5968 127.419C33.6824 127.527 33.2578 127.354 32.3397 127.31C32.1379 131.036 32.7476 134.732 32.4983 138.455C32.3676 140.406 32.8482 144.048 31.3106 145.671C30.1182 146.93 25.7949 146.144 24.1349 146.117C20.7808 146.063 17.427 146.008 14.073 145.954C12.5093 145.929 10.7043 146.12 9.16901 145.875C7.96037 145.683 7.82752 145.053 7.77866 143.952C7.62434 140.481 8.38496 136.824 8.78988 133.368C9.28513 129.142 9.82579 124.92 10.4476 120.707C11.0972 116.305 11.806 111.9 12.8086 107.547C13.3639 105.136 12.9599 102.028 14.7142 99.9938Z" fill="black"/>
<path id="Vector_120" d="M37.2315 144.889C37.6617 138.94 35.0802 132.81 37.877 127.402C39.598 124.337 43.9006 121.633 43.6856 117.847C42.1796 121.993 36.8014 125.779 31.4231 126.14C29.6046 132.845 31.598 139.422 30.7687 145.979C30.9861 145.883 31.1709 145.764 31.3112 145.616C32.8486 143.992 32.368 140.35 32.4989 138.399C32.7482 134.676 32.8573 131.123 33.0588 127.397C33.1138 127.4 32.5221 127.521 33.3819 127.42C33.6952 132.176 34.9172 143.948 34.7975 145.072C34.5348 147.538 37.3761 146.749 39.2497 146.733C41.8881 146.711 44.5264 146.689 47.1647 146.666C47.241 146.666 47.3174 146.665 47.3937 146.664C44.0483 145.855 40.6402 145.27 37.2315 144.889Z" fill="black"/>
<path id="Vector_121" d="M15.9207 102.583C13.3201 102.96 14.0261 105.623 13.6444 107.27C13.0971 109.631 12.9044 111.786 12.7648 114.248C12.7001 115.39 12.5236 116.572 12.5124 117.726C12.4975 119.259 13.2938 119.227 14.7847 118.688C17.6819 117.641 18.9537 115.311 20.2209 113.039C21.7542 110.29 23.0432 107.782 22.7378 104.659C22.5597 102.838 21.761 102.236 19.645 102.075C18.2096 101.966 16.3076 102.172 15.0689 102.943L15.9207 102.583Z" fill="black"/>
<path id="Vector_122" d="M50.0969 103.214C52.7051 103.591 51.9972 106.254 52.3799 107.901C52.9289 110.262 53.1221 112.417 53.2622 114.879C53.3271 116.021 53.504 117.203 53.5153 118.358C53.5303 119.89 52.7318 119.858 51.2364 119.319C48.3309 118.272 47.0553 115.942 45.7843 113.67C44.2465 110.921 42.9537 108.413 43.2602 105.29C43.4388 103.469 44.2397 102.867 46.362 102.706C47.8016 102.597 49.7091 102.803 50.9515 103.574L50.0969 103.214Z" fill="black"/>
<path id="Vector_123" d="M58.9434 142.628C58.9139 140.277 58.7408 137.928 58.498 135.586C57.9685 130.48 57.1031 125.401 56.0989 120.351C54.986 114.754 54.1163 109.207 52.7847 103.68C52.7672 103.607 52.7494 103.534 52.7317 103.461C52.6665 103.193 52.6005 102.924 52.5329 102.656C52.4918 102.492 52.4494 102.329 52.4074 102.166C52.3569 101.969 52.307 101.773 52.255 101.577C52.1557 101.201 52.0544 100.825 51.9496 100.449C51.7667 100.479 51.5784 100.507 51.3866 100.534C40.2886 102.118 14.3535 99.9383 14.3535 99.9383C14.0823 100.253 14.2246 100.594 14.045 100.953C14.0414 100.96 14.0378 100.967 14.0342 100.974C13.9724 101.1 13.915 101.227 13.8624 101.357C13.8595 101.364 13.8566 101.371 13.8537 101.378C13.7472 101.643 13.6581 101.915 13.5833 102.195C13.582 102.199 13.5808 102.203 13.5797 102.208C13.5427 102.346 13.5092 102.486 13.4786 102.627C13.4769 102.635 13.4755 102.642 13.4739 102.649C13.4122 102.936 13.3619 103.227 13.3197 103.521C13.3195 103.523 13.3192 103.525 13.319 103.527C13.3031 103.637 13.288 103.747 13.2741 103.858C13.2745 103.858 13.275 103.858 13.2754 103.858C13.1187 105.101 13.0666 106.371 12.8086 107.491C11.806 111.844 11.0972 116.25 10.4476 120.652C9.82579 124.865 9.28511 129.087 8.78986 133.313C8.38494 136.768 7.62434 140.426 7.77866 143.897C7.82752 144.998 7.96055 145.627 9.16901 145.82C10.7043 146.064 12.5093 145.874 14.073 145.899C15.461 145.921 16.849 145.944 18.237 145.966C17.0918 145.463 15.867 145.051 14.4272 144.89C12.9213 144.709 10.5549 145.791 10.5549 144.529C10.2963 136.298 11.5904 128.131 12.6184 119.913C13.8766 120.167 16.1405 119.901 16.7936 119.797C18.8831 119.464 20.3851 119.031 20.9842 117.152C22.047 113.822 22.387 109.753 22.387 106.225C22.4586 108.728 20.5697 111.868 18.9801 113.907C18.1631 114.956 14.8188 118.614 12.7102 119.172C13.3314 114.118 13.8288 109.043 13.7849 103.919C19.8003 104.639 25.8968 105.246 32.0065 105.503L32.1395 118.208C32.1395 118.208 36.2947 119.599 35.8934 105.616C41.0014 105.697 46.1079 105.495 51.1733 104.875C51.5456 106.435 51.9177 107.994 52.29 109.554C53.018 113.112 53.3353 116.499 53.6667 119.875C51.6338 119.872 47.7836 115.674 46.8986 114.539C45.309 112.499 43.4202 109.359 43.4917 106.856C43.4917 110.384 43.8317 114.453 44.8945 117.784C45.4938 119.662 46.9956 120.095 49.0851 120.428C49.8288 120.546 52.6618 120.876 53.7191 120.406C53.9598 122.839 54.2191 125.271 54.6563 127.763C55.831 134.092 56.478 140.311 56.2992 146.592C57.0914 146.558 57.8917 146.42 58.3658 145.9C59.0819 145.115 58.9555 143.578 58.9434 142.628Z" fill="black"/>
<g id="Group_24">
<path id="Vector_124" d="M64.0812 74.149C63.6454 73.3864 64.9146 66.0447 64.9146 66.0447C65.4131 63.4531 61.5125 50.2852 61.1286 49.879C58.7449 52.2949 58.2323 60.8757 56.0201 63.6912C54.2771 65.652 54.7128 68.4843 54.2771 71.0988C54.1802 71.5829 53.76 71.6465 53.5868 72.1592C53.7506 72.7747 54.2567 73.8568 54.4065 74.4557C54.6989 75.6245 55.0016 76.7585 55.2939 77.9255C55.6559 79.3714 55.5039 80.0671 55.1466 81.4839C54.7294 83.1379 54.4348 84.8688 54.4905 86.5795C54.5488 88.3707 55.1846 90.0616 55.2937 91.8689C55.3804 93.3053 55.2214 94.7252 55.2214 96.1534C55.2214 99.5049 54.9277 102.799 55.0224 106.144C55.0761 108.042 55.0943 109.941 55.0943 111.84C54.931 112.33 53.6781 112.984 53.6781 112.984C52.6433 113.583 52.262 118.267 52.262 118.267C52.0592 118.74 52.3453 119.181 52.5359 119.627C52.7605 120.154 52.8251 120.731 52.811 121.298C52.8013 121.696 52.646 122.217 52.8481 122.598C52.9534 122.797 53.1373 123.051 53.4061 122.952C55.3121 122.243 54.2772 117.451 54.2772 117.451C55.0398 117.995 57.2184 117.886 57.2184 117.886C56.6193 119.52 57.5997 122.516 57.5997 122.516L54.495 123.115C53.678 123.006 51.3903 123.551 52.97 124.204C54.5495 124.858 59.4516 123.877 59.4516 123.877L60.2142 123.823L63.918 117.723L60.4866 112.058C67.5673 88.964 66.6958 85.2602 66.6958 85.2602C67.4583 82.3192 64.5169 74.9116 64.0812 74.149Z" fill="#E6BA9F"/>
<path id="Vector_125" d="M1.57433 61.0267C0.87969 64.2419 0.434377 66.8166 0.597175 70.1326C0.794768 74.1594 1.30083 78.1028 0.531549 82.1683C-1.38362 92.2893 2.27113 102.042 5.22421 111.674L1.78094 117.358L5.49752 123.479L6.26265 123.534C6.26265 123.534 11.1815 124.518 12.7664 123.862C14.3515 123.206 12.0559 122.659 11.2362 122.769L8.12085 122.167C8.12085 122.167 9.10466 119.162 8.50341 117.522C8.50341 117.522 10.6895 117.631 11.4547 117.085C11.4547 117.085 10.4164 121.894 12.3289 122.605C12.5986 122.705 12.7832 122.449 12.8889 122.25C13.0917 121.868 12.9359 121.345 12.9262 120.946C12.9121 120.376 12.9768 119.797 13.2022 119.269C13.3933 118.821 13.6807 118.379 13.4769 117.905C13.4769 117.905 13.0944 113.204 12.0559 112.603C12.0559 112.603 10.7988 111.947 10.6349 111.455C10.6349 109.55 10.6531 107.644 10.7072 105.739C10.8022 102.384 10.5075 99.0779 10.5075 95.7149C10.5075 93.4437 11.3328 91.1798 11.5057 88.8624C11.6878 86.4194 11.7184 83.9271 12.5113 81.5818C13.3618 79.0664 13.7941 75.4955 13.7021 72.2967C10.4108 67.4862 5.93507 63.3872 2.17522 58.6232C2.05497 59.2342 1.70251 60.4329 1.57433 61.0267Z" fill="#E6BA9F"/>
<path id="Vector_126" d="M58.9651 46.093C59.447 48.3062 60.6881 50.3881 60.6729 52.7089C60.6619 54.4029 60.0657 56.0485 59.0596 57.4036C58.3135 58.4083 56.3692 59.6909 56.2952 61.0351C56.2559 61.7501 56.7624 62.4835 56.9598 63.15C57.2219 64.035 57.355 64.9283 57.4527 65.8343C57.6652 67.8062 57.6824 69.8189 58.1535 71.6665C57.9164 70.7364 58.0709 69.4872 58.0058 68.5169C57.8819 66.6724 57.7703 64.9835 58.5151 63.2535C59.1661 61.7412 60.1811 60.5126 61.2123 59.2001C62.5904 57.4459 62.8881 55.6361 62.7509 53.4252C62.552 50.2226 60.9378 47.3112 59.493 44.5206C58.1363 41.9003 56.5255 41.8961 54.0366 41.133C56.3753 41.8502 58.3463 43.2515 58.9651 46.093Z" fill="#D8A88E"/>
<path id="Vector_127" d="M7.85211 54.4108C7.89394 54.2424 7.91864 54.0623 7.91683 53.8624C7.34948 54.3331 6.68315 55.6546 5.93334 55.8342C4.99892 56.0576 4.60896 54.3248 4.45572 53.5447C4.1056 51.7619 4.39407 49.9639 4.75861 48.2092C4.97098 47.187 5.11393 45.1813 5.95748 44.4805C3.07436 46.8756 2.10949 50.782 2.295 54.3859C2.40353 56.494 3.99328 58.0088 5.08887 59.6676C6.2427 61.4146 6.95555 63.834 7.04263 65.9242C6.94852 63.6676 6.8308 61.3329 6.83495 59.0699C6.83693 57.9686 6.90326 56.8809 7.26726 55.8372C7.44989 55.3137 7.72735 54.9138 7.85211 54.4108Z" fill="#D8A88E"/>
<path id="Vector_128" d="M55.4974 79.556C55.4765 80.1437 55.3427 80.7049 55.1462 81.4839C54.729 83.1379 54.4345 84.8688 54.4902 86.5795C54.5484 88.3707 55.1843 90.0615 55.2933 91.8689C55.298 91.9455 55.2993 92.0222 55.3027 92.0988C56.176 86.3289 57.4144 80.6112 61.2489 75.8918C59.6496 77.6689 57.1811 78.142 55.4974 79.556Z" fill="#D8A88E"/>
<path id="Vector_129" d="M4.93408 80.5009C6.44289 81.9691 7.97406 83.7237 9.6673 83.5356C10.7104 83.2949 11.6059 82.6704 12.3869 81.826C12.4742 81.4713 12.5735 81.1191 12.6914 80.7704C13.5795 78.1435 14.0098 74.3667 13.8649 71.0635C11.9724 75.5582 10.484 83.6481 4.93408 80.5009Z" fill="#D8A88E"/>
<path id="Vector_130" d="M2.05394 81.9419C2.82682 75.3721 1.20986 68.973 1.12567 62.4431C0.685589 64.9781 0.468146 67.5091 0.596869 70.1325C0.794462 74.1593 1.30052 78.1027 0.531243 82.1681C-0.641513 88.366 0.275604 94.4254 1.83994 100.404C0.650057 94.3192 1.10366 88.2131 2.05394 81.9419Z" fill="#D8A88E"/>
</g>
<path id="Vector_131" d="M53.8122 70.6365C53.6397 69.463 53.3246 68.293 53.0542 67.1388C52.8256 66.1631 52.783 65.1749 52.6359 64.1771C52.5559 63.6342 52.3911 63.0604 52.4001 62.5037C52.3766 62.5064 52.2593 62.5082 52.2389 62.5037C51.6265 64.4428 51.4848 66.4849 51.4547 68.5066C51.4343 69.8761 51.3027 71.9807 50.4988 73.1403C49.926 73.9664 48.6671 74.4672 47.8854 75.0558C46.9717 75.744 46.1447 76.5482 45.5283 77.5259C46.5541 76.7572 47.4118 75.9753 48.5818 75.4615C49.522 75.0484 50.526 74.8206 51.4758 74.4378C52.0671 74.1995 52.9081 73.463 53.3702 74.3331C53.5671 74.7037 53.5252 75.2103 53.321 75.53C54.2146 74.1317 54.0385 72.1749 53.8122 70.6365Z" fill="#D8A88E"/>
<path id="Vector_132" d="M19.7123 66.7139C18.9082 67.5501 16.5412 65.6902 17.7537 65.1063C18.2541 64.8653 18.8271 65.2184 19.2273 65.4963C19.5762 65.7384 20.1068 66.3034 19.7123 66.7139Z" fill="#CF7D75"/>
</g>
</svg>
