<svg width="71" height="199" viewBox="0 0 71 199" fill="none" xmlns="http://www.w3.org/2000/svg">
<g id="Group">
<g id="Group_2">
<path id="Vector" d="M52.3719 35.4071L53.8371 28.6968L60.1494 13.1036L31.6426 8.4356L33.5777 2.44299C33.5777 2.44299 66.9089 3.44111 69.2941 7.55326C74.554 16.6234 58.9616 45.3388 58.9616 45.3388L52.3719 35.4071Z" fill="#E6BA9F"/>
<path id="Vector_2" d="M53.9284 18.0998C53.894 16.2323 55.1263 14.1855 54.0823 12.6338C53.1743 11.2844 51.1101 11.2957 49.9381 10.1655C48.3121 8.59806 48.9567 5.43624 47.0662 4.19816C45.6285 3.25624 43.6337 4.07733 42.0218 3.4788C40.1081 2.76787 39.1398 0.219759 37.1082 0.0129433C35.6582 -0.134301 34.4236 1.01499 33.0232 1.41738C31.7795 1.77481 30.4553 1.52866 29.1631 1.45841C27.871 1.38816 26.4323 1.56181 25.5671 2.52059C24.738 3.43889 24.6794 4.80343 24.7797 6.03421C24.8801 7.26555 25.0877 8.5486 24.6466 9.70294C24.2688 10.6921 23.4656 11.4457 22.7928 12.264C22.1199 13.0828 21.5362 14.109 21.733 15.1487C21.9541 16.3171 23.108 17.191 23.1678 18.3785C23.262 20.2404 20.6569 21.5049 20.9446 23.3466C21.1549 24.6932 22.7888 25.3383 23.3528 26.5798C23.7363 27.4234 23.566 28.4001 23.6382 29.3235C23.8672 32.2397 26.6133 34.4574 29.4829 35.0711C32.3526 35.6848 35.3265 35.0576 38.1939 34.4315C41.9355 33.6149 45.6765 32.7978 49.4181 31.9812C51.1293 31.6075 52.8777 31.2197 54.3689 30.3025C55.8601 29.3859 57.071 27.8241 57.0828 26.0785C57.1031 23.1814 53.9825 20.9975 53.9284 18.0998Z" fill="#36221B"/>
<path id="Vector_3" d="M47.4405 193.754C46.1179 194.115 44.6763 192.916 44.6763 192.916C44.6763 192.916 37.5874 192.316 37.1052 190.399C36.6229 188.488 36.2287 177.243 36.2287 177.243C36.2287 177.243 34.3359 170.225 31.6857 160.263C28.8127 149.463 25.053 135.195 21.8535 122.643C19.1773 112.179 16.8959 102.908 15.8429 97.8392C12.3529 81.0658 20.1214 73.9031 20.1214 73.9031L30.3789 76.8744L33.6202 85.7832L34.6523 95.1624L36.1407 108.732L40.0927 133.888L45.9994 171.482C45.9994 171.482 46.357 172.2 47.441 173.275C48.5194 174.354 48.763 193.397 47.4405 193.754Z" fill="#E6BA9F"/>
<path id="Vector_4" d="M40.0917 133.888L36.2283 139.22L31.6852 160.262C28.8122 149.462 25.0526 135.195 21.853 122.643L32.9667 91.4358L34.6519 95.1618L36.1403 108.732L40.0917 133.888Z" fill="#E6BA9F"/>
<path id="Vector_5" d="M48.2635 80.2789L55.3642 84.0353C55.3642 84.0353 58.7398 95.7407 40.0883 126.665L34.587 135.313L27.2229 180.65C27.2229 180.65 27.9803 182.83 25.426 188.73C22.8716 194.631 21.3618 197.292 20.3167 198.102C19.2716 198.912 15.208 198.334 14.0467 198.102C12.8854 197.871 10.3311 198.565 10.3311 197.408C10.3311 196.251 15.6722 178.549 15.6722 178.549C15.6722 178.549 18.3427 135.276 19.3878 131.921C20.4329 128.565 35.5278 92.4659 35.5278 92.4659L48.2635 80.2789Z" fill="#E6BA9F"/>
<g id="Group_3">
<path id="Vector_6" d="M53.7413 33.4104V38.4178C53.7413 38.4178 50.8215 45.771 50.0957 46.174C49.3641 46.577 42.3113 48.1944 41.7411 48.0342C41.176 47.8741 37.1981 46.4168 36.9595 46.2566C36.7159 46.0964 32.4165 38.6606 32.3336 38.4173C32.2558 38.1745 31.6855 32.8417 31.6855 32.8417L32.9196 30.5734L35.58 29.9328V20.6418L42.472 18.7866L44.0902 25.6593L44.661 28.0776L52.3827 28.8267L53.7413 33.4104Z" fill="#E6BA9F"/>
<path id="Vector_7" d="M38.7822 40.0757C39.7168 40.3207 40.5678 40.8737 41.1691 41.6279C41.7703 42.3821 42.1189 43.3331 42.1465 44.2958C42.257 43.2859 42.7167 42.2563 43.3991 41.5009C44.0816 40.7456 45.006 40.2117 46.0031 39.9965C44.4657 41.8185 43.27 43.8641 42.2266 46.0054C41.389 43.9237 40.19 41.8252 38.7822 40.0757Z" fill="#E6BA9F"/>
<path id="Vector_8" d="M44.0903 25.6593C44.0694 25.675 44.0491 25.6801 44.0282 25.6902C40.6623 27.1059 38.1474 26.3517 35.5801 23.8502V20.6412L42.4721 18.786L44.0903 25.6593Z" fill="#E6BA9F"/>
<path id="Vector_9" d="M31.6866 40.9822L30.2918 30.574C30.2918 30.574 25.777 31.0106 19.3333 34.5484C12.8896 38.0862 0.266135 49.093 0.00274742 55.2514C-0.260077 61.4098 18.4213 71.9226 18.4213 71.9226L20.9198 67.3428L10.1282 53.8099L31.6866 40.9822Z" fill="#E6BA9F"/>
</g>
<path id="Vector_10" d="M34.0802 4.86023C34.0802 4.86023 34.7965 6.41753 37.5319 5.31432C37.9656 5.13954 38.5262 5.11032 38.8714 5.42504C39.2165 5.73976 39.4106 6.18149 39.6052 6.60524C39.7997 7.02899 40.0185 7.46454 40.393 7.74385C40.9006 8.12208 41.5808 8.13669 42.2035 8.25583C42.8262 8.37498 43.5137 8.71498 43.6186 9.33768C43.6186 9.33768 47.5237 20.9149 42.3507 23.0949C36.8376 25.4176 33.4288 22.3811 28.7402 15.5675C29.58 15.6641 30.2687 14.3541 30.3166 13.5133C30.3645 12.6726 30.016 11.8661 29.8451 11.0411C29.6742 10.2161 29.7391 9.23034 30.404 8.71049C30.9291 8.30023 31.6623 8.30866 32.2839 8.06644C33.4181 7.62471 34.4609 6.01289 34.0802 4.86023Z" fill="#E6BA9F"/>
<path id="Vector_11" d="M55.6288 55.2069C55.6288 55.2069 51.8585 62.7203 53.0824 68.3117C54.3113 73.903 55.8877 79.4943 55.3643 84.0364C55.3643 84.0364 43.478 88.2891 35.9018 95.5186C35.4557 95.9474 34.8336 96.0199 34.3254 95.803C33.978 95.6636 33.6875 95.3843 33.537 94.9915C31.7322 90.346 26.9303 79.3285 20.1211 73.903C20.1211 73.903 21.7025 69.5419 26.0848 65.8675C30.4671 62.1988 30.6431 54.1577 30.6431 54.1577C30.6431 54.1577 25.2084 51.3623 26.4323 44.8976C27.6612 38.438 30.2906 30.5734 30.2906 30.5734H32.9199C32.9199 30.5734 33.7654 44.9752 42.8819 44.629C51.9989 44.2777 52.3825 28.8267 52.3825 28.8267H54.8404L58.8696 43.1509C58.8696 43.1509 63.081 51.8895 55.6288 55.2069Z" fill="black"/>
<path id="Vector_12" d="M28.8231 68.6062C28.0865 70.3011 27.3346 72.0995 27.5523 73.9289C27.7808 75.8307 28.999 77.4374 30.021 79.0549C33.1478 84.0156 34.6418 89.9582 34.3254 95.803C33.978 95.6637 33.6875 95.3843 33.537 94.9915C31.7322 90.346 26.9303 79.3286 20.1211 73.903C20.1211 73.903 21.7025 69.5419 26.0848 65.8675C30.4671 62.1988 30.6431 54.1577 30.6431 54.1577C30.6431 54.1577 25.2084 51.3623 26.4323 44.8976C27.6612 38.438 30.2906 30.5734 30.2906 30.5734H31.281C30.8766 33.1209 30.4665 35.6786 30.0571 38.2267C29.642 40.8417 29.2223 43.4977 29.5438 46.1278C29.8653 48.7529 31.0373 51.3988 33.2206 52.9129C35.3987 54.4269 38.6812 54.4786 40.5481 52.5976C39.6039 54.0942 38.1268 55.2283 36.4591 55.8392C34.11 56.6996 32.2341 58.5053 31.4756 60.882C30.6465 63.4796 29.9031 66.1131 28.8231 68.6062Z" fill="#4B4B4B"/>
<path id="Vector_13" d="M17.6431 69.6087L18.3176 72.1108C18.3176 72.1108 19.4416 74.1272 21.8031 72.9695C24.164 71.8118 24.4263 69.8701 24.4263 69.8701C24.4263 69.8701 27.1995 73.1937 27.8368 72.9324C28.4741 72.6711 25.2508 68.1897 25.2508 68.1897C25.2508 68.1897 28.6986 71.8494 29.3359 71.3639C29.9732 70.8783 26.6377 66.8077 26.6377 66.8077C26.6377 66.8077 30.0482 69.9448 30.5728 69.235C31.0973 68.5258 27.3123 65.1274 27.3123 65.1274L28.6241 64.9408C28.6241 64.9408 31.8474 66.6211 32.4091 65.8372C32.9714 65.0532 27.3123 62.7001 27.3123 62.7001L21.8031 65.9119L19.5917 68.0143L17.6431 69.6087Z" fill="#E6BA9F"/>
</g>
<g id="Group_4">
<g id="Group_5">
<g id="Group_6">
<path id="Vector_14" d="M35.2466 12.2994C35.2466 12.2994 39.5505 16.1879 39.2589 16.5459C38.9667 16.9039 38.0773 17.0169 38.0773 17.0169L35.2466 12.2994Z" fill="#E6BA9F"/>
<path id="Vector_15" d="M33.1863 19.633C33.7052 20.4434 34.7847 20.6817 35.5986 20.1652C36.4124 19.6487 36.651 18.5725 36.1327 17.7615C35.6138 16.9511 34.5343 16.7128 33.7205 17.2293C32.9066 17.7458 32.6675 18.8226 33.1863 19.633Z" fill="#E6BA9F"/>
<path id="Vector_16" d="M40.1309 15.2212C40.6498 16.0316 41.7293 16.2699 42.5432 15.7534C43.3565 15.2364 43.5956 14.1607 43.0773 13.3498C42.5584 12.5394 41.4789 12.3011 40.665 12.8176C39.8512 13.3346 39.6126 14.4103 40.1309 15.2212Z" fill="#E6BA9F"/>
<g id="Group_7">
<path id="Vector_17" d="M31.3296 13.7403C31.7453 12.8316 32.8101 12.1414 33.8163 12.4589C33.9872 12.5129 33.9646 12.7394 33.7887 12.763C32.946 12.8776 32.236 13.221 31.8406 14.0016C31.6731 14.3332 31.1768 14.0741 31.3296 13.7403Z" fill="#36221B"/>
<path id="Vector_18" d="M39.1063 8.883C38.1041 8.87514 37.0268 9.5456 36.8909 10.5887C36.8678 10.7657 37.0832 10.841 37.1791 10.6921C37.6393 9.97947 38.2513 9.48266 39.1283 9.45512C39.5011 9.44332 39.4746 8.88581 39.1063 8.883Z" fill="#36221B"/>
</g>
</g>
<path id="Vector_19" d="M41.1452 18.1329L37.8599 19.8459C37.8599 19.8459 39.4909 22.1748 40.7007 21.4999C41.9105 20.8255 41.1452 18.1329 41.1452 18.1329Z" fill="white"/>
</g>
<path id="Vector_20" d="M34.9803 15.31C34.9803 15.31 33.7931 13.778 33.0277 14.3647C32.2624 14.9514 32.8551 16.534 32.8551 16.534L33.4445 14.8744L34.9803 15.31Z" fill="#36221B"/>
<path id="Vector_21" d="M40.659 11.7891C40.659 11.7891 39.4723 10.2571 38.7064 10.8438C37.9411 11.4306 38.5339 13.0131 38.5339 13.0131L39.1232 11.3536L40.659 11.7891Z" fill="#36221B"/>
</g>
</g>
</svg>
