<svg width="67" height="223" viewBox="0 0 67 223" fill="none" xmlns="http://www.w3.org/2000/svg">
<g id="Group">
<path id="Vector" d="M13.764 72.9337C13.7393 72.0725 13.6688 71.2437 13.5488 70.489C13.8659 71.848 14.9836 72.8423 15.7572 73.9776C17.8096 76.9903 18.0139 80.869 18.5812 84.3734C18.5812 84.3734 18.2207 88.3997 17.3192 89.8419C17.3192 89.8419 16.4178 91.7651 17.8001 94.5894C17.8001 94.5894 17.0189 99.4571 16.7183 101.2H48.3885C48.088 99.4571 47.3068 94.5894 47.3068 94.5894C48.5088 92.9068 47.4871 89.4814 47.4871 89.4814C46.7059 87.6785 46.5257 84.3734 46.5257 84.3734L47.5473 78.0634C47.5801 78.1187 47.5062 78.1652 47.5926 78.1773C48.1352 77.0343 49.0651 75.8785 49.8474 74.8799C50.2942 74.3096 50.7189 73.6958 51.2161 73.1356C51.3726 72.9595 53.3013 71.4332 53.1966 71.3221C53.5901 71.7395 53.5443 72.8416 54.2642 72.7612C54.4171 71.0169 54.3846 69.1217 55.067 67.5244C55.9291 65.5065 57.8843 64.1459 59.0331 62.3203C60.4783 60.024 62.9942 57.184 62.8415 54.3856C62.7528 52.7619 62.4203 51.1327 61.8495 49.608C61.2577 48.0267 60.4433 46.5774 59.8192 45.0355C59.2889 43.726 58.378 42.5652 57.1317 41.8759C56.2636 41.396 55.2738 41.1597 54.2855 41.1341C54.0232 41.1272 51.3934 40.5487 48.3736 38.9712C47.6944 38.6164 46.9823 37.9367 46.3046 37.5661C45.7935 37.2864 45.3538 36.4474 39.4065 35.3532C38.667 35.2171 37.875 34.7803 37.1497 34.5542C36.7598 34.4327 36.3961 34.2742 36.024 34.1352C34.6393 33.6178 32.9163 34.0135 31.4718 34.0135C29.7025 34.0135 27.8036 33.8387 26.1527 34.3541C24.7962 34.7776 23.672 35.6817 22.2773 36.1569C20.8779 36.6338 19.2744 36.9159 17.9504 37.6872C16.8222 38.3443 15.9821 39.3667 14.8472 40.0114C13.7334 40.6441 12.6472 40.8732 11.4302 41.2399C9.17107 41.9207 6.65699 43.3175 5.17252 45.2157C4.31364 46.314 3.45567 47.5899 2.8966 48.8872C1.70095 51.6618 2.262 54.55 2.2656 57.4508C2.26687 58.4804 2.02384 59.4931 1.70005 60.4646C1.41898 61.3078 1.11232 62.2538 1.09375 63.1597C1.93406 63.298 2.50538 62.5175 3.3776 62.6789C3.73006 62.7442 4.19375 62.846 4.50565 62.9926C6.37917 63.874 7.7524 65.895 9.17341 67.4235C10.8008 69.1744 12.4117 70.9571 13.764 72.9337Z" fill="#E6BA9F"/>
<path id="Vector_2" d="M64.0811 74.1489C63.6454 73.3862 64.9146 66.0445 64.9146 66.0445C65.4131 63.4529 61.5124 50.285 61.1286 49.8788C58.7449 52.2947 58.2323 60.8755 56.02 63.691C54.277 65.6518 54.7128 68.4841 54.277 71.0986C54.1802 71.5827 53.76 71.6461 53.5867 72.159C53.7506 72.7745 54.2567 73.8566 54.4065 74.4555C54.6989 75.6243 55.0016 76.7583 55.2939 77.9253C55.6559 79.3712 55.5039 80.0669 55.1466 81.4838C54.7294 83.1377 54.4348 84.8686 54.4905 86.5794C54.5487 88.3705 55.1846 90.0614 55.2937 91.8687C55.3802 93.3051 55.2214 94.725 55.2214 96.1532C55.2214 99.5047 54.9277 102.799 55.0223 106.143C55.0761 108.041 55.0943 109.941 55.0943 111.84C54.9309 112.33 53.6781 112.984 53.6781 112.984C52.6433 113.583 52.262 118.267 52.262 118.267C52.0592 118.74 52.3455 119.181 52.5358 119.627C52.7605 120.154 52.825 120.731 52.811 121.298C52.801 121.696 52.646 122.217 52.8481 122.598C52.9534 122.797 53.1373 123.051 53.4061 122.951C55.3121 122.243 54.2772 117.45 54.2772 117.45C55.0398 117.995 57.2184 117.886 57.2184 117.886C56.6193 119.52 57.5997 122.516 57.5997 122.516L54.495 123.115C53.6779 123.006 51.3903 123.551 52.97 124.204C54.5494 124.858 59.4516 123.877 59.4516 123.877L60.2142 123.823L63.918 117.723L60.4866 112.058C67.5673 88.9638 66.6958 85.26 66.6958 85.26C67.4581 82.319 64.5169 74.9115 64.0811 74.1489Z" fill="#E6BA9F"/>
<path id="Vector_3" d="M1.57432 61.0266C0.879861 64.2418 0.434379 66.8165 0.597176 70.1325C0.794769 74.1593 1.30083 78.1027 0.53155 82.1681C-1.38362 92.2892 2.27112 102.042 5.2242 111.674L1.78093 117.358L5.49752 123.479L6.26264 123.534C6.26264 123.534 11.1815 124.518 12.7664 123.862C14.3513 123.206 12.0559 122.659 11.2362 122.769L8.12084 122.167C8.12084 122.167 9.10466 119.161 8.50341 117.522C8.50341 117.522 10.6895 117.631 11.4547 117.085C11.4547 117.085 10.4164 121.894 12.3289 122.605C12.5986 122.705 12.7832 122.449 12.8889 122.25C13.0917 121.868 12.9359 121.345 12.9262 120.946C12.9121 120.376 12.9768 119.797 13.2022 119.269C13.3933 118.821 13.6807 118.379 13.4769 117.904C13.4769 117.904 13.0944 113.204 12.0559 112.603C12.0559 112.603 10.7988 111.947 10.6349 111.455C10.6349 109.55 10.6531 107.644 10.707 105.739C10.8021 102.384 10.5073 99.0778 10.5073 95.7148C10.5073 93.4435 11.3326 91.1797 11.5055 88.8623C11.6876 86.4193 11.7183 83.927 12.5111 81.5817C13.3616 79.0663 13.7939 75.4954 13.7019 72.2966C10.4107 67.4861 5.93488 63.3871 2.17521 58.623C2.05514 59.234 1.7025 60.4329 1.57432 61.0266Z" fill="#E6BA9F"/>
<path id="Vector_4" d="M9.20654 56.9099C9.20654 56.9099 12.1511 64.4819 12.8122 67.9073C12.8122 67.9073 13.5943 71.9951 15.7574 73.9777C16.2324 74.4131 16.538 75.0587 16.8386 75.9001C16.7783 75.3138 16.3846 73.6525 16.0439 73.0788C15.5602 72.2643 15.1594 71.3625 14.7505 70.4919C13.8438 68.5616 13.0495 64.3611 12.3915 62.4989C12.8274 63.7328 14.9764 66.6711 16.2375 67.2464C16.9127 67.5543 17.2664 68.1078 17.4723 67.2123C17.7784 65.8807 16.006 65.4378 15.2841 64.8077C13.8581 63.5628 12.7637 61.5752 11.6189 60.0737C10.8149 59.0191 10.0108 57.9646 9.20654 56.9099Z" fill="#CE9C86"/>
<path id="Vector_5" d="M40.0952 70.131C40.9431 70.0792 41.9094 69.7452 42.9198 69.8937C43.8897 70.0363 44.9544 70.3911 45.9276 70.0257C46.8467 69.6806 47.6892 69.0278 48.5055 68.4936C49.0853 68.1141 50.621 67.345 50.7485 66.5855C50.7724 66.4432 50.8121 66.3266 50.7832 66.1739C49.9062 66.0399 48.9881 67.0697 48.1949 67.3533C47.2686 67.6843 46.3219 67.7791 45.3839 68.0728C44.4661 68.3602 43.6495 68.8277 42.7366 69.1693C41.9713 69.4554 40.7203 69.7343 40.0952 70.131Z" fill="#CE9C86"/>
<path id="Vector_6" d="M34.2661 63.2801C34.4951 64.6514 35.2885 65.8375 35.4681 67.2464C36.3774 67.1334 39.9556 68.0589 40.8766 68.2107C42.4502 68.47 44.8162 69.0089 46.4054 68.8089C47.8115 68.6319 49.5033 67.0585 50.612 66.1647C52.3303 64.7796 52.2456 63.5994 52.6491 61.5912C53.1654 59.0216 53.7519 56.0251 56.2514 54.554C54.6268 55.2172 51.7552 57.0518 51.4505 58.9506C51.2283 60.3375 50.9052 61.7295 50.6964 63.0991C50.534 64.1644 50.775 65.3157 49.5424 65.8077C48.374 66.2741 47.0346 66.4641 45.8044 66.6489C43.4915 66.9965 38.4376 68.3195 36.4564 66.6181C35.6296 65.9081 34.8742 64.1657 34.3653 63.181C34.247 63.1456 34.3815 63.307 34.2661 63.2801Z" fill="#D8A88E"/>
<path id="Vector_7" d="M45.7681 66.894C46.5722 67.7301 48.9392 65.8703 47.7267 65.2864C47.2263 65.0453 46.6533 65.3985 46.2531 65.6761C45.9042 65.9184 45.3737 66.4835 45.7681 66.894Z" fill="#CF7D75"/>
<path id="Vector_8" d="M34.5063 69.8905C34.5063 69.8905 38.2923 71.0323 39.7947 70.5516C39.7947 70.5516 42.7393 69.1093 44.1815 68.6887C44.1815 68.6887 40.2153 69.7104 39.2538 70.0108C39.2538 70.0108 35.0472 70.0708 34.5063 69.8905Z" fill="#D8A88E"/>
<path id="Vector_9" d="M31.9223 85.8158C31.367 84.0647 31.8623 81.6907 31.8623 79.8062C31.8623 78.7164 31.8403 77.6512 31.7887 76.5748C31.7471 75.7042 31.4979 74.3423 32.2679 73.7217C33.6188 72.6334 33.341 77.8243 33.3044 78.5442C33.2018 80.5674 33.1452 82.6841 33.3662 84.6739C33.4093 85.062 33.4661 85.4823 33.5416 85.8517C34.0722 85.5275 34.3461 85.6108 34.3847 84.9743C34.4157 84.4633 34.2891 83.9744 34.2658 83.4719C34.2183 82.4466 34.1456 81.4466 34.1456 80.4101C34.1456 79.3508 34.1523 78.3073 34.2689 77.282C34.3778 76.3247 34.6143 75.376 34.5662 74.3975C34.5283 73.6276 34.3717 72.2297 33.86 71.6165C33.1331 70.7458 31.876 71.3946 31.5014 72.234C30.784 73.8416 31.3476 76.3817 31.488 78.0767C31.5814 79.2044 31.5048 80.3393 31.4547 81.4421C31.409 82.447 31.3438 83.6735 30.8462 84.552C31.0811 84.7727 31.3899 84.8881 31.5763 85.1397C31.7368 85.3565 31.7802 85.6723 31.9055 85.918C32.0312 85.7963 31.9418 85.8769 31.9223 85.8158Z" fill="#D8A88E"/>
<path id="Vector_10" d="M58.9651 46.0928C59.447 48.306 60.6881 50.3879 60.6729 52.7088C60.6619 54.4027 60.0657 56.0484 59.0595 57.4034C58.3135 58.4081 56.369 59.6907 56.2952 61.0349C56.2559 61.7499 56.7624 62.4833 56.9598 63.1498C57.2219 64.0348 57.355 64.9281 57.4527 65.8341C57.6652 67.806 57.6823 69.8187 58.1534 71.6663C57.9164 70.7362 58.0709 69.487 58.0058 68.5167C57.8821 66.6722 57.7703 64.9833 58.5151 63.2533C59.1661 61.7411 60.1811 60.5124 61.2123 59.1999C62.5904 57.4458 62.8881 55.6359 62.7509 53.425C62.552 50.2224 60.9378 47.3112 59.493 44.5204C58.1363 41.9001 56.5253 41.896 54.0366 41.1328C56.3755 41.85 58.3463 43.2513 58.9651 46.0928Z" fill="#D8A88E"/>
<path id="Vector_11" d="M7.8526 54.4108C7.89442 54.2424 7.91912 54.0623 7.91732 53.8624C7.34996 54.3331 6.68363 55.6546 5.93382 55.8342C4.9994 56.0576 4.60945 54.325 4.4562 53.5447C4.10627 51.7619 4.39455 49.9639 4.75908 48.2092C4.97146 47.187 5.11443 45.1813 5.95798 44.4805C3.07486 46.8756 2.10997 50.782 2.29549 54.3861C2.40402 56.4942 3.99378 58.009 5.08937 59.6678C6.2432 61.4147 6.95604 63.8342 7.04312 65.9244C6.94901 63.6677 6.83129 61.3331 6.83543 59.0701C6.83742 57.9688 6.90376 56.8811 7.26776 55.8374C7.45039 55.3137 7.72784 54.9136 7.8526 54.4108Z" fill="#D8A88E"/>
<path id="Vector_12" d="M55.4974 79.5558C55.4765 80.1435 55.3427 80.7047 55.1462 81.4838C54.729 83.1377 54.4345 84.8686 54.4902 86.5793C54.5484 88.3705 55.1843 90.0614 55.2933 91.8687C55.298 91.9455 55.2993 92.022 55.3027 92.0986C56.176 86.3287 57.4144 80.611 61.2489 75.8917C59.6494 77.6687 57.1809 78.1418 55.4974 79.5558Z" fill="#D8A88E"/>
<path id="Vector_13" d="M22.0264 80.8803C21.6543 80.5064 21.1066 80.2275 20.7008 79.9114C19.9515 79.328 19.3066 78.5507 18.5913 77.915C17.8494 77.2557 17.2782 76.4846 16.7266 75.6666C17.383 76.64 17.6298 78.4533 17.8452 79.5875C17.9045 79.8999 19.6618 80.5585 19.9706 80.6914C20.6386 80.9787 21.3786 81.1473 22.1054 80.9643C22.0803 80.9358 22.0538 80.9077 22.0264 80.8803Z" fill="#D8A88E"/>
<path id="Vector_14" d="M4.75391 81.3119C6.26271 82.7801 7.79387 84.5347 9.48711 84.3467C10.5302 84.106 11.4257 83.4815 12.2067 82.637C12.294 82.2824 12.3933 81.9301 12.5112 81.5814C13.3993 78.9545 13.8295 75.1777 13.6847 71.8745C11.7922 76.3694 10.3038 84.4591 4.75391 81.3119Z" fill="#D8A88E"/>
<path id="Vector_15" d="M50.5822 65.3833C50.8171 65.5791 50.0994 67.9836 49.9712 68.6285C49.7581 69.701 49.7932 71.1141 49.1417 72.0539C48.5689 72.88 47.31 73.3808 46.5284 73.9694C45.6148 74.6576 44.7878 75.4618 44.1714 76.4395C45.1972 75.6708 46.0548 74.8889 47.2249 74.3751C48.469 73.8286 49.8311 73.5344 51.0379 72.9802C51.7226 72.6658 52.3664 72.4224 52.5653 71.6932C52.7301 71.089 52.5428 70.1463 52.4551 69.5497C52.2451 68.121 51.7275 66.6946 51.5741 65.2029C51.5312 64.7862 51.5649 64.4291 51.4656 64.0404C50.8611 64.609 50.7084 65.436 50.4019 66.1043L50.5822 65.3833Z" fill="#D8A88E"/>
<g id="Group_2" opacity="0.62">
<path id="Vector_16" d="M46.3453 55.6479C46.3453 55.6479 45.8044 60.4255 43.9114 61.8678C42.0184 63.3101 48.5087 59.0734 48.7791 56.0987L46.3453 55.6479Z" fill="#EDCFB9"/>
</g>
<g id="Group_3" opacity="0.62">
<path id="Vector_17" d="M51.2129 44.7407C51.2129 44.7407 55.9003 47.8055 55.8102 53.4845C55.8102 53.4845 58.9652 43.0279 53.7369 43.2984C53.7369 43.2984 51.3932 43.9294 51.2129 44.7407Z" fill="#EDCFB9"/>
</g>
<g id="Group_4">
<path id="Vector_18" d="M44.3619 71.8736C44.2856 71.9041 44.2042 72.0369 44.1216 72.2336C44.3686 71.9684 44.487 71.8237 44.3619 71.8736Z" fill="#D8A88E"/>
<path id="Vector_19" d="M46.5125 78.1537C45.7153 78.8835 44.9028 79.5988 44.0569 80.2722C43.5306 80.691 42.3218 81.9016 41.6036 81.7805C41.9001 80.8801 42.0261 79.9237 42.3169 79.0234C42.5174 78.4028 42.7172 77.7817 42.8894 77.1525C43.0168 76.6869 43.273 76.2457 43.2795 75.7503L43.2802 75.7497C43.2802 75.7497 43.7158 73.2003 44.1216 72.2336C43.4782 72.9249 41.9584 74.4371 41.5675 75.4793C41.0266 76.9216 37.8716 75.3892 37.1505 75.299C36.4294 75.2089 34.8068 76.9216 34.8068 76.9216L36.4294 76.2906C36.4294 76.2906 39.7475 77.6355 41.8219 76.9267C41.7638 77.1356 41.74 77.3545 41.6877 77.6195C41.5482 78.3253 41.4847 79.063 41.2971 79.7696C41.1081 80.4812 40.9944 81.2151 40.4052 81.7185C39.4259 82.5548 37.9686 84.0696 36.6096 84.1934C35.2876 84.3137 35.0471 83.9531 35.0471 83.9531L34.7466 84.554L35.8283 84.7343C37.3375 84.408 39.2703 84.1943 40.5653 83.3131C40.5584 84.0074 40.2022 84.7988 40.0949 85.5154C39.9768 86.3049 39.8524 87.1422 39.6606 87.9192C39.3451 89.1978 37.5771 89.8306 36.5118 90.4477C37.3184 90.1183 38.1444 89.7974 38.953 89.435C40.0929 88.9241 40.583 88.6813 40.8743 87.4385C41.0924 86.5083 41.312 85.5573 41.4903 84.614C41.5624 84.2325 41.5197 83.7084 41.6571 83.3524C41.8309 82.9017 42.3718 82.6904 42.7377 82.4219C43.2768 82.0269 43.7877 81.5845 44.3019 81.1581C45.3767 80.2666 46.4383 79.3522 47.4262 78.3642C47.4262 78.3642 49.2289 75.5401 49.2291 75.5397C48.6071 76.5151 47.3561 77.3815 46.5125 78.1537Z" fill="#D8A88E"/>
</g>
<path id="Vector_20" d="M32.9588 90.7136C33.3322 90.7136 33.6349 90.4109 33.6349 90.0375C33.6349 89.6641 33.3322 89.3615 32.9588 89.3615C32.5854 89.3615 32.2827 89.6641 32.2827 90.0375C32.2827 90.4109 32.5854 90.7136 32.9588 90.7136Z" fill="#B3816A"/>
<path id="Vector_21" d="M31.4038 89.5755C31.4038 89.5755 32.7673 88.2459 34.5588 89.6094C34.5588 89.6094 32.9588 88.753 31.4038 89.5755Z" fill="#B3816A"/>
<path id="Vector_22" d="M16.8724 44.2261C17.0572 44.1989 17.2389 44.1937 17.4479 44.1803C17.8555 44.1542 18.2624 44.1111 18.6713 44.1098C19.4611 44.1075 19.925 43.9986 19.5927 44.7659C19.1557 45.7751 17.5537 46.6845 16.6142 47.0736C16.8007 46.9964 17.0186 46.6986 17.1692 46.5594C17.3626 46.3804 17.5546 46.1992 17.7338 46.0059C18.0387 45.6772 18.2958 45.3174 18.5126 44.922C18.681 44.615 18.4156 44.5207 18.145 44.471C17.6148 44.3736 17.0639 44.3529 16.5273 44.306C16.6481 44.2669 16.7608 44.2425 16.8724 44.2261Z" fill="#D8A88E"/>
<path id="Vector_23" d="M46.8198 43.1444C46.635 43.1172 46.4533 43.112 46.2443 43.0986C45.8367 43.0725 45.4298 43.0294 45.0209 43.0281C44.2311 43.0258 43.7672 42.9169 44.0994 43.6842C44.5365 44.6934 46.1387 45.6028 47.0779 45.9918C46.8915 45.9147 46.6736 45.6168 46.523 45.4777C46.3296 45.2986 46.1376 45.1174 45.9584 44.9242C45.6535 44.5955 45.3964 44.2357 45.1795 43.8403C45.0112 43.5333 45.2765 43.439 45.5471 43.3892C46.0774 43.2919 46.6283 43.2711 47.1648 43.2243C47.0442 43.1851 46.9314 43.1608 46.8198 43.1444Z" fill="#D8A88E"/>
<path id="Vector_24" d="M2.05442 81.9418C2.8273 75.372 1.21032 68.973 1.12613 62.4431C0.686235 64.978 0.468634 67.5091 0.597358 70.1324C0.79495 74.1593 1.30101 78.1026 0.531731 82.1681C-0.641025 88.3659 0.276093 94.4253 1.84043 100.404C0.650545 94.3191 1.10431 88.213 2.05442 81.9418Z" fill="#D8A88E"/>
<path id="Vector_25" d="M26.342 84.4303C27.6599 84.3074 29.4767 84.2379 30.2396 84.6741C30.2396 84.6741 28.7973 83.1717 25.6122 83.5323C24.6508 83.2933 24.1921 81.2665 23.8694 80.3472C23.6531 79.731 23.4504 79.1514 23.2685 78.5444C23.2254 78.4007 23.1957 78.1461 23.1531 77.8784L23.2685 77.9433L28.4968 76.501L30.7805 76.8616C30.7805 76.8616 29.2179 75.0587 27.0545 75.7198C24.8911 76.3809 23.4488 76.6212 23.4488 76.6212L22.0759 72.338C23.4468 72.0124 24.9401 71.2273 26.0312 70.7468C27.4661 70.1149 28.9297 69.1663 30.4015 68.6873C29.1386 68.7628 27.6581 69.5988 26.4401 69.9959C25.68 70.2438 24.9371 70.4827 24.17 70.6718C23.5518 70.8244 22.838 71.1956 22.1958 71.0834C22.2429 70.2117 22.0457 69.2912 21.9634 68.3925C23.6864 68.3609 25.8585 68.15 28.5869 67.6371L29.9391 62.6792L27.5954 66.4652C27.5954 66.4652 18.0403 66.9159 17.229 65.8342C16.4177 64.7525 9.38656 56.3693 8.8457 56.2791C8.8457 56.2791 14.6148 63.9412 15.7867 67.0962C15.7867 67.0962 16.7224 68.1432 20.206 68.3586C20.7905 69.1551 21.026 70.6819 20.0833 71.1011C19.0491 71.561 16.9735 70.3032 16.1359 69.7892C17.6936 70.7452 18.5018 72.2117 20.5689 72.4666C20.8314 72.4988 21.1107 72.4915 21.399 72.4588L22.3071 77.4028L22.6813 77.6134C22.7388 79.1382 23.034 83.6086 24.521 84.488C24.1808 84.8446 23.8992 85.1884 23.9747 85.7096C24.1121 86.6572 24.7247 87.5217 25.0862 88.4004C25.4449 89.2722 25.7738 89.8152 26.6337 90.3235C27.3828 90.7661 28.8377 90.9682 29.6986 90.9244C27.7755 90.4435 26.355 90.1971 25.8659 88.7476C25.616 88.0072 25.5405 87.1414 25.4321 86.3572C25.2755 85.2221 25.6548 85.1154 26.342 84.4303Z" fill="#D8A88E"/>
<path id="Vector_26" d="M39.4942 90.6235C38.8586 92.1579 37.3307 96.2124 34.4575 98.9004C35.9789 98.5357 37.3096 96.3898 38.0519 95.1306C38.9551 93.5982 39.0397 92.1705 39.6611 90.6554C39.6047 90.7816 39.5345 90.5258 39.4942 90.6235Z" fill="#D8A88E"/>
<path id="Vector_27" d="M26.061 90.6235C26.6967 92.1579 28.2244 96.2124 31.0976 98.9004C29.576 98.5357 28.2455 96.3898 27.5033 95.1306C26.6 93.5982 26.5155 92.1705 25.894 90.6554C25.9507 90.7816 26.0206 90.5258 26.061 90.6235Z" fill="#D8A88E"/>
<path id="Vector_28" d="M47.4267 89.4816C47.4267 90.544 47.6058 91.466 47.0662 92.426C46.5547 93.3359 45.7629 93.8008 44.9042 94.3327C42.9896 95.5186 41.4535 97.0126 40.2287 98.9164C39.5838 99.9186 39.0381 101.116 38.8423 102.274C39.7426 102.082 40.7854 100.855 41.3538 100.165C42.1141 99.2426 42.9066 98.3067 43.8077 97.5196C45.1094 96.3824 47.3939 95.2747 47.7725 93.4478C47.9023 92.8215 48.0031 92.0586 47.9106 91.4014C47.8337 90.8548 47.4356 90.0561 47.4267 89.4816Z" fill="#D8A88E"/>
<path id="Vector_29" d="M17.5476 89.4816C17.5476 90.544 17.3686 91.466 17.9082 92.426C18.4196 93.3359 19.2115 93.8008 20.0702 94.3327C21.9848 95.5186 23.5208 97.0126 24.7457 98.9164C25.3905 99.9186 25.9363 101.116 26.1321 102.274C25.2317 102.082 24.189 100.855 23.6205 100.165C22.8602 99.2426 22.0677 98.3067 21.1666 97.5196C19.865 96.3824 17.5804 95.2747 17.2018 93.4478C17.072 92.8215 16.9712 92.0586 17.0637 91.4014C17.1407 90.8548 17.5388 90.0561 17.5476 89.4816Z" fill="#D8A88E"/>
<path id="Vector_30" d="M23.2763 12.9567C23.2763 12.9567 21.7439 11.6497 21.3233 11.7398C21.3233 11.7398 20.8424 11.8601 20.6622 12.1905C20.6622 12.1905 20.3616 14.9849 20.7523 15.1953C20.7523 15.1953 21.0828 15.4959 21.203 15.4959C21.3233 15.4959 21.0828 15.4959 21.0828 15.4959C21.3642 15.6203 21.2203 15.7917 21.1502 16.0073C21.0492 16.318 21.1257 16.3174 21.227 16.6144C21.3864 17.0808 21.1091 17.5006 21.2695 17.9532C21.5474 18.7365 21.7823 19.9531 22.862 19.1991C23.0028 19.1007 23.4304 18.979 23.6141 19.0051C23.6405 18.4875 23.4434 17.9497 23.4189 17.4426C23.3906 16.8621 23.2916 16.3272 23.3679 15.7604C23.4393 15.2294 23.4265 14.6529 23.4265 14.1138C23.4265 13.6651 23.4787 13.0838 23.096 12.7918L23.2763 12.9567Z" fill="#E8BAA0"/>
<path id="Vector_31" d="M23.028 17.8921C22.8946 17.8225 22.6256 17.9514 22.442 17.9157C22.2524 17.8789 22.1085 17.7235 21.9733 17.6013C21.8907 17.8886 22.0707 18.0758 22.3469 18.1223C22.6688 18.1765 22.7786 17.9663 23.0532 17.8693C23.0855 17.8755 23.0354 17.896 23.028 17.8921Z" fill="#D8A88E"/>
<path id="Vector_32" d="M20.9174 12.4609C20.9183 12.7337 21.0276 12.8824 21.2593 13.0202C21.4185 13.1148 21.7343 13.1765 21.7437 13.3925C21.7518 13.5811 21.6339 13.8529 21.5901 14.0386C21.5366 14.2656 21.4837 14.491 21.4278 14.7147C21.3876 14.8755 21.4019 15.129 21.2961 15.2539C21.3045 14.9554 21.1071 14.8986 20.9362 14.7109C20.7757 14.5346 20.8021 14.2351 20.8124 14.0089C20.8244 13.7402 20.8616 13.4646 20.8731 13.1972C20.8827 12.9776 20.8424 12.6614 20.9174 12.4609Z" fill="#BE886D"/>
<path id="Vector_33" d="M22.3746 17.2836C22.7272 17.2728 22.6695 16.8686 22.5492 16.6759C22.3846 16.4123 22.2228 16.1516 22.1937 15.8413C22.14 15.2668 22.6639 14.8492 23.1166 14.6504C23.1202 14.624 23.1134 14.6004 23.0957 14.5793C22.9369 14.3889 22.7867 14.2326 22.6286 14.0334C22.4593 13.8202 22.3356 13.5613 22.0985 13.4125C21.6774 13.1479 20.9023 13.009 20.8647 12.3777C20.8086 12.8915 21.3823 13.2571 21.7385 13.5257C22.157 13.8412 22.4928 14.1192 22.8273 14.5343C22.6535 14.6976 22.4007 14.7191 22.2166 14.9343C22.0311 15.1512 21.9065 15.4112 21.9237 15.7061C21.9397 15.9807 22.1121 16.2214 22.2561 16.4548C22.3165 16.5524 22.681 17.4269 22.3746 17.2836Z" fill="#CE9B7D"/>
<path id="Vector_34" d="M21.6387 13.4826C21.6867 13.6698 21.5646 13.9957 21.534 14.2038C21.4972 14.4537 21.4272 14.7023 21.4133 14.955C21.382 15.5298 21.274 16.007 21.5222 16.5617C21.5716 16.6721 21.6468 16.7687 21.6845 16.8772C21.7004 16.9228 21.7085 16.976 21.7171 17.0249C21.7206 17.0443 21.7404 17.1906 21.7288 17.1334C21.6686 17.0669 21.6268 16.9587 21.5361 16.9558C21.4921 17.1213 21.4885 17.2859 21.4885 17.4639C21.4885 17.6541 21.5408 17.8196 21.5493 18.0002C21.3086 17.5517 21.3818 17.0818 21.2179 16.6234C21.1372 16.3971 21.0686 16.1963 21.1465 15.9498C21.1756 15.8579 21.2751 15.7317 21.245 15.6307C21.2051 15.4971 21.1043 15.5204 21.1388 15.3448C21.1692 15.189 21.2729 15.0518 21.3194 14.8948C21.3668 14.7353 21.404 14.5762 21.4438 14.414C21.5087 14.15 21.7388 13.7549 21.6387 13.4826Z" fill="#CE9B7D"/>
<path id="Vector_35" d="M39.8037 36.0736C40.4614 35.928 41.1184 35.8326 41.7203 35.8218C40.8085 35.8384 39.785 33.0576 39.6691 32.3967C39.525 31.5759 39.4352 30.7731 39.2234 29.9535C39.1132 29.5277 38.2203 25.1346 38.7732 25.0596C36.4612 25.3733 34.1568 24.8175 31.8007 24.7124C29.665 24.6172 26.9058 24.5489 24.9513 24.9994C24.9453 24.9264 24.9513 24.8505 24.9513 24.7773C24.9511 28.5864 25.3366 35.055 20.9316 36.8288C21.7885 37.649 24.2201 37.1359 25.2507 36.9859C25.9546 36.8835 26.5791 36.6538 27.2928 36.7383C28.3205 36.86 29.3391 37.3583 30.3617 37.5594C31.5468 37.7923 32.8737 38.0351 34.0889 37.8565C35.1955 37.6939 36.2258 37.2633 37.2738 36.8534C38.0299 36.5577 38.9174 36.27 39.8037 36.0736Z" fill="#E6BA9F"/>
<path id="Vector_36" d="M31.8004 24.7124C29.6649 24.6172 26.9062 24.5489 24.9517 24.9994C24.9498 25.6306 24.9865 26.2809 25.0287 26.9397C27.6782 27.5454 27.3344 31.8932 28.8573 33.9237C28.4967 32.6617 28.0761 30.1978 28.0761 28.9358C28.9775 30.7386 31.6818 30.949 33.4846 30.7687C34.7702 30.7687 35.6832 29.9091 36.4826 28.9511C36.6881 27.6817 36.8506 26.4091 36.987 25.1511C35.2705 25.1163 33.5497 24.7905 31.8004 24.7124Z" fill="#D8A88E"/>
<path id="Vector_37" d="M40.5155 34.5555C39.8091 33.6614 39.2483 30.4206 39.2234 29.9535C39.1298 28.1887 38.7732 26.7024 38.7732 25.0597C38.1777 25.1404 37.5826 25.163 36.9871 25.1509C36.8507 26.4091 36.6882 27.6815 36.4827 28.9509C36.0087 31.877 34.5464 35.5663 36.5947 38.2623C37.1683 36.8898 39.7442 36.069 41.18 35.6932C41.0207 35.7351 40.6394 34.7121 40.5155 34.5555Z" fill="#D8A88E"/>
<path id="Vector_38" d="M41.0569 12.7552C41.0569 14.3309 40.9197 15.9105 40.7064 17.4426C40.6184 18.0752 40.6233 18.7206 40.5634 19.3379C40.5066 19.926 40.3119 20.4802 40.2906 21.0483C40.2641 21.7579 40.3253 22.5232 40.198 23.2094C40.0671 23.9143 39.7226 24.5257 39.3103 25.1071C38.7085 25.9555 37.7293 26.3527 37.0567 27.1342C35.9766 28.3888 35.2127 29.7433 33.3947 29.9252C32.6938 29.9953 31.8753 30.0391 31.1862 29.9274C30.5978 29.832 30.0293 29.627 29.5786 29.2664C29.151 28.9243 27.8086 27.3331 27.3453 27.0066C26.2888 26.2622 25.1636 25.8971 24.4367 24.733C23.979 23.9999 24.1282 23.3089 24.0563 22.501C23.9846 21.6941 23.8978 20.857 23.7718 20.0483C23.4969 18.282 23.0305 16.537 23.0283 14.7385C23.0274 13.9743 23.227 13.2948 23.2986 12.5749C23.3819 11.7375 23.2988 10.8472 23.2988 10.0058C23.2988 8.39427 23.3215 5.79978 24.8762 4.86788C25.3857 4.56248 26.0011 4.2084 26.5891 4.02162C27.4493 3.74831 28.308 3.46003 29.202 3.32554C31.2072 3.02392 33.1434 3.17753 35.1424 3.37927C37.231 3.59002 39.5893 4.00377 40.5171 6.12988C40.9896 7.21285 41.0377 8.7442 41.1019 9.91587C41.1603 10.9844 41.0569 12.0068 41.0569 13.0709V12.7552Z" fill="#E6BA9F"/>
<path id="Vector_39" d="M40.516 13.0707C40.516 13.0707 42.0485 11.7636 42.4691 11.8538C42.4691 11.8538 42.9499 11.974 43.1302 12.3045C43.1302 12.3045 43.4307 15.0989 43.04 15.3093C43.04 15.3093 42.7096 15.6098 42.5893 15.6098C42.4691 15.6098 42.7096 15.6098 42.7096 15.6098C42.4283 15.7342 42.572 15.9057 42.6422 16.1213C42.7431 16.4319 42.6667 16.4314 42.5652 16.7283C42.4058 17.1947 42.6831 17.6146 42.5226 18.0671C42.2448 18.8505 42.0099 20.067 40.9302 19.3131C40.7894 19.2146 40.644 19.0345 40.4605 19.0607C40.4342 18.5431 40.4915 18.0399 40.516 17.5327C40.5442 16.9522 40.5005 16.4409 40.4243 15.8741C40.3529 15.3432 40.3657 14.7666 40.3657 14.2276C40.3657 13.7788 40.3134 13.1976 40.6962 12.9055L40.516 13.0707Z" fill="#E8BAA0"/>
<path id="Vector_40" d="M40.764 18.006C40.8974 17.9364 41.1664 18.0653 41.3499 18.0298C41.5396 17.993 41.6834 17.8376 41.8187 17.7154C41.9012 18.0027 41.7213 18.1899 41.4451 18.2364C41.1231 18.2907 41.0133 18.0804 40.7388 17.9834C40.7065 17.9894 40.7566 18.0098 40.764 18.006Z" fill="#D8A88E"/>
<path id="Vector_41" d="M42.8745 12.5749C42.8736 12.8477 42.7643 12.9964 42.5327 13.1341C42.3735 13.2288 42.0576 13.2904 42.0483 13.5064C42.0401 13.695 42.1579 13.9669 42.2019 14.1526C42.2554 14.3795 42.3082 14.6049 42.3643 14.8286C42.4045 14.9894 42.3903 15.2429 42.4961 15.3679C42.4876 15.0693 42.685 15.0125 42.8559 14.8248C43.0164 14.6485 42.9901 14.3493 42.9798 14.1228C42.9677 13.8542 42.9306 13.5785 42.919 13.3112C42.9093 13.0916 42.9495 12.7752 42.8745 12.5749Z" fill="#BE886D"/>
<path id="Vector_42" d="M37.8341 14.6143C37.8492 14.7169 37.8761 14.7576 37.8319 14.862C37.7971 14.944 37.7396 15.0198 37.6853 15.087C37.5438 15.2624 37.356 15.3569 37.1468 15.44C36.9565 15.5155 36.7369 15.5429 36.5386 15.5723C36.3756 15.5965 36.1857 15.5163 36.0341 15.4537C35.9734 15.4286 35.807 15.4378 35.7534 15.3993C36.097 15.6612 36.4855 15.6785 36.7637 15.6504C37.1403 15.6122 37.5025 15.4795 37.8141 15.2482C37.9264 15.1649 38.1069 15.0827 38.0933 14.9186C38.0832 14.7966 37.9424 14.6491 37.8341 14.6143Z" fill="#E2DEDE"/>
<path id="Vector_43" d="M34.8841 27.9583C34.6568 27.5449 34.8227 27.0505 34.5513 26.5921C34.3049 26.1754 33.8774 25.6041 33.3946 25.4929C32.7768 25.3504 32.2154 25.5251 31.6071 25.6041C31.1048 25.6694 30.7981 25.3387 30.4001 25.0919C30.536 25.6481 30.5697 26.1264 30.3296 26.6673C31.1758 26.2167 31.9419 26.3527 32.9136 26.3518C33.9562 26.3507 34.432 27.1364 34.8841 27.9583Z" fill="#D8A88E"/>
<g id="Group_5">
<path id="Vector_44" d="M34.5099 19.2718C34.498 19.5065 34.5236 19.7153 34.2665 19.813C34.0388 19.8995 33.7846 19.8597 33.5482 19.892C33.2461 19.9331 33.1302 20.052 32.9284 20.2404C32.7106 20.4438 32.3634 20.6558 32.0604 20.6998C31.7654 20.7425 31.2703 20.3762 30.9979 20.2747C30.7315 20.1755 30.577 20.2047 30.2993 20.1696C30.09 20.1431 29.8264 20.2695 29.6676 20.1023C29.4859 19.9111 29.664 19.5317 29.7585 19.3358C29.6011 19.5218 29.3566 19.6612 29.236 19.8775C29.1096 20.1045 29.1816 20.4939 29.4731 20.5228C29.7206 20.5471 29.9757 20.5102 30.2243 20.5224C30.4875 20.5354 30.6833 20.609 30.8997 20.7593C31.0994 20.8983 31.2502 21.0314 31.4867 21.0903C32.0414 21.2284 32.7101 21.0865 33.113 20.6609C33.3059 20.4571 33.5497 20.4139 33.83 20.4025C34.0233 20.3946 34.4228 20.4811 34.5782 20.3683C34.6815 20.2935 34.7179 20.1997 34.7428 20.0767C34.7632 19.9756 34.7704 19.8712 34.767 19.7683C34.7619 19.6055 34.7495 19.2238 34.5099 19.2718Z" fill="#C58774"/>
</g>
<path id="Vector_45" d="M40.5161 15.6848C40.3567 16.309 39.772 16.9481 39.3983 17.49C38.979 18.0983 38.4368 18.6442 38.2342 19.3455C38.0501 19.9823 37.8268 20.6261 37.6742 21.2713C37.4876 22.0601 37.358 22.8722 37.0874 23.6464C37.515 22.4228 38.2654 20.7714 39.297 19.9576C39.7185 19.6249 40.5096 19.1113 40.6538 18.5717C40.8121 17.9791 40.7137 16.9302 40.6538 16.3158C40.6358 16.1323 40.5501 15.7075 40.5161 15.6848Z" fill="#D8A88E"/>
<path id="Vector_46" d="M35.062 23.9179C34.9095 24.1005 34.6811 24.2426 34.5149 24.4301C34.3216 24.6481 34.1509 24.852 33.9864 25.0898C33.6731 25.5428 33.21 25.9351 32.6276 25.8791C32.4634 25.8632 32.3013 25.8051 32.1324 25.7884C31.946 25.7698 31.803 25.8417 31.6377 25.8572C31.2609 25.8924 30.9935 25.7848 30.7411 25.5136C30.2856 25.024 29.6989 24.6419 29.3237 24.1193C29.3421 24.1211 29.3647 24.1245 29.3829 24.1209C30.5152 23.9051 31.71 23.7151 32.8263 23.7153C33.281 23.7153 33.6922 23.8472 34.133 23.8905C34.3908 23.9156 34.8597 23.943 35.062 23.9179Z" fill="#E2A18F"/>
<path id="Vector_47" d="M35.2201 23.8503C34.7514 23.8503 34.4141 23.7852 34.0319 23.5292C33.6965 23.3046 33.4092 22.9532 32.9889 22.9038C32.621 22.8607 32.3404 23.1236 31.9974 23.1517C31.6087 23.1834 31.329 22.891 30.9382 23.0104C30.5958 23.1149 30.3596 23.4205 30.0604 23.6017C29.7696 23.778 29.4883 23.9983 29.1597 24.0942C29.164 24.0596 29.1822 24.0886 29.2029 24.0755C29.5397 24.1894 29.694 24.2783 30.0593 24.2783C30.4321 24.2783 30.7487 24.1085 31.1235 24.1831C31.4744 24.2529 31.7619 24.4489 32.1326 24.4135C32.4519 24.383 32.7414 24.201 33.056 24.1425C33.4088 24.0771 33.817 24.0915 34.1833 24.0742C34.4328 24.0627 35.1305 24.0932 35.2201 23.8503Z" fill="#CF7D75"/>
<path id="Vector_48" d="M34.3672 15.3093C34.4842 15.4876 34.8595 15.2449 35.002 15.1932C35.0662 15.1697 35.1215 15.1633 35.1732 15.1633C35.1264 15.063 35.1125 14.9478 35.1089 14.7958C34.8693 14.9904 34.625 15.1833 34.3672 15.3093Z" fill="#F9DCDC"/>
<path id="Vector_49" d="M37.8469 14.891C37.9195 14.6794 37.7677 14.5988 37.5979 14.5049C37.2572 14.3161 36.8533 14.2141 36.4627 14.195C36.1684 14.1805 35.8737 14.2261 35.6117 14.3668C35.5124 14.4201 35.4199 14.4632 35.3409 14.544C35.282 14.6044 35.1446 14.7241 35.1134 14.7966C35.0993 14.8294 35.1287 15.1631 35.1736 15.1631C35.3977 15.1634 35.5284 15.3482 35.7469 15.4508C35.9061 15.5256 36.0934 15.5722 36.2654 15.597C36.6249 15.6491 36.9473 15.6107 37.2565 15.4113C37.4551 15.2833 37.7432 15.1483 37.8377 14.9154C37.8411 14.9073 37.8442 14.899 37.8469 14.891Z" fill="white"/>
<path id="Vector_50" d="M35.5918 14.3439C35.5918 14.3439 35.4341 15.3017 36.1365 15.4894C36.1365 15.4894 36.5271 15.636 36.9627 15.4142C36.9627 15.4142 37.5411 15.0423 37.2706 14.2874L36.4143 14.2274L35.5918 14.3439Z" fill="#596C5E"/>
<path id="Vector_51" d="M38.6727 15.0282C38.4609 15.0143 38.0522 14.577 37.8416 14.4677C37.5894 14.3368 37.0341 14.0733 36.4819 14.0846C36.2291 14.0898 35.6542 14.1697 35.4476 14.3249C35.2369 14.4832 35.0813 14.7354 34.8745 14.9091C34.7052 15.0511 34.4816 15.2251 34.3223 15.339C34.5045 15.2307 34.7041 15.1748 34.8866 15.028C35.1027 14.8543 35.3034 14.6585 35.5318 14.5079C35.94 14.2389 36.6205 14.2234 37.0527 14.3285C37.3612 14.4035 37.6345 14.5802 37.9179 14.7293C38.1048 14.8279 38.4784 15.1256 38.6727 15.0282Z" fill="#281A13"/>
<path id="Vector_52" d="M36.4634 15.208C36.6937 15.208 36.8804 15.0213 36.8804 14.791C36.8804 14.5607 36.6937 14.374 36.4634 14.374C36.2331 14.374 36.0464 14.5607 36.0464 14.791C36.0464 15.0213 36.2331 15.208 36.4634 15.208Z" fill="#050404"/>
<path id="Vector_53" d="M36.8564 14.5692C36.8564 14.6473 36.7931 14.7105 36.7151 14.7105C36.637 14.7105 36.5737 14.6473 36.5737 14.5692C36.5737 14.4911 36.637 14.4279 36.7151 14.4279C36.7931 14.4279 36.8564 14.4911 36.8564 14.5692Z" fill="white"/>
<path id="Vector_54" d="M23.8223 7.96826C23.6965 8.19722 23.6058 8.41699 23.5683 8.60755C23.4641 9.13723 23.5243 9.7401 23.5243 10.2874C23.5243 10.8141 23.5449 11.3407 23.5705 11.8561C23.597 12.3874 23.4122 13.0647 23.5584 13.5519C23.9584 12.5006 24.0969 11.3908 24.4834 10.3213C24.7567 9.56505 25.0674 8.77557 25.5065 8.09914C26.1817 7.0598 27.4266 7.47698 28.4823 7.66213C29.7449 7.88352 31.2438 8.47666 32.5236 8.09806C33.4611 7.82078 34.2179 7.23089 35.2293 7.14994C36.9943 7.00878 38.1523 8.08075 38.9695 9.51276C39.5875 10.5957 39.9591 11.4945 40.0215 12.7552C40.0574 13.481 40.0384 14.2081 40.0072 14.9338C39.9784 15.6053 39.9002 16.2468 39.803 16.9084C39.9844 16.923 40.15 17.1592 40.3356 17.0554C40.5227 16.9506 40.5789 16.5837 40.6076 16.3943C40.6835 15.8927 40.6173 15.3845 40.6411 14.8804C40.7132 13.3525 41.0397 11.8448 41.0571 10.3111C41.0662 9.50194 40.849 8.85382 40.7066 8.06759C40.4719 6.77206 40.1942 5.4951 38.7133 5.14931C36.9298 4.73285 35.0745 5.53603 33.405 6.08446C31.8459 6.59665 29.8844 6.8595 28.2669 6.53625C27.3965 6.36228 26.3532 5.74065 25.5053 6.16468C24.9675 6.43349 24.2193 7.24604 23.8223 7.96826Z" fill="#D8A88E"/>
<path id="Vector_55" d="M23.6594 9.73541C23.5893 9.04564 23.9652 7.78364 24.08 7.09116C24.8179 6.82362 25.5758 6.61467 26.3485 6.49027C26.3485 6.49027 29.7438 7.61706 30.7805 7.57198C30.7805 7.57198 31.3664 7.66213 31.9523 7.43677C32.634 7.17464 33.27 6.83263 33.975 6.61359C34.9968 6.2961 37.2518 5.59335 38.2189 6.26329C38.7186 6.60944 39.3666 7.30426 39.7948 7.75227C40.3634 8.34775 40.4687 9.31173 40.5134 10.0814C40.5397 10.5335 40.9399 12.7069 40.606 12.9355L41.4624 12.3495C41.4624 12.3495 41.7779 7.34663 42.2286 6.1297C42.2286 6.1297 41.5525 2.61414 39.7948 1.62257C39.7948 1.62257 31.5016 0.225357 30.6002 0C30.6002 0 23.7043 1.84792 21.5859 3.78599C21.5859 3.78599 22.3972 10.727 22.6076 12.4997C22.6076 12.4997 23.4339 12.9203 23.4789 13.371C23.4789 13.371 23.9298 12.3946 23.6594 9.73541Z" fill="#755237"/>
<path id="Vector_56" d="M29.4236 24.1346C29.3567 24.0881 29.2927 24.0385 29.2297 23.9864C29.1315 23.9049 28.9813 23.7589 28.8414 23.8272C28.5427 23.9732 29.3038 24.3062 29.4273 24.3239C29.8041 24.3776 30.1622 24.2619 30.5096 24.2332C30.8896 24.2018 31.1467 24.246 31.4835 24.3628C31.8246 24.4811 32.1246 24.5799 32.4706 24.4184C32.8398 24.246 33.0779 24.1429 33.5067 24.1429C33.8625 24.1429 34.2026 24.0915 34.5428 24.0747C34.8622 24.0589 35.2835 24.1057 35.492 23.8049C35.3122 23.6031 34.8025 23.9321 34.5871 23.9839C34.2422 24.067 33.8476 24.0345 33.4841 24.0527C33.0972 24.072 32.8102 24.074 32.4751 24.2604C32.1082 24.4645 31.9102 24.3655 31.545 24.2105C31.2484 24.0847 30.8561 24.1369 30.5496 24.1829C30.4157 24.2029 30.2832 24.2309 30.1487 24.2484C30.0668 24.259 29.9765 24.2758 29.8937 24.2693C29.8086 24.263 29.473 24.169 29.4236 24.1346Z" fill="#9B5B49"/>
<path id="Vector_57" d="M23.0962 16.2032C23.0962 16.2032 24.2004 18.4041 25.192 19.3055L26.514 23.3318C26.3864 23.0087 25.9386 22.3687 25.7029 22.0714C25.3195 21.5877 25.0523 20.9706 24.6436 20.515C24.3683 20.208 24.0508 19.9708 23.9075 19.5608C23.7524 19.1175 23.7025 18.7565 23.5469 18.2988C23.2938 17.5544 23.3556 16.9028 23.0962 16.2032Z" fill="#D8A88E"/>
<g id="Group_6" opacity="0.62">
<path id="Vector_58" d="M31.2539 17.7581C31.4986 17.7954 31.8496 17.9003 31.9819 18.1396C32.1193 17.8704 32.3623 17.7632 32.6493 17.7307C32.5588 17.684 32.4056 17.6667 32.2905 17.6681C32.1622 17.6698 32.0513 17.7606 31.9518 17.7599C31.8562 17.7592 31.7511 17.673 31.637 17.6681C31.493 17.6618 31.3635 17.6779 31.2539 17.7581Z" fill="#EDCFB9"/>
</g>
<path id="Vector_59" d="M33.6648 18.3441C33.6648 18.3441 34.431 19.2004 34.6564 19.3055C34.6564 19.3055 34.7615 20.0117 34.5361 20.0867L33.4243 20.1168L33.1389 20.1318C33.1389 20.1318 32.8085 20.883 32.1775 20.943C32.1775 20.943 31.6966 21.0031 31.4713 20.7777C31.3352 20.6416 31.2544 20.4864 31.1107 20.3571C31.026 20.2809 30.7916 20.2291 30.6676 20.2295C30.5367 20.2298 30.3326 20.2379 30.2019 20.2444C30.027 20.2531 29.8527 20.2718 29.6776 20.2792C29.5906 20.2828 29.4579 20.3117 29.3931 20.2363C29.3371 20.1711 29.3551 20.0669 29.3515 19.9879C29.3443 19.8323 29.4319 19.689 29.541 19.5777C29.541 19.5777 30.0818 19.0989 30.3222 18.3626C30.3185 18.372 30.3258 18.3518 30.3222 18.3626C30.2993 18.71 29.9938 19.0951 29.9549 19.4413C29.9392 19.5806 29.8799 19.6677 29.939 19.8011C29.9917 19.9197 30.3223 19.8541 30.4574 19.8312C30.5234 19.4366 30.6638 19.3479 30.8554 18.9898C30.7855 19.2682 30.6499 19.7788 30.8405 20.0865C30.9382 20.2443 31.0806 20.2958 31.1855 20.3274C31.2915 20.3591 31.3718 20.4193 31.4715 20.473C31.6875 20.5897 31.9251 20.6313 32.178 20.5819C32.4998 20.5192 32.7459 20.2924 32.8988 19.9964C33.0212 19.7593 33.065 19.2469 32.9119 19.01C33.0562 19.2244 33.2064 19.4364 33.3308 19.6666C33.3982 19.7916 33.3834 19.83 33.5298 19.8462C33.654 19.8599 33.7815 19.8372 33.9053 19.8312C34.023 19.8255 34.1857 19.8484 34.2392 19.756C34.2911 19.6664 34.2286 19.4853 34.2242 19.3922C34.2156 19.2078 34.1958 19.1887 34.082 19.0493C34.0075 18.9581 33.9412 18.8526 33.8712 18.7538C33.8071 18.6635 33.5729 18.4438 33.6648 18.3441Z" fill="#DAAA90"/>
<g id="Group_7" opacity="0.62">
<path id="Vector_60" d="M31.2123 19.0596C31.2164 18.9575 31.2238 18.8596 31.2321 18.7699C31.0297 18.9749 30.9599 19.2209 30.946 19.5007C30.9236 19.9509 31.2231 20.1727 31.617 20.2643C31.186 20.1642 31.1995 19.3772 31.2123 19.0596Z" fill="#EDCFB9"/>
</g>
<g id="Group_8" opacity="0.62">
<path id="Vector_61" d="M32.5381 20.2069C32.5541 20.2285 32.596 20.0858 32.6136 20.0263C32.6385 19.943 32.6585 19.8626 32.6583 19.7712C32.6578 19.59 32.5952 19.412 32.6014 19.2319C32.773 19.3486 32.8568 19.5269 32.824 19.7416C32.8035 19.875 32.676 20.1563 32.5381 20.2069Z" fill="#EDCFB9"/>
</g>
<path id="Vector_62" d="M33.0637 20.2666C33.0606 20.2713 33.0583 20.2762 33.0566 20.281C33.0848 20.1963 33.1342 20.1393 33.2093 20.0908C33.4111 19.9608 33.6748 19.9114 33.9108 19.8992C34.0257 19.8932 34.1441 19.8965 34.2559 19.9257C34.3388 19.9473 34.4811 20.0055 34.4708 20.113C34.4614 20.21 34.3053 20.2172 34.2341 20.2172C34.0711 20.2172 33.9058 20.2035 33.7435 20.1885C33.6215 20.1774 33.5012 20.1509 33.3781 20.1509C33.3173 20.1509 33.2546 20.1564 33.1974 20.1784C33.1599 20.193 33.0893 20.2266 33.0637 20.2666Z" fill="#9B5B49"/>
<path id="Vector_63" d="M38.8931 14.3101C38.9162 14.3163 38.9275 14.3514 38.9364 14.3155C38.8154 14.2917 38.695 14.2629 38.5763 14.22C37.8413 13.9532 37.0704 13.6115 36.2564 13.6566C35.4477 13.7013 34.7936 14.2003 34.3184 14.7608C34.9517 14.3372 35.5508 13.8594 36.3477 13.8594C37.1636 13.8594 37.8307 14.2223 38.6227 14.3101C38.7633 14.3258 38.8857 14.3366 39.0215 14.3101C38.9701 14.3208 38.9185 14.3137 38.8931 14.3101Z" fill="#B3816A"/>
<path id="Vector_64" d="M35.2651 15.6172C35.6535 15.6037 36.0079 15.8828 36.4008 15.9215C36.8435 15.9651 37.3114 15.8579 37.6655 15.5835C37.8463 15.4436 38.0738 15.2085 38.3152 15.2004C38.163 15.2143 37.9984 15.4043 37.8883 15.5018C37.7547 15.6201 37.631 15.7346 37.4736 15.8233C37.1334 16.0145 36.7372 16.1179 36.3468 16.0544C36.1449 16.0216 35.96 15.9282 35.7835 15.8202C35.7018 15.7703 35.6127 15.7073 35.5246 15.6709C35.4353 15.6338 35.3446 15.6518 35.2651 15.6172Z" fill="#B3816A"/>
<path id="Vector_65" d="M40.3358 7.39171C39.9159 6.73187 39.3819 6.24348 38.7136 5.84667C38.316 5.61067 37.8329 5.50557 37.3766 5.45743C36.4216 5.35683 35.4585 5.53027 34.5265 5.7248C34.1796 5.79727 33.8347 5.88795 33.49 5.97828C33.0005 6.10664 31.8723 6.29702 31.5344 5.78159C31.3419 5.48772 31.4712 4.91676 31.4477 4.5661C30.8293 6.09943 29.4431 6.65038 27.9412 6.25501C26.7053 5.9296 24.5924 5.48519 23.9298 7.03132C22.9446 9.33014 23.626 10.9096 23.4791 13.3712C23.517 12.7368 23.6572 12.9706 23.6994 12.3313C23.7627 11.3746 23.6066 10.3882 23.7495 9.44264C23.8561 8.73826 24.0616 7.95835 24.5327 7.39316C25.1732 6.6246 26.3557 6.60549 27.2274 6.84851C28.246 7.13246 29.2886 7.43137 30.3422 7.54982C30.5126 7.56893 30.6615 7.5774 30.7807 7.57236C30.7807 7.57236 31.3666 7.6625 31.9525 7.43714C31.9525 7.43714 34.6 5.96422 37.7564 6.06373C37.9297 6.10844 38.0873 6.17226 38.2191 6.26367C38.7188 6.60981 39.3667 7.30463 39.7949 7.75264C40.3635 8.34812 40.4688 9.31211 40.5135 10.0817C40.5399 10.5339 40.9401 12.7072 40.6062 12.9358C40.6062 12.9358 40.798 12.8046 41 12.6663C41.1954 10.8636 41.3643 9.00797 40.3358 7.39171Z" fill="#533626"/>
<path id="Vector_66" d="M31.0838 20.3643C31.0868 20.369 31.0892 20.3739 31.0908 20.3787C31.0627 20.294 31.0133 20.237 30.9381 20.1885C30.7363 20.0584 30.4726 20.0092 30.2366 19.9969C30.1218 19.9909 30.0033 19.9942 29.8915 20.0234C29.8086 20.045 29.6664 20.1033 29.6768 20.2109C29.6862 20.3079 29.8423 20.3151 29.9134 20.3151C30.0765 20.3151 30.2416 20.3014 30.4039 20.2864C30.526 20.2753 30.6462 20.2488 30.7693 20.2488C30.8301 20.2488 30.8928 20.2543 30.95 20.2763C30.9875 20.2908 31.0582 20.3243 31.0838 20.3643Z" fill="#9B5B49"/>
<path id="Vector_67" d="M41.4173 17.3975C41.0647 17.3867 41.1222 16.9825 41.2426 16.7898C41.4072 16.5262 41.5691 16.2655 41.5981 15.9553C41.6518 15.3807 41.1279 14.9631 40.6752 14.7643C40.6716 14.7381 40.6785 14.7143 40.6962 14.6933C40.855 14.5029 41.0052 14.3466 41.1633 14.1473C41.3326 13.9341 41.4562 13.6752 41.6933 13.5264C42.1145 13.262 42.8895 13.123 42.9272 12.4916C42.9833 13.0054 42.4096 13.371 42.0533 13.6398C41.6349 13.9553 41.2992 14.2333 40.9646 14.6484C41.1384 14.8117 41.391 14.8332 41.5752 15.0484C41.7607 15.2653 41.8853 15.5253 41.8682 15.8202C41.8522 16.0948 41.6798 16.3355 41.5358 16.5689C41.4754 16.6661 41.1108 17.5407 41.4173 17.3975Z" fill="#CE9B7D"/>
<path id="Vector_68" d="M42.1689 13.6416C42.121 13.8288 42.243 14.1547 42.2737 14.3628C42.3104 14.6126 42.3804 14.8613 42.3943 15.114C42.4256 15.6888 42.5336 16.166 42.2854 16.7207C42.236 16.8311 42.1608 16.9277 42.1231 17.0362C42.1073 17.0818 42.0991 17.135 42.0905 17.1839C42.0871 17.2034 42.0672 17.3496 42.0788 17.2924C42.139 17.2259 42.1808 17.1177 42.2715 17.1148C42.3155 17.2803 42.3193 17.4449 42.3193 17.6229C42.3193 17.8131 42.267 17.9786 42.2585 18.1592C42.4992 17.7107 42.426 17.2408 42.5899 16.7824C42.6706 16.5561 42.7392 16.3553 42.6613 16.1088C42.6322 16.0169 42.5327 15.8907 42.5628 15.7896C42.6027 15.6561 42.7033 15.6792 42.669 15.5036C42.6386 15.3479 42.5349 15.2107 42.4884 15.0536C42.441 14.8941 42.4038 14.7351 42.364 14.5728C42.2989 14.309 42.0687 13.9139 42.1689 13.6416Z" fill="#CE9B7D"/>
<g id="Group_9" opacity="0.52">
<path id="Vector_69" d="M24.9514 24.9996L24.9521 24.9995C24.9523 24.9257 24.9501 24.8505 24.9514 24.7773C24.9514 24.8505 24.9454 24.9266 24.9514 24.9996Z" fill="#E6BA9F"/>
</g>
<g id="Group_10" opacity="0.52">
<path id="Vector_70" d="M24.9514 24.9996L24.9521 24.9995C24.9523 24.9257 24.9501 24.8505 24.9514 24.7773C24.9514 24.8505 24.9454 24.9266 24.9514 24.9996Z" fill="#E6BA9F"/>
</g>
<path id="Vector_71" d="M30.7373 33.2774C30.8521 33.3623 30.9248 33.5107 30.9929 33.6324C31.0622 33.7562 31.1316 33.8877 31.2405 33.982C31.4404 34.1547 31.8549 34.0076 32.125 34.0214C32.4515 34.0382 32.832 34.1826 33.1095 33.9297C33.3511 33.7094 33.5983 33.3625 33.8168 33.1054C33.7221 33.2168 33.6889 33.4764 33.6195 33.6145C33.4457 33.9601 33.3004 34.4649 32.8461 34.4949C32.5196 34.5163 32.211 34.43 31.8877 34.4788C31.625 34.5185 31.3344 34.5367 31.1334 34.3146C31.0357 34.2064 30.9798 34.0595 30.9311 33.9244C30.8761 33.7714 30.8327 33.6144 30.7894 33.4577C30.7735 33.3987 30.7627 33.3324 30.7373 33.2774Z" fill="#D8A88E"/>
<path id="Vector_72" d="M30.3946 13.1255C30.4046 13.1509 29.2511 13.1711 28.5498 13.0707C28.2905 13.0335 25.7051 12.877 26.0092 13.5153C26.0332 13.5657 26.5183 13.7096 26.6108 13.7541C26.847 13.8681 27.0276 13.885 27.2952 13.8818C27.544 13.8789 27.7805 13.8479 28.0163 13.8217C28.2345 13.7976 29.4972 14.2517 29.8727 14.4307C30.0916 14.5349 30.2699 14.7154 30.4042 14.9334C30.1572 15.4312 29.4161 16.5974 29.023 16.4959C28.9917 16.5192 29.1022 16.5026 29.0842 16.5365C29.5774 16.3948 29.8542 16.1058 30.2501 15.7872C30.4278 15.6442 30.545 15.5476 30.607 15.4549C30.6451 15.6581 30.6508 15.871 30.6489 16.0681C30.6478 16.1784 30.6809 17.4759 30.5706 17.51C30.8636 17.4199 31.3368 16.2931 31.3368 16.2931C31.4675 15.2887 30.8551 13.9928 30.3946 13.1255Z" fill="#DAAA90"/>
<path id="Vector_73" d="M38.3738 13.02C38.0953 12.8727 37.7965 12.7613 37.4785 12.7314C37.1612 12.7017 36.9061 12.755 36.6175 12.8616C35.8242 13.1545 35.0456 13.2144 34.2054 13.2946C33.9013 13.3236 33.6687 13.3465 33.5169 13.5589C33.4809 13.6094 33.4493 13.6707 33.4225 13.7451C33.3146 14.0446 33.2445 14.3646 33.1558 14.6704C33.01 15.1737 32.8641 15.6769 32.7183 16.1803C32.7183 16.1803 33.4086 17.4861 33.4093 17.4873C33.3653 17.4042 33.4019 17.1918 33.3999 17.1008C33.3938 16.8174 33.3527 16.5259 33.3581 16.248C33.3637 15.961 33.4688 15.6612 33.6175 15.38C33.6657 15.4209 33.7208 15.4656 33.7839 15.5164C34.1798 15.835 34.4566 16.124 34.9498 16.2657C34.9316 16.2318 35.0421 16.2484 35.0109 16.2252C34.6971 16.3063 34.1614 15.5787 33.8321 15.0282C33.9381 14.8728 34.0506 14.7277 34.1593 14.6026C34.6563 14.0311 35.393 13.5822 36.1437 13.5434C36.4832 13.5259 36.8192 13.5814 37.1545 13.6245C37.2946 13.6426 37.459 13.6871 37.5975 13.6869C37.7242 13.6866 37.8189 13.631 37.9465 13.6112C38.0747 13.5912 38.2222 13.611 38.3522 13.611C38.6017 13.611 38.9363 13.6646 39.133 13.4933C38.9258 13.3152 38.6203 13.1504 38.3738 13.02Z" fill="#DAAA90"/>
<path id="Vector_74" d="M33.1221 12.8156C33.0514 13.0678 33.1605 13.3307 33.2261 13.5699C33.2692 13.7273 33.2923 13.9424 33.3496 14.0796C33.5293 13.8026 33.8883 13.7558 34.1856 13.6981C34.4666 13.6434 34.7419 13.5677 35.0118 13.4743C35.4833 13.3112 35.9589 13.1495 36.4386 13.0117C37.2146 12.7891 37.7965 13.0691 38.5074 13.3032C38.814 13.4044 39.1207 13.5054 39.4259 13.6108C39.5462 13.6523 39.7735 13.6867 39.8698 13.7767C39.8692 13.7761 38.2171 12.2293 38.2171 12.2293C37.6159 12.2098 37.0112 12.2277 36.411 12.2621C35.8685 12.2933 35.3262 12.3432 34.789 12.4263C34.3285 12.4976 33.8014 12.4694 33.357 12.6043C33.2128 12.6481 33.1486 12.7207 33.1221 12.8156Z" fill="#755034"/>
<path id="Vector_75" d="M26.2881 12.2444C26.2881 12.2444 24.7106 13.6867 24.6655 14.1374C24.6655 14.1374 27.0994 12.9205 28.0233 13.2811C28.0233 13.2811 30.5924 14.0022 30.7952 13.9797C30.7952 13.9797 31.2234 12.4698 30.7276 12.5374C30.2318 12.605 29.8938 12.605 29.5783 12.6951C29.2628 12.7853 26.7613 12.1317 26.2881 12.2444Z" fill="#755034"/>
<g id="Group_11">
<path id="Vector_76" d="M26.2522 14.6316C26.2388 14.7344 26.2127 14.7757 26.2588 14.8792C26.2951 14.9605 26.354 15.0353 26.4095 15.1014C26.5541 15.2743 26.7438 15.3654 26.9545 15.4445C27.1464 15.5166 27.3663 15.5399 27.565 15.5657C27.7283 15.587 27.9167 15.5031 28.0673 15.4379C28.1275 15.4117 28.2941 15.4177 28.3469 15.3782C28.0081 15.6464 27.62 15.6708 27.3413 15.6477C26.9639 15.6165 26.5996 15.4903 26.2837 15.2648C26.1699 15.1835 25.9879 15.1047 25.9985 14.9405C26.0064 14.8186 26.1445 14.6684 26.2522 14.6316Z" fill="#E2DEDE"/>
<path id="Vector_77" d="M29.7314 15.2628C29.6178 15.4433 29.238 15.2075 29.0947 15.1584C29.0299 15.1363 28.9746 15.1307 28.9229 15.1317C28.9679 15.0306 28.9796 14.9152 28.9805 14.7631C29.2236 14.9531 29.4713 15.1415 29.7314 15.2628Z" fill="#F9DCDC"/>
<path id="Vector_78" d="M26.2446 14.9085C26.1682 14.6983 26.3183 14.615 26.4865 14.5177C26.8237 14.3228 27.2257 14.2132 27.6159 14.187C27.9099 14.1672 28.2054 14.2074 28.4699 14.3432C28.5701 14.3947 28.6633 14.436 28.7439 14.5155C28.8039 14.5748 28.9435 14.692 28.9759 14.764C28.9907 14.7966 28.9674 15.1307 28.9224 15.1316C28.6985 15.1361 28.571 15.3232 28.3545 15.4298C28.1965 15.5075 28.0103 15.5574 27.8387 15.5855C27.4803 15.6441 27.1572 15.6117 26.8444 15.4182C26.6434 15.2938 26.3529 15.1642 26.2542 14.9329C26.2507 14.9246 26.2475 14.9165 26.2446 14.9085Z" fill="white"/>
<path id="Vector_79" d="M28.4894 14.3201C28.4894 14.3201 28.6646 15.2749 27.9658 15.4756C27.9658 15.4756 27.578 15.6292 27.1383 15.4157C27.1383 15.4157 26.5531 15.0546 26.8097 14.2947L27.6648 14.2188L28.4894 14.3201Z" fill="#596C5E"/>
<path id="Vector_80" d="M25.4214 15.0609C25.6329 15.0431 26.005 14.6109 26.2134 14.4979C26.4633 14.3623 27.0423 14.0762 27.5945 14.0773C27.8473 14.0778 28.4235 14.147 28.6332 14.2987C28.8466 14.453 29.0069 14.7025 29.2169 14.8722C29.3889 15.0112 29.6154 15.181 29.7769 15.292C29.5927 15.1871 29.3922 15.1348 29.207 14.9915C28.9876 14.8217 28.7835 14.6297 28.5524 14.4833C28.1394 14.2219 27.4586 14.2188 27.0285 14.3318C26.7214 14.4126 26.4514 14.5942 26.1708 14.7485C25.9855 14.8502 25.6175 15.1547 25.4214 15.0609Z" fill="#281A13"/>
<path id="Vector_81" d="M27.2095 14.7907C27.2137 15.0209 27.4039 15.2041 27.6339 15.1999C27.8642 15.1958 28.0473 15.0056 28.0432 14.7753C28.039 14.5451 27.8488 14.362 27.6188 14.3661C27.3886 14.3704 27.2054 14.5604 27.2095 14.7907Z" fill="#050404"/>
<path id="Vector_82" d="M27.2295 14.5687C27.231 14.6468 27.2953 14.709 27.3734 14.7075C27.4514 14.7061 27.5136 14.6417 27.5122 14.5637C27.5108 14.4856 27.4464 14.4234 27.3682 14.4249C27.2903 14.4261 27.2281 14.4907 27.2295 14.5687Z" fill="white"/>
<path id="Vector_83" d="M25.214 14.3812C25.1909 14.3877 25.1803 14.4232 25.1709 14.3875C25.2913 14.3615 25.4112 14.3305 25.5289 14.2853C26.2591 14.0049 27.0235 13.6492 27.8382 13.6793C28.6477 13.7093 29.3108 14.1962 29.7961 14.7479C29.155 14.3359 28.5473 13.8692 27.7506 13.8838C26.9346 13.8987 26.2744 14.2739 25.4842 14.3761C25.344 14.3944 25.2217 14.4075 25.0854 14.3835C25.1372 14.3933 25.1886 14.3853 25.214 14.3812Z" fill="#B3816A"/>
<path id="Vector_84" d="M28.8392 15.5873C28.4507 15.581 28.1015 15.8666 27.7094 15.9124C27.2675 15.964 26.7978 15.8653 26.4385 15.5976C26.2553 15.461 26.0235 15.2302 25.7817 15.2266C25.9341 15.2378 26.1021 15.4247 26.2141 15.5201C26.3498 15.6358 26.4755 15.7482 26.6347 15.8338C26.9783 16.0188 27.3764 16.1149 27.7656 16.0442C27.9668 16.0076 28.1501 15.9108 28.3247 15.7997C28.4054 15.7483 28.4932 15.6838 28.5807 15.6458C28.6692 15.607 28.7602 15.6234 28.8392 15.5873Z" fill="#B3816A"/>
</g>
<g id="Group_12" opacity="0.39">
<path id="Vector_85" d="M25.2517 41.2251C26.3651 39.8891 26.2982 37.4718 25.7173 35.95C25.5179 35.4275 25.3351 34.918 24.9962 34.4866C24.8152 34.2562 23.9938 33.6268 24.1674 33.2531C23.7344 34.1846 23.0424 35.2882 22.2604 35.9596C21.1274 36.932 19.2572 36.9259 17.9501 37.6872C16.6713 38.4322 15.8674 39.751 14.4367 40.2309C14.2847 40.2819 14.1309 40.3118 13.9761 40.3299C17.9862 41.7757 22.7232 44.1999 25.2517 41.2251Z" fill="#D8A88E"/>
</g>
<g id="Group_13" opacity="0.39">
<path id="Vector_86" d="M38.7736 41.5857C42.3445 42.0959 45.5547 40.6222 48.9143 39.9071C48.6743 39.6869 48.4207 39.4387 48.1484 39.1518C46.6295 37.5509 44.8786 36.3246 42.6798 35.9954C42.1684 35.9188 41.6827 35.7913 41.1806 35.6932C40.912 35.6408 40.6002 35.7077 40.3361 35.6377C39.4268 35.3967 38.252 34.2594 37.2958 34.5428C36.579 34.7556 36.6352 35.6743 36.5876 36.2799C36.4441 38.1073 36.4037 41.1909 38.7736 41.5857Z" fill="#D8A88E"/>
</g>
<path id="Vector_87" d="M34.4522 40.8287C34.0442 41.1303 33.8091 41.5532 33.3258 41.8026C32.8688 42.0382 32.358 42.1678 31.8449 42.1893C30.699 42.2371 29.6759 41.7651 29.0801 40.7784C30.3666 42.027 33.0927 41.834 34.4522 40.8287Z" fill="#D8A88E"/>
<path id="Vector_88" d="M17.3417 41.4955C18.0178 42.0139 19.6731 42.2719 20.4999 42.406C21.7488 42.6086 22.9046 42.7177 24.13 42.3997C25.2243 42.1155 26.5132 41.3731 27.6811 41.6088C28.6721 41.8087 29.4942 43.0096 30.277 43.5699C29.0846 43.6489 28.1858 43.051 26.9707 43.1122C25.8492 43.1686 24.7325 43.4488 23.5776 43.5064C22.3989 43.5654 20.9211 43.6321 19.8689 43.1122C19.3959 42.8785 17.2506 41.9765 17.3417 41.4955Z" fill="#D8A88E"/>
<path id="Vector_89" d="M47.2827 40.1376C46.8631 40.4975 45.9246 40.7382 45.3851 40.9394C44.615 41.2266 43.7765 41.383 42.98 41.5725C42.0061 41.804 40.9705 41.9055 39.9706 41.864C38.9949 41.8237 38.1074 41.2952 37.1382 41.4909C36.0062 41.7193 35.0671 43.0911 34.1729 43.7311C34.3865 43.5782 35.3752 43.6364 35.6925 43.5656C36.2133 43.4493 36.7462 43.2521 37.2833 43.2293C38.3883 43.1823 39.5198 43.2045 40.6364 43.1482C41.4239 43.1084 42.2486 43.1091 42.9801 42.7456C44.4561 42.0124 45.8355 40.9509 47.2827 40.1376Z" fill="#D8A88E"/>
<path id="Vector_90" d="M35.5283 49.8788C37.1671 48.7108 39.8227 47.5888 41.8311 47.3027C40.8282 48.1039 39.4666 48.7928 38.3227 49.4034C37.5556 49.8128 36.9982 50.0339 36.7048 50.7803C36.4467 51.4372 36.4153 52.1571 36.2494 52.8582C35.9017 54.3276 35.4719 55.7888 35.1701 57.2727C34.9355 58.426 34.9993 60.4378 34.1039 61.3178C33.9395 60.1445 34.2692 58.6481 34.4242 57.4706C34.5762 56.317 34.6092 55.1974 34.7147 54.0459C34.8191 52.9105 34.5784 50.556 35.5283 49.8788Z" fill="#D8A88E"/>
<g id="Group_14" opacity="0.62">
<path id="Vector_91" d="M34.0852 61.5072C34.0852 61.5072 35.1669 50.3295 36.6993 49.1577L33.995 50.6901C33.995 50.6901 32.6429 59.8846 34.0852 61.5072Z" fill="#EDCFB9"/>
</g>
<path id="Vector_92" d="M25.0715 47.9858C26.8156 47.7689 28.2535 51.5798 28.7448 52.8739C29.1371 53.9071 29.5644 54.8525 29.8463 55.9231C30.1054 56.9065 29.787 58.1485 30.124 59.1363C30.1146 58.1994 29.1849 56.8871 28.6992 56.0987C28.1127 55.1468 27.2594 54.3531 26.6692 53.3944C26.1489 52.5492 25.8343 51.5109 25.4297 50.6025C25.2759 50.2572 24.2671 47.5903 25.0715 47.9858Z" fill="#D8A88E"/>
<g id="Group_15" opacity="0.62">
<path id="Vector_93" d="M30.2093 59.7945C30.2093 57.6609 29.9104 56.7915 28.767 54.9268C28.1324 53.8918 27.515 52.8101 27.0769 51.677C26.7686 50.8798 26.9671 49.9975 26.6957 49.2457C26.15 47.7336 23.5712 47.8389 22.2088 47.8957C20.1514 47.9813 18.0065 48.1212 15.9666 48.3464C15.8846 48.3554 15.5013 48.3313 15.5932 48.3464C17.2495 48.3464 19.0082 48.1778 20.654 48.3468C22.5369 48.5399 23.3542 49.7279 24.46 51.1408C25.5344 52.5135 26.5623 54.049 27.7048 55.375C28.7494 56.5873 29.6157 57.7014 30.0289 59.2558C30.0801 59.4475 30.2093 60.0702 30.2093 59.7945Z" fill="#EDCFB9"/>
</g>
<g id="Group_16" opacity="0.46">
<path id="Vector_94" d="M31.6816 10.8204C30.9262 10.7337 30.1661 10.6469 29.4073 10.5761C28.8141 10.5207 28.0157 10.528 27.8325 11.2345C27.462 12.6634 29.6819 11.7813 30.1791 11.7153C31.0966 11.5936 35.8357 12.6809 35.8278 10.9972C35.8215 9.6624 33.7711 10.5409 33.1835 10.6935C32.6649 10.8283 32.2114 10.8813 31.6816 10.8204Z" fill="#EDCFB9"/>
</g>
<g id="Group_17" opacity="0.62">
<path id="Vector_95" d="M6.46674 52.0727C5.85846 50.3144 5.54873 48.5516 6.58916 46.6937C7.30958 45.4074 8.67542 43.6202 10.21 43.4673C10.2608 44.4944 10.1712 45.5421 10.2279 46.5737C10.3016 47.917 10.2156 48.1 9.14939 48.8604C7.31481 50.1691 6.98489 51.2591 6.98237 53.442C6.80262 52.985 6.62467 52.529 6.46674 52.0727Z" fill="#EDCFB9"/>
</g>
<g id="Group_18">
<path id="Vector_96" d="M50.1311 117.726C50.814 118.507 54.0765 136.919 53.3935 145.658C53.3935 145.658 52.574 162.2 51.4811 163.449C51.2759 163.683 52.3832 167.147 52.4589 167.546C52.9244 169.997 53.7662 172.342 54.1843 174.803C54.8526 178.735 54.485 183.899 53.6667 187.795L50.798 210.892C50.798 210.892 52.0274 212.92 51.4811 214.169C51.072 215.103 53.8288 218.863 54.3837 219.778C56.1644 222.714 52.2684 222.022 50.5249 222.128C50.0788 222.155 49.3966 222.337 49.0254 222.288C47.9917 222.15 48.4534 221.981 47.899 221.538C47.4809 221.205 47.9315 220.553 47.1402 220.759C46.7401 220.863 46.6379 221.761 46.3271 222.01C45.6656 222.541 44.2392 222.969 43.6951 222.127C43.0838 221.182 44.0335 219.717 44.3436 218.846C45.0873 216.758 44.1835 215.043 44.6171 213.077C45.1201 210.795 45.0718 209.283 44.3777 207.146L40.9625 185.766V181.084C41.509 179.992 42.4652 176.246 42.4652 176.246C42.4652 176.246 40.5529 169.223 39.8698 168.443C38.0354 166.347 38.8415 163.541 39.173 161.026C39.5377 158.259 38.3313 156.12 37.511 153.574C36.7657 151.261 35.9086 149.048 35.9084 146.594C35.9082 143.003 33.9959 130.988 34.4057 129.584C34.8155 128.179 36.3182 122.717 36.3182 122.717C36.3182 122.717 33.5861 126.462 30.0345 122.717C28.2908 120.878 30.0269 115.774 30.8162 113.548C31.4085 111.877 31.8783 110.288 32.0873 108.511C32.2517 107.112 32.1882 105.604 32.7705 104.302C33.9588 101.645 37.414 102.401 39.7369 102.429C42.3978 102.462 45.0811 103.017 47.6531 102.429C48.6942 102.191 49.4482 116.946 50.1311 117.726Z" fill="#E6BA9F"/>
<path id="Vector_97" d="M40.9644 162.426C40.9644 162.426 42.5537 167.925 43.9614 169.014C45.3691 170.104 44.1431 170.208 42.6444 169.222C42.6444 169.222 41.2368 168.081 40.9644 162.426Z" fill="#D8A88E"/>
<path id="Vector_98" d="M45.1636 169.594C45.1636 169.594 47.8273 181.064 46.5979 187.911C46.5979 187.911 45.7782 169.594 45.1636 169.594Z" fill="#D8A88E"/>
<path id="Vector_99" d="M43.9114 204.421C43.8786 204.848 44.2213 205.298 44.3929 205.67C44.5381 205.984 44.6381 206.299 44.7301 206.63C44.9055 207.263 45.0881 207.902 45.2853 208.532C45.5576 209.401 45.8291 210.393 45.7952 211.312C45.7631 212.181 45.4561 212.766 44.8956 213.419C44.6817 213.669 44.6076 213.926 44.5725 214.239C44.4661 215.182 45.5942 215.677 45.431 216.579C45.4004 216.748 44.7829 218.097 44.6405 218.088C44.6349 218.103 44.6291 218.118 44.6235 218.134C44.8326 216.753 44.69 216.02 44.4064 214.741C44.2076 213.844 44.5768 212.956 44.741 212.085C44.9038 211.222 44.7016 210.444 44.6641 209.583C44.6395 209.021 44.4787 208.484 44.4237 207.928C44.3197 206.876 44.0415 205.828 43.9399 204.774C43.9283 204.653 43.924 204.541 43.9114 204.421Z" fill="#D8A88E"/>
<path id="Vector_100" d="M38.9325 162.929C38.954 162.797 38.9751 162.665 38.9937 162.535C39.1581 161.373 39.2376 160.204 39.0641 159.041C38.6856 156.504 37.3487 154.397 36.8757 151.925C36.6766 150.885 36.1662 149.861 36.1592 148.792C36.1342 149.927 37.0125 151.088 37.4412 152.081C37.8945 153.13 38.3951 154.248 39.0753 155.173C39.6517 155.957 42.4366 161.038 42.904 160.418C42.3261 161.185 41.2196 161.487 40.3939 161.896C39.4806 162.348 38.815 163.142 38.7734 164.196C38.7898 163.776 38.864 163.35 38.9325 162.929Z" fill="#D8A88E"/>
<path id="Vector_101" d="M48.8241 162.422C48.3916 162.848 48.4444 163.969 48.3171 164.551C48.177 165.191 48.0638 165.813 47.8664 166.446C47.6041 167.285 47.2354 169.065 46.2134 169.28C46.659 169.871 47.7301 169.583 48.1482 169.138C48.7608 168.488 48.9577 167.63 49.0046 166.759C49.0906 165.162 48.4689 163.624 49.054 162.122C48.8412 162.314 48.7743 162.601 48.5989 162.827L48.8241 162.422Z" fill="#D8A88E"/>
<path id="Vector_102" d="M40.0352 168.447C40.9773 169.685 41.9098 171.165 42.9167 172.41C43.312 172.898 44.4298 173.522 44.578 174.119C44.7406 174.775 43.8772 175.741 43.5504 176.286C41.683 179.399 41.1969 182.878 41.2103 186.559C40.8967 185.059 40.6995 183.273 40.8764 181.668C41.0347 180.231 41.8618 178.854 42.1952 177.458C42.5604 175.929 42.0709 174.563 41.5674 173.014C41.1865 171.84 40.8555 169.203 40.0352 168.447Z" fill="#D8A88E"/>
<g id="Group_19">
<path id="Vector_103" d="M52.1804 159.192C52.3341 157.657 52.5018 156.155 52.6549 154.625C52.7028 154.145 54.5479 141.103 51.769 142.317C48.9789 143.536 50.2663 148.186 50.3793 150.636C50.5273 153.844 50.2493 157.135 48.2988 159.811C50.3624 161.283 51.3368 164.112 50.6642 166.585C50.8008 166.083 50.9209 165.543 51.1953 165.083C51.7643 165.525 52.2595 166.782 52.418 167.586C52.2233 166.432 51.7509 165.431 51.4969 164.306C51.4228 163.978 51.4212 163.62 51.4578 163.25C52.0918 162.323 52.0684 160.309 52.1804 159.192Z" fill="#D8A88E"/>
<path id="Vector_104" d="M52.418 167.586C52.43 167.657 52.4446 167.727 52.4542 167.799C52.4456 167.733 52.4326 167.661 52.418 167.586Z" fill="#D8A88E"/>
</g>
<path id="Vector_105" d="M49.9512 220.97C49.9512 221.036 49.9586 221.095 49.9696 221.152C49.969 221.095 49.9642 221.035 49.9512 220.97Z" fill="#E6BA9F"/>
<path id="Vector_106" d="M53.3766 220.97C53.7371 221.33 53.1963 221.51 53.1963 221.51C52.4751 221.691 51.9343 221.51 51.5737 220.789C51.5737 220.97 51.5737 221.33 51.5737 221.51C51.0725 221.845 50.1082 221.868 49.9695 221.152C49.9771 221.893 49.0108 222.025 48.5089 221.691C48.1483 221.33 47.7877 220.429 47.4271 220.429C46.3454 220.789 45.8046 222.412 44.3623 222.051C44.0234 221.967 43.7253 221.801 43.5034 221.557C43.5238 221.76 43.5827 221.953 43.6956 222.127C44.2397 222.969 45.6661 222.541 46.3276 222.01C46.6384 221.761 46.7406 220.863 47.1407 220.759C47.9318 220.553 47.4814 221.204 47.8995 221.538C48.4537 221.98 47.9922 222.15 49.0259 222.287C49.3971 222.337 50.0793 222.155 50.5253 222.128C51.9411 222.041 54.7759 222.482 54.8385 221.079C54.4503 221.443 53.9136 221.507 53.3766 220.97Z" fill="#D8A88E"/>
<path id="Vector_107" d="M54.3378 177.581C54.4718 179.54 54.6041 181.324 54.1042 183.231C54.0611 183.395 54.0144 183.556 53.9648 183.714C53.435 185.399 52.5568 186.755 51.9008 188.372C50.3916 192.091 50.9487 196.26 50.7321 200.297C50.6667 201.519 49.9654 210.475 50.8524 210.513C50.8524 210.513 53.9173 185.754 54.0975 185.333C54.2955 184.871 54.2551 184.334 54.3013 183.854C54.3478 183.37 54.3487 182.908 54.3981 182.419C54.4965 181.444 54.5784 180.439 54.5784 179.414C54.5782 178.904 54.6802 177.945 54.3378 177.581Z" fill="#D8A88E"/>
<path id="Vector_108" d="M41.55 189.67C41.6331 190.066 41.7223 190.458 41.7809 190.834C42.5491 195.76 43.2019 200.675 43.995 205.592C44.171 206.683 44.5481 209.578 45.444 210.284C46.2051 209.526 45.5011 207.134 45.321 206.186C45.0461 204.74 44.8773 203.283 44.6092 201.853C44.3505 200.472 44.132 199.06 43.882 197.653C43.4951 195.477 44.1529 192.697 43.267 190.696C42.8001 189.641 41.8188 188.67 41.3578 187.728C41.2922 188.347 41.4124 189.014 41.55 189.67Z" fill="#D8A88E"/>
<path id="Vector_109" d="M41.1171 184.312C40.3795 186.003 41.9109 187.889 42.9093 189.109C44.1841 190.667 45.7019 192.045 46.3316 194C46.4515 194.373 46.5343 194.858 46.5721 195.249C46.6713 196.273 46.3745 197.24 46.4052 198.236C46.213 197.133 46.0417 196.103 45.699 195.005C45.4967 194.358 45.1484 193.806 44.7693 193.251C43.9133 191.997 42.8262 190.897 42.0803 189.562C41.1605 187.917 41.1787 186.374 40.8789 184.589C40.9065 184.751 41.1746 184.18 41.1171 184.312Z" fill="#D8A88E"/>
<g id="Group_20" opacity="0.62">
<path id="Vector_110" d="M38.293 151.199C39.5281 152.645 40.1845 154.914 41.0375 156.608C41.696 157.916 44.5537 160.738 45.1438 158.23C45.5655 156.438 42.8127 155.43 41.6784 154.494C40.4212 153.457 39.2274 152.332 38.293 151.199Z" fill="#EDCFB9"/>
</g>
</g>
<g id="Group_21">
<path id="Vector_111" d="M14.4839 118.086C13.8008 118.866 12.2983 137.281 12.9812 146.02C12.9812 146.02 13.8008 162.562 14.8937 163.811C15.0989 164.046 13.9916 167.51 13.9158 167.909C13.4503 170.36 12.6088 172.704 12.1905 175.165C11.5222 179.098 11.8898 184.262 12.7081 188.157L15.5768 211.254C15.5768 211.254 14.3474 213.283 14.8939 214.531C15.303 215.466 12.5462 219.226 11.9911 220.141C10.2104 223.077 14.1064 222.384 15.85 222.49C16.296 222.518 16.9782 222.699 17.3494 222.65C18.3831 222.513 17.9214 222.344 18.4758 221.901C18.8939 221.567 18.4435 220.916 19.2346 221.122C19.6347 221.226 19.7369 222.124 20.0477 222.373C20.7092 222.904 22.1356 223.332 22.6797 222.49C23.291 221.544 22.3413 220.08 22.0312 219.209C21.2875 217.121 22.1913 215.406 21.7577 213.44C21.2547 211.158 21.303 209.645 21.9971 207.509L25.4123 186.129V181.447C24.8658 180.354 23.9096 176.609 23.9096 176.609C23.9096 176.609 25.8219 169.586 26.505 168.806C28.3394 166.71 27.5333 163.904 27.202 161.389C26.8373 158.622 28.0437 156.483 28.864 153.937C29.6093 151.624 30.4664 149.411 30.4666 146.957C30.4668 143.366 31.5212 130.88 31.1115 129.476C30.7017 128.071 30.0568 123.08 30.0568 123.08C30.0568 123.08 32.7888 126.826 36.3404 123.08C38.0842 121.242 36.348 116.138 35.5587 113.911C34.9663 112.241 34.4967 110.651 34.2877 108.874C34.1231 107.475 34.1868 105.967 33.6044 104.665C32.4162 102.009 28.961 102.764 26.638 102.792C23.9772 102.825 21.2938 103.38 18.7219 102.792C17.6806 102.554 15.1668 117.305 14.4839 118.086Z" fill="#E6BA9F"/>
<path id="Vector_112" d="M25.4102 162.789C25.4102 162.789 23.8208 168.288 22.4132 169.377C21.0055 170.467 22.2314 170.57 23.7301 169.585C23.7301 169.585 25.1378 168.443 25.4102 162.789Z" fill="#D8A88E"/>
<path id="Vector_113" d="M21.2111 169.956C21.2111 169.956 18.5474 181.427 19.7768 188.274C19.7768 188.274 20.5965 169.956 21.2111 169.956Z" fill="#D8A88E"/>
<path id="Vector_114" d="M22.4633 204.784C22.4961 205.211 22.1534 205.661 21.9818 206.032C21.8367 206.347 21.7366 206.661 21.6447 206.993C21.4692 207.626 21.2868 208.264 21.0894 208.894C20.8172 209.763 20.5456 210.755 20.5795 211.674C20.6116 212.544 20.9187 213.129 21.4792 213.782C21.6932 214.031 21.7671 214.289 21.8024 214.601C21.9088 215.544 20.7807 216.04 20.9439 216.941C20.9745 217.11 21.592 218.459 21.7344 218.451C21.74 218.466 21.7458 218.481 21.7514 218.496C21.5423 217.115 21.6849 216.382 21.9685 215.103C22.1673 214.207 21.7981 213.318 21.6337 212.448C21.4709 211.585 21.6731 210.806 21.7106 209.946C21.7352 209.384 21.896 208.846 21.951 208.29C22.0552 207.238 22.3332 206.191 22.4349 205.137C22.4464 205.016 22.4507 204.904 22.4633 204.784Z" fill="#D8A88E"/>
<path id="Vector_115" d="M27.4417 163.292C27.4201 163.16 27.3992 163.028 27.3806 162.897C27.2162 161.736 27.1367 160.566 27.3101 159.404C27.6887 156.867 29.0255 154.759 29.4986 152.287C29.6976 151.247 30.208 150.224 30.215 149.155C30.2401 150.289 29.3618 151.45 28.933 152.443C28.4798 153.493 27.9792 154.61 27.2989 155.536C26.7226 156.32 23.9377 161.401 23.4702 160.78C24.0482 161.547 25.1546 161.85 25.9803 162.258C26.8936 162.71 27.5594 163.505 27.6011 164.559C27.5845 164.138 27.5104 163.712 27.4417 163.292Z" fill="#D8A88E"/>
<path id="Vector_116" d="M17.5505 162.785C17.983 163.211 17.9302 164.332 18.0574 164.914C18.1975 165.554 18.3107 166.176 18.5083 166.809C18.7707 167.648 19.1393 169.428 20.1614 169.643C19.7157 170.234 18.6446 169.945 18.2266 169.501C17.6139 168.85 17.4171 167.993 17.3702 167.122C17.2842 165.525 17.9058 163.987 17.3208 162.485C17.5335 162.677 17.6004 162.964 17.7758 163.19L17.5505 162.785Z" fill="#D8A88E"/>
<path id="Vector_117" d="M26.3394 168.809C25.3972 170.047 24.4648 171.528 23.4579 172.772C23.0625 173.261 21.9448 173.884 21.7966 174.482C21.6339 175.138 22.4973 176.103 22.8242 176.648C24.6916 179.762 25.1776 183.24 25.1643 186.922C25.4778 185.421 25.675 183.635 25.4982 182.03C25.3399 180.594 24.5127 179.216 24.1792 177.82C23.8139 176.291 24.3034 174.926 24.807 173.376C25.1883 172.203 25.5191 169.566 26.3394 168.809Z" fill="#D8A88E"/>
<g id="Group_22">
<path id="Vector_118" d="M14.1938 159.554C14.04 158.02 13.8723 156.518 13.7192 154.987C13.6713 154.508 11.8262 141.466 14.6052 142.68C17.3953 143.899 16.1078 148.548 15.9948 150.998C15.8466 154.206 16.1248 157.497 18.0753 160.173C16.0117 161.645 15.0375 164.475 15.7099 166.948C15.5733 166.445 15.4532 165.906 15.1788 165.446C14.6099 165.888 14.1146 167.145 13.9561 167.949C14.1508 166.795 14.6232 165.793 14.8772 164.668C14.9513 164.34 14.9529 163.983 14.9163 163.613C14.2823 162.685 14.3057 160.671 14.1938 159.554Z" fill="#D8A88E"/>
<path id="Vector_119" d="M13.9562 167.949C13.9443 168.02 13.9297 168.089 13.9199 168.162C13.9286 168.096 13.9416 168.023 13.9562 167.949Z" fill="#D8A88E"/>
</g>
<path id="Vector_120" d="M16.4237 221.332C16.4237 221.398 16.4163 221.458 16.4053 221.515C16.4058 221.457 16.4107 221.397 16.4237 221.332Z" fill="#E6BA9F"/>
<path id="Vector_121" d="M12.9986 221.332C12.638 221.693 13.1788 221.873 13.1788 221.873C13.9 222.054 14.4408 221.873 14.8014 221.152C14.8014 221.332 14.8014 221.693 14.8014 221.873C15.3026 222.207 16.267 222.23 16.4056 221.515C16.398 222.256 17.3642 222.388 17.8663 222.054C18.2268 221.693 18.5874 220.792 18.948 220.792C20.0297 221.152 20.5705 222.775 22.0128 222.414C22.3518 222.329 22.6498 222.164 22.8717 221.92C22.8513 222.123 22.7924 222.315 22.6795 222.49C22.1354 223.331 20.709 222.903 20.0475 222.373C19.7367 222.124 19.6345 221.226 19.2344 221.121C18.4434 220.915 18.8937 221.567 18.4756 221.901C17.9214 222.343 18.383 222.513 17.3492 222.65C16.978 222.699 16.2958 222.518 15.8498 222.49C14.434 222.404 11.5992 222.845 11.5366 221.441C11.9248 221.806 12.4615 221.869 12.9986 221.332Z" fill="#D8A88E"/>
<path id="Vector_122" d="M12.0367 177.944C11.9028 179.903 11.7705 181.686 12.2706 183.593C12.3137 183.757 12.3602 183.918 12.4099 184.076C12.9398 185.761 13.8179 187.117 14.474 188.734C15.9832 192.453 15.4261 196.622 15.6426 200.66C15.7081 201.881 16.4094 210.838 15.5224 210.876C15.5224 210.876 12.4575 186.117 12.2772 185.696C12.0793 185.234 12.1197 184.696 12.0735 184.217C12.027 183.733 12.0261 183.271 11.9767 182.781C11.8781 181.806 11.7964 180.802 11.7964 179.776C11.7964 179.267 11.6946 178.307 12.0367 177.944Z" fill="#D8A88E"/>
<path id="Vector_123" d="M24.8249 190.033C24.7418 190.429 24.6526 190.821 24.594 191.196C23.8258 196.122 23.173 201.038 22.3799 205.955C22.2039 207.046 21.8268 209.94 20.9309 210.647C20.1698 209.889 20.8738 207.497 21.0539 206.549C21.3288 205.103 21.4976 203.646 21.7657 202.215C22.0244 200.835 22.2429 199.423 22.4929 198.015C22.8798 195.839 22.2218 193.059 23.1079 191.058C23.5748 190.004 24.5561 189.033 25.0171 188.091C25.0827 188.71 24.9625 189.377 24.8249 190.033Z" fill="#D8A88E"/>
<path id="Vector_124" d="M25.2577 184.674C25.9952 186.365 24.4639 188.251 23.4655 189.471C22.1907 191.029 20.6728 192.407 20.0431 194.363C19.9232 194.736 19.8405 195.22 19.8026 195.612C19.7034 196.636 20.0002 197.602 19.9695 198.598C20.1617 197.496 20.333 196.465 20.6757 195.368C20.878 194.72 21.2263 194.169 21.6054 193.614C22.4614 192.359 23.5486 191.26 24.2944 189.925C25.2142 188.279 25.196 186.737 25.4958 184.951C25.4684 185.114 25.2003 184.543 25.2577 184.674Z" fill="#D8A88E"/>
<g id="Group_23" opacity="0.62">
<path id="Vector_125" d="M28.0824 151.562C26.8472 153.008 26.1908 155.276 25.3381 156.971C24.6795 158.279 21.8218 161.101 21.2315 158.593C20.8098 156.801 23.5626 155.793 24.6972 154.856C25.9541 153.819 27.1479 152.695 28.0824 151.562Z" fill="#EDCFB9"/>
</g>
</g>
<path id="Vector_126" d="M17.019 99.9381C17.019 99.9381 39.199 102.195 48.2233 100.449C49.7648 107.046 50.586 113.663 51.7005 120.351C52.5421 125.401 53.2672 130.48 53.7109 135.586C53.9144 137.928 54.0594 140.277 54.0842 142.628C54.0942 143.578 54.2003 145.115 53.6005 145.9C52.9775 146.715 51.6818 146.591 50.7944 146.6C48.6007 146.622 46.4068 146.644 44.2131 146.666C42.0021 146.689 39.791 146.711 37.58 146.733C36.0099 146.749 33.6289 147.538 33.849 145.072C33.9494 143.948 34.0863 142.793 34.0863 141.589C34.0863 136.829 33.9438 132.12 33.6814 127.364C32.9151 127.472 32.5593 127.299 31.7898 127.254C31.6209 130.98 32.1318 134.676 31.9227 138.399C31.8131 140.35 32.2158 143.992 30.9273 145.616C29.928 146.875 26.305 146.088 24.9139 146.061C22.1033 146.007 19.2924 145.953 16.4818 145.899C15.1715 145.874 13.6587 146.064 12.3722 145.82C11.3593 145.627 11.2479 144.997 11.207 143.896C11.0777 140.426 11.715 136.768 12.0545 133.313C12.4695 129.087 12.9226 124.865 13.4438 120.652C13.9882 116.25 14.5823 111.844 15.4224 107.491C15.8874 105.08 15.5488 101.973 17.019 99.9381Z" fill="black"/>
<path id="Vector_127" d="M35.8888 144.889C36.2494 138.94 34.0859 132.81 36.4297 127.402C37.8719 124.337 41.4776 121.632 41.2974 117.846C40.0354 121.993 35.5282 125.779 31.0211 126.14C29.4971 132.845 31.1677 139.422 30.4727 145.979C30.6548 145.882 30.8098 145.764 30.9272 145.616C32.2157 143.992 31.8129 140.35 31.9223 138.399C32.1313 134.676 31.6204 130.98 31.7895 127.254C31.8354 127.257 31.8758 127.261 31.9189 127.264C32.5986 127.319 32.9604 127.465 33.6808 127.364C33.9433 132.12 34.0858 136.829 34.0858 141.589C34.0858 142.793 33.9489 143.948 33.8485 145.072C33.6284 147.538 36.0094 146.749 37.5795 146.733C39.7905 146.711 42.0015 146.688 44.2126 146.666C44.2766 146.666 44.3406 146.665 44.4044 146.664C41.6015 145.855 38.7454 145.27 35.8888 144.889Z" fill="black"/>
<path id="Vector_128" d="M17.5595 102.823C15.3586 103.2 15.9561 105.863 15.633 107.51C15.1699 109.871 15.0067 112.026 14.8886 114.488C14.8338 115.63 14.6845 116.812 14.675 117.967C14.6624 119.499 15.3363 119.467 16.5981 118.928C19.05 117.882 20.1261 115.551 21.1986 113.279C22.4963 110.531 23.5872 108.022 23.3287 104.899C23.178 103.078 22.5021 102.476 20.7113 102.315C19.4965 102.206 17.8868 102.412 16.8384 103.183L17.5595 102.823Z" fill="black"/>
<path id="Vector_129" d="M47.0246 103.454C49.2256 103.831 48.6281 106.494 48.9512 108.141C49.4143 110.502 49.5775 112.657 49.6956 115.119C49.7504 116.261 49.8996 117.443 49.9092 118.598C49.9218 120.13 49.2479 120.098 47.9861 119.559C45.5342 118.513 44.4581 116.182 43.3856 113.91C42.0879 111.162 40.997 108.653 41.2555 105.53C41.4062 103.709 42.0821 103.107 43.8729 102.946C45.0876 102.837 46.6974 103.043 47.7458 103.814L47.0246 103.454Z" fill="black"/>
<path id="Vector_130" d="M54.0838 142.628C54.0589 140.277 53.914 137.928 53.7104 135.586C53.2666 130.48 52.5415 125.401 51.7001 120.351C50.7675 114.754 50.0386 109.207 48.9228 103.68C48.9082 103.607 48.8932 103.534 48.8784 103.461C48.8236 103.193 48.7685 102.924 48.7117 102.656C48.6772 102.492 48.6417 102.329 48.6066 102.165C48.5642 101.969 48.5224 101.773 48.4789 101.577C48.3958 101.201 48.3107 100.825 48.2229 100.449C48.0697 100.478 47.9117 100.507 47.7511 100.534C38.4507 102.118 17.0184 99.9381 17.0184 99.9381C16.7911 100.253 16.6083 100.593 16.4577 100.953C16.4548 100.96 16.4516 100.967 16.4487 100.974C16.3968 101.099 16.3488 101.227 16.3047 101.356C16.3021 101.364 16.2998 101.371 16.2974 101.378C16.2082 101.643 16.1336 101.915 16.0708 102.194C16.0697 102.199 16.0688 102.203 16.0678 102.208C16.0368 102.346 16.0086 102.486 15.983 102.627C15.9816 102.635 15.9803 102.642 15.9791 102.649C15.9273 102.936 15.8853 103.227 15.8498 103.521C15.8496 103.523 15.8494 103.525 15.8491 103.527C15.8357 103.637 15.8231 103.747 15.8114 103.858C15.8118 103.858 15.8121 103.858 15.8125 103.858C15.6812 105.101 15.6374 106.371 15.4214 107.491C14.5813 111.844 13.9873 116.25 13.4428 120.652C12.9218 124.865 12.4685 129.087 12.0535 133.313C11.7142 136.768 11.0767 140.426 11.206 143.896C11.2469 144.998 11.3584 145.627 12.3712 145.82C13.6579 146.064 15.1705 145.874 16.4808 145.899C17.644 145.921 18.8072 145.944 19.9704 145.966C19.0107 145.463 17.9842 145.05 16.7777 144.889C15.5157 144.709 13.5326 145.791 13.5326 144.529C13.3159 136.297 14.4003 128.131 15.2619 119.912C16.3162 120.167 18.2135 119.9 18.7609 119.796C20.5118 119.463 21.7705 119.03 22.2726 117.152C23.1632 113.821 23.4483 109.752 23.4483 106.224C23.5083 108.728 21.9254 111.868 20.5933 113.907C19.9086 114.955 17.106 118.613 15.3389 119.172C15.8594 114.118 16.2764 109.042 16.2396 103.919C21.2807 104.638 26.3898 105.246 31.5097 105.502L31.6212 118.207C31.6212 118.207 35.1034 119.599 34.7671 105.615C39.0478 105.696 43.3273 105.495 47.5721 104.875C47.884 106.434 48.196 107.994 48.5079 109.553C49.118 113.112 49.384 116.499 49.6616 119.875C47.9579 119.871 44.7313 115.673 43.9898 114.538C42.6577 112.499 41.0748 109.359 41.1348 106.855C41.1348 110.384 41.4198 114.452 42.3105 117.783C42.8125 119.661 44.0713 120.094 45.8222 120.427C46.4455 120.546 48.8195 120.875 49.7058 120.405C49.9075 122.838 50.1247 125.271 50.4911 127.762C51.4756 134.091 52.0179 140.311 51.8679 146.591C52.5319 146.557 53.2024 146.42 53.5997 145.9C54.1999 145.115 54.0939 143.578 54.0838 142.628Z" fill="black"/>
<path id="Vector_131" d="M19.7118 66.7137C18.9077 67.5498 16.5408 65.69 17.7532 65.1061C18.2537 64.865 18.8266 65.2182 19.2268 65.4958C19.5757 65.7381 20.1064 66.3032 19.7118 66.7137Z" fill="#CF7D75"/>
</g>
</svg>
