<svg width="75" height="199" viewBox="0 0 75 199" fill="none" xmlns="http://www.w3.org/2000/svg">
<g id="Group">
<g id="Group_2">
<g id="Group_3">
<g id="Group_4">
<path id="Vector" d="M62.2917 32.0387C62.4537 30.6472 62.2227 29.2029 61.5872 27.9693C61.1235 27.0684 60.4703 26.2884 59.9911 25.3959C59.9183 25.2605 59.8461 25.1188 59.7766 24.9727C59.2738 23.915 59.4728 22.6876 60.1457 21.7401C60.5442 21.1792 60.6998 20.4014 60.5645 19.7028C60.3612 18.6553 59.6338 17.7932 58.7972 17.1845C57.9606 16.5759 57.0059 16.1763 56.0944 15.702C55.1755 15.2231 54.1656 14.4043 54.3121 13.3382C54.3662 12.9476 54.5742 12.6037 54.7256 12.2423C55.5927 10.1797 54.2362 7.45011 52.1303 7.0185C51.4612 6.88137 50.7064 6.92296 50.1849 6.46156C49.4238 5.78828 49.6361 4.53895 49.5254 3.49981C49.3628 1.97736 48.2791 0.608328 46.8846 0.161538C45.9213 -0.147 44.8478 -0.00256824 43.9647 0.500984C43.1805 0.948898 42.2798 1.07703 41.3913 0.984304C40.2905 0.869656 39.0897 1.04837 38.1713 1.44514C37.4796 1.74357 36.8164 2.23026 36.5206 2.95187C36.0493 4.10116 36.4901 5.77142 35.4663 6.41041C34.826 6.81 34.0157 6.49303 33.2711 6.50764C31.935 6.53349 30.748 7.85307 30.7988 9.25638C30.8357 10.2764 31.4295 11.2543 31.2546 12.2586C30.9422 14.0525 28.6058 14.4762 27.582 15.9487C26.6657 17.266 27.015 19.1639 27.8361 20.5486C28.2335 21.2185 28.7443 21.8693 28.8096 22.6556C28.8786 23.4907 28.4143 24.2826 27.8377 24.862C27.2611 25.4414 26.5641 25.8736 25.9704 26.4339C24.5053 27.8153 23.7886 29.9959 24.0539 32.0376C24.0533 36.0553 62.2917 36.4206 62.2917 32.0387Z" fill="#36221B"/>
<path id="Vector_2" d="M49.693 106.708L17.7129 196.613C17.3016 197.769 16.2489 198.538 15.0716 198.538H0C1.23934 195.2 3.31098 193.526 8.42562 193.335L24.88 110.855L28.0139 95.1458L28.1476 94.477L31.0997 90.0934L48.2237 93.1046L48.3911 98.0361L49.693 106.708Z" fill="#E6BA9F"/>
<path id="Vector_3" d="M31.9806 103.792C32.033 104.571 31.9709 105.33 31.818 106.095C31.665 106.864 31.2964 107.613 30.6888 108.06C30.0764 108.507 29.1959 108.593 28.5883 108.14C28.4161 109.161 27.9855 110.056 27.1575 110.619C26.4878 111.066 25.5977 111.177 24.8799 110.855L28.0138 95.1451C28.2674 94.904 28.545 94.6927 28.8509 94.5269C29.6549 94.0847 30.7123 94.1903 31.3868 94.8287C32.554 95.9398 33.2959 97.5331 33.4012 99.182C33.5114 100.837 32.9899 102.52 31.9806 103.792Z" fill="#E6BA9F"/>
<path id="Vector_4" d="M65.7244 193.334L65.7142 193.285L69.0766 90.6418L64.2182 85.9862L54.0376 91.4629L49.6953 106.705L56.4408 196.614C56.8527 197.77 57.9006 198.537 59.0784 198.537H65.542H74.1538C72.9128 195.202 70.838 193.526 65.7244 193.334Z" fill="#E6BA9F"/>
<path id="Vector_5" d="M58.0323 38.2443L55.2524 55.2257H26.9326V33.75L36.6596 33.1363L37.0373 28.964L37.3582 25.465H44.4824V33.1363L58.0323 38.2443Z" fill="#E6BA9F"/>
<path id="Vector_6" d="M40.9124 49.0409C42.1517 50.3059 42.6823 52.2426 42.531 54.0511C40.8001 50.2042 36.7327 47.6623 32.689 47.9006C33.9978 46.6321 38.545 46.6243 40.9124 49.0409Z" fill="#E6BA9F"/>
<path id="Vector_7" d="M44.0489 49.0409C42.8454 50.3436 42.2789 52.2426 42.4303 54.0511C44.1612 50.2042 48.2285 47.6623 52.2723 47.9006C50.9634 46.6322 46.5591 46.3242 44.0489 49.0409Z" fill="#E6BA9F"/>
<path id="Vector_8" d="M44.4827 25.465V31.1153C43.8943 31.2513 43.2385 31.3266 42.5068 31.3266C39.8035 31.3266 38.1052 30.2459 37.0381 28.964L37.3585 25.465H44.4827Z" fill="#E6BA9F"/>
<path id="Vector_9" d="M54.0376 42.4454L58.0338 38.2461C58.0338 38.2461 60.1188 38.9761 64.6365 45.7314C69.1542 52.486 74.0864 60.3389 74.3667 63.2573C74.7903 67.6645 70.3705 80.966 70.3705 80.966L64.9135 78.41L67.4168 63.9874L54.0376 48.8347V42.4454Z" fill="#E6BA9F"/>
<path id="Vector_10" d="M45.531 10.3354C46.0253 10.4366 46.6356 10.6243 47.2133 10.9756C47.945 11.4201 48.3911 12.2491 48.3911 13.1376V20.8151C48.3911 22.129 48.1103 23.439 47.493 24.5816C46.5869 26.2603 44.7838 28.0677 41.2236 28.0677C36.9423 28.0677 35.1846 25.3594 34.4759 23.4323C34.1544 22.5584 34.0127 21.6227 34.0127 20.6858V13.6732C34.0127 12.2148 34.5454 10.812 35.5077 9.76108C36.5914 8.57807 38.2715 7.34729 40.5721 7.34729C42.7378 7.34729 43.7295 8.43532 44.1719 9.27158C44.4597 9.81672 44.948 10.2163 45.531 10.3354Z" fill="#E6BA9F"/>
<path id="Vector_11" d="M69.0754 90.6413C69.0754 90.6413 59.0135 92.597 50.0707 106.135C49.9412 106.321 49.8171 106.512 49.6925 106.708C49.6925 106.708 39.444 94.6584 28.1476 94.4775C27.9995 90.0939 29.0521 87.897 30.6643 85.132C32.2722 82.3669 33.664 80.4668 34.516 77.355C35.535 73.6099 32.4727 65.0686 32.4727 65.0686C29.4918 63.8372 27.3726 60.7906 27.3726 57.2163C27.3726 55.5275 27.8417 53.959 28.6595 52.6416C30.0855 50.3144 32.5781 48.7756 35.4104 48.7756C38.3239 48.7756 40.8743 50.4144 42.2811 52.8625L42.5009 52.586C43.9456 49.3433 47.5776 47.3476 50.9361 47.9562C54.2947 48.5593 57.0842 51.7115 57.419 55.2707C57.7539 58.8349 55.6057 62.4997 52.4237 63.7816C52.797 67.6825 54.8157 71.2517 57.457 74.0218C58.3422 74.9469 59.3184 75.7561 60.323 76.5351C61.9592 77.8018 63.6767 78.9781 65.1937 80.4011C66.2367 81.3863 67.0551 82.6783 67.6627 84.1412C68.4822 86.0969 68.932 88.3691 69.0754 90.6413Z" fill="black"/>
<path id="Vector_12" d="M50.0712 106.135C49.9417 106.321 49.8176 106.512 49.693 106.708C49.693 106.708 39.4445 94.6584 28.1481 94.4774C27.9999 90.0938 29.0526 87.897 30.6648 85.1319C32.2727 82.3669 33.6644 80.4668 34.5165 77.355C35.5355 73.6098 32.4732 65.0685 32.4732 65.0685C29.4923 63.8372 27.373 60.7906 27.373 57.2163C27.373 55.5275 27.8421 53.9589 28.66 52.6416C28.215 55.7686 29.3441 59.1417 31.6458 61.2076C34.2967 63.5955 38.3394 64.103 41.4541 62.4395C40.8892 65.0483 39.1572 67.2654 36.7941 68.2607C39.3921 74.5748 38.0618 82.4321 33.459 87.3232C40.0906 90.5255 45.5877 96.2612 49.0185 103.028C49.5015 103.983 49.9369 105.069 50.0712 106.135Z" fill="#4B4B4B"/>
<path id="Vector_13" d="M67.6638 84.1412C67.1712 84.1311 66.6828 83.8495 66.1757 83.8343C65.5777 83.809 65.0177 84.1564 64.5684 84.5734C64.1185 84.9904 63.7404 85.4934 63.267 85.8806C62.7931 86.2627 62.1806 86.5342 61.597 86.3881C61.0135 86.247 60.5396 85.5585 60.7599 84.9701C60.3534 85.4579 59.6019 85.5732 59.0804 85.2213C58.5637 84.8746 58.3487 84.1052 58.6017 83.5174C58.0753 83.8192 57.3575 83.487 57.0847 82.9295C56.8071 82.3664 56.9028 81.6729 57.1804 81.1098C57.4532 80.5517 57.8935 80.0993 58.3192 79.662C57.9223 79.7373 57.5153 79.8127 57.1136 79.7576C56.7119 79.6974 56.3096 79.4811 56.123 79.0989C55.9122 78.6769 56.0272 78.134 56.3 77.7569C56.5776 77.3747 56.9938 77.1336 57.4147 76.9526C58.3289 76.5604 59.3382 76.4249 60.324 76.5356C61.9602 77.8024 63.6778 78.9787 65.1947 80.4016C66.2383 81.3868 67.0562 82.6783 67.6638 84.1412Z" fill="#4B4B4B"/>
</g>
<path id="Vector_14" d="M65.1772 78.0513L59.632 76.7739C59.632 76.7739 56.3557 78.193 56.7007 78.9781C57.0458 79.7632 59.6897 78.4346 59.6897 78.4346L62.4776 79.2265L65.1772 78.0513Z" fill="#E6BA9F"/>
<path id="Vector_15" d="M69.8161 79.5232L70.3713 80.9664C70.3713 80.9664 69.9236 85.1151 65.7803 82.6007C65.7803 82.6007 62.3158 85.8654 61.7087 85.3028C61.1016 84.7397 64.3517 80.967 64.3517 80.967C64.3517 80.967 59.9586 84.815 59.3868 84.1771C58.8155 83.5393 62.4945 79.7486 62.4945 79.7486C62.4945 79.7486 58.2796 83.4263 57.7083 82.8261C57.137 82.2259 61.6729 77.5719 62.4228 77.6096C63.1727 77.6473 65.6017 78.1351 65.6017 78.1351L69.8161 79.5232Z" fill="#E6BA9F"/>
<path id="Vector_16" d="M30.0593 38.246L26.9318 33.7483C26.9318 33.7483 21.9188 32.6839 19.9814 38.9766C17.8145 46.0151 14.4212 68.0045 15.8114 72.3858C17.2016 76.7672 26.9318 99.953 26.9318 99.953L31.1018 94.2937L23.9995 70.7431L28.1481 49.7485L30.0593 38.246Z" fill="#E6BA9F"/>
<path id="Vector_17" d="M26.6042 97.8978C26.6042 97.8978 24.2426 108.95 25.4756 109.345C26.1313 109.555 27.8483 102.897 27.8483 102.897L26.6042 97.8978Z" fill="#E6BA9F"/>
<path id="Vector_18" d="M29.6032 93.9285L31.102 94.2938C31.102 94.2938 33.0565 96.462 32.275 99.2C31.493 101.939 30.5125 102.055 30.5125 102.055C30.5125 102.055 31.102 106.646 30.4136 106.708C29.1528 106.821 28.4955 102.965 28.4955 102.965C28.4955 102.965 28.2098 109.606 27.3754 109.88C26.5404 110.153 26.6057 96.716 26.6057 96.716L29.6032 93.9285Z" fill="#E6BA9F"/>
</g>
<path id="Vector_19" d="M36.9751 34.8634C37.6945 34.887 38.4006 35.2096 38.9077 35.7463C39.4142 36.283 39.7159 37.0282 39.7325 37.7836C39.0002 36.65 38.0106 35.6963 36.9751 34.8634Z" fill="#E6BA9F"/>
<path id="Vector_20" d="M40.7568 37.6655C40.8221 36.4977 41.8149 35.4686 42.9269 35.4164C42.3005 36.1644 41.3837 36.9169 40.7568 37.6655Z" fill="#E6BA9F"/>
</g>
<g id="Group_5">
<g id="Group_6">
<path id="Vector_21" d="M41.3533 15.3901C41.3533 15.3901 39.9968 20.6055 40.3862 20.7415C40.7756 20.8775 41.4939 20.5212 41.4939 20.5212L41.3533 15.3901Z" fill="#E6BA9F"/>
<path id="Vector_22" d="M46.3961 20.1339C46.3961 21.032 45.7035 21.7598 44.8487 21.7598C43.9945 21.7598 43.3013 21.032 43.3013 20.1339C43.3013 19.2358 43.994 18.5081 44.8487 18.5081C45.7035 18.5081 46.3961 19.2364 46.3961 20.1339Z" fill="#E6BA9F"/>
<path id="Vector_23" d="M39.1012 20.1339C39.1012 21.032 38.4085 21.7598 37.5538 21.7598C36.6996 21.7598 36.0063 21.032 36.0063 20.1339C36.0063 19.2358 36.699 18.5081 37.5538 18.5081C38.4085 18.5081 39.1012 19.2364 39.1012 20.1339Z" fill="#E6BA9F"/>
<g id="Group_7">
<path id="Vector_24" d="M43.9112 15.8656C43.5501 15.8656 43.2495 16.182 43.2495 16.5608C43.2495 16.9401 43.5507 17.2566 43.9112 17.2566C44.2717 17.2566 44.5734 16.9401 44.5734 16.5608C44.5734 16.1814 44.2722 15.8656 43.9112 15.8656Z" fill="#36221B"/>
<path id="Vector_25" d="M38.4923 15.8656C38.1312 15.8656 37.8301 16.182 37.8301 16.5608C37.8301 16.9401 38.1312 17.2566 38.4923 17.2566C38.8533 17.2566 39.1545 16.9401 39.1545 16.5608C39.1539 16.1814 38.8528 15.8656 38.4923 15.8656Z" fill="#36221B"/>
</g>
<g id="Group_8">
<path id="Vector_26" d="M44.9671 14.5645C44.2225 14.057 43.0971 14.0458 42.4975 14.7994C42.3959 14.9276 42.5205 15.0945 42.6633 15.0254C43.3475 14.6944 44.0417 14.6089 44.7104 15.0265C44.9944 15.2035 45.2404 14.7511 44.9671 14.5645Z" fill="#36221B"/>
<path id="Vector_27" d="M37.2974 14.5645C38.042 14.057 39.1674 14.0458 39.767 14.7994C39.8686 14.9276 39.744 15.0945 39.6012 15.0254C38.9171 14.6944 38.2228 14.6089 37.5542 15.0265C37.2707 15.2035 37.0241 14.7511 37.2974 14.5645Z" fill="#36221B"/>
</g>
</g>
<path id="Vector_28" d="M39.7349 22.9344L43.0073 22.6399C43.0073 22.6399 42.9025 25.2897 41.676 25.3633C40.45 25.4375 39.7349 22.9344 39.7349 22.9344Z" fill="white"/>
</g>
</g>
</svg>
