<svg width="17" height="18" viewBox="0 0 17 18" fill="none" xmlns="http://www.w3.org/2000/svg">
<path id="Vector" fill-rule="evenodd" clip-rule="evenodd" d="M1.41667 0C1.2288 0 1.04864 0.0729393 0.915799 0.202772C0.782961 0.332605 0.708333 0.508696 0.708333 0.692308C0.708333 0.875919 0.782961 1.05201 0.915799 1.18184C1.04864 1.31168 1.2288 1.38462 1.41667 1.38462V16.6154H0.708333C0.520472 16.6154 0.340304 16.6883 0.207466 16.8182C0.0746277 16.948 0 17.1241 0 17.3077C0 17.4913 0.0746277 17.6674 0.207466 17.7972C0.340304 17.9271 0.520472 18 0.708333 18H16.2917C16.4795 18 16.6597 17.9271 16.7925 17.7972C16.9254 17.6674 17 17.4913 17 17.3077C17 17.1241 16.9254 16.948 16.7925 16.8182C16.6597 16.6883 16.4795 16.6154 16.2917 16.6154H15.5833V1.38462C15.7712 1.38462 15.9514 1.31168 16.0842 1.18184C16.217 1.05201 16.2917 0.875919 16.2917 0.692308C16.2917 0.508696 16.217 0.332605 16.0842 0.202772C15.9514 0.0729393 15.7712 0 15.5833 0H1.41667ZM5.66667 3.46154C5.47881 3.46154 5.29864 3.53448 5.1658 3.66431C5.03296 3.79414 4.95833 3.97023 4.95833 4.15385C4.95833 4.33746 5.03296 4.51355 5.1658 4.64338C5.29864 4.77321 5.47881 4.84615 5.66667 4.84615H7.08333C7.27119 4.84615 7.45136 4.77321 7.5842 4.64338C7.71704 4.51355 7.79167 4.33746 7.79167 4.15385C7.79167 3.97023 7.71704 3.79414 7.5842 3.66431C7.45136 3.53448 7.27119 3.46154 7.08333 3.46154H5.66667ZM4.95833 6.92308C4.95833 6.73947 5.03296 6.56337 5.1658 6.43354C5.29864 6.30371 5.47881 6.23077 5.66667 6.23077H7.08333C7.27119 6.23077 7.45136 6.30371 7.5842 6.43354C7.71704 6.56337 7.79167 6.73947 7.79167 6.92308C7.79167 7.10669 7.71704 7.28278 7.5842 7.41261C7.45136 7.54245 7.27119 7.61538 7.08333 7.61538H5.66667C5.47881 7.61538 5.29864 7.54245 5.1658 7.41261C5.03296 7.28278 4.95833 7.10669 4.95833 6.92308ZM5.66667 9C5.47881 9 5.29864 9.07294 5.1658 9.20277C5.03296 9.33261 4.95833 9.5087 4.95833 9.69231C4.95833 9.87592 5.03296 10.052 5.1658 10.1818C5.29864 10.3117 5.47881 10.3846 5.66667 10.3846H7.08333C7.27119 10.3846 7.45136 10.3117 7.5842 10.1818C7.71704 10.052 7.79167 9.87592 7.79167 9.69231C7.79167 9.5087 7.71704 9.33261 7.5842 9.20277C7.45136 9.07294 7.27119 9 7.08333 9H5.66667ZM9.20833 4.15385C9.20833 3.97023 9.28296 3.79414 9.4158 3.66431C9.54864 3.53448 9.7288 3.46154 9.91667 3.46154H11.3333C11.5212 3.46154 11.7014 3.53448 11.8342 3.66431C11.967 3.79414 12.0417 3.97023 12.0417 4.15385C12.0417 4.33746 11.967 4.51355 11.8342 4.64338C11.7014 4.77321 11.5212 4.84615 11.3333 4.84615H9.91667C9.7288 4.84615 9.54864 4.77321 9.4158 4.64338C9.28296 4.51355 9.20833 4.33746 9.20833 4.15385ZM9.91667 6.23077C9.7288 6.23077 9.54864 6.30371 9.4158 6.43354C9.28296 6.56337 9.20833 6.73947 9.20833 6.92308C9.20833 7.10669 9.28296 7.28278 9.4158 7.41261C9.54864 7.54245 9.7288 7.61538 9.91667 7.61538H11.3333C11.5212 7.61538 11.7014 7.54245 11.8342 7.41261C11.967 7.28278 12.0417 7.10669 12.0417 6.92308C12.0417 6.73947 11.967 6.56337 11.8342 6.43354C11.7014 6.30371 11.5212 6.23077 11.3333 6.23077H9.91667ZM9.20833 9.69231C9.20833 9.5087 9.28296 9.33261 9.4158 9.20277C9.54864 9.07294 9.7288 9 9.91667 9H11.3333C11.5212 9 11.7014 9.07294 11.8342 9.20277C11.967 9.33261 12.0417 9.5087 12.0417 9.69231C12.0417 9.87592 11.967 10.052 11.8342 10.1818C11.7014 10.3117 11.5212 10.3846 11.3333 10.3846H9.91667C9.7288 10.3846 9.54864 10.3117 9.4158 10.1818C9.28296 10.052 9.20833 9.87592 9.20833 9.69231ZM5.66667 15.9231V13.8462C5.66667 13.6625 5.74129 13.4865 5.87413 13.3566C6.00697 13.2268 6.18714 13.1538 6.375 13.1538H10.625C10.8129 13.1538 10.993 13.2268 11.1259 13.3566C11.2587 13.4865 11.3333 13.6625 11.3333 13.8462V15.9231C11.3333 16.1067 11.2587 16.2828 11.1259 16.4126C10.993 16.5424 10.8129 16.6154 10.625 16.6154H6.375C6.18714 16.6154 6.00697 16.5424 5.87413 16.4126C5.74129 16.2828 5.66667 16.1067 5.66667 15.9231Z" fill="black"/>
</svg>
