<svg width="20" height="20" viewBox="0 0 20 20" fill="none" xmlns="http://www.w3.org/2000/svg">
<path d="M6.80659 19H3.32306C2.03976 19 1 17.9499 1 16.6539V9.75228C1.00078 9.2495 1.10794 8.7527 1.31428 8.29514C1.52063 7.83759 1.82141 7.42985 2.19647 7.09923L8.47529 1.57605C8.8981 1.20459 9.4396 1 10 1C10.5604 1 11.1019 1.20459 11.5247 1.57605L17.8035 7.1003C18.1785 7.4308 18.4792 7.83837 18.6855 8.29573C18.8918 8.75309 18.9991 9.24968 19 9.75228V16.6539C19 17.2759 18.7554 17.8725 18.32 18.3125C17.8845 18.7524 17.2939 18.9997 16.678 19H13.4835V11.9626C13.4835 10.9917 12.7042 10.2035 11.7418 10.2035H8.54941C7.58694 10.2035 6.80765 10.9917 6.80765 11.9626L6.80659 19ZM6.80659 19H13.4846" stroke="black" stroke-width="1.5" stroke-linejoin="round"/>
</svg>
