<svg width="14" height="21" viewBox="0 0 14 21" fill="none" xmlns="http://www.w3.org/2000/svg">
<path d="M10.6366 2.09992C10.6366 2.65685 10.4154 3.19098 10.0216 3.58479C9.62776 3.9786 9.09364 4.19984 8.53671 4.19984C7.97977 4.19984 7.44565 3.9786 7.05184 3.58479C6.65803 3.19098 6.43679 2.65685 6.43679 2.09992C6.43679 1.54299 6.65803 1.00886 7.05184 0.615053C7.44565 0.221241 7.97977 0 8.53671 0C9.09364 0 9.62776 0.221241 10.0216 0.615053C10.4154 1.00886 10.6366 1.54299 10.6366 2.09992ZM7.71931 12.8079L10.4455 15.4979C10.5501 15.6011 10.6318 15.725 10.6855 15.8618L12.1391 19.5655C12.2409 19.8247 12.2355 20.1138 12.1242 20.3691C12.0128 20.6244 11.8046 20.825 11.5454 20.9268C11.2861 21.0285 10.9971 21.0232 10.7418 20.9118C10.4865 20.8005 10.2859 20.5923 10.1841 20.333L8.8118 16.8361L4.12477 12.211C4.01152 12.0994 3.92511 11.9634 3.87209 11.8134C3.81907 11.6635 3.80082 11.5034 3.81871 11.3453L4.19407 8.02747C3.28901 8.92729 2.59078 10.192 2.05583 11.8682C2.01583 12.0019 1.94961 12.1262 1.86103 12.2339C1.77245 12.3417 1.6633 12.4307 1.53993 12.4958C1.41657 12.5609 1.28147 12.6007 1.14254 12.613C1.0036 12.6253 0.863599 12.6098 0.73072 12.5674C0.597841 12.525 0.474744 12.4565 0.368618 12.366C0.262492 12.2755 0.175465 12.1648 0.112618 12.0402C0.0497715 11.9157 0.0123654 11.7799 0.00258463 11.6408C-0.00719615 11.5016 0.0108443 11.3619 0.0556526 11.2299C1.03737 8.15347 2.66743 5.8509 5.40258 4.79517L5.41465 4.79044C6.1113 4.53163 6.83577 4.55263 7.4815 4.88599C8.1015 5.20675 8.54301 5.76061 8.83227 6.38114L9.17246 7.11611C9.42865 7.67154 9.64389 8.13982 9.85126 8.55035C10.1416 9.12783 10.3752 9.51107 10.6062 9.77986C10.8204 10.0287 11.033 10.182 11.3044 10.288C11.5963 10.402 12.0053 10.4807 12.6368 10.4996C12.7755 10.5024 12.9123 10.5326 13.0393 10.5886C13.1663 10.6446 13.2809 10.7252 13.3766 10.8257C13.4722 10.9263 13.547 11.0448 13.5965 11.1744C13.6461 11.304 13.6694 11.4422 13.6653 11.5809C13.6611 11.7196 13.6295 11.8561 13.5723 11.9825C13.515 12.1089 13.4333 12.2227 13.3318 12.3173C13.2303 12.4119 13.111 12.4855 12.9809 12.5338C12.8508 12.582 12.7125 12.604 12.5738 12.5985C11.8152 12.5759 11.1417 12.4788 10.5406 12.2441C9.91951 12.0016 9.4297 11.6325 9.01286 11.1469C8.75037 10.8414 8.51938 10.4923 8.30414 10.1127L7.71931 12.8079Z" fill="black"/>
<path d="M3.81832 13.7649L5.55863 15.4343L4.75751 18.1364C4.69556 18.3455 4.57006 18.53 4.39843 18.6645L1.70318 20.7765C1.59459 20.8616 1.47032 20.9244 1.33746 20.9614C1.2046 20.9984 1.06575 21.0089 0.928843 20.9922C0.791931 20.9756 0.65964 20.9321 0.539521 20.8644C0.419402 20.7966 0.313809 20.7058 0.22877 20.5972C0.14373 20.4887 0.080911 20.3644 0.0438978 20.2315C0.00688464 20.0987 -0.00359761 19.9598 0.0130501 19.8229C0.0296979 19.686 0.0731495 19.5537 0.140924 19.4336C0.208698 19.3135 0.299468 19.2079 0.408051 19.1228L2.83976 17.2182L3.57211 14.7456L3.81832 13.7649Z" fill="black"/>
</svg>
