<svg width="21" height="21" viewBox="0 0 21 21" fill="none" xmlns="http://www.w3.org/2000/svg">
<path d="M1.0152 18.391C2.08883 19.9246 6.75581 21.1293 8.96009 18.258C11.3449 19.3982 15.2784 19.0447 18.4803 17.2584C18.9249 17.0104 19.3468 16.6969 19.6043 16.257C20.1867 15.264 20.2009 13.8863 19.1387 11.8539C17.3667 7.43098 14.181 3.5496 12.8945 1.9885C12.6304 1.74716 10.9449 1.4051 9.9178 1.07635C9.46365 0.936679 8.61899 0.842614 7.60807 2.17473C7.12826 2.80658 4.95154 4.35723 7.71353 5.4005C8.14108 5.50977 8.45652 5.71025 10.4081 5.35299C10.6627 5.30929 11.2974 5.35299 11.7449 6.13877L12.6788 7.47469C12.7666 7.59844 12.8221 7.74213 12.8404 7.89275C13.0038 9.31799 12.9981 11.1005 13.7924 12.0031C12.5658 11.1166 9.36103 10.0629 6.94584 13.0606M1 11.3931C2.08714 10.4239 3.47321 9.85582 4.92787 9.7834C6.38252 9.71097 7.81816 10.1385 8.99619 10.995" stroke="black" stroke-width="1.5" stroke-linecap="round" stroke-linejoin="round"/>
</svg>
