<svg width="18" height="18" viewBox="0 0 18 18" fill="none" xmlns="http://www.w3.org/2000/svg">
<path d="M17.8767 10.4502L17.8666 10.4099C15.9147 5.75806 12.2106 2.06119 7.55497 0.118416C7.35627 0.0370189 7.14312 -0.00319898 6.92842 0.00019865C6.71373 0.00359628 6.50196 0.0505388 6.30593 0.138183C6.10991 0.225827 5.93372 0.352348 5.78803 0.510084C5.64235 0.667819 5.53019 0.853486 5.45836 1.05584L0.0959055 15.8631C0.00855391 16.1033 -0.0197083 16.361 0.0135063 16.6144C0.0467208 16.8678 0.140436 17.1095 0.286737 17.319C0.433037 17.5286 0.627625 17.6999 0.854063 17.8184C1.0805 17.9369 1.33214 17.9992 1.58772 18C1.77286 17.9994 1.95668 17.9687 2.13203 17.9093L16.9493 12.5468C17.1517 12.4726 17.3372 12.3585 17.4948 12.2113C17.6523 12.0642 17.7787 11.8869 17.8666 11.69C17.9528 11.495 17.9982 11.2844 17.9999 11.0712C18.0016 10.858 17.9597 10.6466 17.8767 10.4502ZM10.841 13.454C10.901 13.5162 10.9687 13.5704 11.0426 13.6153L1.78931 16.9648C1.68543 17.0005 1.5736 17.0061 1.46663 16.9812C1.35967 16.9562 1.2619 16.9016 1.18453 16.8237C1.10246 16.7469 1.04519 16.6473 1.02005 16.5378C0.994912 16.4283 1.00304 16.3137 1.04341 16.2088L3.45248 9.55614C3.49738 9.62998 3.55158 9.69773 3.61376 9.75774C3.95595 10.0999 4.42005 10.2922 4.90397 10.2922C5.3879 10.2922 5.852 10.0999 6.19419 9.75774C6.53638 9.41555 6.72862 8.95145 6.72862 8.46752C6.72862 7.9836 6.53638 7.51949 6.19419 7.17731C5.97434 6.95628 5.70069 6.79634 5.40021 6.71327C5.09973 6.63019 4.78279 6.62685 4.48062 6.70356L5.57932 3.69977C8.31549 4.94895 10.6832 6.88272 12.4538 9.31423C11.8464 9.34605 11.2721 9.60088 10.841 10.0299C10.6159 10.2546 10.4373 10.5215 10.3155 10.8152C10.1937 11.109 10.131 11.4239 10.131 11.742C10.131 12.06 10.1937 12.3749 10.3155 12.6687C10.4373 12.9624 10.6159 13.2293 10.841 13.454ZM16.9393 11.2868C16.8735 11.4304 16.7541 11.5426 16.6066 11.5993L15.2761 12.0731C15.1652 11.8412 15.0543 11.6195 14.9435 11.3977C14.8225 11.1558 14.6915 10.9139 14.5604 10.6821C14.248 10.1277 13.9052 9.59344 13.5525 9.08945C11.6236 6.32756 8.9883 4.13441 5.92204 2.73917L6.40587 1.39855C6.43193 1.32441 6.47318 1.25653 6.52699 1.19925C6.5808 1.14197 6.64597 1.09656 6.71834 1.06592C6.78994 1.0293 6.86983 1.01193 6.95018 1.01552C7.03633 1.01874 7.12141 1.03576 7.20217 1.06592C11.6089 2.90854 15.1113 6.41454 16.9493 10.8232V10.8433C16.9777 10.9141 16.9914 10.9899 16.9897 11.0661C16.988 11.1423 16.9708 11.2174 16.9393 11.2868Z" fill="black"/>
<path d="M4.80051 14.6102C5.39895 14.6102 5.88409 14.125 5.88409 13.5266C5.88409 12.9281 5.39895 12.443 4.80051 12.443C4.20206 12.443 3.71693 12.9281 3.71693 13.5266C3.71693 14.125 4.20206 14.6102 4.80051 14.6102Z" fill="black"/>
</svg>
