<svg width="16" height="20" viewBox="0 0 16 20" fill="none" xmlns="http://www.w3.org/2000/svg">
<path d="M7.9071 11.125V11.1363M5.6571 14.5V14.5113M10.1571 14.5V14.5113M2.8446 5.5H12.9696M2.8446 5.5L3.1596 2.971C3.22764 2.42654 3.49229 1.9257 3.90376 1.56272C4.31523 1.19973 4.84516 0.999607 5.39385 1H10.4204C10.9689 0.999881 11.4985 1.20013 11.9097 1.56309C12.321 1.92605 12.5855 2.42673 12.6535 2.971L12.9696 5.5M2.8446 5.5L1.03065 16.3799C0.976891 16.7022 0.994001 17.0324 1.08079 17.3475C1.16758 17.6626 1.32197 17.955 1.53322 18.2044C1.74447 18.4537 2.0075 18.6541 2.30403 18.7915C2.60056 18.9289 2.92346 19 3.25028 19H12.563C12.8898 19 13.2127 18.9289 13.5093 18.7915C13.8058 18.6541 14.0688 18.4537 14.2801 18.2044C14.4913 17.955 14.6457 17.6626 14.7325 17.3475C14.8193 17.0324 14.8364 16.7022 14.7827 16.3799L12.9696 5.5" stroke="black" stroke-width="2" stroke-linecap="round" stroke-linejoin="round"/>
</svg>
