<svg width="15" height="20" viewBox="0 0 15 20" fill="none" xmlns="http://www.w3.org/2000/svg">
<path d="M1 6.4H13.6M7.3 3.7V1.9C7.3 1.66131 7.39482 1.43239 7.5636 1.2636C7.73239 1.09482 7.96131 1 8.2 1H9.55M2.8691 7.36435C2.86026 7.24105 2.87692 7.11725 2.91803 7.00067C2.95914 6.8841 3.02383 6.77724 3.10806 6.68676C3.19229 6.59628 3.29426 6.52412 3.4076 6.47479C3.52094 6.42545 3.64323 6.39999 3.76685 6.4H10.8336C10.9572 6.4 11.0795 6.42544 11.1928 6.47475C11.3061 6.52406 11.408 6.59618 11.4923 6.6866C11.5765 6.77703 11.6412 6.88384 11.6823 7.00036C11.7235 7.11689 11.7402 7.24064 11.7314 7.3639L10.9601 18.1639C10.9439 18.391 10.8423 18.6035 10.6758 18.7586C10.5092 18.9138 10.29 19 10.0624 19H4.53815C4.31051 19 4.09133 18.9138 3.92475 18.7586C3.75817 18.6035 3.65656 18.391 3.6404 18.1639L2.8691 7.36435ZM3.1249 4.45195C3.15993 4.24188 3.26833 4.05104 3.43081 3.91336C3.59329 3.77568 3.79933 3.70008 4.0123 3.7H10.5877C10.8007 3.69997 11.0069 3.77553 11.1695 3.91322C11.332 4.05091 11.4405 4.2418 11.4755 4.45195L11.8 6.4H2.8L3.1249 4.45195Z" stroke="black" stroke-width="2" stroke-linecap="round"/>
</svg>
